<svg width="920" height="991" viewBox="0 4 850 950" fill="none" xmlns="http://www.w3.org/2000/svg">
<path d="M180 444.359C539.387 417.982 265.189 40.4561 724.635 6H940V988H658.589H549.471C615.748 949.618 627.227 914.862 606.586 878.665C562.324 802.998 377.311 720.133 260.92 583.808C225.685 542.656 196.766 496.608 180 444.359Z" fill="#F7C935"/>
<path d="M180 444.359C539.387 417.982 265.189 40.4561 724.635 6H940V988H658.589H549.471M180 444.359C279.547 752.55 798.338 846.347 549.471 988M180 444.359C278.589 751.593 797.38 844.433 549.471 988" stroke="#F7C935" stroke-width="4"/>
<g filter="url(#filter0_d_0_1)">
<path d="M706.959 5C261.802 50.6473 531.94 425.336 180 437.699C588.06 491.905 292.24 14.5099 940 86.7848V5H706.959Z" fill="#FAE08A"/>
</g>
<g clip-path="url(#clip0_0_1)">
<path d="M343.568 476.357L334.115 485.472L332.175 483.417L339.329 476.518C340.021 475.851 340.04 474.75 339.373 474.058L332.986 467.435C332.663 467.101 332.227 466.911 331.763 466.904C331.303 466.894 330.858 467.07 330.524 467.39L324.886 472.825L329.782 477.895C330.182 478.314 330.15 479.004 329.731 479.412C329.437 479.693 329.006 479.782 328.64 479.663L321.538 472.133L330.831 463.165C331.395 462.627 332.3 462.657 332.841 463.218L343.582 474.353C344.123 474.912 344.123 475.816 343.568 476.357ZM311.476 503.38C311.146 503.701 310.7 503.876 310.24 503.865C309.777 503.856 309.338 503.666 309.016 503.337L302.629 496.711C301.963 496.019 301.98 494.928 302.672 494.255L305.61 497.307C306.014 497.726 306.679 497.738 307.098 497.337C307.517 496.937 307.526 496.274 307.12 495.853L304.187 492.797L304.969 492.041L307.906 495.093C308.308 495.51 308.972 495.524 309.394 495.124C309.812 494.716 309.822 494.056 309.416 493.634L306.48 490.587L307.263 489.831L310.198 492.88C310.603 493.296 311.27 493.311 311.686 492.91C312.108 492.507 312.115 491.846 311.712 491.424L308.775 488.375L309.557 487.619L312.494 490.665C312.897 491.087 313.562 491.1 313.982 490.695C314.138 490.545 314.239 490.356 314.28 490.162L308.842 484.389L298.435 494.416C297.878 494.957 297.878 495.864 298.416 496.422L309.158 507.563C309.697 508.123 310.605 508.154 311.162 507.61L321.414 497.729L319.476 495.674L311.476 503.38ZM330.245 476.005C328.89 474.605 328.93 472.362 330.334 471.012C331.731 469.659 333.972 469.699 335.323 471.1C336.678 472.503 336.63 474.746 335.233 476.093C333.839 477.446 331.598 477.406 330.245 476.005ZM331.76 474.543C332.306 475.102 333.205 475.118 333.774 474.576C334.335 474.032 334.351 473.13 333.806 472.567C333.262 472.004 332.359 471.985 331.797 472.529C331.234 473.073 331.216 473.975 331.76 474.543ZM337.465 492.629L328.221 501.339L307.619 479.48L316.866 470.77L337.465 492.629ZM318.417 476.865C318.421 476.656 318.346 476.45 318.198 476.296L317.191 475.232C316.892 474.914 316.389 474.898 316.068 475.198L315.523 475.71C315.202 476.009 315.189 476.517 315.488 476.833L316.489 477.905C316.638 478.059 316.836 478.151 317.049 478.153C317.259 478.162 318.164 477.423 318.164 477.423C318.318 477.277 318.408 477.077 318.417 476.865ZM332.728 492.877C333.051 492.575 333.063 492.071 332.76 491.751L321.186 479.473C321.041 479.316 320.843 479.226 320.629 479.222C320.421 479.215 320.214 479.294 320.062 479.437L319.515 479.953C319.194 480.253 319.18 480.755 319.481 481.076L331.054 493.356C331.205 493.509 331.399 493.602 331.615 493.608C331.827 493.615 332.032 493.536 332.187 493.39L332.728 492.877ZM306.683 478.484L315.928 469.77L313.54 467.238L304.297 475.952L306.683 478.484ZM300.176 471.575C299.673 471.041 299.406 470.338 299.426 469.606C299.449 468.877 299.758 468.189 300.291 467.689L305.53 462.753C306.632 461.706 308.373 461.759 309.416 462.865L312.664 466.309L303.419 475.02L300.176 471.575ZM301.825 469.679L303.522 471.483L309.126 466.204L307.424 464.402L301.825 469.679ZM342.155 505.071C342.313 505.573 342.17 506.12 341.789 506.48C341.407 506.841 340.852 506.947 340.364 506.76L329.392 502.574L338.626 493.86L342.155 505.071ZM339.223 501.309L337.835 496.901L332.467 501.964L336.787 503.612L339.223 501.309Z" fill="black" fill-opacity="0.8"/>
</g>
<path d="M560.368 286.808C548.014 286.808 538 276.777 538 264.404C538 252.031 548.014 242 560.368 242C572.722 242 582.736 252.031 582.736 264.404C582.736 276.777 572.722 286.808 560.368 286.808Z" fill="#F2F2F2"/>
<g clip-path="url(#clip1_0_1)">
<path d="M487.123 402.148C489.255 402.148 490.993 400.172 491 398.033C491.007 395.892 489.279 393.903 487.134 393.895L459.632 394.331C459.627 394.331 459.625 394.331 459.619 394.331C457.83 394.331 456.272 395.036 455.85 396.776L448.997 424.519L440.122 410.915C438.952 409.122 436.547 408.617 434.758 409.785C432.965 410.955 432.46 413.358 433.63 415.151L447.404 436.268C448.126 437.378 449.354 438.028 450.651 438.028C450.869 438.028 451.087 438.138 451.307 438.099C452.832 437.835 454.052 436.821 454.42 435.317L462.467 402.38L487.11 402.148C487.118 402.148 487.118 402.148 487.123 402.148Z" fill="black" fill-opacity="0.8"/>
<path d="M486.015 404.245H478.583L463.13 422.636V429.601H478.578V435.321H486.015V429.601H489.828V423.023H486.015V404.245ZM478.578 423.023H470.423L478.578 413.431V423.023Z" fill="black" fill-opacity="0.8"/>
</g>
<path d="M444.839 497L431.419 520.281L418 543.562H444.839H471.678L458.259 520.281L444.839 497Z" fill="#F2F2F2"/>
<path d="M549 702.345C548.674 712.311 546.216 720.299 541.627 726.308C537.038 732.319 531.585 735.324 525.27 735.325C520.127 735.325 515.618 732.384 511.746 726.501C507.872 720.619 505.935 711.57 505.935 699.356C505.935 696.656 506 694.084 506.131 691.641C506.26 689.199 506.423 686.884 506.619 684.698L510.037 652.972H487.479C483.573 693.088 480.367 716.955 477.86 724.573C475.353 732.191 471.106 736 465.117 736C462.413 735.934 459.834 734.867 457.89 733.011C456.763 732.025 455.872 730.804 455.281 729.436C454.69 728.069 454.414 726.589 454.472 725.103C454.472 722.147 456.832 718.016 461.552 712.712C466.272 707.408 468.892 702.57 469.413 698.199L475.272 652.972H465.8C463.13 652.988 460.502 653.632 458.135 654.852C455.956 655.841 454.059 657.348 452.617 659.24L448.418 665.412H445C448.189 655.64 452.112 648.296 456.767 643.377C461.421 638.459 466.776 636 472.831 636H547.438V652.972H522.243C521.462 660.687 520.86 668.401 520.437 676.116C520.013 683.83 519.801 691.577 519.802 699.356C519.802 704.628 521.039 708.903 523.513 712.181C525.986 715.46 529.079 717.099 532.79 717.099C535.068 717.099 537.46 716.183 539.967 714.351C541.158 713.526 542.154 712.457 542.887 711.217C543.62 709.977 544.073 708.596 544.215 707.167C544.411 705.753 544.557 704.644 544.655 703.84C544.752 703.037 544.801 702.539 544.801 702.345H549Z" fill="black"/>
<g filter="url(#filter1_d_0_1)">
<path d="M545.158 985.996C780.269 844.066 281.456 762.201 178 443C270.427 675.708 801.301 834.084 666.081 987.641C665.892 987.856 665.6 988 665.314 988H545.466C544.447 988 544.285 986.523 545.158 985.996Z" fill="#FAE08A"/>
</g>
<g clip-path="url(#clip2_0_1)">
<path opacity="0.1" d="M217.159 920.08C151.588 920.08 98.4326 913.603 98.4326 905.612C98.4326 897.621 151.588 891.143 217.159 891.143C282.729 891.143 335.885 897.621 335.885 905.612C335.885 913.603 282.729 920.08 217.159 920.08Z" fill="black"/>
<path d="M217.658 916.089C155.669 916.089 105.417 862.48 105.417 796.349C105.417 730.219 155.669 676.61 217.658 676.61C279.647 676.61 329.899 730.219 329.899 796.349C329.899 862.48 279.647 916.089 217.658 916.089Z" fill="#A8A8A8"/>
<path d="M182.239 867.195H252.078V931.056H182.239V867.195Z" fill="#F7C935"/>
<path d="M90.9499 882.662L94.9407 904.614L69.0005 908.606L52.0396 898.627L53.0373 882.662H90.9499Z" fill="#575A89"/>
<path d="M221.649 470.558C221.649 470.558 223.644 493.508 228.633 494.506C233.621 495.504 217.658 535.417 217.658 535.417H193.713L174.757 530.428L183.736 508.476C183.736 508.476 195.708 492.51 186.729 479.539C177.75 466.567 221.649 470.558 221.649 470.558Z" fill="#FF977E" fill-opacity="0.94"/>
<path d="M271.533 646.176C271.533 646.176 297.474 696.068 276.522 706.046C255.57 716.024 250.582 715.026 250.582 718.02C250.582 721.013 254.573 720.015 252.577 725.005C250.582 729.994 256.568 749.95 250.582 761.924C244.596 773.898 246.591 782.879 246.591 782.879C246.591 782.879 246.591 783.877 244.596 787.868C242.6 791.859 241.602 794.853 242.6 796.848C243.598 798.844 249.584 811.816 243.598 814.809C237.612 817.803 206.683 819.798 203.69 814.809C200.697 809.82 206.683 806.827 203.69 803.833C200.697 800.84 198.701 799.842 200.697 797.846C202.692 795.851 204.688 770.905 204.688 770.905C204.688 770.905 199.699 741.968 201.695 737.976C203.69 733.985 206.683 729.994 204.688 727C202.692 724.007 200.697 725.005 199.699 721.013C198.701 717.022 196.706 708.042 196.706 708.042L185.731 707.044L159.791 712.033C159.791 712.033 130.858 743.963 98.9315 753.942C98.9315 753.942 89.9522 762.922 86.9591 762.922C83.966 762.922 83.966 762.922 84.9637 764.918C85.9614 766.913 88.9545 766.913 86.9591 768.909C84.9637 770.905 81.9706 767.911 83.966 770.905C85.9614 773.898 87.9568 773.898 85.9614 775.894C83.966 777.89 86.9591 788.866 86.9591 789.864C86.9591 790.861 95.9384 884.657 92.9453 886.653C89.9522 888.649 48.0489 894.636 45.0558 886.653C42.0627 878.67 47.0512 868.692 47.0512 868.692C47.0512 868.692 32.0857 748.953 36.0765 740.97C40.0673 732.987 54.0351 697.065 128.862 674.115C128.862 674.115 149.814 670.124 149.814 667.131C149.814 664.137 151.81 645.178 155.8 644.18C159.791 643.183 182.738 642.185 182.738 642.185L211.672 651.165L251.579 644.18L271.533 646.176Z" fill="#2F2E41"/>
<path d="M236.614 813.811L241.602 831.772C241.602 831.772 245.593 860.71 240.605 867.694C236.686 873.181 229.69 879.898 216.715 881.077C213.079 881.411 209.438 880.493 206.394 878.476C203.35 876.459 201.086 873.463 199.975 869.984C199.827 869.567 199.734 869.133 199.699 868.692C199.699 866.696 202.692 842.749 202.692 842.749L207.681 817.803L208.678 810.818L236.614 813.811Z" fill="#2F2E41"/>
<path d="M90.9499 899.625C90.9499 899.625 95.9384 894.636 96.9361 899.625C97.9338 904.614 101.925 925.568 94.9407 926.566C87.9568 927.564 21.111 937.542 14.1271 933.551C7.14324 929.56 -5.82684 923.573 2.15475 920.579C10.1363 917.586 33.0834 908.605 33.0834 908.605C33.0834 908.605 46.0535 891.642 48.0489 890.644C50.0443 889.646 61.019 891.642 66.0075 895.633C70.996 899.625 90.9499 899.625 90.9499 899.625Z" fill="#2F2E41"/>
<path d="M197.704 491.513C180.622 491.513 166.775 477.664 166.775 460.58C166.775 443.496 180.622 429.647 197.704 429.647C214.785 429.647 228.632 443.496 228.632 460.58C228.632 477.664 214.785 491.513 197.704 491.513Z" fill="#FFBB9A"/>
<path d="M200.697 530.428L212.669 517.456L225.94 491.513C225.94 491.513 235.616 488.519 237.612 493.508C239.607 498.497 275.524 514.463 275.524 514.463C275.524 514.463 266.545 598.28 270.536 606.263C274.527 614.246 281.51 646.176 275.524 649.17C269.538 652.163 241.602 649.17 232.623 653.161C223.644 657.152 197.704 657.152 190.72 652.163C183.736 647.174 181.74 643.183 174.757 646.176C168.811 648.725 154.912 561.599 150.91 535.636C150.573 533.455 150.853 531.223 151.718 529.194C152.584 527.164 154 525.417 155.807 524.151C164.759 517.871 180.882 507.048 183.736 508.476C187.727 510.471 200.697 530.428 200.697 530.428Z" fill="#575A89"/>
<path d="M157.796 526.437C155.453 527.022 153.346 528.311 151.756 530.13C150.167 531.948 149.172 534.21 148.906 536.61L140.835 609.256C140.835 609.256 160.789 652.163 170.766 623.226C180.743 594.289 157.796 526.437 157.796 526.437Z" fill="#575A89"/>
<path d="M159.791 616.241L137.842 610.254C137.842 610.254 133.851 638.194 129.86 638.194C125.869 638.194 143.828 654.159 152.807 652.163C161.787 650.167 174.757 643.183 175.754 638.194C176.752 633.204 166.775 612.25 166.775 612.25L159.791 616.241Z" fill="#575A89"/>
<path d="M221.052 473.924C218.949 469.286 219.314 463.876 217.575 459.09C216.644 456.527 215.133 454.214 213.16 452.331C211.188 450.449 208.807 449.048 206.203 448.239C203.599 447.429 200.844 447.232 198.152 447.664C195.46 448.096 192.904 449.144 190.684 450.727C188.447 452.322 186.205 454.563 183.475 454.258C180.535 453.931 177.913 450.65 175.21 451.852C172.214 453.185 173.023 458.555 169.988 459.795C168.39 460.448 166.502 459.443 165.581 457.983C164.775 456.45 164.336 454.75 164.298 453.018C163.879 448.762 163.501 444.258 165.346 440.4C166.122 439.093 166.799 437.729 167.37 436.319C167.693 435.003 167.822 433.647 167.755 432.294C167.771 427.291 168.137 422.074 170.654 417.751C173.447 412.954 178.61 409.887 183.996 408.549C189.382 407.21 195.026 407.416 200.556 407.884C209.698 408.658 219.232 410.317 226.435 416.001C227.414 416.716 228.256 417.602 228.922 418.615C229.555 419.819 230.001 421.111 230.248 422.448C231.805 428.791 234.14 434.916 237.199 440.686C238.671 443.132 239.874 445.73 240.786 448.434C241.55 451.183 241.499 454.315 239.9 456.677C238.598 458.6 236.517 459.625 234.882 461.198C233.262 462.756 232.504 465.752 230.709 466.932C229.142 467.962 227.265 467.235 225.668 468.327C223.616 469.728 223.468 472.801 221.052 473.924Z" fill="#2F2E41"/>
<path d="M195.708 545.395L192.715 539.408C192.715 539.408 148.817 552.38 139.837 564.354C139.837 564.354 117.888 550.385 105.916 552.38L93.9432 554.376L130.858 587.304L177.75 583.313L195.708 545.395Z" fill="#F2F2F2"/>
<path d="M197.704 539.408L238.609 596.285L179.745 625.222C179.745 625.222 174.242 628.215 170.01 625.222L130.858 607.261L93.943 554.376L130.858 573.335C130.858 573.335 134.849 565.352 142.83 569.343L197.704 539.408Z" fill="#F7C935"/>
<path d="M134.849 640.189L126.867 619.235C126.867 619.235 108.908 596.285 118.885 585.309C128.862 574.332 139.837 617.239 139.837 617.239L134.849 640.189Z" fill="#FFBB9A"/>
<path d="M226.939 636.845L209.523 622.724C209.523 622.724 182.475 611.883 185.599 597.382C188.724 582.881 219.741 614.49 219.741 614.49L226.939 636.845Z" fill="#FFBB9A"/>
<path opacity="0.1" d="M270.037 535.916H271.035C271.035 535.916 286.499 517.456 289.492 542.402C292.485 567.348 302.462 650.167 276.522 653.161C250.582 656.154 232.124 640.688 232.124 640.688C232.124 640.688 213.168 611.751 220.152 611.751C223.531 611.751 232.721 610.233 241.104 610.753C250.046 611.308 258.081 613.827 257.566 611.252C256.568 606.263 242.101 542.901 270.037 535.916Z" fill="black"/>
<path d="M271.533 516.458L275.524 514.463C275.524 514.463 291.487 517.456 294.48 542.402C297.474 567.348 307.451 650.168 281.51 653.161C255.57 656.154 220.651 649.17 220.651 649.17C220.651 649.17 213.667 611.252 220.651 611.252C227.635 611.252 263.552 616.241 262.554 611.252C261.556 606.263 243.598 523.443 271.533 516.458Z" fill="#575A89"/>
<path d="M149.315 628.715L138.314 611.85L131.357 639.691L149.315 647.673V628.715Z" fill="#575A89"/>
</g>
<path d="M797.005 840.719C797.3 842.403 798.769 843.628 800.479 843.628H805.056C807.005 843.628 808.585 842.048 808.585 840.099V815.529C808.585 813.58 807.005 812 805.056 812H730.944C728.995 812 727.415 813.58 727.415 815.529V824.417C727.415 825.082 727.603 825.733 727.957 826.296L741.429 847.711L754.005 867.7L741.429 887.689L727.957 909.103C727.603 909.666 727.415 910.317 727.415 910.982V918.471C727.415 920.42 728.995 922 730.944 922H805.056C807.005 922 808.585 920.42 808.585 918.471V883.824C808.585 881.875 807.005 880.295 805.056 880.295H800.479C798.769 880.295 797.3 881.521 797.005 883.205C794.328 898.489 783.114 898.489 783.114 898.489H761.822L783.043 869.488C783.843 868.395 783.946 866.94 783.309 865.744L761.823 825.435H783.114C783.114 825.435 794.328 825.435 797.005 840.719Z" fill="black" fill-opacity="0.8"/>
<path d="M707.538 593H664.462C657.039 593 651 599.039 651 606.462V649.539C651 656.961 657.039 663 664.462 663H707.539C714.961 663 721 656.961 721 649.538V606.462C721 599.039 714.961 593 707.538 593ZM683.308 657.615H664.462C660.008 657.615 656.385 653.992 656.385 649.538V630.692H683.308V657.615ZM683.308 625.308H656.385V606.462C656.385 602.008 660.008 598.385 664.462 598.385H683.308V625.308ZM715.615 649.538C715.615 653.992 711.992 657.615 707.538 657.615H688.692V630.692H715.615V649.538ZM715.615 625.308H688.692V598.385H707.538C711.992 598.385 715.615 602.008 715.615 606.462V625.308Z" fill="black" fill-opacity="0.8"/>
<path d="M709.333 636.077H694.974V641.462H709.333V636.077Z" fill="black" fill-opacity="0.8"/>
<path d="M709.333 609.154H694.974V614.539H709.333V609.154Z" fill="black" fill-opacity="0.8"/>
<path d="M709.333 646.846H694.974V652.231H709.333V646.846Z" fill="black" fill-opacity="0.8"/>
<path d="M677.134 640.673L673.327 636.866L669.846 640.346L666.365 636.866L662.558 640.673L666.039 644.154L662.558 647.635L666.365 651.442L669.846 647.961L673.327 651.442L677.134 647.635L673.654 644.154L677.134 640.673Z" fill="black" fill-opacity="0.8"/>
<path d="M672.538 609.589V604.667H667.154V609.589H662.231V614.974H667.154V619.897H672.538V614.974H677.461V609.589H672.538Z" fill="black" fill-opacity="0.8"/>
<path d="M598 382H651.021V435.106H598V382Z" fill="#F2F2F2"/>
<path d="M773.252 254.449H683.495V163.776C683.495 162.242 682.266 161 680.748 161C679.229 161 678 162.242 678 163.776V257.224C678 258.758 679.229 260 680.748 260H773.252C774.771 260 776 258.758 776 257.224C776 255.692 774.769 254.449 773.252 254.449Z" fill="#010002" fill-opacity="0.8"/>
<path d="M700.179 228.388L692.165 243.192C691.436 244.537 691.925 246.223 693.257 246.96C693.676 247.191 694.127 247.3 694.572 247.3C695.545 247.3 696.486 246.778 696.985 245.855L704.999 231.051C706.303 228.642 707.959 226.727 709.734 225.492C710.018 225.542 710.305 225.581 710.602 225.581C712.053 225.581 713.352 224.958 714.275 223.97C715.592 224.014 716.792 224.517 717.845 225.507C720.371 227.88 723.432 228.735 726.467 227.911C730.959 226.693 734.732 222.041 736.818 215.15L739.465 206.418C740.409 203.307 741.383 201.322 742.193 200.067C742.764 200.293 743.382 200.428 744.032 200.428C744.356 200.428 744.671 200.389 744.979 200.332L749.333 209.627C749.982 211.011 751.619 211.603 752.993 210.948C754.365 210.291 754.951 208.637 754.301 207.251L749.492 196.988C749.34 196.662 749.176 196.398 749.014 196.118C749.057 195.854 749.095 195.589 749.095 195.313C749.095 192.489 746.829 190.199 744.032 190.199C741.255 190.199 739.004 192.46 738.974 195.258C737.137 197.312 735.509 200.509 734.21 204.791L731.563 213.524C729.797 219.351 727.035 222.004 725.038 222.547C723.853 222.872 722.721 222.508 721.584 221.438C719.77 219.734 717.588 218.738 715.266 218.481C714.498 216.642 712.698 215.35 710.598 215.35C707.803 215.35 705.535 217.639 705.535 220.465C705.535 220.863 705.59 221.244 705.675 221.616C703.575 223.307 701.69 225.598 700.179 228.388Z" fill="#010002" fill-opacity="0.8"/>
<g clip-path="url(#clip3_0_1)">
<path d="M817.686 533.177L821.111 531.369L793.274 478.447C796.98 474.322 799.272 468.867 799.272 462.898C799.272 451.973 791.423 442.787 781.584 440.272V434.905C781.592 432.194 779.394 430 776.687 430H775.969C773.258 430 771.064 432.194 771.064 434.905V440.163C760.533 442.506 752.746 451.806 752.746 462.898C752.746 468.583 754.728 473.797 758.121 477.846L730.863 531.479L734.303 533.228L730.481 540.742C730.102 541.489 730.032 542.352 730.291 543.147C730.55 543.952 731.118 544.604 731.862 544.991L733.17 545.661C733.917 546.04 734.784 546.102 735.582 545.847C736.377 545.592 737.04 545.02 737.419 544.265L741.231 536.751L744.714 538.519L765.449 497.695V500.909H787.214V499.75L807.49 538.625L810.864 536.81L814.614 544.247C814.993 545.002 815.645 545.563 816.45 545.836C817.248 546.091 818.123 546.029 818.87 545.643L820.138 544.994C821.69 544.196 822.306 542.305 821.519 540.753L817.686 533.177ZM776.166 486.169C773.003 486.169 770.434 483.603 770.434 480.437C770.434 477.274 773.003 474.705 776.166 474.705C779.329 474.705 781.894 477.274 781.894 480.437C781.894 483.603 779.329 486.169 776.166 486.169ZM787.218 473.889V465.183C787.218 462.428 784.984 460.191 782.226 460.191H770.445C767.69 460.191 765.452 462.424 765.452 465.183V474.337C762.643 471.498 760.409 467.42 760.409 462.898C760.409 454.335 767.369 447.375 775.929 447.375C784.492 447.375 791.62 454.335 791.62 462.898C791.62 467.187 790.031 471.075 787.218 473.889Z" fill="black" fill-opacity="0.8"/>
</g>
<defs>
<filter id="filter0_d_0_1" x="179" y="0" width="780" height="457" filterUnits="userSpaceOnUse" color-interpolation-filters="sRGB">
<feFlood flood-opacity="0" result="BackgroundImageFix"/>
<feColorMatrix in="SourceAlpha" type="matrix" values="0 0 0 0 0 0 0 0 0 0 0 0 0 0 0 0 0 0 127 0" result="hardAlpha"/>
<feOffset dx="9" dy="5"/>
<feGaussianBlur stdDeviation="5"/>
<feComposite in2="hardAlpha" operator="out"/>
<feColorMatrix type="matrix" values="0 0 0 0 0 0 0 0 0 0 0 0 0 0 0 0 0 0 0.25 0"/>
<feBlend mode="normal" in2="BackgroundImageFix" result="effect1_dropShadow_0_1"/>
<feBlend mode="normal" in="SourceGraphic" in2="effect1_dropShadow_0_1" result="shape"/>
</filter>
<filter id="filter1_d_0_1" x="177" y="426" width="530" height="565" filterUnits="userSpaceOnUse" color-interpolation-filters="sRGB">
<feFlood flood-opacity="0" result="BackgroundImageFix"/>
<feColorMatrix in="SourceAlpha" type="matrix" values="0 0 0 0 0 0 0 0 0 0 0 0 0 0 0 0 0 0 127 0" result="hardAlpha"/>
<feOffset dx="9" dy="-7"/>
<feGaussianBlur stdDeviation="5"/>
<feComposite in2="hardAlpha" operator="out"/>
<feColorMatrix type="matrix" values="0 0 0 0 0 0 0 0 0 0 0 0 0 0 0 0 0 0 0.25 0"/>
<feBlend mode="normal" in2="BackgroundImageFix" result="effect1_dropShadow_0_1"/>
<feBlend mode="normal" in="SourceGraphic" in2="effect1_dropShadow_0_1" result="shape"/>
</filter>
<clipPath id="clip0_0_1">
<rect width="46" height="46" fill="white" transform="translate(298 462)"/>
</clipPath>
<clipPath id="clip1_0_1">
<rect width="58" height="58" fill="white" transform="translate(433 387)"/>
</clipPath>
<clipPath id="clip2_0_1">
<rect width="336" height="570" fill="white" transform="matrix(-1 0 0 1 336 387)"/>
</clipPath>
<clipPath id="clip3_0_1">
<rect width="116" height="116" fill="white" transform="translate(718 430)"/>
</clipPath>
</defs>
</svg>
