<svg width="190" height="120" viewBox="0 0 190 120" fill="none" xmlns="http://www.w3.org/2000/svg">
<path d="M0 0H190V120H0V0Z" fill="white"/>
<path d="M27.7 60C27.7 58.6267 28.0067 57.4 28.62 56.32C29.2467 55.2267 30.0933 54.38 31.16 53.78C32.24 53.1667 33.4467 52.86 34.78 52.86C36.34 52.86 37.7067 53.26 38.88 54.06C40.0533 54.86 40.8733 55.9667 41.34 57.38H38.12C37.8 56.7133 37.3467 56.2133 36.76 55.88C36.1867 55.5467 35.52 55.38 34.76 55.38C33.9467 55.38 33.22 55.5733 32.58 55.96C31.9533 56.3333 31.46 56.8667 31.1 57.56C30.7533 58.2533 30.58 59.0667 30.58 60C30.58 60.92 30.7533 61.7333 31.1 62.44C31.46 63.1333 31.9533 63.6733 32.58 64.06C33.22 64.4333 33.9467 64.62 34.76 64.62C35.52 64.62 36.1867 64.4533 36.76 64.12C37.3467 63.7733 37.8 63.2667 38.12 62.6H41.34C40.8733 64.0267 40.0533 65.14 38.88 65.94C37.72 66.7267 36.3533 67.12 34.78 67.12C33.4467 67.12 32.24 66.82 31.16 66.22C30.0933 65.6067 29.2467 64.76 28.62 63.68C28.0067 62.6 27.7 61.3733 27.7 60ZM48.6516 67.18C47.5849 67.18 46.6249 66.9467 45.7716 66.48C44.9182 66 44.2449 65.3267 43.7516 64.46C43.2716 63.5933 43.0316 62.5933 43.0316 61.46C43.0316 60.3267 43.2782 59.3267 43.7716 58.46C44.2782 57.5933 44.9649 56.9267 45.8316 56.46C46.6982 55.98 47.6649 55.74 48.7316 55.74C49.7982 55.74 50.7649 55.98 51.6316 56.46C52.4982 56.9267 53.1782 57.5933 53.6716 58.46C54.1782 59.3267 54.4316 60.3267 54.4316 61.46C54.4316 62.5933 54.1716 63.5933 53.6516 64.46C53.1449 65.3267 52.4516 66 51.5716 66.48C50.7049 66.9467 49.7316 67.18 48.6516 67.18ZM48.6516 64.74C49.1582 64.74 49.6316 64.62 50.0716 64.38C50.5249 64.1267 50.8849 63.7533 51.1516 63.26C51.4182 62.7667 51.5516 62.1667 51.5516 61.46C51.5516 60.4067 51.2716 59.6 50.7116 59.04C50.1649 58.4667 49.4916 58.18 48.6916 58.18C47.8916 58.18 47.2182 58.4667 46.6716 59.04C46.1382 59.6 45.8716 60.4067 45.8716 61.46C45.8716 62.5133 46.1316 63.3267 46.6516 63.9C47.1849 64.46 47.8516 64.74 48.6516 64.74ZM70.2455 55.76C71.6055 55.76 72.6988 56.18 73.5255 57.02C74.3655 57.8467 74.7855 59.0067 74.7855 60.5V67H71.9855V60.88C71.9855 60.0133 71.7655 59.3533 71.3255 58.9C70.8855 58.4333 70.2855 58.2 69.5255 58.2C68.7655 58.2 68.1588 58.4333 67.7055 58.9C67.2655 59.3533 67.0455 60.0133 67.0455 60.88V67H64.2455V60.88C64.2455 60.0133 64.0255 59.3533 63.5855 58.9C63.1455 58.4333 62.5455 58.2 61.7855 58.2C61.0121 58.2 60.3988 58.4333 59.9455 58.9C59.5055 59.3533 59.2855 60.0133 59.2855 60.88V67H56.4855V55.92H59.2855V57.26C59.6455 56.7933 60.1055 56.4267 60.6655 56.16C61.2388 55.8933 61.8655 55.76 62.5455 55.76C63.4121 55.76 64.1855 55.9467 64.8655 56.32C65.5455 56.68 66.0721 57.2 66.4455 57.88C66.8055 57.24 67.3255 56.7267 68.0055 56.34C68.6988 55.9533 69.4455 55.76 70.2455 55.76ZM78.8625 54.6C78.3692 54.6 77.9558 54.4467 77.6225 54.14C77.3025 53.82 77.1425 53.4267 77.1425 52.96C77.1425 52.4933 77.3025 52.1067 77.6225 51.8C77.9558 51.48 78.3692 51.32 78.8625 51.32C79.3558 51.32 79.7625 51.48 80.0825 51.8C80.4158 52.1067 80.5825 52.4933 80.5825 52.96C80.5825 53.4267 80.4158 53.82 80.0825 54.14C79.7625 54.4467 79.3558 54.6 78.8625 54.6ZM80.2425 55.92V67H77.4425V55.92H80.2425ZM89.1489 55.76C90.4689 55.76 91.5356 56.18 92.3489 57.02C93.1622 57.8467 93.5689 59.0067 93.5689 60.5V67H90.7689V60.88C90.7689 60 90.5489 59.3267 90.1089 58.86C89.6689 58.38 89.0689 58.14 88.3089 58.14C87.5356 58.14 86.9222 58.38 86.4689 58.86C86.0289 59.3267 85.8089 60 85.8089 60.88V67H83.0089V55.92H85.8089V57.3C86.1822 56.82 86.6556 56.4467 87.2289 56.18C87.8156 55.9 88.4556 55.76 89.1489 55.76ZM100.572 55.74C101.398 55.74 102.125 55.9067 102.752 56.24C103.378 56.56 103.872 56.98 104.232 57.5V55.92H107.052V67.08C107.052 68.1067 106.845 69.02 106.432 69.82C106.018 70.6333 105.398 71.2733 104.572 71.74C103.745 72.22 102.745 72.46 101.572 72.46C99.9982 72.46 98.7049 72.0933 97.6916 71.36C96.6916 70.6267 96.1249 69.6267 95.9916 68.36H98.7716C98.9182 68.8667 99.2316 69.2667 99.7116 69.56C100.205 69.8667 100.798 70.02 101.492 70.02C102.305 70.02 102.965 69.7733 103.472 69.28C103.978 68.8 104.232 68.0667 104.232 67.08V65.36C103.872 65.88 103.372 66.3133 102.732 66.66C102.105 67.0067 101.385 67.18 100.572 67.18C99.6382 67.18 98.7849 66.94 98.0116 66.46C97.2382 65.98 96.6249 65.3067 96.1716 64.44C95.7316 63.56 95.5116 62.5533 95.5116 61.42C95.5116 60.3 95.7316 59.3067 96.1716 58.44C96.6249 57.5733 97.2316 56.9067 97.9916 56.44C98.7649 55.9733 99.6249 55.74 100.572 55.74ZM104.232 61.46C104.232 60.78 104.098 60.2 103.832 59.72C103.565 59.2267 103.205 58.8533 102.752 58.6C102.298 58.3333 101.812 58.2 101.292 58.2C100.772 58.2 100.292 58.3267 99.8516 58.58C99.4116 58.8333 99.0516 59.2067 98.7716 59.7C98.5049 60.18 98.3716 60.7533 98.3716 61.42C98.3716 62.0867 98.5049 62.6733 98.7716 63.18C99.0516 63.6733 99.4116 64.0533 99.8516 64.32C100.305 64.5867 100.785 64.72 101.292 64.72C101.812 64.72 102.298 64.5933 102.752 64.34C103.205 64.0733 103.565 63.7 103.832 63.22C104.098 62.7267 104.232 62.14 104.232 61.46ZM119.372 67.14C118.399 67.14 117.519 66.9733 116.732 66.64C115.959 66.3067 115.345 65.8267 114.892 65.2C114.439 64.5733 114.205 63.8333 114.192 62.98H117.192C117.232 63.5533 117.432 64.0067 117.792 64.34C118.165 64.6733 118.672 64.84 119.312 64.84C119.965 64.84 120.479 64.6867 120.852 64.38C121.225 64.06 121.412 63.6467 121.412 63.14C121.412 62.7267 121.285 62.3867 121.032 62.12C120.779 61.8533 120.459 61.6467 120.072 61.5C119.699 61.34 119.179 61.1667 118.512 60.98C117.605 60.7133 116.865 60.4533 116.292 60.2C115.732 59.9333 115.245 59.54 114.832 59.02C114.432 58.4867 114.232 57.78 114.232 56.9C114.232 56.0733 114.439 55.3533 114.852 54.74C115.265 54.1267 115.845 53.66 116.592 53.34C117.339 53.0067 118.192 52.84 119.152 52.84C120.592 52.84 121.759 53.1933 122.652 53.9C123.559 54.5933 124.059 55.5667 124.152 56.82H121.072C121.045 56.34 120.839 55.9467 120.452 55.64C120.079 55.32 119.579 55.16 118.952 55.16C118.405 55.16 117.965 55.3 117.632 55.58C117.312 55.86 117.152 56.2667 117.152 56.8C117.152 57.1733 117.272 57.4867 117.512 57.74C117.765 57.98 118.072 58.18 118.432 58.34C118.805 58.4867 119.325 58.66 119.992 58.86C120.899 59.1267 121.639 59.3933 122.212 59.66C122.785 59.9267 123.279 60.3267 123.692 60.86C124.105 61.3933 124.312 62.0933 124.312 62.96C124.312 63.7067 124.119 64.4 123.732 65.04C123.345 65.68 122.779 66.1933 122.032 66.58C121.285 66.9533 120.399 67.14 119.372 67.14ZM131.659 67.18C130.593 67.18 129.633 66.9467 128.779 66.48C127.926 66 127.253 65.3267 126.759 64.46C126.279 63.5933 126.039 62.5933 126.039 61.46C126.039 60.3267 126.286 59.3267 126.779 58.46C127.286 57.5933 127.973 56.9267 128.839 56.46C129.706 55.98 130.673 55.74 131.739 55.74C132.806 55.74 133.773 55.98 134.639 56.46C135.506 56.9267 136.186 57.5933 136.679 58.46C137.186 59.3267 137.439 60.3267 137.439 61.46C137.439 62.5933 137.179 63.5933 136.659 64.46C136.153 65.3267 135.459 66 134.579 66.48C133.713 66.9467 132.739 67.18 131.659 67.18ZM131.659 64.74C132.166 64.74 132.639 64.62 133.079 64.38C133.533 64.1267 133.893 63.7533 134.159 63.26C134.426 62.7667 134.559 62.1667 134.559 61.46C134.559 60.4067 134.279 59.6 133.719 59.04C133.173 58.4667 132.499 58.18 131.699 58.18C130.899 58.18 130.226 58.4667 129.679 59.04C129.146 59.6 128.879 60.4067 128.879 61.46C128.879 62.5133 129.139 63.3267 129.659 63.9C130.193 64.46 130.859 64.74 131.659 64.74ZM144.413 67.18C143.347 67.18 142.387 66.9467 141.533 66.48C140.68 66 140.007 65.3267 139.513 64.46C139.033 63.5933 138.793 62.5933 138.793 61.46C138.793 60.3267 139.04 59.3267 139.533 58.46C140.04 57.5933 140.727 56.9267 141.593 56.46C142.46 55.98 143.427 55.74 144.493 55.74C145.56 55.74 146.527 55.98 147.393 56.46C148.26 56.9267 148.94 57.5933 149.433 58.46C149.94 59.3267 150.193 60.3267 150.193 61.46C150.193 62.5933 149.933 63.5933 149.413 64.46C148.907 65.3267 148.213 66 147.333 66.48C146.467 66.9467 145.493 67.18 144.413 67.18ZM144.413 64.74C144.92 64.74 145.393 64.62 145.833 64.38C146.287 64.1267 146.647 63.7533 146.913 63.26C147.18 62.7667 147.313 62.1667 147.313 61.46C147.313 60.4067 147.033 59.6 146.473 59.04C145.927 58.4667 145.253 58.18 144.453 58.18C143.653 58.18 142.98 58.4667 142.433 59.04C141.9 59.6 141.633 60.4067 141.633 61.46C141.633 62.5133 141.893 63.3267 142.413 63.9C142.947 64.46 143.613 64.74 144.413 64.74ZM158.387 55.76C159.707 55.76 160.774 56.18 161.587 57.02C162.401 57.8467 162.807 59.0067 162.807 60.5V67H160.007V60.88C160.007 60 159.787 59.3267 159.347 58.86C158.907 58.38 158.307 58.14 157.547 58.14C156.774 58.14 156.161 58.38 155.707 58.86C155.267 59.3267 155.047 60 155.047 60.88V67H152.247V55.92H155.047V57.3C155.421 56.82 155.894 56.4467 156.467 56.18C157.054 55.9 157.694 55.76 158.387 55.76Z" fill="#FF7F56"/>
</svg>
