<svg width="190" height="120" viewBox="0 0 190 120" fill="none" xmlns="http://www.w3.org/2000/svg">
<path d="M0 0H190V120H0V0Z" fill="white"/>
<path d="M115.135 65.1151C114.824 65.1151 114.542 65.0565 114.288 64.9393C114.034 64.82 113.833 64.6484 113.684 64.4247C113.535 64.1989 113.46 63.9261 113.46 63.6065C113.46 63.3253 113.516 63.0973 113.626 62.9226C113.737 62.7457 113.885 62.6072 114.071 62.5071C114.256 62.407 114.461 62.3324 114.684 62.2834C114.91 62.2322 115.137 62.1918 115.365 62.1619C115.663 62.1236 115.905 62.0948 116.091 62.0756C116.278 62.0543 116.414 62.0192 116.5 61.9702C116.587 61.9212 116.631 61.8359 116.631 61.7145V61.6889C116.631 61.3736 116.544 61.1286 116.372 60.9538C116.201 60.7791 115.942 60.6918 115.595 60.6918C115.235 60.6918 114.953 60.7706 114.748 60.9283C114.544 61.0859 114.4 61.2543 114.317 61.4332L113.601 61.1776C113.729 60.8793 113.899 60.647 114.112 60.4808C114.327 60.3125 114.562 60.1953 114.815 60.1293C115.071 60.0611 115.322 60.027 115.57 60.027C115.727 60.027 115.908 60.0462 116.113 60.0845C116.32 60.1207 116.519 60.1964 116.711 60.3114C116.904 60.4265 117.065 60.6001 117.193 60.8324C117.321 61.0646 117.385 61.3757 117.385 61.7656V65H116.631V64.3352H116.592C116.541 64.4418 116.456 64.5558 116.337 64.6772C116.217 64.7987 116.059 64.902 115.86 64.9872C115.662 65.0724 115.42 65.1151 115.135 65.1151ZM115.25 64.4375C115.548 64.4375 115.8 64.3789 116.004 64.2617C116.211 64.1445 116.366 63.9933 116.471 63.8079C116.577 63.6225 116.631 63.4276 116.631 63.223V62.5327C116.599 62.571 116.528 62.6062 116.42 62.6381C116.313 62.668 116.19 62.6946 116.049 62.718C115.911 62.7393 115.775 62.7585 115.643 62.7756C115.513 62.7905 115.408 62.8033 115.327 62.8139C115.131 62.8395 114.947 62.881 114.777 62.9386C114.609 62.994 114.472 63.0781 114.368 63.1911C114.266 63.3018 114.214 63.4531 114.214 63.6449C114.214 63.907 114.311 64.1051 114.505 64.2393C114.701 64.3714 114.95 64.4375 115.25 64.4375ZM119.471 66.125V62.897H119.439L118.429 63.5682V62.8906L119.471 62.2003H120.136V66.125H119.471ZM122.292 66.125V62.897H122.26L121.251 63.5682V62.8906L122.292 62.2003H122.957V66.125H122.292ZM125.849 65.1151C125.538 65.1151 125.255 65.0565 125.002 64.9393C124.748 64.82 124.547 64.6484 124.398 64.4247C124.249 64.1989 124.174 63.9261 124.174 63.6065C124.174 63.3253 124.229 63.0973 124.34 62.9226C124.451 62.7457 124.599 62.6072 124.785 62.5071C124.97 62.407 125.174 62.3324 125.398 62.2834C125.624 62.2322 125.851 62.1918 126.079 62.1619C126.377 62.1236 126.619 62.0948 126.804 62.0756C126.992 62.0543 127.128 62.0192 127.214 61.9702C127.301 61.9212 127.345 61.8359 127.345 61.7145V61.6889C127.345 61.3736 127.258 61.1286 127.086 60.9538C126.915 60.7791 126.656 60.6918 126.309 60.6918C125.949 60.6918 125.667 60.7706 125.462 60.9283C125.258 61.0859 125.114 61.2543 125.031 61.4332L124.315 61.1776C124.443 60.8793 124.613 60.647 124.826 60.4808C125.041 60.3125 125.276 60.1953 125.529 60.1293C125.785 60.0611 126.036 60.027 126.283 60.027C126.441 60.027 126.622 60.0462 126.827 60.0845C127.033 60.1207 127.233 60.1964 127.424 60.3114C127.618 60.4265 127.779 60.6001 127.907 60.8324C128.035 61.0646 128.099 61.3757 128.099 61.7656V65H127.345V64.3352H127.306C127.255 64.4418 127.17 64.5558 127.051 64.6772C126.931 64.7987 126.772 64.902 126.574 64.9872C126.376 65.0724 126.134 65.1151 125.849 65.1151ZM125.964 64.4375C126.262 64.4375 126.514 64.3789 126.718 64.2617C126.925 64.1445 127.08 63.9933 127.185 63.8079C127.291 63.6225 127.345 63.4276 127.345 63.223V62.5327C127.313 62.571 127.242 62.6062 127.134 62.6381C127.027 62.668 126.903 62.6946 126.763 62.718C126.624 62.7393 126.489 62.7585 126.357 62.7756C126.227 62.7905 126.122 62.8033 126.041 62.8139C125.845 62.8395 125.661 62.881 125.491 62.9386C125.323 62.994 125.186 63.0781 125.082 63.1911C124.979 63.3018 124.928 63.4531 124.928 63.6449C124.928 63.907 125.025 64.1051 125.219 64.2393C125.415 64.3714 125.663 64.4375 125.964 64.4375ZM129.233 66.125V65.6264L130.728 64.2969C130.877 64.1648 131.002 64.0465 131.102 63.9421C131.202 63.8377 131.278 63.7365 131.329 63.6385C131.38 63.5405 131.406 63.4361 131.406 63.3253C131.406 63.1335 131.332 62.9812 131.185 62.8683C131.038 62.7553 130.856 62.6989 130.639 62.6989C130.409 62.6989 130.223 62.7607 130.083 62.8842C129.942 63.0057 129.872 63.1655 129.872 63.3636H129.207C129.207 62.9993 129.342 62.7063 129.613 62.4847C129.884 62.261 130.23 62.1491 130.652 62.1491C130.933 62.1491 131.18 62.2003 131.393 62.3026C131.606 62.4027 131.772 62.5412 131.892 62.718C132.011 62.8928 132.071 63.0909 132.071 63.3125C132.071 63.4872 132.036 63.6491 131.965 63.7983C131.895 63.9474 131.785 64.1019 131.636 64.2617C131.487 64.4215 131.295 64.6037 131.061 64.8082L130.23 65.5369V65.5625H132.186V66.125H129.233ZM133.021 66.125V65.6264L134.516 64.2969C134.666 64.1648 134.79 64.0465 134.89 63.9421C134.991 63.8377 135.066 63.7365 135.117 63.6385C135.168 63.5405 135.194 63.4361 135.194 63.3253C135.194 63.1335 135.12 62.9812 134.973 62.8683C134.826 62.7553 134.644 62.6989 134.427 62.6989C134.197 62.6989 134.011 62.7607 133.871 62.8842C133.73 63.0057 133.66 63.1655 133.66 63.3636H132.995C132.995 62.9993 133.13 62.7063 133.401 62.4847C133.672 62.261 134.018 62.1491 134.44 62.1491C134.721 62.1491 134.968 62.2003 135.181 62.3026C135.394 62.4027 135.56 62.5412 135.68 62.718C135.799 62.8928 135.859 63.0909 135.859 63.3125C135.859 63.4872 135.824 63.6491 135.753 63.7983C135.683 63.9474 135.573 64.1019 135.424 64.2617C135.275 64.4215 135.083 64.6037 134.849 64.8082L134.018 65.5369V65.5625H135.974V66.125H133.021ZM142.395 61.8423V62.5455H139.532V61.8423H142.395ZM147.698 65.1151C147.387 65.1151 147.105 65.0565 146.851 64.9393C146.598 64.82 146.397 64.6484 146.247 64.4247C146.098 64.1989 146.024 63.9261 146.024 63.6065C146.024 63.3253 146.079 63.0973 146.19 62.9226C146.301 62.7457 146.449 62.6072 146.634 62.5071C146.82 62.407 147.024 62.3324 147.248 62.2834C147.474 62.2322 147.701 62.1918 147.929 62.1619C148.227 62.1236 148.469 62.0948 148.654 62.0756C148.842 62.0543 148.978 62.0192 149.063 61.9702C149.15 61.9212 149.194 61.8359 149.194 61.7145V61.6889C149.194 61.3736 149.108 61.1286 148.935 60.9538C148.765 60.7791 148.506 60.6918 148.159 60.6918C147.799 60.6918 147.516 60.7706 147.312 60.9283C147.107 61.0859 146.963 61.2543 146.88 61.4332L146.164 61.1776C146.292 60.8793 146.463 60.647 146.676 60.4808C146.891 60.3125 147.125 60.1953 147.379 60.1293C147.634 60.0611 147.886 60.027 148.133 60.027C148.291 60.027 148.472 60.0462 148.676 60.0845C148.883 60.1207 149.082 60.1964 149.274 60.3114C149.468 60.4265 149.629 60.6001 149.757 60.8324C149.884 61.0646 149.948 61.3757 149.948 61.7656V65H149.194V64.3352H149.156C149.105 64.4418 149.019 64.5558 148.9 64.6772C148.781 64.7987 148.622 64.902 148.424 64.9872C148.226 65.0724 147.984 65.1151 147.698 65.1151ZM147.813 64.4375C148.112 64.4375 148.363 64.3789 148.568 64.2617C148.774 64.1445 148.93 63.9933 149.034 63.8079C149.141 63.6225 149.194 63.4276 149.194 63.223V62.5327C149.162 62.571 149.092 62.6062 148.983 62.6381C148.877 62.668 148.753 62.6946 148.612 62.718C148.474 62.7393 148.339 62.7585 148.207 62.7756C148.077 62.7905 147.971 62.8033 147.89 62.8139C147.694 62.8395 147.511 62.881 147.34 62.9386C147.172 62.994 147.036 63.0781 146.931 63.1911C146.829 63.3018 146.778 63.4531 146.778 63.6449C146.778 63.907 146.875 64.1051 147.069 64.2393C147.265 64.3714 147.513 64.4375 147.813 64.4375ZM151.082 66.125V65.6264L152.578 64.2969C152.727 64.1648 152.852 64.0465 152.952 63.9421C153.052 63.8377 153.128 63.7365 153.179 63.6385C153.23 63.5405 153.256 63.4361 153.256 63.3253C153.256 63.1335 153.182 62.9812 153.035 62.8683C152.888 62.7553 152.706 62.6989 152.488 62.6989C152.258 62.6989 152.073 62.7607 151.932 62.8842C151.792 63.0057 151.721 63.1655 151.721 63.3636H151.057C151.057 62.9993 151.192 62.7063 151.463 62.4847C151.733 62.261 152.079 62.1491 152.501 62.1491C152.782 62.1491 153.03 62.2003 153.243 62.3026C153.456 62.4027 153.622 62.5412 153.741 62.718C153.861 62.8928 153.92 63.0909 153.92 63.3125C153.92 63.4872 153.885 63.6491 153.815 63.7983C153.744 63.9474 153.635 64.1019 153.486 64.2617C153.336 64.4215 153.145 64.6037 152.91 64.8082L152.079 65.5369V65.5625H154.035V66.125H151.082ZM155.823 66.125V62.897H155.791L154.781 63.5682V62.8906L155.823 62.2003H156.487V66.125H155.823ZM159.379 65.1151C159.068 65.1151 158.786 65.0565 158.532 64.9393C158.279 64.82 158.077 64.6484 157.928 64.4247C157.779 64.1989 157.704 63.9261 157.704 63.6065C157.704 63.3253 157.76 63.0973 157.871 62.9226C157.981 62.7457 158.129 62.6072 158.315 62.5071C158.5 62.407 158.705 62.3324 158.928 62.2834C159.154 62.2322 159.381 62.1918 159.609 62.1619C159.907 62.1236 160.149 62.0948 160.335 62.0756C160.522 62.0543 160.659 62.0192 160.744 61.9702C160.831 61.9212 160.875 61.8359 160.875 61.7145V61.6889C160.875 61.3736 160.789 61.1286 160.616 60.9538C160.445 60.7791 160.187 60.6918 159.839 60.6918C159.479 60.6918 159.197 60.7706 158.992 60.9283C158.788 61.0859 158.644 61.2543 158.561 61.4332L157.845 61.1776C157.973 60.8793 158.143 60.647 158.356 60.4808C158.572 60.3125 158.806 60.1953 159.059 60.1293C159.315 60.0611 159.567 60.027 159.814 60.027C159.971 60.027 160.153 60.0462 160.357 60.0845C160.564 60.1207 160.763 60.1964 160.955 60.3114C161.149 60.4265 161.309 60.6001 161.437 60.8324C161.565 61.0646 161.629 61.3757 161.629 61.7656V65H160.875V64.3352H160.836C160.785 64.4418 160.7 64.5558 160.581 64.6772C160.461 64.7987 160.303 64.902 160.105 64.9872C159.906 65.0724 159.665 65.1151 159.379 65.1151ZM159.494 64.4375C159.792 64.4375 160.044 64.3789 160.248 64.2617C160.455 64.1445 160.611 63.9933 160.715 63.8079C160.822 63.6225 160.875 63.4276 160.875 63.223V62.5327C160.843 62.571 160.773 62.6062 160.664 62.6381C160.557 62.668 160.434 62.6946 160.293 62.718C160.155 62.7393 160.019 62.7585 159.887 62.7756C159.757 62.7905 159.652 62.8033 159.571 62.8139C159.375 62.8395 159.192 62.881 159.021 62.9386C158.853 62.994 158.716 63.0781 158.612 63.1911C158.51 63.3018 158.459 63.4531 158.459 63.6449C158.459 63.907 158.556 64.1051 158.749 64.2393C158.945 64.3714 159.194 64.4375 159.494 64.4375ZM163.715 66.125V62.897H163.683L162.673 63.5682V62.8906L163.715 62.2003H164.38V66.125H163.715ZM165.584 66.125V65.6264L167.08 64.2969C167.229 64.1648 167.354 64.0465 167.454 63.9421C167.554 63.8377 167.63 63.7365 167.681 63.6385C167.732 63.5405 167.757 63.4361 167.757 63.3253C167.757 63.1335 167.684 62.9812 167.537 62.8683C167.39 62.7553 167.208 62.6989 166.99 62.6989C166.76 62.6989 166.575 62.7607 166.434 62.8842C166.294 63.0057 166.223 63.1655 166.223 63.3636H165.559C165.559 62.9993 165.694 62.7063 165.964 62.4847C166.235 62.261 166.581 62.1491 167.003 62.1491C167.284 62.1491 167.532 62.2003 167.745 62.3026C167.958 62.4027 168.124 62.5412 168.243 62.718C168.363 62.8928 168.422 63.0909 168.422 63.3125C168.422 63.4872 168.387 63.6491 168.317 63.7983C168.246 63.9474 168.137 64.1019 167.988 64.2617C167.838 64.4215 167.647 64.6037 167.412 64.8082L166.581 65.5369V65.5625H168.537V66.125H165.584Z" fill="black"/>
<path d="M12.544 65.1023C12.1349 65.1023 11.7738 64.9989 11.4606 64.7923C11.1474 64.5835 10.9023 64.2894 10.7255 63.9102C10.5487 63.5288 10.4602 63.0781 10.4602 62.5582C10.4602 62.0426 10.5487 61.5952 10.7255 61.2159C10.9023 60.8366 11.1484 60.5437 11.4638 60.337C11.7791 60.1303 12.1435 60.027 12.5568 60.027C12.8764 60.027 13.1289 60.0803 13.3143 60.1868C13.5018 60.2912 13.6445 60.4105 13.7425 60.5447C13.8427 60.6768 13.9205 60.7855 13.9759 60.8707H14.0398V58.4545H14.794V65H14.0653V64.2457H13.9759C13.9205 64.3352 13.8416 64.4482 13.7393 64.5845C13.6371 64.7187 13.4911 64.8391 13.3015 64.9457C13.1119 65.0501 12.8594 65.1023 12.544 65.1023ZM12.6463 64.4247C12.9489 64.4247 13.2045 64.3459 13.4134 64.1882C13.6222 64.0284 13.7809 63.8079 13.8896 63.5266C13.9982 63.2433 14.0526 62.9162 14.0526 62.5455C14.0526 62.179 13.9993 61.8583 13.8928 61.5835C13.7862 61.3065 13.6286 61.0913 13.4197 60.9379C13.2109 60.7823 12.9531 60.7045 12.6463 60.7045C12.3267 60.7045 12.0604 60.7866 11.8473 60.9506C11.6364 61.1126 11.4776 61.3331 11.3711 61.6122C11.2667 61.8892 11.2145 62.2003 11.2145 62.5455C11.2145 62.8949 11.2678 63.2124 11.3743 63.4979C11.483 63.7812 11.6428 64.0071 11.8537 64.1754C12.0668 64.3416 12.331 64.4247 12.6463 64.4247ZM18.3384 65.1023C17.8654 65.1023 17.4574 64.9979 17.1143 64.7891C16.7734 64.5781 16.5103 64.2841 16.3249 63.907C16.1417 63.5277 16.0501 63.0866 16.0501 62.5838C16.0501 62.081 16.1417 61.6378 16.3249 61.2543C16.5103 60.8686 16.7681 60.5682 17.0984 60.353C17.4308 60.1357 17.8185 60.027 18.2617 60.027C18.5174 60.027 18.7699 60.0696 19.0192 60.1548C19.2685 60.2401 19.4954 60.3786 19.6999 60.5703C19.9045 60.7599 20.0675 61.0114 20.1889 61.3246C20.3104 61.6378 20.3711 62.0234 20.3711 62.4815V62.8011H16.587V62.1491H19.604C19.604 61.8722 19.5487 61.625 19.4379 61.4077C19.3292 61.1903 19.1737 61.0188 18.9712 60.8931C18.771 60.7674 18.5344 60.7045 18.2617 60.7045C17.9613 60.7045 17.7013 60.7791 17.4819 60.9283C17.2646 61.0753 17.0973 61.267 16.9801 61.5036C16.8629 61.7401 16.8043 61.9936 16.8043 62.2642V62.6989C16.8043 63.0696 16.8683 63.3839 16.9961 63.6417C17.1261 63.8974 17.3061 64.0923 17.5362 64.2266C17.7663 64.3587 18.0337 64.4247 18.3384 64.4247C18.5366 64.4247 18.7156 64.397 18.8754 64.3416C19.0373 64.2841 19.1768 64.1989 19.294 64.0859C19.4112 63.9709 19.5018 63.8281 19.5657 63.6577L20.2944 63.8622C20.2177 64.1094 20.0888 64.3267 19.9077 64.5142C19.7266 64.6996 19.5028 64.8445 19.2365 64.9489C18.9702 65.0511 18.6708 65.1023 18.3384 65.1023ZM22.2727 58.4545V65H21.5185V58.4545H22.2727ZM23.9227 62.2386C23.9227 61.4332 24.0271 60.6928 24.2359 60.0174C24.4468 59.3398 24.7472 58.7166 25.1372 58.1477H25.8019C25.6485 58.3587 25.5047 58.6186 25.3705 58.9276C25.2384 59.2344 25.1222 59.5721 25.0221 59.9407C24.922 60.3072 24.8431 60.6864 24.7856 61.0785C24.7302 61.4705 24.7025 61.8572 24.7025 62.2386C24.7025 62.7457 24.7515 63.2603 24.8495 63.7823C24.9475 64.3043 25.0796 64.7891 25.2458 65.2365C25.412 65.6839 25.5974 66.0483 25.8019 66.3295H25.1372C24.7472 65.7607 24.4468 65.1385 24.2359 64.4631C24.0271 63.7855 23.9227 63.044 23.9227 62.2386ZM27.2857 65H26.4547L28.8581 58.4545H29.6763L32.0797 65H31.2488L29.2928 59.4901H29.2417L27.2857 65ZM27.5925 62.4432H30.9419V63.1463H27.5925V62.4432ZM34.6078 62.2386C34.6078 63.044 34.5023 63.7855 34.2914 64.4631C34.0826 65.1385 33.7832 65.7607 33.3933 66.3295H32.7285C32.8819 66.1186 33.0247 65.8587 33.1568 65.5497C33.291 65.2429 33.4082 64.9062 33.5083 64.5398C33.6085 64.1712 33.6863 63.7908 33.7417 63.3988C33.7992 63.0046 33.8279 62.6179 33.8279 62.2386C33.8279 61.7315 33.7789 61.217 33.6809 60.695C33.5829 60.1729 33.4508 59.6882 33.2846 59.2408C33.1184 58.7933 32.9331 58.429 32.7285 58.1477H33.3933C33.7832 58.7166 34.0826 59.3398 34.2914 60.0174C34.5023 60.6928 34.6078 61.4332 34.6078 62.2386Z" fill="black"/>
<path d="M22.0597 16.5H21.267C21.2202 16.272 21.1381 16.0717 21.021 15.8991C20.9059 15.7266 20.7653 15.5817 20.5991 15.4645C20.435 15.3452 20.2528 15.2557 20.0526 15.196C19.8523 15.1364 19.6435 15.1065 19.4261 15.1065C19.0298 15.1065 18.6708 15.2067 18.3491 15.407C18.0295 15.6072 17.7749 15.9023 17.5852 16.2923C17.3977 16.6822 17.304 17.1605 17.304 17.7273C17.304 18.294 17.3977 18.7724 17.5852 19.1623C17.7749 19.5522 18.0295 19.8473 18.3491 20.0476C18.6708 20.2479 19.0298 20.348 19.4261 20.348C19.6435 20.348 19.8523 20.3182 20.0526 20.2585C20.2528 20.1989 20.435 20.1104 20.5991 19.9933C20.7653 19.8739 20.9059 19.728 21.021 19.5554C21.1381 19.3807 21.2202 19.1804 21.267 18.9545H22.0597C22 19.2891 21.8913 19.5884 21.7337 19.8526C21.576 20.1168 21.38 20.3416 21.1456 20.527C20.9112 20.7102 20.6481 20.8498 20.3562 20.9457C20.0664 21.0415 19.7564 21.0895 19.4261 21.0895C18.8679 21.0895 18.3714 20.9531 17.9368 20.6804C17.5021 20.4077 17.1602 20.0199 16.9109 19.517C16.6616 19.0142 16.5369 18.4176 16.5369 17.7273C16.5369 17.0369 16.6616 16.4403 16.9109 15.9375C17.1602 15.4347 17.5021 15.0469 17.9368 14.7741C18.3714 14.5014 18.8679 14.3651 19.4261 14.3651C19.7564 14.3651 20.0664 14.413 20.3562 14.5089C20.6481 14.6048 20.9112 14.7454 21.1456 14.9308C21.38 15.114 21.576 15.3377 21.7337 15.6019C21.8913 15.864 22 16.1634 22.0597 16.5ZM22.9825 22.125V18.8523H23.6601V22.125H22.9825ZM23.3277 18.4048C23.219 18.4048 23.1253 18.3665 23.0464 18.2898C22.9697 18.2131 22.9314 18.1236 22.9314 18.0213C22.9314 17.919 22.9697 17.8295 23.0464 17.7528C23.1253 17.6761 23.219 17.6378 23.3277 17.6378C23.43 17.6378 23.5194 17.6761 23.5961 17.7528C23.6729 17.8295 23.7112 17.919 23.7112 18.0213C23.7112 18.13 23.6729 18.2216 23.5961 18.2962C23.5194 18.3686 23.43 18.4048 23.3277 18.4048ZM45.1286 21V14.4545H47.3402C47.8516 14.4545 48.2713 14.5419 48.5994 14.7166C48.9276 14.8892 49.1705 15.1268 49.3281 15.4293C49.4858 15.7319 49.5646 16.076 49.5646 16.4616C49.5646 16.8473 49.4858 17.1893 49.3281 17.4876C49.1705 17.7859 48.9286 18.0202 48.6026 18.1907C48.2766 18.359 47.8601 18.4432 47.353 18.4432H45.5632V17.7273H47.3274C47.6768 17.7273 47.9581 17.6761 48.1712 17.5739C48.3864 17.4716 48.5419 17.3267 48.6378 17.1392C48.7358 16.9496 48.7848 16.7237 48.7848 16.4616C48.7848 16.1996 48.7358 15.9705 48.6378 15.7745C48.5398 15.5785 48.3832 15.4272 48.168 15.3207C47.9528 15.212 47.6683 15.1577 47.3146 15.1577H45.9212V21H45.1286ZM48.2095 18.0597L49.8203 21H48.8999L47.3146 18.0597H48.2095ZM50.5274 22.125V18.8523H51.205V22.125H50.5274ZM50.8726 18.4048C50.7639 18.4048 50.6702 18.3665 50.5914 18.2898C50.5146 18.2131 50.4763 18.1236 50.4763 18.0213C50.4763 17.919 50.5146 17.8295 50.5914 17.7528C50.6702 17.6761 50.7639 17.6378 50.8726 17.6378C50.9749 17.6378 51.0644 17.6761 51.1411 17.7528C51.2178 17.8295 51.2561 17.919 51.2561 18.0213C51.2561 18.13 51.2178 18.2216 51.1411 18.2962C51.0644 18.3686 50.9749 18.4048 50.8726 18.4048Z" fill="black"/>
<path d="M113.793 108V101.455H116.004C116.516 101.455 116.935 101.542 117.263 101.717C117.592 101.889 117.835 102.127 117.992 102.429C118.15 102.732 118.229 103.076 118.229 103.462C118.229 103.847 118.15 104.189 117.992 104.488C117.835 104.786 117.593 105.02 117.267 105.191C116.941 105.359 116.524 105.443 116.017 105.443H114.227V104.727H115.991C116.341 104.727 116.622 104.676 116.835 104.574C117.05 104.472 117.206 104.327 117.302 104.139C117.4 103.95 117.449 103.724 117.449 103.462C117.449 103.2 117.4 102.971 117.302 102.775C117.204 102.578 117.047 102.427 116.832 102.321C116.617 102.212 116.332 102.158 115.979 102.158H114.585V108H113.793ZM116.874 105.06L118.484 108H117.564L115.979 105.06H116.874ZM119.191 109.125V105.852H119.869V109.125H119.191ZM119.537 105.405C119.428 105.405 119.334 105.366 119.255 105.29C119.179 105.213 119.14 105.124 119.14 105.021C119.14 104.919 119.179 104.83 119.255 104.753C119.334 104.676 119.428 104.638 119.537 104.638C119.639 104.638 119.728 104.676 119.805 104.753C119.882 104.83 119.92 104.919 119.92 105.021C119.92 105.13 119.882 105.222 119.805 105.296C119.728 105.369 119.639 105.405 119.537 105.405ZM141.338 108V101.455H143.549C144.061 101.455 144.48 101.542 144.808 101.717C145.137 101.889 145.379 102.127 145.537 102.429C145.695 102.732 145.774 103.076 145.774 103.462C145.774 103.847 145.695 104.189 145.537 104.488C145.379 104.786 145.138 105.02 144.812 105.191C144.486 105.359 144.069 105.443 143.562 105.443H141.772V104.727H143.536C143.886 104.727 144.167 104.676 144.38 104.574C144.595 104.472 144.751 104.327 144.847 104.139C144.945 103.95 144.994 103.724 144.994 103.462C144.994 103.2 144.945 102.971 144.847 102.775C144.749 102.578 144.592 102.427 144.377 102.321C144.162 102.212 143.877 102.158 143.524 102.158H142.13V108H141.338ZM144.419 105.06L146.029 108H145.109L143.524 105.06H144.419ZM146.736 109.125V105.852H147.414V109.125H146.736ZM147.082 105.405C146.973 105.405 146.879 105.366 146.8 105.29C146.724 105.213 146.685 105.124 146.685 105.021C146.685 104.919 146.724 104.83 146.8 104.753C146.879 104.676 146.973 104.638 147.082 104.638C147.184 104.638 147.273 104.676 147.35 104.753C147.427 104.83 147.465 104.919 147.465 105.021C147.465 105.13 147.427 105.222 147.35 105.296C147.273 105.369 147.184 105.405 147.082 105.405ZM152.979 107.553V103.334H153.695V107.553H152.979ZM151.228 105.801V105.085H155.446V105.801H151.228ZM160.228 106.21L160.216 105.277H160.369L162.517 103.091H163.45L161.162 105.405H161.098L160.228 106.21ZM159.525 108V101.455H160.28V108H159.525ZM162.645 108L160.727 105.571L161.264 105.047L163.603 108H162.645ZM164.523 108V101.455H166.735C167.246 101.455 167.666 101.542 167.994 101.717C168.322 101.889 168.565 102.127 168.723 102.429C168.88 102.732 168.959 103.076 168.959 103.462C168.959 103.847 168.88 104.189 168.723 104.488C168.565 104.786 168.323 105.02 167.997 105.191C167.671 105.359 167.255 105.443 166.748 105.443H164.958V104.727H166.722C167.071 104.727 167.353 104.676 167.566 104.574C167.781 104.472 167.936 104.327 168.032 104.139C168.13 103.95 168.179 103.724 168.179 103.462C168.179 103.2 168.13 102.971 168.032 102.775C167.934 102.578 167.778 102.427 167.562 102.321C167.347 102.212 167.063 102.158 166.709 102.158H165.316V108H164.523ZM167.604 105.06L169.215 108H168.294L166.709 105.06H167.604ZM169.922 105.852H170.6V109.368C170.6 109.7 170.499 109.945 170.299 110.103C170.099 110.261 169.832 110.339 169.5 110.339C169.481 110.339 169.461 110.339 169.439 110.339C169.418 110.339 169.391 110.339 169.359 110.339V109.79C169.379 109.796 169.398 109.799 169.417 109.799C169.434 109.801 169.449 109.803 169.462 109.803C169.615 109.803 169.73 109.763 169.807 109.684C169.884 109.605 169.922 109.496 169.922 109.355V105.852ZM170.254 105.405C170.152 105.405 170.063 105.369 169.986 105.296C169.909 105.222 169.871 105.13 169.871 105.021C169.871 104.919 169.909 104.83 169.986 104.753C170.063 104.676 170.152 104.638 170.254 104.638C170.363 104.638 170.456 104.676 170.532 104.753C170.611 104.83 170.651 104.919 170.651 105.021C170.651 105.124 170.611 105.213 170.532 105.29C170.456 105.366 170.363 105.405 170.254 105.405Z" fill="black"/>
<path d="M14.0611 103H13.2301L15.6335 96.4545H16.4517L18.8551 103H18.0241L16.0682 97.4901H16.017L14.0611 103ZM14.3679 100.443H17.7173V101.146H14.3679V100.443ZM22.4698 97.7969V98.3722H19.6445V97.7969H22.4698ZM24.4282 99.7273V96.4993H24.3962L23.3863 97.1705V96.4929L24.4282 95.8026H25.093V99.7273H24.4282ZM29.378 99.8423V99.152H33.3155V99.8423H29.378ZM29.378 101.734V101.044H33.3155V101.734H29.378ZM51.6359 103.115C51.3248 103.115 51.0425 103.056 50.789 102.939C50.5354 102.82 50.3341 102.648 50.1849 102.425C50.0358 102.199 49.9612 101.926 49.9612 101.607C49.9612 101.325 50.0166 101.097 50.1274 100.923C50.2382 100.746 50.3863 100.607 50.5716 100.507C50.757 100.407 50.9616 100.332 51.1853 100.283C51.4111 100.232 51.6381 100.192 51.866 100.162C52.1643 100.124 52.4062 100.095 52.5915 100.076C52.779 100.054 52.9154 100.019 53.0006 99.9702C53.088 99.9212 53.1317 99.8359 53.1317 99.7145V99.6889C53.1317 99.3736 53.0454 99.1286 52.8728 98.9538C52.7023 98.7791 52.4434 98.6918 52.0961 98.6918C51.7361 98.6918 51.4537 98.7706 51.2492 98.9283C51.0447 99.0859 50.9008 99.2543 50.8177 99.4332L50.1018 99.1776C50.2297 98.8793 50.4001 98.647 50.6132 98.4808C50.8284 98.3125 51.0628 98.1953 51.3163 98.1293C51.572 98.0611 51.8234 98.027 52.0706 98.027C52.2282 98.027 52.4094 98.0462 52.6139 98.0845C52.8206 98.1207 53.0198 98.1964 53.2116 98.3114C53.4055 98.4265 53.5663 98.6001 53.6942 98.8324C53.822 99.0646 53.8859 99.3757 53.8859 99.7656V103H53.1317V102.335H53.0933C53.0422 102.442 52.9569 102.556 52.8376 102.677C52.7183 102.799 52.5596 102.902 52.3614 102.987C52.1633 103.072 51.9214 103.115 51.6359 103.115ZM51.751 102.438C52.0493 102.438 52.3007 102.379 52.5052 102.262C52.7119 102.145 52.8675 101.993 52.9719 101.808C53.0784 101.623 53.1317 101.428 53.1317 101.223V100.533C53.0997 100.571 53.0294 100.606 52.9207 100.638C52.8142 100.668 52.6906 100.695 52.55 100.718C52.4115 100.739 52.2762 100.759 52.1441 100.776C52.0141 100.79 51.9086 100.803 51.8277 100.814C51.6317 100.839 51.4484 100.881 51.278 100.939C51.1096 100.994 50.9733 101.078 50.8689 101.191C50.7666 101.302 50.7155 101.453 50.7155 101.645C50.7155 101.907 50.8124 102.105 51.0063 102.239C51.2023 102.371 51.4506 102.438 51.751 102.438ZM57.1163 103.102C56.7072 103.102 56.3461 102.999 56.0328 102.792C55.7196 102.583 55.4746 102.289 55.2978 101.91C55.1209 101.529 55.0325 101.078 55.0325 100.558C55.0325 100.043 55.1209 99.5952 55.2978 99.2159C55.4746 98.8366 55.7207 98.5437 56.036 98.337C56.3514 98.1303 56.7157 98.027 57.1291 98.027C57.4487 98.027 57.7012 98.0803 57.8865 98.1868C58.074 98.2912 58.2168 98.4105 58.3148 98.5447C58.415 98.6768 58.4927 98.7855 58.5481 98.8707H58.612V96.4545H59.3663V103H58.6376V102.246H58.5481C58.4927 102.335 58.4139 102.448 58.3116 102.585C58.2093 102.719 58.0634 102.839 57.8738 102.946C57.6841 103.05 57.4316 103.102 57.1163 103.102ZM57.2186 102.425C57.5211 102.425 57.7768 102.346 57.9856 102.188C58.1944 102.028 58.3532 101.808 58.4618 101.527C58.5705 101.243 58.6248 100.916 58.6248 100.545C58.6248 100.179 58.5716 99.8583 58.465 99.5835C58.3585 99.3065 58.2008 99.0913 57.992 98.9379C57.7832 98.7823 57.5254 98.7045 57.2186 98.7045C56.899 98.7045 56.6326 98.7866 56.4196 98.9506C56.2086 99.1126 56.0499 99.3331 55.9434 99.6122C55.839 99.8892 55.7868 100.2 55.7868 100.545C55.7868 100.895 55.84 101.212 55.9466 101.498C56.0552 101.781 56.215 102.007 56.426 102.175C56.639 102.342 56.9032 102.425 57.2186 102.425ZM60.8525 98.0909H61.6067V103.358C61.6067 103.661 61.5545 103.923 61.4501 104.144C61.3478 104.366 61.1923 104.537 60.9835 104.659C60.7768 104.78 60.5158 104.841 60.2005 104.841C60.1749 104.841 60.1493 104.841 60.1238 104.841C60.0982 104.841 60.0726 104.841 60.0471 104.841V104.138C60.0726 104.138 60.0961 104.138 60.1174 104.138C60.1387 104.138 60.1621 104.138 60.1877 104.138C60.4178 104.138 60.5861 104.07 60.6926 103.933C60.7992 103.799 60.8525 103.607 60.8525 103.358V98.0909ZM61.2232 97.2727C61.0762 97.2727 60.9494 97.2227 60.8429 97.1225C60.7385 97.0224 60.6863 96.902 60.6863 96.7614C60.6863 96.6207 60.7385 96.5004 60.8429 96.4002C60.9494 96.3001 61.0762 96.25 61.2232 96.25C61.3702 96.25 61.4959 96.3001 61.6003 96.4002C61.7069 96.5004 61.7601 96.6207 61.7601 96.7614C61.7601 96.902 61.7069 97.0224 61.6003 97.1225C61.4959 97.2227 61.3702 97.2727 61.2232 97.2727ZM63.2567 100.239C63.2567 99.4332 63.3611 98.6928 63.5699 98.0174C63.7808 97.3398 64.0812 96.7166 64.4711 96.1477H65.1359C64.9825 96.3587 64.8387 96.6186 64.7045 96.9276C64.5724 97.2344 64.4562 97.5721 64.3561 97.9407C64.2559 98.3072 64.1771 98.6864 64.1196 99.0785C64.0642 99.4705 64.0365 99.8572 64.0365 100.239C64.0365 100.746 64.0855 101.26 64.1835 101.782C64.2815 102.304 64.4136 102.789 64.5798 103.237C64.746 103.684 64.9314 104.048 65.1359 104.33H64.4711C64.0812 103.761 63.7808 103.138 63.5699 102.463C63.3611 101.786 63.2567 101.044 63.2567 100.239ZM66.6197 103H65.7887L68.1921 96.4545H69.0103L71.4137 103H70.5827L68.6268 97.4901H68.5756L66.6197 103ZM66.9265 100.443H70.2759V101.146H66.9265V100.443ZM73.9418 100.239C73.9418 101.044 73.8363 101.786 73.6254 102.463C73.4165 103.138 73.1172 103.761 72.7273 104.33H72.0625C72.2159 104.119 72.3587 103.859 72.4908 103.55C72.625 103.243 72.7422 102.906 72.8423 102.54C72.9425 102.171 73.0202 101.791 73.0756 101.399C73.1332 101.005 73.1619 100.618 73.1619 100.239C73.1619 99.7315 73.1129 99.217 73.0149 98.695C72.9169 98.1729 72.7848 97.6882 72.6186 97.2408C72.4524 96.7933 72.267 96.429 72.0625 96.1477H72.7273C73.1172 96.7166 73.4165 97.3398 73.6254 98.0174C73.8363 98.6928 73.9418 99.4332 73.9418 100.239Z" fill="black"/>
<path d="M91.6029 29.75L95.5 23L99.3971 29.75H91.6029Z" stroke="#FF7F56"/>
<path d="M50.2727 43.2273V81.5H49.0341V43.2273H50.2727ZM95.5852 43.2273V81.5H94.3466V43.2273H95.5852Z" fill="#FF7F56"/>
<path d="M38.483 61.7216V61.0185H43.3366V61.7216H38.483ZM38.483 64.1634V63.4602H43.3366V64.1634H38.483Z" fill="black"/>
<path d="M101.483 61.7216V61.0185H106.337V61.7216H101.483ZM101.483 64.1634V63.4602H106.337V64.1634H101.483Z" fill="black"/>
<path d="M53.6662 54.1151C53.3551 54.1151 53.0728 54.0565 52.8192 53.9393C52.5657 53.82 52.3643 53.6484 52.2152 53.4247C52.0661 53.1989 51.9915 52.9261 51.9915 52.6065C51.9915 52.3253 52.0469 52.0973 52.1577 51.9226C52.2685 51.7457 52.4165 51.6072 52.6019 51.5071C52.7873 51.407 52.9918 51.3324 53.2156 51.2834C53.4414 51.2322 53.6683 51.1918 53.8963 51.1619C54.1946 51.1236 54.4364 51.0948 54.6218 51.0756C54.8093 51.0543 54.9457 51.0192 55.0309 50.9702C55.1183 50.9212 55.1619 50.8359 55.1619 50.7145V50.6889C55.1619 50.3736 55.0756 50.1286 54.9031 49.9538C54.7326 49.7791 54.4737 49.6918 54.1264 49.6918C53.7663 49.6918 53.484 49.7706 53.2795 49.9283C53.0749 50.0859 52.9311 50.2543 52.848 50.4332L52.1321 50.1776C52.2599 49.8793 52.4304 49.647 52.6435 49.4808C52.8587 49.3125 53.093 49.1953 53.3466 49.1293C53.6023 49.0611 53.8537 49.027 54.1009 49.027C54.2585 49.027 54.4396 49.0462 54.6442 49.0845C54.8509 49.1207 55.0501 49.1964 55.2418 49.3114C55.4357 49.4265 55.5966 49.6001 55.7244 49.8324C55.8523 50.0646 55.9162 50.3757 55.9162 50.7656V54H55.1619V53.3352H55.1236C55.0724 53.4418 54.9872 53.5558 54.8679 53.6772C54.7486 53.7987 54.5898 53.902 54.3917 53.9872C54.1935 54.0724 53.9517 54.1151 53.6662 54.1151ZM53.7812 53.4375C54.0795 53.4375 54.331 53.3789 54.5355 53.2617C54.7422 53.1445 54.8977 52.9933 55.0021 52.8079C55.1087 52.6225 55.1619 52.4276 55.1619 52.223V51.5327C55.13 51.571 55.0597 51.6062 54.951 51.6381C54.8445 51.668 54.7209 51.6946 54.5803 51.718C54.4418 51.7393 54.3065 51.7585 54.1744 51.7756C54.0444 51.7905 53.9389 51.8033 53.858 51.8139C53.6619 51.8395 53.4787 51.881 53.3082 51.9386C53.1399 51.994 53.0036 52.0781 52.8991 52.1911C52.7969 52.3018 52.7457 52.4531 52.7457 52.6449C52.7457 52.907 52.8427 53.1051 53.0366 53.2393C53.2326 53.3714 53.4808 53.4375 53.7812 53.4375ZM58.0024 55.125V51.897H57.9704L56.9605 52.5682V51.8906L58.0024 51.2003H58.6672V55.125H58.0024ZM60.8237 55.125V51.897H60.7917L59.7818 52.5682V51.8906L60.8237 51.2003H61.4885V55.125H60.8237ZM82.0988 54.1151C81.7877 54.1151 81.5054 54.0565 81.2519 53.9393C80.9983 53.82 80.797 53.6484 80.6478 53.4247C80.4987 53.1989 80.4241 52.9261 80.4241 52.6065C80.4241 52.3253 80.4795 52.0973 80.5903 51.9226C80.7011 51.7457 80.8492 51.6072 81.0345 51.5071C81.2199 51.407 81.4244 51.3324 81.6482 51.2834C81.874 51.2322 82.1009 51.1918 82.3289 51.1619C82.6272 51.1236 82.8691 51.0948 83.0544 51.0756C83.2419 51.0543 83.3783 51.0192 83.4635 50.9702C83.5509 50.9212 83.5945 50.8359 83.5945 50.7145V50.6889C83.5945 50.3736 83.5083 50.1286 83.3357 49.9538C83.1652 49.7791 82.9063 49.6918 82.559 49.6918C82.199 49.6918 81.9166 49.7706 81.7121 49.9283C81.5075 50.0859 81.3637 50.2543 81.2806 50.4332L80.5647 50.1776C80.6926 49.8793 80.863 49.647 81.0761 49.4808C81.2913 49.3125 81.5257 49.1953 81.7792 49.1293C82.0349 49.0611 82.2863 49.027 82.5335 49.027C82.6911 49.027 82.8722 49.0462 83.0768 49.0845C83.2835 49.1207 83.4827 49.1964 83.6744 49.3114C83.8683 49.4265 84.0292 49.6001 84.157 49.8324C84.2849 50.0646 84.3488 50.3757 84.3488 50.7656V54H83.5945V53.3352H83.5562C83.5051 53.4418 83.4198 53.5558 83.3005 53.6772C83.1812 53.7987 83.0225 53.902 82.8243 53.9872C82.6262 54.0724 82.3843 54.1151 82.0988 54.1151ZM82.2139 53.4375C82.5122 53.4375 82.7636 53.3789 82.9681 53.2617C83.1748 53.1445 83.3303 52.9933 83.4347 52.8079C83.5413 52.6225 83.5945 52.4276 83.5945 52.223V51.5327C83.5626 51.571 83.4923 51.6062 83.3836 51.6381C83.2771 51.668 83.1535 51.6946 83.0129 51.718C82.8744 51.7393 82.7391 51.7585 82.607 51.7756C82.477 51.7905 82.3715 51.8033 82.2906 51.8139C82.0945 51.8395 81.9113 51.881 81.7409 51.9386C81.5725 51.994 81.4362 52.0781 81.3318 52.1911C81.2295 52.3018 81.1784 52.4531 81.1784 52.6449C81.1784 52.907 81.2753 53.1051 81.4692 53.2393C81.6652 53.3714 81.9134 53.4375 82.2139 53.4375ZM86.435 55.125V51.897H86.4031L85.3931 52.5682V51.8906L86.435 51.2003H87.0998V55.125H86.435ZM88.3039 55.125V54.6264L89.7996 53.2969C89.9488 53.1648 90.0734 53.0465 90.1736 52.9421C90.2737 52.8377 90.3493 52.7365 90.4005 52.6385C90.4516 52.5405 90.4772 52.4361 90.4772 52.3253C90.4772 52.1335 90.4037 51.9812 90.2567 51.8683C90.1096 51.7553 89.9275 51.6989 89.7101 51.6989C89.48 51.6989 89.2947 51.7607 89.154 51.8842C89.0134 52.0057 88.9431 52.1655 88.9431 52.3636H88.2783C88.2783 51.9993 88.4136 51.7063 88.6842 51.4847C88.9548 51.261 89.301 51.1491 89.7229 51.1491C90.0042 51.1491 90.2513 51.2003 90.4644 51.3026C90.6775 51.4027 90.8437 51.5412 90.963 51.718C91.0823 51.8928 91.142 52.0909 91.142 52.3125C91.142 52.4872 91.1068 52.6491 91.0365 52.7983C90.9662 52.9474 90.8564 53.1019 90.7073 53.2617C90.5581 53.4215 90.3664 53.6037 90.132 53.8082L89.301 54.5369V54.5625H91.257V55.125H88.3039ZM53.6662 76.1151C53.3551 76.1151 53.0728 76.0565 52.8192 75.9393C52.5657 75.82 52.3643 75.6484 52.2152 75.4247C52.0661 75.1989 51.9915 74.9261 51.9915 74.6065C51.9915 74.3253 52.0469 74.0973 52.1577 73.9226C52.2685 73.7457 52.4165 73.6072 52.6019 73.5071C52.7873 73.407 52.9918 73.3324 53.2156 73.2834C53.4414 73.2322 53.6683 73.1918 53.8963 73.1619C54.1946 73.1236 54.4364 73.0948 54.6218 73.0756C54.8093 73.0543 54.9457 73.0192 55.0309 72.9702C55.1183 72.9212 55.1619 72.8359 55.1619 72.7145V72.6889C55.1619 72.3736 55.0756 72.1286 54.9031 71.9538C54.7326 71.7791 54.4737 71.6918 54.1264 71.6918C53.7663 71.6918 53.484 71.7706 53.2795 71.9283C53.0749 72.0859 52.9311 72.2543 52.848 72.4332L52.1321 72.1776C52.2599 71.8793 52.4304 71.647 52.6435 71.4808C52.8587 71.3125 53.093 71.1953 53.3466 71.1293C53.6023 71.0611 53.8537 71.027 54.1009 71.027C54.2585 71.027 54.4396 71.0462 54.6442 71.0845C54.8509 71.1207 55.0501 71.1964 55.2418 71.3114C55.4357 71.4265 55.5966 71.6001 55.7244 71.8324C55.8523 72.0646 55.9162 72.3757 55.9162 72.7656V76H55.1619V75.3352H55.1236C55.0724 75.4418 54.9872 75.5558 54.8679 75.6772C54.7486 75.7987 54.5898 75.902 54.3917 75.9872C54.1935 76.0724 53.9517 76.1151 53.6662 76.1151ZM53.7812 75.4375C54.0795 75.4375 54.331 75.3789 54.5355 75.2617C54.7422 75.1445 54.8977 74.9933 55.0021 74.8079C55.1087 74.6225 55.1619 74.4276 55.1619 74.223V73.5327C55.13 73.571 55.0597 73.6062 54.951 73.6381C54.8445 73.668 54.7209 73.6946 54.5803 73.718C54.4418 73.7393 54.3065 73.7585 54.1744 73.7756C54.0444 73.7905 53.9389 73.8033 53.858 73.8139C53.6619 73.8395 53.4787 73.881 53.3082 73.9386C53.1399 73.994 53.0036 74.0781 52.8991 74.1911C52.7969 74.3018 52.7457 74.4531 52.7457 74.6449C52.7457 74.907 52.8427 75.1051 53.0366 75.2393C53.2326 75.3714 53.4808 75.4375 53.7812 75.4375ZM57.05 77.125V76.6264L58.5457 75.2969C58.6949 75.1648 58.8195 75.0465 58.9197 74.9421C59.0198 74.8377 59.0954 74.7365 59.1466 74.6385C59.1977 74.5405 59.2233 74.4361 59.2233 74.3253C59.2233 74.1335 59.1498 73.9812 59.0028 73.8683C58.8557 73.7553 58.6736 73.6989 58.4562 73.6989C58.2261 73.6989 58.0407 73.7607 57.9001 73.8842C57.7595 74.0057 57.6892 74.1655 57.6892 74.3636H57.0244C57.0244 73.9993 57.1597 73.7063 57.4303 73.4847C57.7009 73.261 58.0471 73.1491 58.469 73.1491C58.7503 73.1491 58.9974 73.2003 59.2105 73.3026C59.4236 73.4027 59.5898 73.5412 59.7091 73.718C59.8284 73.8928 59.8881 74.0909 59.8881 74.3125C59.8881 74.4872 59.8529 74.6491 59.7826 74.7983C59.7123 74.9474 59.6025 75.1019 59.4534 75.2617C59.3042 75.4215 59.1125 75.6037 58.8781 75.8082L58.0471 76.5369V76.5625H60.0031V77.125H57.05ZM61.7905 77.125V73.897H61.7585L60.7486 74.5682V73.8906L61.7905 73.2003H62.4553V77.125H61.7905ZM80.5344 76.1151C80.2233 76.1151 79.941 76.0565 79.6874 75.9393C79.4339 75.82 79.2325 75.6484 79.0834 75.4247C78.9342 75.1989 78.8596 74.9261 78.8596 74.6065C78.8596 74.3253 78.915 74.0973 79.0258 73.9226C79.1366 73.7457 79.2847 73.6072 79.4701 73.5071C79.6555 73.407 79.86 73.3324 80.0837 73.2834C80.3096 73.2322 80.5365 73.1918 80.7645 73.1619C81.0628 73.1236 81.3046 73.0948 81.49 73.0756C81.6775 73.0543 81.8138 73.0192 81.8991 72.9702C81.9864 72.9212 82.0301 72.8359 82.0301 72.7145V72.6889C82.0301 72.3736 81.9438 72.1286 81.7712 71.9538C81.6008 71.7791 81.3419 71.6918 80.9946 71.6918C80.6345 71.6918 80.3522 71.7706 80.1476 71.9283C79.9431 72.0859 79.7993 72.2543 79.7162 72.4332L79.0003 72.1776C79.1281 71.8793 79.2986 71.647 79.5116 71.4808C79.7268 71.3125 79.9612 71.1953 80.2148 71.1293C80.4704 71.0611 80.7219 71.027 80.969 71.027C81.1267 71.027 81.3078 71.0462 81.5123 71.0845C81.719 71.1207 81.9182 71.1964 82.11 71.3114C82.3039 71.4265 82.4648 71.6001 82.5926 71.8324C82.7204 72.0646 82.7844 72.3757 82.7844 72.7656V76H82.0301V75.3352H81.9917C81.9406 75.4418 81.8554 75.5558 81.7361 75.6772C81.6167 75.7987 81.458 75.902 81.2599 75.9872C81.0617 76.0724 80.8199 76.1151 80.5344 76.1151ZM80.6494 75.4375C80.9477 75.4375 81.1991 75.3789 81.4037 75.2617C81.6104 75.1445 81.7659 74.9933 81.8703 74.8079C81.9768 74.6225 82.0301 74.4276 82.0301 74.223V73.5327C81.9981 73.571 81.9278 73.6062 81.8192 73.6381C81.7126 73.668 81.589 73.6946 81.4484 73.718C81.3099 73.7393 81.1746 73.7585 81.0425 73.7756C80.9126 73.7905 80.8071 73.8033 80.7261 73.8139C80.5301 73.8395 80.3469 73.881 80.1764 73.9386C80.0081 73.994 79.8717 74.0781 79.7673 74.1911C79.665 74.3018 79.6139 74.4531 79.6139 74.6449C79.6139 74.907 79.7108 75.1051 79.9047 75.2393C80.1008 75.3714 80.349 75.4375 80.6494 75.4375ZM83.9181 77.125V76.6264L85.4139 75.2969C85.563 75.1648 85.6877 75.0465 85.7878 74.9421C85.888 74.8377 85.9636 74.7365 86.0147 74.6385C86.0659 74.5405 86.0914 74.4361 86.0914 74.3253C86.0914 74.1335 86.0179 73.9812 85.8709 73.8683C85.7239 73.7553 85.5417 73.6989 85.3244 73.6989C85.0943 73.6989 84.9089 73.7607 84.7683 73.8842C84.6277 74.0057 84.5574 74.1655 84.5574 74.3636H83.8926C83.8926 73.9993 84.0279 73.7063 84.2985 73.4847C84.5691 73.261 84.9153 73.1491 85.3372 73.1491C85.6184 73.1491 85.8656 73.2003 86.0787 73.3026C86.2917 73.4027 86.4579 73.5412 86.5772 73.718C86.6966 73.8928 86.7562 74.0909 86.7562 74.3125C86.7562 74.4872 86.7211 74.6491 86.6507 74.7983C86.5804 74.9474 86.4707 75.1019 86.3216 75.2617C86.1724 75.4215 85.9806 75.6037 85.7463 75.8082L84.9153 76.5369V76.5625H86.8713V77.125H83.9181ZM87.7062 77.125V76.6264L89.202 75.2969C89.3511 75.1648 89.4758 75.0465 89.5759 74.9421C89.676 74.8377 89.7517 74.7365 89.8028 74.6385C89.854 74.5405 89.8795 74.4361 89.8795 74.3253C89.8795 74.1335 89.806 73.9812 89.659 73.8683C89.512 73.7553 89.3298 73.6989 89.1125 73.6989C88.8824 73.6989 88.697 73.7607 88.5564 73.8842C88.4157 74.0057 88.3454 74.1655 88.3454 74.3636H87.6807C87.6807 73.9993 87.816 73.7063 88.0866 73.4847C88.3572 73.261 88.7034 73.1491 89.1253 73.1491C89.4065 73.1491 89.6537 73.2003 89.8667 73.3026C90.0798 73.4027 90.246 73.5412 90.3653 73.718C90.4846 73.8928 90.5443 74.0909 90.5443 74.3125C90.5443 74.4872 90.5091 74.6491 90.4388 74.7983C90.3685 74.9474 90.2588 75.1019 90.1096 75.2617C89.9605 75.4215 89.7687 75.6037 89.5344 75.8082L88.7034 76.5369V76.5625H90.6594V77.125H87.7062Z" fill="black"/>
<path d="M78 71L76.8565 65.3409L72.5273 69.1607L78 71ZM62.6251 54.3308L63.2501 55.0391L63.9999 54.3775L63.3749 53.6692L62.6251 54.3308ZM64.5001 56.4558L65.7501 57.8725L66.4999 57.2109L65.2499 55.7942L64.5001 56.4558ZM67.0001 59.2891L68.2501 60.7058L68.9999 60.0442L67.7499 58.6275L67.0001 59.2891ZM69.5001 62.1225L70.7501 63.5391L71.4999 62.8775L70.2499 61.4609L69.5001 62.1225ZM72.0001 64.9558L73.2501 66.3725L73.9999 65.7109L72.7499 64.2942L72.0001 64.9558ZM74.5001 67.7891L75.7501 69.2058L76.4999 68.5442L75.2499 67.1275L74.5001 67.7891Z" fill="black"/>
<path d="M80 54L74.4232 55.4943L78.5057 59.5768L80 54ZM63.3536 71.3536L64.0619 70.6452L63.3548 69.9381L62.6464 70.6464L63.3536 71.3536ZM65.4786 69.2286L66.8952 67.8119L66.1881 67.1048L64.7714 68.5214L65.4786 69.2286ZM68.3119 66.3952L69.7286 64.9786L69.0214 64.2714L67.6048 65.6881L68.3119 66.3952ZM71.1452 63.5619L72.5619 62.1452L71.8548 61.4381L70.4381 62.8548L71.1452 63.5619ZM73.9786 60.7286L75.3952 59.3119L74.6881 58.6048L73.2714 60.0214L73.9786 60.7286ZM76.8119 57.8952L78.2286 56.4786L77.5214 55.7714L76.1048 57.1881L76.8119 57.8952Z" fill="black"/>
<path d="M126.273 8.22727V46.5H125.034V8.22727H126.273ZM171.585 8.22727V46.5H170.347V8.22727H171.585Z" fill="#FF7F56"/>
<path d="M106.483 26.7216V26.0185H111.337V26.7216H106.483ZM106.483 29.1634V28.4602H111.337V29.1634H106.483Z" fill="black"/>
<path d="M118.648 19.1818V25H117.943V19.9205H117.909L116.489 20.8636V20.1477L117.943 19.1818H118.648ZM116.602 35V34.4886L118.523 32.3864C118.748 32.1402 118.934 31.9261 119.08 31.7443C119.225 31.5606 119.333 31.3883 119.403 31.2273C119.475 31.0644 119.511 30.8939 119.511 30.7159C119.511 30.5114 119.462 30.3343 119.364 30.1847C119.267 30.035 119.134 29.9195 118.966 29.8381C118.797 29.7566 118.608 29.7159 118.398 29.7159C118.174 29.7159 117.979 29.7623 117.812 29.8551C117.648 29.946 117.52 30.0739 117.429 30.2386C117.34 30.4034 117.295 30.5966 117.295 30.8182H116.625C116.625 30.4773 116.704 30.178 116.861 29.9205C117.018 29.6629 117.232 29.4621 117.503 29.3182C117.776 29.1742 118.081 29.1023 118.42 29.1023C118.761 29.1023 119.063 29.1742 119.327 29.3182C119.59 29.4621 119.796 29.6562 119.946 29.9006C120.096 30.1449 120.17 30.4167 120.17 30.7159C120.17 30.9299 120.132 31.1392 120.054 31.3438C119.978 31.5464 119.846 31.7727 119.656 32.0227C119.469 32.2708 119.208 32.5739 118.875 32.9318L117.568 34.3295V34.375H120.273V35H116.602Z" fill="black"/>
<path d="M41.8977 91.1818V97H41.1932V91.9205H41.1591L39.7386 92.8636V92.1477L41.1932 91.1818H41.8977ZM40.5604 109H39.8217L41.9581 103.182H42.6854L44.8217 109H44.0831L42.3445 104.102H42.299L40.5604 109ZM40.8331 106.727H43.8104V107.352H40.8331V106.727Z" fill="black"/>
<path d="M38.5909 101.307V110.875H38.0227V101.307H38.5909ZM46.6143 101.307V110.875H46.0462V101.307H46.6143Z" fill="#FF7F56"/>
<path d="M130.784 14.0909L131.96 16.098L133.136 14.0909H134.006L132.42 16.5455L134.006 19H133.136L131.96 17.0952L130.784 19H129.915L131.474 16.5455L129.915 14.0909H130.784ZM135.791 20.125V16.897H135.759L134.75 17.5682V16.8906L135.791 16.2003H136.456V20.125H135.791ZM145.983 20.8409C145.855 20.8409 145.741 20.8303 145.641 20.8089C145.541 20.7898 145.471 20.7706 145.433 20.7514L145.625 20.0866C145.808 20.1335 145.97 20.1506 146.111 20.1378C146.251 20.125 146.376 20.0621 146.485 19.9492C146.595 19.8384 146.697 19.6584 146.788 19.4091L146.929 19.0256L145.113 14.0909H145.932L147.287 18.0028H147.338L148.693 14.0909H149.511L147.427 19.7159C147.334 19.9695 147.218 20.1793 147.079 20.3455C146.941 20.5138 146.78 20.6385 146.596 20.7195C146.415 20.8004 146.211 20.8409 145.983 20.8409ZM151.216 20.125V16.897H151.184L150.174 17.5682V16.8906L151.216 16.2003H151.881V20.125H151.216ZM165.741 12.4545V19H164.949V13.2855H164.91L163.312 14.3466V13.5412L164.949 12.4545H165.741ZM130.784 25.0909L131.96 27.098L133.136 25.0909H134.006L132.42 27.5455L134.006 30H133.136L131.96 28.0952L130.784 30H129.915L131.474 27.5455L129.915 25.0909H130.784ZM134.839 31.125V30.6264L136.335 29.2969C136.484 29.1648 136.609 29.0465 136.709 28.9421C136.809 28.8377 136.884 28.7365 136.936 28.6385C136.987 28.5405 137.012 28.4361 137.012 28.3253C137.012 28.1335 136.939 27.9812 136.792 27.8683C136.645 27.7553 136.463 27.6989 136.245 27.6989C136.015 27.6989 135.83 27.7607 135.689 27.8842C135.549 28.0057 135.478 28.1655 135.478 28.3636H134.813C134.813 27.9993 134.949 27.7063 135.219 27.4847C135.49 27.261 135.836 27.1491 136.258 27.1491C136.539 27.1491 136.786 27.2003 137 27.3026C137.213 27.4027 137.379 27.5412 137.498 27.718C137.617 27.8928 137.677 28.0909 137.677 28.3125C137.677 28.4872 137.642 28.6491 137.572 28.7983C137.501 28.9474 137.392 29.1019 137.242 29.2617C137.093 29.4215 136.902 29.6037 136.667 29.8082L135.836 30.5369V30.5625H137.792V31.125H134.839ZM146.95 31.8409C146.822 31.8409 146.708 31.8303 146.608 31.8089C146.507 31.7898 146.438 31.7706 146.4 31.7514L146.592 31.0866C146.775 31.1335 146.937 31.1506 147.077 31.1378C147.218 31.125 147.343 31.0621 147.451 30.9492C147.562 30.8384 147.663 30.6584 147.755 30.4091L147.896 30.0256L146.08 25.0909H146.898L148.254 29.0028H148.305L149.66 25.0909H150.478L148.394 30.7159C148.3 30.9695 148.184 31.1793 148.046 31.3455C147.907 31.5138 147.746 31.6385 147.563 31.7195C147.382 31.8004 147.178 31.8409 146.95 31.8409ZM151.231 31.125V30.6264L152.726 29.2969C152.876 29.1648 153 29.0465 153.1 28.9421C153.2 28.8377 153.276 28.7365 153.327 28.6385C153.378 28.5405 153.404 28.4361 153.404 28.3253C153.404 28.1335 153.33 27.9812 153.183 27.8683C153.036 27.7553 152.854 27.6989 152.637 27.6989C152.407 27.6989 152.221 27.7607 152.081 27.8842C151.94 28.0057 151.87 28.1655 151.87 28.3636H151.205C151.205 27.9993 151.34 27.7063 151.611 27.4847C151.882 27.261 152.228 27.1491 152.65 27.1491C152.931 27.1491 153.178 27.2003 153.391 27.3026C153.604 27.4027 153.77 27.5412 153.89 27.718C154.009 27.8928 154.069 28.0909 154.069 28.3125C154.069 28.4872 154.034 28.6491 153.963 28.7983C153.893 28.9474 153.783 29.1019 153.634 29.2617C153.485 29.4215 153.293 29.6037 153.059 29.8082L152.228 30.5369V30.5625H154.184V31.125H151.231ZM165.144 23.4545V30H164.351V24.2855H164.313L162.715 25.3466V24.5412L164.351 23.4545H165.144ZM130.784 36.0909L131.96 38.098L133.136 36.0909H134.006L132.42 38.5455L134.006 41H133.136L131.96 39.0952L130.784 41H129.915L131.474 38.5455L129.915 36.0909H130.784ZM136.322 42.1761C136.028 42.1761 135.765 42.1271 135.533 42.0291C135.302 41.9311 135.119 41.7958 134.983 41.6232C134.849 41.4506 134.779 41.2514 134.775 41.0256H135.478C135.485 41.1982 135.568 41.3366 135.728 41.4411C135.887 41.5476 136.085 41.6009 136.322 41.6009C136.571 41.6009 136.776 41.5433 136.936 41.4283C137.098 41.3132 137.179 41.1662 137.179 40.9872C137.179 40.8082 137.092 40.6612 136.92 40.5462C136.749 40.4311 136.52 40.3736 136.233 40.3736H135.913V39.8622H136.233C136.469 39.8622 136.666 39.8089 136.824 39.7024C136.984 39.5959 137.063 39.4531 137.063 39.2741C137.063 39.108 136.996 38.9705 136.862 38.8619C136.728 38.7532 136.552 38.6989 136.335 38.6989C136.117 38.6989 135.93 38.7521 135.772 38.8587C135.617 38.9652 135.536 39.108 135.529 39.2869H134.865C134.869 39.0611 134.936 38.8629 135.066 38.6925C135.198 38.522 135.374 38.3888 135.593 38.293C135.815 38.1971 136.062 38.1491 136.335 38.1491C136.612 38.1491 136.856 38.196 137.067 38.2898C137.278 38.3835 137.443 38.5124 137.562 38.6765C137.681 38.8406 137.741 39.027 137.741 39.2358C137.741 39.4659 137.662 39.6545 137.505 39.8015C137.347 39.9485 137.153 40.0412 136.923 40.0795V40.1051C137.236 40.1499 137.476 40.2575 137.642 40.4279C137.81 40.5984 137.894 40.8018 137.894 41.0384C137.894 41.2557 137.827 41.4496 137.693 41.62C137.559 41.7926 137.373 41.9279 137.137 42.0259C136.9 42.1261 136.629 42.1761 136.322 42.1761ZM147.037 42.8409C146.91 42.8409 146.796 42.8303 146.695 42.8089C146.595 42.7898 146.526 42.7706 146.488 42.7514L146.68 42.0866C146.863 42.1335 147.025 42.1506 147.165 42.1378C147.306 42.125 147.431 42.0621 147.539 41.9492C147.65 41.8384 147.751 41.6584 147.843 41.4091L147.983 41.0256L146.168 36.0909H146.986L148.341 40.0028H148.393L149.748 36.0909H150.566L148.482 41.7159C148.388 41.9695 148.272 42.1793 148.134 42.3455C147.995 42.5138 147.834 42.6385 147.651 42.7195C147.47 42.8004 147.265 42.8409 147.037 42.8409ZM152.801 42.1761C152.507 42.1761 152.244 42.1271 152.012 42.0291C151.782 41.9311 151.599 41.7958 151.462 41.6232C151.328 41.4506 151.259 41.2514 151.255 41.0256H151.958C151.964 41.1982 152.047 41.3366 152.207 41.4411C152.367 41.5476 152.565 41.6009 152.801 41.6009C153.051 41.6009 153.255 41.5433 153.415 41.4283C153.577 41.3132 153.658 41.1662 153.658 40.9872C153.658 40.8082 153.572 40.6612 153.399 40.5462C153.229 40.4311 153 40.3736 152.712 40.3736H152.392V39.8622H152.712C152.949 39.8622 153.146 39.8089 153.303 39.7024C153.463 39.5959 153.543 39.4531 153.543 39.2741C153.543 39.108 153.476 38.9705 153.342 38.8619C153.207 38.7532 153.032 38.6989 152.814 38.6989C152.597 38.6989 152.409 38.7521 152.252 38.8587C152.096 38.9652 152.015 39.108 152.009 39.2869H151.344C151.348 39.0611 151.415 38.8629 151.545 38.6925C151.678 38.522 151.853 38.3888 152.073 38.293C152.294 38.1971 152.542 38.1491 152.814 38.1491C153.091 38.1491 153.335 38.196 153.546 38.2898C153.757 38.3835 153.922 38.5124 154.042 38.6765C154.161 38.8406 154.221 39.027 154.221 39.2358C154.221 39.4659 154.142 39.6545 153.984 39.8015C153.826 39.9485 153.632 40.0412 153.402 40.0795V40.1051C153.716 40.1499 153.955 40.2575 154.121 40.4279C154.29 40.5984 154.374 40.8018 154.374 41.0384C154.374 41.2557 154.307 41.4496 154.173 41.62C154.038 41.7926 153.853 41.9279 153.616 42.0259C153.38 42.1261 153.108 42.1761 152.801 42.1761ZM165.32 34.4545V41H164.527V35.2855H164.489L162.891 36.3466V35.5412L164.527 34.4545H165.32Z" fill="black"/>
<path d="M25.6464 17.6464C25.4512 17.8417 25.4512 18.1583 25.6464 18.3536L28.8284 21.5355C29.0237 21.7308 29.3403 21.7308 29.5355 21.5355C29.7308 21.3403 29.7308 21.0237 29.5355 20.8284L26.7071 18L29.5355 15.1716C29.7308 14.9763 29.7308 14.6597 29.5355 14.4645C29.3403 14.2692 29.0237 14.2692 28.8284 14.4645L25.6464 17.6464ZM43.3536 18.3536C43.5488 18.1583 43.5488 17.8417 43.3536 17.6464L40.1716 14.4645C39.9763 14.2692 39.6597 14.2692 39.4645 14.4645C39.2692 14.6597 39.2692 14.9763 39.4645 15.1716L42.2929 18L39.4645 20.8284C39.2692 21.0237 39.2692 21.3403 39.4645 21.5355C39.6597 21.7308 39.9763 21.7308 40.1716 21.5355L43.3536 18.3536ZM26 18.5H43V17.5H26V18.5Z" fill="#FF7F56"/>
<path d="M139.354 105.354C139.549 105.158 139.549 104.842 139.354 104.646L136.172 101.464C135.976 101.269 135.66 101.269 135.464 101.464C135.269 101.66 135.269 101.976 135.464 102.172L138.293 105L135.464 107.828C135.269 108.024 135.269 108.34 135.464 108.536C135.66 108.731 135.976 108.731 136.172 108.536L139.354 105.354ZM122 105.5H139V104.5H122V105.5Z" fill="#FF7F56"/>
<line x1="115" y1="26.5" x2="121" y2="26.5" stroke="black"/>
<line x1="37" y1="99.5" x2="48" y2="99.5" stroke="black"/>
</svg>
