<svg width="164" height="164" viewBox="0 0 164 164" fill="none" xmlns="http://www.w3.org/2000/svg">
<circle cx="82" cy="82" r="82" fill="#F7C935"/>
<path d="M88.842 131C87.9287 131 87.2893 130.589 86.924 129.767L68.84 90.311C68.6573 89.9457 68.3833 89.763 68.018 89.763H51.578C51.1213 89.763 50.893 89.9913 50.893 90.448V129.356C50.893 129.813 50.7103 130.224 50.345 130.589C50.071 130.863 49.7057 131 49.249 131H36.645C36.1883 131 35.7773 130.863 35.412 130.589C35.138 130.224 35.001 129.813 35.001 129.356V36.744C35.001 36.2873 35.138 35.922 35.412 35.648C35.7773 35.2827 36.1883 35.1 36.645 35.1H74.32C79.8913 35.1 84.8233 36.2873 89.116 38.662C93.4087 40.9453 96.7423 44.2333 99.117 48.526C101.492 52.7273 102.679 57.568 102.679 63.048C102.679 69.35 101.035 74.7387 97.747 79.214C94.5503 83.598 90.075 86.6577 84.321 88.393C84.1383 88.393 84.0013 88.4843 83.91 88.667C83.8187 88.8497 83.8187 89.0323 83.91 89.215L103.227 129.082C103.41 129.447 103.501 129.721 103.501 129.904C103.501 130.635 102.999 131 101.994 131H88.842ZM51.578 48.8C51.1213 48.8 50.893 49.0283 50.893 49.485V76.748C50.893 77.2047 51.1213 77.433 51.578 77.433H72.128C76.512 77.433 80.0283 76.1543 82.677 73.597C85.417 70.9483 86.787 67.4777 86.787 63.185C86.787 58.8923 85.417 55.4217 82.677 52.773C80.0283 50.1243 76.512 48.8 72.128 48.8H51.578ZM127.241 131.274C124.409 131.274 122.08 130.361 120.254 128.534C118.427 126.707 117.514 124.378 117.514 121.547C117.514 118.716 118.427 116.387 120.254 114.56C122.08 112.733 124.409 111.82 127.241 111.82C130.072 111.82 132.355 112.733 134.091 114.56C135.917 116.387 136.831 118.716 136.831 121.547C136.831 124.378 135.917 126.707 134.091 128.534C132.264 130.361 129.981 131.274 127.241 131.274Z" fill="black"/>
</svg>
