<svg width="100" height="100" viewBox="0 0 100 100" fill="none" xmlns="http://www.w3.org/2000/svg">
<path d="M90.479 2.51301C75.868 2.47201 21.977 2.54101 9.521 2.51301C5.645 2.51301 2.5 5.56201 2.5 9.31701V90.698C2.5 94.454 5.645 97.5 9.521 97.5H90.479C94.357 97.5 97.5 94.454 97.5 90.697V9.31701C97.5 5.56201 94.357 2.51301 90.479 2.51301Z" fill="#00A0DC"/>
<path d="M53.453 82.005V58.126C53.314 53.738 55.937 49.643 61.215 49.459C66.358 49.459 68.416 53.38 68.416 59.129V82.004H82.63V57.485C82.63 44.35 75.618 38.238 66.265 38.238C58.597 38.238 55.229 42.523 53.358 45.442L53.453 39.242H39.239C39.424 43.254 39.238 82.005 39.238 82.005H53.453ZM31.37 63.461V39.241H17.154V82.004H31.371C31.368 77.514 31.376 67.888 31.37 63.461ZM24.265 33.404C29.221 33.404 32.307 30.12 32.307 26.017C32.266 16.12 16.303 16.23 16.316 26.016C16.305 30.151 19.476 33.455 24.265 33.404Z" fill="white"/>
</svg>
