<svg width="190" height="120" viewBox="0 0 190 120" fill="none" xmlns="http://www.w3.org/2000/svg">
<rect width="190" height="120" fill="white"/>
<path d="M13.644 11.848V13.472H11.18V41.556H13.644V43.208H9.332V11.848H13.644ZM46.276 43.208H41.964V41.556H44.428V13.472H41.964V11.848H46.276V43.208Z" fill="#FF7F56"/>
<path d="M83.012 22.848V23.352H80.94V53.676H83.012V54.18H80.38V22.848H83.012ZM96.8003 54.18H94.1683V53.676H96.2403V23.352H94.1683V22.848H96.8003V54.18Z" fill="#FF7F56"/>
<path d="M133.371 78.782V80.348H130.995V107.429H133.371V109.022H129.213V78.782H133.371ZM179.656 109.022H175.498V107.429H177.874V80.348H175.498V78.782H179.656V109.022Z" fill="#FF7F56"/>
<path d="M16.1322 14.52V13.939H17.4482V19H16.8042V14.52H16.1322ZM26.0072 16.417C26.0072 15.6143 26.1379 14.989 26.3992 14.541C26.6606 14.0883 27.1179 13.862 27.7712 13.862C28.4199 13.862 28.8749 14.0883 29.1362 14.541C29.3976 14.989 29.5282 15.6143 29.5282 16.417C29.5282 17.2337 29.3976 17.8683 29.1362 18.321C28.8749 18.7737 28.4199 19 27.7712 19C27.1179 19 26.6606 18.7737 26.3992 18.321C26.1379 17.8683 26.0072 17.2337 26.0072 16.417ZM28.8982 16.417C28.8982 16.011 28.8702 15.668 28.8142 15.388C28.7629 15.1033 28.6532 14.8747 28.4852 14.702C28.3219 14.5293 28.0839 14.443 27.7712 14.443C27.4539 14.443 27.2112 14.5293 27.0432 14.702C26.8799 14.8747 26.7702 15.1033 26.7142 15.388C26.6629 15.668 26.6372 16.011 26.6372 16.417C26.6372 16.837 26.6629 17.1893 26.7142 17.474C26.7702 17.7587 26.8799 17.9873 27.0432 18.16C27.2112 18.3327 27.4539 18.419 27.7712 18.419C28.0839 18.419 28.3219 18.3327 28.4852 18.16C28.6532 17.9873 28.7629 17.7587 28.8142 17.474C28.8702 17.1893 28.8982 16.837 28.8982 16.417ZM36.0014 16.417C36.0014 15.6143 36.132 14.989 36.3934 14.541C36.6547 14.0883 37.112 13.862 37.7654 13.862C38.414 13.862 38.869 14.0883 39.1304 14.541C39.3917 14.989 39.5224 15.6143 39.5224 16.417C39.5224 17.2337 39.3917 17.8683 39.1304 18.321C38.869 18.7737 38.414 19 37.7654 19C37.112 19 36.6547 18.7737 36.3934 18.321C36.132 17.8683 36.0014 17.2337 36.0014 16.417ZM38.8924 16.417C38.8924 16.011 38.8644 15.668 38.8084 15.388C38.757 15.1033 38.6474 14.8747 38.4794 14.702C38.316 14.5293 38.078 14.443 37.7654 14.443C37.448 14.443 37.2054 14.5293 37.0374 14.702C36.874 14.8747 36.7644 15.1033 36.7084 15.388C36.657 15.668 36.6314 16.011 36.6314 16.417C36.6314 16.837 36.657 17.1893 36.7084 17.474C36.7644 17.7587 36.874 17.9873 37.0374 18.16C37.2054 18.3327 37.448 18.419 37.7654 18.419C38.078 18.419 38.316 18.3327 38.4794 18.16C38.6474 17.9873 38.757 17.7587 38.8084 17.474C38.8644 17.1893 38.8924 16.837 38.8924 16.417ZM16.3002 27.417C16.3002 26.6143 16.4309 25.989 16.6922 25.541C16.9535 25.0883 17.4109 24.862 18.0642 24.862C18.7129 24.862 19.1679 25.0883 19.4292 25.541C19.6905 25.989 19.8212 26.6143 19.8212 27.417C19.8212 28.2337 19.6905 28.8683 19.4292 29.321C19.1679 29.7737 18.7129 30 18.0642 30C17.4109 30 16.9535 29.7737 16.6922 29.321C16.4309 28.8683 16.3002 28.2337 16.3002 27.417ZM19.1912 27.417C19.1912 27.011 19.1632 26.668 19.1072 26.388C19.0559 26.1033 18.9462 25.8747 18.7782 25.702C18.6149 25.5293 18.3769 25.443 18.0642 25.443C17.7469 25.443 17.5042 25.5293 17.3362 25.702C17.1729 25.8747 17.0632 26.1033 17.0072 26.388C16.9559 26.668 16.9302 27.011 16.9302 27.417C16.9302 27.837 16.9559 28.1893 17.0072 28.474C17.0632 28.7587 17.1729 28.9873 17.3362 29.16C17.5042 29.3327 17.7469 29.419 18.0642 29.419C18.3769 29.419 18.6149 29.3327 18.7782 29.16C18.9462 28.9873 19.0559 28.7587 19.1072 28.474C19.1632 28.1893 19.1912 27.837 19.1912 27.417ZM26.1264 25.52V24.939H27.4424V30H26.7984V25.52H26.1264ZM36.0014 27.417C36.0014 26.6143 36.132 25.989 36.3934 25.541C36.6547 25.0883 37.112 24.862 37.7654 24.862C38.414 24.862 38.869 25.0883 39.1304 25.541C39.3917 25.989 39.5224 26.6143 39.5224 27.417C39.5224 28.2337 39.3917 28.8683 39.1304 29.321C38.869 29.7737 38.414 30 37.7654 30C37.112 30 36.6547 29.7737 36.3934 29.321C36.132 28.8683 36.0014 28.2337 36.0014 27.417ZM38.8924 27.417C38.8924 27.011 38.8644 26.668 38.8084 26.388C38.757 26.1033 38.6474 25.8747 38.4794 25.702C38.316 25.5293 38.078 25.443 37.7654 25.443C37.448 25.443 37.2054 25.5293 37.0374 25.702C36.874 25.8747 36.7644 26.1033 36.7084 26.388C36.657 26.668 36.6314 27.011 36.6314 27.417C36.6314 27.837 36.657 28.1893 36.7084 28.474C36.7644 28.7587 36.874 28.9873 37.0374 29.16C37.2054 29.3327 37.448 29.419 37.7654 29.419C38.078 29.419 38.316 29.3327 38.4794 29.16C38.6474 28.9873 38.757 28.7587 38.8084 28.474C38.8644 28.1893 38.8924 27.837 38.8924 27.417ZM16.3002 38.417C16.3002 37.6143 16.4309 36.989 16.6922 36.541C16.9535 36.0883 17.4109 35.862 18.0642 35.862C18.7129 35.862 19.1679 36.0883 19.4292 36.541C19.6905 36.989 19.8212 37.6143 19.8212 38.417C19.8212 39.2337 19.6905 39.8683 19.4292 40.321C19.1679 40.7737 18.7129 41 18.0642 41C17.4109 41 16.9535 40.7737 16.6922 40.321C16.4309 39.8683 16.3002 39.2337 16.3002 38.417ZM19.1912 38.417C19.1912 38.011 19.1632 37.668 19.1072 37.388C19.0559 37.1033 18.9462 36.8747 18.7782 36.702C18.6149 36.5293 18.3769 36.443 18.0642 36.443C17.7469 36.443 17.5042 36.5293 17.3362 36.702C17.1729 36.8747 17.0632 37.1033 17.0072 37.388C16.9559 37.668 16.9302 38.011 16.9302 38.417C16.9302 38.837 16.9559 39.1893 17.0072 39.474C17.0632 39.7587 17.1729 39.9873 17.3362 40.16C17.5042 40.3327 17.7469 40.419 18.0642 40.419C18.3769 40.419 18.6149 40.3327 18.7782 40.16C18.9462 39.9873 19.0559 39.7587 19.1072 39.474C19.1632 39.1893 19.1912 38.837 19.1912 38.417ZM26.2944 38.417C26.2944 37.6143 26.425 36.989 26.6864 36.541C26.9477 36.0883 27.405 35.862 28.0584 35.862C28.707 35.862 29.162 36.0883 29.4234 36.541C29.6847 36.989 29.8154 37.6143 29.8154 38.417C29.8154 39.2337 29.6847 39.8683 29.4234 40.321C29.162 40.7737 28.707 41 28.0584 41C27.405 41 26.9477 40.7737 26.6864 40.321C26.425 39.8683 26.2944 39.2337 26.2944 38.417ZM29.1854 38.417C29.1854 38.011 29.1574 37.668 29.1014 37.388C29.05 37.1033 28.9404 36.8747 28.7724 36.702C28.609 36.5293 28.371 36.443 28.0584 36.443C27.741 36.443 27.4984 36.5293 27.3304 36.702C27.167 36.8747 27.0574 37.1033 27.0014 37.388C26.95 37.668 26.9244 38.011 26.9244 38.417C26.9244 38.837 26.95 39.1893 27.0014 39.474C27.0574 39.7587 27.167 39.9873 27.3304 40.16C27.4984 40.3327 27.741 40.419 28.0584 40.419C28.371 40.419 28.609 40.3327 28.7724 40.16C28.9404 39.9873 29.05 39.7587 29.1014 39.474C29.1574 39.1893 29.1854 38.837 29.1854 38.417ZM36.1205 36.52V35.939H37.4365V41H36.7925V36.52H36.1205Z" fill="black"/>
<path d="M86.1322 25.52V24.939H87.4482V30H86.8042V25.52H86.1322ZM88.4654 29.489C89.0581 29.013 89.5224 28.6233 89.8584 28.32C90.1944 28.012 90.4767 27.6923 90.7054 27.361C90.9387 27.025 91.0554 26.696 91.0554 26.374C91.0554 26.0707 90.9807 25.8327 90.8314 25.66C90.6867 25.4827 90.4511 25.394 90.1244 25.394C89.8071 25.394 89.5597 25.4943 89.3824 25.695C89.2097 25.891 89.1164 26.1547 89.1024 26.486H88.4864C88.5051 25.9633 88.6637 25.5597 88.9624 25.275C89.2611 24.9903 89.6461 24.848 90.1174 24.848C90.5981 24.848 90.9784 24.981 91.2584 25.247C91.5431 25.513 91.6854 25.8793 91.6854 26.346C91.6854 26.7333 91.5687 27.1113 91.3354 27.48C91.1067 27.844 90.8454 28.166 90.5514 28.446C90.2574 28.7213 89.8817 29.0433 89.4244 29.412H91.8324V29.944H88.4654V29.489ZM84.357 40.489C84.9497 40.013 85.414 39.6233 85.75 39.32C86.086 39.012 86.3683 38.6923 86.597 38.361C86.8303 38.025 86.947 37.696 86.947 37.374C86.947 37.0707 86.8723 36.8327 86.723 36.66C86.5783 36.4827 86.3427 36.394 86.016 36.394C85.6987 36.394 85.4513 36.4943 85.274 36.695C85.1013 36.891 85.008 37.1547 84.994 37.486H84.378C84.3967 36.9633 84.5553 36.5597 84.854 36.275C85.1527 35.9903 85.5377 35.848 86.009 35.848C86.4897 35.848 86.87 35.981 87.15 36.247C87.4347 36.513 87.577 36.8793 87.577 37.346C87.577 37.7333 87.4603 38.1113 87.227 38.48C86.9983 38.844 86.737 39.166 86.443 39.446C86.149 39.7213 85.7733 40.0433 85.316 40.412H87.724V40.944H84.357V40.489ZM88.4464 37.213C88.479 36.7837 88.6447 36.4477 88.9434 36.205C89.242 35.9623 89.6294 35.841 90.1054 35.841C90.4227 35.841 90.6957 35.8993 90.9244 36.016C91.1577 36.128 91.3327 36.282 91.4494 36.478C91.5707 36.674 91.6314 36.8957 91.6314 37.143C91.6314 37.4323 91.5474 37.682 91.3794 37.892C91.216 38.102 91.0014 38.2373 90.7354 38.298V38.333C91.0387 38.4077 91.279 38.5547 91.4564 38.774C91.6337 38.9933 91.7224 39.2803 91.7224 39.635C91.7224 39.901 91.6617 40.1413 91.5404 40.356C91.419 40.566 91.237 40.7317 90.9944 40.853C90.7517 40.9743 90.46 41.035 90.1194 41.035C89.6247 41.035 89.2187 40.9067 88.9014 40.65C88.584 40.3887 88.4067 40.02 88.3694 39.544H88.9854C89.018 39.824 89.1324 40.0527 89.3284 40.23C89.5244 40.4073 89.7857 40.496 90.1124 40.496C90.439 40.496 90.6864 40.412 90.8544 40.244C91.027 40.0713 91.1134 39.8497 91.1134 39.579C91.1134 39.229 90.9967 38.977 90.7634 38.823C90.53 38.669 90.1777 38.592 89.7064 38.592H89.5454V38.06H89.7134C90.1427 38.0553 90.467 37.9853 90.6864 37.85C90.9057 37.71 91.0154 37.4953 91.0154 37.206C91.0154 36.9587 90.9337 36.7603 90.7704 36.611C90.6117 36.4617 90.383 36.387 90.0844 36.387C89.795 36.387 89.5617 36.4617 89.3844 36.611C89.207 36.7603 89.102 36.961 89.0694 37.213H88.4464ZM87.255 48.143C87.1523 47.625 86.8327 47.366 86.296 47.366C85.8807 47.366 85.5703 47.527 85.365 47.849C85.1597 48.1663 85.0593 48.6913 85.064 49.424C85.1713 49.1813 85.3487 48.9923 85.596 48.857C85.848 48.717 86.128 48.647 86.436 48.647C86.9167 48.647 87.2993 48.7963 87.584 49.095C87.8733 49.3937 88.018 49.8067 88.018 50.334C88.018 50.6513 87.955 50.936 87.829 51.188C87.7077 51.44 87.521 51.6407 87.269 51.79C87.0217 51.9393 86.7207 52.014 86.366 52.014C85.8853 52.014 85.5097 51.9067 85.239 51.692C84.9683 51.4773 84.7793 51.181 84.672 50.803C84.5647 50.425 84.511 49.9583 84.511 49.403C84.511 47.6903 85.1083 46.834 86.303 46.834C86.7603 46.834 87.1197 46.9577 87.381 47.205C87.6423 47.4523 87.7963 47.765 87.843 48.143H87.255ZM86.303 49.186C86.1023 49.186 85.9133 49.228 85.736 49.312C85.5587 49.3913 85.414 49.515 85.302 49.683C85.1947 49.8463 85.141 50.047 85.141 50.285C85.141 50.6397 85.2437 50.929 85.449 51.153C85.6543 51.3723 85.9483 51.482 86.331 51.482C86.6577 51.482 86.9167 51.3817 87.108 51.181C87.304 50.9757 87.402 50.7003 87.402 50.355C87.402 49.991 87.3087 49.7063 87.122 49.501C86.9353 49.291 86.6623 49.186 86.303 49.186ZM91.9924 47.436L90.0464 52H89.4024L91.3764 47.499H88.6744V46.953H91.9924V47.436Z" fill="black"/>
<path d="M137.111 85.0767C136.903 85.0767 136.715 85.0376 136.546 84.9595C136.377 84.88 136.243 84.7656 136.143 84.6165C136.044 84.4659 135.994 84.2841 135.994 84.071C135.994 83.8835 136.031 83.7315 136.105 83.6151C136.179 83.4972 136.278 83.4048 136.401 83.3381C136.525 83.2713 136.661 83.2216 136.81 83.1889C136.961 83.1548 137.112 83.1278 137.264 83.108C137.463 83.0824 137.624 83.0632 137.748 83.0504C137.873 83.0362 137.964 83.0128 138.021 82.9801C138.079 82.9474 138.108 82.8906 138.108 82.8097V82.7926C138.108 82.5824 138.05 82.419 137.935 82.3026C137.822 82.1861 137.649 82.1278 137.418 82.1278C137.178 82.1278 136.989 82.1804 136.853 82.2855C136.717 82.3906 136.621 82.5028 136.565 82.6222L136.088 82.4517C136.173 82.2528 136.287 82.098 136.429 81.9872C136.572 81.875 136.729 81.7969 136.898 81.7528C137.068 81.7074 137.236 81.6847 137.401 81.6847C137.506 81.6847 137.626 81.6974 137.763 81.723C137.901 81.7472 138.033 81.7976 138.161 81.8743C138.29 81.951 138.398 82.0668 138.483 82.2216C138.568 82.3764 138.611 82.5838 138.611 82.8438V85H138.108V84.5568H138.082C138.048 84.6278 137.991 84.7038 137.912 84.7848C137.832 84.8658 137.727 84.9347 137.594 84.9915C137.462 85.0483 137.301 85.0767 137.111 85.0767ZM137.188 84.625C137.386 84.625 137.554 84.5859 137.69 84.5078C137.828 84.4297 137.932 84.3288 138.001 84.2053C138.072 84.0817 138.108 83.9517 138.108 83.8153V83.3551C138.087 83.3807 138.04 83.4041 137.967 83.4254C137.896 83.4453 137.814 83.4631 137.72 83.4787C137.628 83.4929 137.538 83.5057 137.45 83.517C137.363 83.527 137.293 83.5355 137.239 83.5426C137.108 83.5597 136.986 83.5874 136.872 83.6257C136.76 83.6626 136.669 83.7187 136.599 83.794C136.531 83.8679 136.497 83.9687 136.497 84.0966C136.497 84.2713 136.562 84.4034 136.691 84.4929C136.822 84.581 136.987 84.625 137.188 84.625ZM140.002 85.75V83.598H139.98L139.307 84.0455V83.5938L140.002 83.1335H140.445V85.75H140.002ZM141.882 85.75V83.598H141.861L141.188 84.0455V83.5938L141.882 83.1335H142.326V85.75H141.882ZM151.003 85.0767C150.796 85.0767 150.608 85.0376 150.439 84.9595C150.27 84.88 150.135 84.7656 150.036 84.6165C149.937 84.4659 149.887 84.2841 149.887 84.071C149.887 83.8835 149.924 83.7315 149.998 83.6151C150.072 83.4972 150.17 83.4048 150.294 83.3381C150.417 83.2713 150.554 83.2216 150.703 83.1889C150.854 83.1548 151.005 83.1278 151.157 83.108C151.356 83.0824 151.517 83.0632 151.64 83.0504C151.765 83.0362 151.856 83.0128 151.913 82.9801C151.971 82.9474 152.001 82.8906 152.001 82.8097V82.7926C152.001 82.5824 151.943 82.419 151.828 82.3026C151.714 82.1861 151.542 82.1278 151.31 82.1278C151.07 82.1278 150.882 82.1804 150.746 82.2855C150.609 82.3906 150.513 82.5028 150.458 82.6222L149.981 82.4517C150.066 82.2528 150.18 82.098 150.322 81.9872C150.465 81.875 150.621 81.7969 150.79 81.7528C150.961 81.7074 151.128 81.6847 151.293 81.6847C151.398 81.6847 151.519 81.6974 151.655 81.723C151.793 81.7472 151.926 81.7976 152.054 81.8743C152.183 81.951 152.29 82.0668 152.376 82.2216C152.461 82.3764 152.503 82.5838 152.503 82.8438V85H152.001V84.5568H151.975C151.941 84.6278 151.884 84.7038 151.805 84.7848C151.725 84.8658 151.619 84.9347 151.487 84.9915C151.355 85.0483 151.194 85.0767 151.003 85.0767ZM151.08 84.625C151.279 84.625 151.447 84.5859 151.583 84.5078C151.721 84.4297 151.824 84.3288 151.894 84.2053C151.965 84.0817 152.001 83.9517 152.001 83.8153V83.3551C151.979 83.3807 151.932 83.4041 151.86 83.4254C151.789 83.4453 151.706 83.4631 151.613 83.4787C151.52 83.4929 151.43 83.5057 151.342 83.517C151.256 83.527 151.185 83.5355 151.131 83.5426C151.001 83.5597 150.878 83.5874 150.765 83.6257C150.653 83.6626 150.562 83.7187 150.492 83.794C150.424 83.8679 150.39 83.9687 150.39 84.0966C150.39 84.2713 150.454 84.4034 150.584 84.4929C150.714 84.581 150.88 84.625 151.08 84.625ZM153.894 85.75V83.598H153.873L153.2 84.0455V83.5938L153.894 83.1335H154.337V85.75H153.894ZM155.14 85.75V85.4176L156.137 84.5312C156.237 84.4432 156.32 84.3643 156.387 84.2947C156.453 84.2251 156.504 84.1577 156.538 84.0923C156.572 84.027 156.589 83.9574 156.589 83.8835C156.589 83.7557 156.54 83.6541 156.442 83.5788C156.344 83.5036 156.222 83.4659 156.078 83.4659C155.924 83.4659 155.801 83.5071 155.707 83.5895C155.613 83.6705 155.566 83.777 155.566 83.9091H155.123C155.123 83.6662 155.213 83.4709 155.394 83.3232C155.574 83.174 155.805 83.0994 156.086 83.0994C156.274 83.0994 156.438 83.1335 156.58 83.2017C156.722 83.2685 156.833 83.3608 156.913 83.4787C156.992 83.5952 157.032 83.7273 157.032 83.875C157.032 83.9915 157.009 84.0994 156.962 84.1989C156.915 84.2983 156.842 84.4013 156.742 84.5078C156.643 84.6143 156.515 84.7358 156.359 84.8722L155.805 85.358V85.375H157.109V85.75H155.14ZM163.853 85.0767C163.646 85.0767 163.457 85.0376 163.288 84.9595C163.119 84.88 162.985 84.7656 162.886 84.6165C162.786 84.4659 162.737 84.2841 162.737 84.071C162.737 83.8835 162.773 83.7315 162.847 83.6151C162.921 83.4972 163.02 83.4048 163.143 83.3381C163.267 83.2713 163.403 83.2216 163.553 83.1889C163.703 83.1548 163.854 83.1278 164.006 83.108C164.205 83.0824 164.366 83.0632 164.49 83.0504C164.615 83.0362 164.706 83.0128 164.763 82.9801C164.821 82.9474 164.85 82.8906 164.85 82.8097V82.7926C164.85 82.5824 164.793 82.419 164.678 82.3026C164.564 82.1861 164.391 82.1278 164.16 82.1278C163.92 82.1278 163.732 82.1804 163.595 82.2855C163.459 82.3906 163.363 82.5028 163.308 82.6222L162.83 82.4517C162.915 82.2528 163.029 82.098 163.171 81.9872C163.315 81.875 163.471 81.7969 163.64 81.7528C163.81 81.7074 163.978 81.6847 164.143 81.6847C164.248 81.6847 164.369 81.6974 164.505 81.723C164.643 81.7472 164.776 81.7976 164.903 81.8743C165.033 81.951 165.14 82.0668 165.225 82.2216C165.31 82.3764 165.353 82.5838 165.353 82.8438V85H164.85V84.5568H164.825C164.79 84.6278 164.734 84.7038 164.654 84.7848C164.575 84.8658 164.469 84.9347 164.337 84.9915C164.205 85.0483 164.043 85.0767 163.853 85.0767ZM163.93 84.625C164.129 84.625 164.296 84.5859 164.433 84.5078C164.57 84.4297 164.674 84.3288 164.744 84.2053C164.815 84.0817 164.85 83.9517 164.85 83.8153V83.3551C164.829 83.3807 164.782 83.4041 164.71 83.4254C164.638 83.4453 164.556 83.4631 164.462 83.4787C164.37 83.4929 164.28 83.5057 164.192 83.517C164.105 83.527 164.035 83.5355 163.981 83.5426C163.85 83.5597 163.728 83.5874 163.614 83.6257C163.502 83.6626 163.411 83.7187 163.342 83.794C163.273 83.8679 163.239 83.9687 163.239 84.0966C163.239 84.2713 163.304 84.4034 163.433 84.4929C163.564 84.581 163.729 84.625 163.93 84.625ZM166.744 85.75V83.598H166.722L166.049 84.0455V83.5938L166.744 83.1335H167.187V85.75H166.744ZM168.978 85.7841C168.782 85.7841 168.607 85.7514 168.452 85.6861C168.299 85.6207 168.176 85.5305 168.086 85.4155C167.996 85.3004 167.95 85.1676 167.947 85.017H168.416C168.42 85.1321 168.475 85.2244 168.582 85.294C168.689 85.3651 168.821 85.4006 168.978 85.4006C169.145 85.4006 169.281 85.3622 169.387 85.2855C169.495 85.2088 169.549 85.1108 169.549 84.9915C169.549 84.8722 169.492 84.7741 169.377 84.6974C169.263 84.6207 169.11 84.5824 168.919 84.5824H168.706V84.2415H168.919C169.076 84.2415 169.208 84.206 169.313 84.1349C169.419 84.0639 169.473 83.9687 169.473 83.8494C169.473 83.7386 169.428 83.647 169.338 83.5746C169.249 83.5021 169.132 83.4659 168.987 83.4659C168.842 83.4659 168.717 83.5014 168.612 83.5724C168.508 83.6435 168.454 83.7386 168.45 83.858H168.007C168.01 83.7074 168.054 83.5753 168.141 83.4616C168.229 83.348 168.346 83.2592 168.493 83.1953C168.64 83.1314 168.805 83.0994 168.987 83.0994C169.172 83.0994 169.334 83.1307 169.475 83.1932C169.615 83.2557 169.725 83.3416 169.805 83.451C169.885 83.5604 169.924 83.6847 169.924 83.8239C169.924 83.9773 169.872 84.103 169.767 84.201C169.662 84.299 169.532 84.3608 169.379 84.3864V84.4034C169.588 84.4332 169.748 84.505 169.858 84.6186C169.971 84.7322 170.027 84.8679 170.027 85.0256C170.027 85.1705 169.982 85.2997 169.892 85.4134C169.803 85.5284 169.679 85.6186 169.522 85.6839C169.364 85.7507 169.183 85.7841 168.978 85.7841ZM137.111 95.0767C136.903 95.0767 136.715 95.0376 136.546 94.9595C136.377 94.88 136.243 94.7656 136.143 94.6165C136.044 94.4659 135.994 94.2841 135.994 94.071C135.994 93.8835 136.031 93.7315 136.105 93.6151C136.179 93.4972 136.278 93.4048 136.401 93.3381C136.525 93.2713 136.661 93.2216 136.81 93.1889C136.961 93.1548 137.112 93.1278 137.264 93.108C137.463 93.0824 137.624 93.0632 137.748 93.0504C137.873 93.0362 137.964 93.0128 138.021 92.9801C138.079 92.9474 138.108 92.8906 138.108 92.8097V92.7926C138.108 92.5824 138.05 92.419 137.935 92.3026C137.822 92.1861 137.649 92.1278 137.418 92.1278C137.178 92.1278 136.989 92.1804 136.853 92.2855C136.717 92.3906 136.621 92.5028 136.565 92.6222L136.088 92.4517C136.173 92.2528 136.287 92.098 136.429 91.9872C136.572 91.875 136.729 91.7969 136.898 91.7528C137.068 91.7074 137.236 91.6847 137.401 91.6847C137.506 91.6847 137.626 91.6974 137.763 91.723C137.901 91.7472 138.033 91.7976 138.161 91.8743C138.29 91.951 138.398 92.0668 138.483 92.2216C138.568 92.3764 138.611 92.5838 138.611 92.8438V95H138.108V94.5568H138.082C138.048 94.6278 137.991 94.7038 137.912 94.7848C137.832 94.8658 137.727 94.9347 137.594 94.9915C137.462 95.0483 137.301 95.0767 137.111 95.0767ZM137.188 94.625C137.386 94.625 137.554 94.5859 137.69 94.5078C137.828 94.4297 137.932 94.3288 138.001 94.2053C138.072 94.0817 138.108 93.9517 138.108 93.8153V93.3551C138.087 93.3807 138.04 93.4041 137.967 93.4254C137.896 93.4453 137.814 93.4631 137.72 93.4787C137.628 93.4929 137.538 93.5057 137.45 93.517C137.363 93.527 137.293 93.5355 137.239 93.5426C137.108 93.5597 136.986 93.5874 136.872 93.6257C136.76 93.6626 136.669 93.7187 136.599 93.794C136.531 93.8679 136.497 93.9687 136.497 94.0966C136.497 94.2713 136.562 94.4034 136.691 94.4929C136.822 94.581 136.987 94.625 137.188 94.625ZM139.367 95.75V95.4176L140.364 94.5312C140.463 94.4432 140.546 94.3643 140.613 94.2947C140.68 94.2251 140.73 94.1577 140.764 94.0923C140.798 94.027 140.816 93.9574 140.816 93.8835C140.816 93.7557 140.767 93.6541 140.669 93.5788C140.57 93.5036 140.449 93.4659 140.304 93.4659C140.151 93.4659 140.027 93.5071 139.933 93.5895C139.84 93.6705 139.793 93.777 139.793 93.9091H139.35C139.35 93.6662 139.44 93.4709 139.62 93.3232C139.801 93.174 140.031 93.0994 140.313 93.0994C140.5 93.0994 140.665 93.1335 140.807 93.2017C140.949 93.2685 141.06 93.3608 141.139 93.4787C141.219 93.5952 141.259 93.7273 141.259 93.875C141.259 93.9915 141.235 94.0994 141.188 94.1989C141.142 94.2983 141.068 94.4013 140.969 94.5078C140.869 94.6143 140.742 94.7358 140.585 94.8722L140.031 95.358V95.375H141.335V95.75H139.367ZM142.527 95.75V93.598H142.506L141.832 94.0455V93.5938L142.527 93.1335H142.97V95.75H142.527ZM149.96 95.0767C149.753 95.0767 149.565 95.0376 149.396 94.9595C149.227 94.88 149.093 94.7656 148.993 94.6165C148.894 94.4659 148.844 94.2841 148.844 94.071C148.844 93.8835 148.881 93.7315 148.955 93.6151C149.029 93.4972 149.127 93.4048 149.251 93.3381C149.374 93.2713 149.511 93.2216 149.66 93.1889C149.811 93.1548 149.962 93.1278 150.114 93.108C150.313 93.0824 150.474 93.0632 150.597 93.0504C150.722 93.0362 150.813 93.0128 150.87 92.9801C150.928 92.9474 150.958 92.8906 150.958 92.8097V92.7926C150.958 92.5824 150.9 92.419 150.785 92.3026C150.671 92.1861 150.499 92.1278 150.267 92.1278C150.027 92.1278 149.839 92.1804 149.703 92.2855C149.566 92.3906 149.47 92.5028 149.415 92.6222L148.938 92.4517C149.023 92.2528 149.137 92.098 149.279 91.9872C149.422 91.875 149.578 91.7969 149.747 91.7528C149.918 91.7074 150.085 91.6847 150.25 91.6847C150.355 91.6847 150.476 91.6974 150.612 91.723C150.75 91.7472 150.883 91.7976 151.011 91.8743C151.14 91.951 151.247 92.0668 151.333 92.2216C151.418 92.3764 151.46 92.5838 151.46 92.8438V95H150.958V94.5568H150.932C150.898 94.6278 150.841 94.7038 150.762 94.7848C150.682 94.8658 150.576 94.9347 150.444 94.9915C150.312 95.0483 150.151 95.0767 149.96 95.0767ZM150.037 94.625C150.236 94.625 150.404 94.5859 150.54 94.5078C150.678 94.4297 150.781 94.3288 150.851 94.2053C150.922 94.0817 150.958 93.9517 150.958 93.8153V93.3551C150.936 93.3807 150.889 93.4041 150.817 93.4254C150.746 93.4453 150.664 93.4631 150.57 93.4787C150.477 93.4929 150.387 93.5057 150.299 93.517C150.213 93.527 150.142 93.5355 150.088 93.5426C149.958 93.5597 149.835 93.5874 149.722 93.6257C149.61 93.6626 149.519 93.7187 149.449 93.794C149.381 93.8679 149.347 93.9687 149.347 94.0966C149.347 94.2713 149.411 94.4034 149.541 94.4929C149.671 94.581 149.837 94.625 150.037 94.625ZM152.216 95.75V95.4176L153.213 94.5312C153.313 94.4432 153.396 94.3643 153.463 94.2947C153.529 94.2251 153.58 94.1577 153.614 94.0923C153.648 94.027 153.665 93.9574 153.665 93.8835C153.665 93.7557 153.616 93.6541 153.518 93.5788C153.42 93.5036 153.299 93.4659 153.154 93.4659C153 93.4659 152.877 93.5071 152.783 93.5895C152.689 93.6705 152.642 93.777 152.642 93.9091H152.199C152.199 93.6662 152.289 93.4709 152.47 93.3232C152.65 93.174 152.881 93.0994 153.162 93.0994C153.35 93.0994 153.515 93.1335 153.657 93.2017C153.799 93.2685 153.909 93.3608 153.989 93.4787C154.069 93.5952 154.108 93.7273 154.108 93.875C154.108 93.9915 154.085 94.0994 154.038 94.1989C153.991 94.2983 153.918 94.4013 153.819 94.5078C153.719 94.6143 153.591 94.7358 153.435 94.8722L152.881 95.358V95.375H154.185V95.75H152.216ZM154.742 95.75V95.4176L155.739 94.5312C155.838 94.4432 155.921 94.3643 155.988 94.2947C156.055 94.2251 156.105 94.1577 156.139 94.0923C156.173 94.027 156.191 93.9574 156.191 93.8835C156.191 93.7557 156.142 93.6541 156.044 93.5788C155.945 93.5036 155.824 93.4659 155.679 93.4659C155.526 93.4659 155.402 93.5071 155.308 93.5895C155.215 93.6705 155.168 93.777 155.168 93.9091H154.725C154.725 93.6662 154.815 93.4709 154.995 93.3232C155.176 93.174 155.406 93.0994 155.688 93.0994C155.875 93.0994 156.04 93.1335 156.182 93.2017C156.324 93.2685 156.435 93.3608 156.514 93.4787C156.594 93.5952 156.634 93.7273 156.634 93.875C156.634 93.9915 156.61 94.0994 156.563 94.1989C156.517 94.2983 156.443 94.4013 156.344 94.5078C156.244 94.6143 156.117 94.7358 155.96 94.8722L155.406 95.358V95.375H156.71V95.75H154.742ZM163.455 95.0767C163.247 95.0767 163.059 95.0376 162.89 94.9595C162.721 94.88 162.587 94.7656 162.487 94.6165C162.388 94.4659 162.338 94.2841 162.338 94.071C162.338 93.8835 162.375 93.7315 162.449 93.6151C162.523 93.4972 162.621 93.4048 162.745 93.3381C162.869 93.2713 163.005 93.2216 163.154 93.1889C163.305 93.1548 163.456 93.1278 163.608 93.108C163.807 93.0824 163.968 93.0632 164.092 93.0504C164.217 93.0362 164.308 93.0128 164.364 92.9801C164.423 92.9474 164.452 92.8906 164.452 92.8097V92.7926C164.452 92.5824 164.394 92.419 164.279 92.3026C164.165 92.1861 163.993 92.1278 163.761 92.1278C163.521 92.1278 163.333 92.1804 163.197 92.2855C163.06 92.3906 162.964 92.5028 162.909 92.6222L162.432 92.4517C162.517 92.2528 162.631 92.098 162.773 91.9872C162.916 91.875 163.072 91.7969 163.241 91.7528C163.412 91.7074 163.58 91.6847 163.744 91.6847C163.849 91.6847 163.97 91.6974 164.107 91.723C164.244 91.7472 164.377 91.7976 164.505 91.8743C164.634 91.951 164.741 92.0668 164.827 92.2216C164.912 92.3764 164.955 92.5838 164.955 92.8438V95H164.452V94.5568H164.426C164.392 94.6278 164.335 94.7038 164.256 94.7848C164.176 94.8658 164.07 94.9347 163.938 94.9915C163.806 95.0483 163.645 95.0767 163.455 95.0767ZM163.531 94.625C163.73 94.625 163.898 94.5859 164.034 94.5078C164.172 94.4297 164.276 94.3288 164.345 94.2053C164.416 94.0817 164.452 93.9517 164.452 93.8153V93.3551C164.43 93.3807 164.384 93.4041 164.311 93.4254C164.24 93.4453 164.158 93.4631 164.064 93.4787C163.972 93.4929 163.881 93.5057 163.793 93.517C163.707 93.527 163.636 93.5355 163.582 93.5426C163.452 93.5597 163.33 93.5874 163.216 93.6257C163.104 93.6626 163.013 93.7187 162.943 93.794C162.875 93.8679 162.841 93.9687 162.841 94.0966C162.841 94.2713 162.906 94.4034 163.035 94.4929C163.165 94.581 163.331 94.625 163.531 94.625ZM165.71 95.75V95.4176L166.708 94.5312C166.807 94.4432 166.89 94.3643 166.957 94.2947C167.024 94.2251 167.074 94.1577 167.108 94.0923C167.142 94.027 167.159 93.9574 167.159 93.8835C167.159 93.7557 167.11 93.6541 167.012 93.5788C166.914 93.5036 166.793 93.4659 166.648 93.4659C166.494 93.4659 166.371 93.5071 166.277 93.5895C166.183 93.6705 166.137 93.777 166.137 93.9091H165.693C165.693 93.6662 165.784 93.4709 165.964 93.3232C166.144 93.174 166.375 93.0994 166.656 93.0994C166.844 93.0994 167.009 93.1335 167.151 93.2017C167.293 93.2685 167.404 93.3608 167.483 93.4787C167.563 93.5952 167.602 93.7273 167.602 93.875C167.602 93.9915 167.579 94.0994 167.532 94.1989C167.485 94.2983 167.412 94.4013 167.313 94.5078C167.213 94.6143 167.085 94.7358 166.929 94.8722L166.375 95.358V95.375H167.679V95.75H165.71ZM169.224 95.7841C169.028 95.7841 168.853 95.7514 168.698 95.6861C168.545 95.6207 168.423 95.5305 168.332 95.4155C168.242 95.3004 168.196 95.1676 168.193 95.017H168.662C168.666 95.1321 168.722 95.2244 168.828 95.294C168.935 95.3651 169.067 95.4006 169.224 95.4006C169.391 95.4006 169.527 95.3622 169.634 95.2855C169.741 95.2088 169.795 95.1108 169.795 94.9915C169.795 94.8722 169.738 94.7741 169.623 94.6974C169.509 94.6207 169.357 94.5824 169.165 94.5824H168.952V94.2415H169.165C169.322 94.2415 169.454 94.206 169.559 94.1349C169.665 94.0639 169.719 93.9687 169.719 93.8494C169.719 93.7386 169.674 93.647 169.585 93.5746C169.495 93.5021 169.378 93.4659 169.233 93.4659C169.088 93.4659 168.963 93.5014 168.858 93.5724C168.754 93.6435 168.7 93.7386 168.696 93.858H168.253C168.256 93.7074 168.3 93.5753 168.387 93.4616C168.475 93.348 168.592 93.2592 168.739 93.1953C168.886 93.1314 169.051 93.0994 169.233 93.0994C169.418 93.0994 169.58 93.1307 169.721 93.1932C169.862 93.2557 169.972 93.3416 170.051 93.451C170.131 93.5604 170.17 93.6847 170.17 93.8239C170.17 93.9773 170.118 94.103 170.013 94.201C169.908 94.299 169.778 94.3608 169.625 94.3864V94.4034C169.834 94.4332 169.994 94.505 170.104 94.6186C170.217 94.7322 170.273 94.8679 170.273 95.0256C170.273 95.1705 170.228 95.2997 170.138 95.4134C170.049 95.5284 169.925 95.6186 169.768 95.6839C169.61 95.7507 169.429 95.7841 169.224 95.7841ZM137.111 105.077C136.903 105.077 136.715 105.038 136.546 104.96C136.377 104.88 136.243 104.766 136.143 104.616C136.044 104.466 135.994 104.284 135.994 104.071C135.994 103.884 136.031 103.732 136.105 103.615C136.179 103.497 136.278 103.405 136.401 103.338C136.525 103.271 136.661 103.222 136.81 103.189C136.961 103.155 137.112 103.128 137.264 103.108C137.463 103.082 137.624 103.063 137.748 103.05C137.873 103.036 137.964 103.013 138.021 102.98C138.079 102.947 138.108 102.891 138.108 102.81V102.793C138.108 102.582 138.05 102.419 137.935 102.303C137.822 102.186 137.649 102.128 137.418 102.128C137.178 102.128 136.989 102.18 136.853 102.286C136.717 102.391 136.621 102.503 136.565 102.622L136.088 102.452C136.173 102.253 136.287 102.098 136.429 101.987C136.572 101.875 136.729 101.797 136.898 101.753C137.068 101.707 137.236 101.685 137.401 101.685C137.506 101.685 137.626 101.697 137.763 101.723C137.901 101.747 138.033 101.798 138.161 101.874C138.29 101.951 138.398 102.067 138.483 102.222C138.568 102.376 138.611 102.584 138.611 102.844V105H138.108V104.557H138.082C138.048 104.628 137.991 104.704 137.912 104.785C137.832 104.866 137.727 104.935 137.594 104.991C137.462 105.048 137.301 105.077 137.111 105.077ZM137.188 104.625C137.386 104.625 137.554 104.586 137.69 104.508C137.828 104.43 137.932 104.329 138.001 104.205C138.072 104.082 138.108 103.952 138.108 103.815V103.355C138.087 103.381 138.04 103.404 137.967 103.425C137.896 103.445 137.814 103.463 137.72 103.479C137.628 103.493 137.538 103.506 137.45 103.517C137.363 103.527 137.293 103.536 137.239 103.543C137.108 103.56 136.986 103.587 136.872 103.626C136.76 103.663 136.669 103.719 136.599 103.794C136.531 103.868 136.497 103.969 136.497 104.097C136.497 104.271 136.562 104.403 136.691 104.493C136.822 104.581 136.987 104.625 137.188 104.625ZM140.355 105.784C140.159 105.784 139.984 105.751 139.829 105.686C139.676 105.621 139.553 105.531 139.463 105.415C139.373 105.3 139.327 105.168 139.324 105.017H139.793C139.797 105.132 139.852 105.224 139.959 105.294C140.066 105.365 140.198 105.401 140.355 105.401C140.521 105.401 140.658 105.362 140.764 105.286C140.872 105.209 140.926 105.111 140.926 104.991C140.926 104.872 140.869 104.774 140.754 104.697C140.64 104.621 140.487 104.582 140.296 104.582H140.083V104.241H140.296C140.453 104.241 140.585 104.206 140.69 104.135C140.796 104.064 140.85 103.969 140.85 103.849C140.85 103.739 140.805 103.647 140.715 103.575C140.626 103.502 140.509 103.466 140.364 103.466C140.219 103.466 140.094 103.501 139.989 103.572C139.885 103.643 139.831 103.739 139.827 103.858H139.384C139.387 103.707 139.431 103.575 139.518 103.462C139.606 103.348 139.723 103.259 139.869 103.195C140.017 103.131 140.182 103.099 140.364 103.099C140.548 103.099 140.711 103.131 140.852 103.193C140.992 103.256 141.102 103.342 141.182 103.451C141.262 103.56 141.301 103.685 141.301 103.824C141.301 103.977 141.249 104.103 141.144 104.201C141.039 104.299 140.909 104.361 140.756 104.386V104.403C140.965 104.433 141.124 104.505 141.235 104.619C141.347 104.732 141.404 104.868 141.404 105.026C141.404 105.17 141.359 105.3 141.269 105.413C141.18 105.528 141.056 105.619 140.899 105.684C140.741 105.751 140.56 105.784 140.355 105.784ZM142.586 105.75V103.598H142.564L141.891 104.045V103.594L142.586 103.134H143.029V105.75H142.586ZM150.019 105.077C149.812 105.077 149.623 105.038 149.454 104.96C149.285 104.88 149.151 104.766 149.052 104.616C148.952 104.466 148.903 104.284 148.903 104.071C148.903 103.884 148.939 103.732 149.013 103.615C149.087 103.497 149.186 103.405 149.309 103.338C149.433 103.271 149.569 103.222 149.719 103.189C149.869 103.155 150.02 103.128 150.172 103.108C150.371 103.082 150.532 103.063 150.656 103.05C150.781 103.036 150.872 103.013 150.929 102.98C150.987 102.947 151.016 102.891 151.016 102.81V102.793C151.016 102.582 150.959 102.419 150.844 102.303C150.73 102.186 150.557 102.128 150.326 102.128C150.086 102.128 149.898 102.18 149.761 102.286C149.625 102.391 149.529 102.503 149.474 102.622L148.996 102.452C149.081 102.253 149.195 102.098 149.337 101.987C149.481 101.875 149.637 101.797 149.806 101.753C149.976 101.707 150.144 101.685 150.309 101.685C150.414 101.685 150.535 101.697 150.671 101.723C150.809 101.747 150.942 101.798 151.069 101.874C151.199 101.951 151.306 102.067 151.391 102.222C151.476 102.376 151.519 102.584 151.519 102.844V105H151.016V104.557H150.991C150.956 104.628 150.9 104.704 150.82 104.785C150.741 104.866 150.635 104.935 150.503 104.991C150.371 105.048 150.209 105.077 150.019 105.077ZM150.096 104.625C150.295 104.625 150.462 104.586 150.599 104.508C150.736 104.43 150.84 104.329 150.91 104.205C150.981 104.082 151.016 103.952 151.016 103.815V103.355C150.995 103.381 150.948 103.404 150.876 103.425C150.805 103.445 150.722 103.463 150.628 103.479C150.536 103.493 150.446 103.506 150.358 103.517C150.271 103.527 150.201 103.536 150.147 103.543C150.016 103.56 149.894 103.587 149.78 103.626C149.668 103.663 149.577 103.719 149.508 103.794C149.439 103.868 149.405 103.969 149.405 104.097C149.405 104.271 149.47 104.403 149.599 104.493C149.73 104.581 149.895 104.625 150.096 104.625ZM153.263 105.784C153.067 105.784 152.892 105.751 152.737 105.686C152.584 105.621 152.462 105.531 152.371 105.415C152.281 105.3 152.235 105.168 152.232 105.017H152.701C152.705 105.132 152.761 105.224 152.867 105.294C152.974 105.365 153.106 105.401 153.263 105.401C153.43 105.401 153.566 105.362 153.673 105.286C153.781 105.209 153.835 105.111 153.835 104.991C153.835 104.872 153.777 104.774 153.662 104.697C153.548 104.621 153.396 104.582 153.204 104.582H152.991V104.241H153.204C153.362 104.241 153.493 104.206 153.598 104.135C153.705 104.064 153.758 103.969 153.758 103.849C153.758 103.739 153.713 103.647 153.624 103.575C153.534 103.502 153.417 103.466 153.272 103.466C153.127 103.466 153.002 103.501 152.897 103.572C152.793 103.643 152.739 103.739 152.735 103.858H152.292C152.295 103.707 152.339 103.575 152.426 103.462C152.514 103.348 152.631 103.259 152.778 103.195C152.925 103.131 153.09 103.099 153.272 103.099C153.457 103.099 153.619 103.131 153.76 103.193C153.901 103.256 154.011 103.342 154.09 103.451C154.17 103.56 154.21 103.685 154.21 103.824C154.21 103.977 154.157 104.103 154.052 104.201C153.947 104.299 153.817 104.361 153.664 104.386V104.403C153.873 104.433 154.033 104.505 154.143 104.619C154.256 104.732 154.312 104.868 154.312 105.026C154.312 105.17 154.267 105.3 154.178 105.413C154.088 105.528 153.964 105.619 153.807 105.684C153.649 105.751 153.468 105.784 153.263 105.784ZM154.859 105.75V105.418L155.856 104.531C155.955 104.443 156.039 104.364 156.105 104.295C156.172 104.225 156.222 104.158 156.257 104.092C156.291 104.027 156.308 103.957 156.308 103.884C156.308 103.756 156.259 103.654 156.161 103.579C156.063 103.504 155.941 103.466 155.796 103.466C155.643 103.466 155.519 103.507 155.426 103.589C155.332 103.67 155.285 103.777 155.285 103.909H154.842C154.842 103.666 154.932 103.471 155.112 103.323C155.293 103.174 155.524 103.099 155.805 103.099C155.992 103.099 156.157 103.134 156.299 103.202C156.441 103.268 156.552 103.361 156.632 103.479C156.711 103.595 156.751 103.727 156.751 103.875C156.751 103.991 156.727 104.099 156.681 104.199C156.634 104.298 156.561 104.401 156.461 104.508C156.362 104.614 156.234 104.736 156.078 104.872L155.524 105.358V105.375H156.828V105.75H154.859ZM163.572 105.077C163.364 105.077 163.176 105.038 163.007 104.96C162.838 104.88 162.704 104.766 162.604 104.616C162.505 104.466 162.455 104.284 162.455 104.071C162.455 103.884 162.492 103.732 162.566 103.615C162.64 103.497 162.739 103.405 162.862 103.338C162.986 103.271 163.122 103.222 163.271 103.189C163.422 103.155 163.573 103.128 163.725 103.108C163.924 103.082 164.085 103.063 164.209 103.05C164.334 103.036 164.425 103.013 164.482 102.98C164.54 102.947 164.569 102.891 164.569 102.81V102.793C164.569 102.582 164.511 102.419 164.396 102.303C164.283 102.186 164.11 102.128 163.879 102.128C163.638 102.128 163.45 102.18 163.314 102.286C163.178 102.391 163.082 102.503 163.026 102.622L162.549 102.452C162.634 102.253 162.748 102.098 162.89 101.987C163.033 101.875 163.19 101.797 163.359 101.753C163.529 101.707 163.697 101.685 163.862 101.685C163.967 101.685 164.087 101.697 164.224 101.723C164.362 101.747 164.494 101.798 164.622 101.874C164.751 101.951 164.859 102.067 164.944 102.222C165.029 102.376 165.072 102.584 165.072 102.844V105H164.569V104.557H164.543C164.509 104.628 164.452 104.704 164.373 104.785C164.293 104.866 164.188 104.935 164.055 104.991C163.923 105.048 163.762 105.077 163.572 105.077ZM163.648 104.625C163.847 104.625 164.015 104.586 164.151 104.508C164.289 104.43 164.393 104.329 164.462 104.205C164.533 104.082 164.569 103.952 164.569 103.815V103.355C164.548 103.381 164.501 103.404 164.428 103.425C164.357 103.445 164.275 103.463 164.181 103.479C164.089 103.493 163.999 103.506 163.911 103.517C163.824 103.527 163.754 103.536 163.7 103.543C163.569 103.56 163.447 103.587 163.333 103.626C163.221 103.663 163.13 103.719 163.06 103.794C162.992 103.868 162.958 103.969 162.958 104.097C162.958 104.271 163.023 104.403 163.152 104.493C163.283 104.581 163.448 104.625 163.648 104.625ZM166.816 105.784C166.62 105.784 166.445 105.751 166.29 105.686C166.137 105.621 166.014 105.531 165.923 105.415C165.834 105.3 165.788 105.168 165.785 105.017H166.254C166.258 105.132 166.313 105.224 166.42 105.294C166.526 105.365 166.659 105.401 166.816 105.401C166.982 105.401 167.119 105.362 167.225 105.286C167.333 105.209 167.387 105.111 167.387 104.991C167.387 104.872 167.33 104.774 167.215 104.697C167.101 104.621 166.948 104.582 166.757 104.582H166.544V104.241H166.757C166.914 104.241 167.046 104.206 167.151 104.135C167.257 104.064 167.311 103.969 167.311 103.849C167.311 103.739 167.266 103.647 167.176 103.575C167.087 103.502 166.97 103.466 166.825 103.466C166.68 103.466 166.555 103.501 166.45 103.572C166.346 103.643 166.292 103.739 166.288 103.858H165.845C165.847 103.707 165.892 103.575 165.979 103.462C166.067 103.348 166.184 103.259 166.33 103.195C166.478 103.131 166.643 103.099 166.825 103.099C167.009 103.099 167.172 103.131 167.313 103.193C167.453 103.256 167.563 103.342 167.643 103.451C167.722 103.56 167.762 103.685 167.762 103.824C167.762 103.977 167.71 104.103 167.605 104.201C167.499 104.299 167.37 104.361 167.217 104.386V104.403C167.426 104.433 167.585 104.505 167.696 104.619C167.808 104.732 167.865 104.868 167.865 105.026C167.865 105.17 167.82 105.3 167.73 105.413C167.641 105.528 167.517 105.619 167.36 105.684C167.202 105.751 167.021 105.784 166.816 105.784ZM169.4 105.784C169.204 105.784 169.029 105.751 168.874 105.686C168.721 105.621 168.598 105.531 168.507 105.415C168.418 105.3 168.372 105.168 168.369 105.017H168.838C168.842 105.132 168.897 105.224 169.004 105.294C169.11 105.365 169.243 105.401 169.4 105.401C169.566 105.401 169.703 105.362 169.809 105.286C169.917 105.209 169.971 105.111 169.971 104.991C169.971 104.872 169.914 104.774 169.799 104.697C169.685 104.621 169.532 104.582 169.341 104.582H169.127V104.241H169.341C169.498 104.241 169.63 104.206 169.735 104.135C169.841 104.064 169.895 103.969 169.895 103.849C169.895 103.739 169.85 103.647 169.76 103.575C169.671 103.502 169.554 103.466 169.409 103.466C169.264 103.466 169.139 103.501 169.034 103.572C168.93 103.643 168.876 103.739 168.872 103.858H168.429C168.431 103.707 168.476 103.575 168.563 103.462C168.651 103.348 168.768 103.259 168.914 103.195C169.062 103.131 169.227 103.099 169.409 103.099C169.593 103.099 169.756 103.131 169.897 103.193C170.037 103.256 170.147 103.342 170.227 103.451C170.306 103.56 170.346 103.685 170.346 103.824C170.346 103.977 170.294 104.103 170.189 104.201C170.083 104.299 169.954 104.361 169.801 104.386V104.403C170.01 104.433 170.169 104.505 170.28 104.619C170.392 104.732 170.449 104.868 170.449 105.026C170.449 105.17 170.404 105.3 170.314 105.413C170.225 105.528 170.101 105.619 169.944 105.684C169.786 105.751 169.605 105.784 169.4 105.784Z" fill="black"/>
<path d="M23.179 75H22.2557L24.9261 67.7273H25.8352L28.5057 75H27.5824L25.4091 68.8778H25.3523L23.179 75ZM23.5199 72.1591H27.2415V72.9403H23.5199V72.1591ZM30.9027 71.4205C30.576 71.4205 30.2836 71.366 30.0256 71.2571C29.7699 71.1482 29.5663 70.9979 29.4148 70.8061C29.2656 70.6143 29.1887 70.393 29.1839 70.142H29.9652C29.9723 70.3338 30.0646 70.4889 30.2422 70.6072C30.4197 70.7232 30.6399 70.7812 30.9027 70.7812C31.1797 70.7812 31.407 70.7173 31.5845 70.5895C31.7644 70.4616 31.8544 70.2983 31.8544 70.0994C31.8544 69.9006 31.7585 69.7372 31.5668 69.6094C31.3774 69.4815 31.1229 69.4176 30.8033 69.4176H30.4482V68.8494H30.8033C31.0661 68.8494 31.285 68.7902 31.4602 68.6719C31.6378 68.5535 31.7266 68.3949 31.7266 68.196C31.7266 68.0114 31.652 67.8587 31.5028 67.7379C31.3537 67.6172 31.1584 67.5568 30.9169 67.5568C30.6754 67.5568 30.4671 67.616 30.2919 67.7344C30.1191 67.8527 30.0291 68.0114 30.022 68.2102H29.2834C29.2881 67.9593 29.3627 67.7391 29.5071 67.5497C29.6539 67.3603 29.8492 67.2124 30.093 67.1058C30.3393 66.9993 30.6139 66.946 30.9169 66.946C31.2247 66.946 31.4957 66.9981 31.7301 67.1023C31.9645 67.2064 32.148 67.3497 32.2805 67.532C32.4131 67.7143 32.4794 67.9214 32.4794 68.1534C32.4794 68.4091 32.3918 68.6186 32.2166 68.782C32.0414 68.9453 31.826 69.0483 31.5703 69.0909V69.1193C31.9183 69.169 32.1847 69.2886 32.3693 69.478C32.5563 69.6674 32.6499 69.8935 32.6499 70.1562C32.6499 70.3977 32.5753 70.6143 32.4261 70.8061C32.277 70.9955 32.071 71.1458 31.8082 71.2571C31.5455 71.366 31.2436 71.4205 30.9027 71.4205ZM39.769 70.973V71.7543H36.5872V70.973H39.769ZM46.4567 75.0994C46.1584 75.0947 45.8601 75.0379 45.5618 74.929C45.2635 74.8201 44.9912 74.6366 44.745 74.3786C44.4988 74.1181 44.3011 73.7666 44.152 73.3239C44.0028 72.8788 43.9283 72.3201 43.9283 71.6477C43.9283 71.0038 43.9886 70.4332 44.1094 69.9361C44.2301 69.4366 44.4053 69.0163 44.6349 68.6754C44.8646 68.3321 45.1416 68.0717 45.4659 67.8942C45.7926 67.7166 46.1607 67.6278 46.5703 67.6278C46.9775 67.6278 47.3397 67.7095 47.657 67.8729C47.9766 68.0339 48.237 68.2588 48.4382 68.5476C48.6394 68.8364 48.7696 69.169 48.8288 69.5455H47.9624C47.8819 69.2187 47.7256 68.9477 47.4936 68.7322C47.2616 68.5168 46.9538 68.4091 46.5703 68.4091C46.0069 68.4091 45.563 68.6541 45.2386 69.1442C44.9167 69.6342 44.7545 70.322 44.7521 71.2074H44.8089C44.9415 71.0062 45.099 70.8345 45.2812 70.6925C45.4659 70.5481 45.6695 70.4368 45.892 70.3587C46.1146 70.2805 46.3501 70.2415 46.5987 70.2415C47.0154 70.2415 47.3965 70.3456 47.7422 70.554C48.0878 70.7599 48.3648 71.0452 48.5732 71.4098C48.7815 71.772 48.8857 72.1875 48.8857 72.6562C48.8857 73.1061 48.785 73.518 48.5838 73.892C48.3826 74.2637 48.0997 74.5597 47.7351 74.7798C47.3729 74.9976 46.9467 75.1042 46.4567 75.0994ZM46.4567 74.3182C46.755 74.3182 47.0225 74.2436 47.2592 74.0945C47.4983 73.9453 47.6866 73.7453 47.8239 73.4943C47.9635 73.2434 48.0334 72.964 48.0334 72.6562C48.0334 72.3556 47.9659 72.0821 47.831 71.8359C47.6984 71.5874 47.5149 71.3897 47.2805 71.2429C47.0485 71.0961 46.7834 71.0227 46.4851 71.0227C46.2602 71.0227 46.0507 71.0677 45.8565 71.1577C45.6624 71.2453 45.492 71.366 45.3452 71.5199C45.2008 71.6738 45.0871 71.8501 45.0043 72.049C44.9214 72.2455 44.88 72.4527 44.88 72.6705C44.88 72.9593 44.9474 73.2292 45.0824 73.4801C45.2197 73.7311 45.4067 73.9335 45.6435 74.0874C45.8826 74.2412 46.1536 74.3182 46.4567 74.3182ZM50.7083 75H49.785L52.4554 67.7273H53.3645L56.035 75H55.1117L52.9384 68.8778H52.8816L50.7083 75ZM51.0492 72.1591H54.7708V72.9403H51.0492V72.1591ZM56.7843 71.3636V70.8097L58.4462 69.3324C58.6119 69.1856 58.7504 69.0542 58.8617 68.9382C58.973 68.8222 59.057 68.7098 59.1138 68.6009C59.1706 68.492 59.199 68.3759 59.199 68.2528C59.199 68.0398 59.1174 67.8705 58.954 67.745C58.7907 67.6196 58.5882 67.5568 58.3468 67.5568C58.0911 67.5568 57.8851 67.6255 57.7289 67.7628C57.5726 67.8977 57.4945 68.0753 57.4945 68.2955H56.7559C56.7559 67.8906 56.9062 67.5651 57.2069 67.3189C57.5075 67.0703 57.8922 66.946 58.361 66.946C58.6735 66.946 58.9481 67.0028 59.1848 67.1165C59.4216 67.2277 59.6062 67.3816 59.7388 67.5781C59.8714 67.7723 59.9377 67.9924 59.9377 68.2386C59.9377 68.4328 59.8986 68.6127 59.8205 68.7784C59.7424 68.9441 59.6204 69.1158 59.4547 69.2933C59.289 69.4709 59.0759 69.6733 58.8155 69.9006L57.8922 70.7102V70.7386H60.0655V71.3636H56.7843ZM66.2063 73.7216V69.0341H67.0018V73.7216H66.2063ZM64.2603 71.7756V70.9801H68.9478V71.7756H64.2603ZM76.0225 67.7273V75H75.1419V68.6506H75.0993L73.3237 69.8295V68.9347L75.1419 67.7273H76.0225ZM80.671 67.7273V75H79.7903V68.6506H79.7477L77.9721 69.8295V68.9347L79.7903 67.7273H80.671ZM83.1887 75H82.2654L84.9359 67.7273H85.845L88.5154 75H87.5922L85.4189 68.8778H85.362L83.1887 75ZM83.5297 72.1591H87.2512V72.9403H83.5297V72.1591ZM95.4721 70.973V71.7543H92.2903V70.973H95.4721ZM100.754 67.7273V75H99.8729V67.7273H100.754ZM105.559 70.696V69.929H109.934V70.696H105.559ZM105.559 72.7983V72.0312H109.934V72.7983H105.559ZM116.98 75.0994C116.445 75.0994 115.99 74.9538 115.613 74.6626C115.237 74.3691 114.949 73.9441 114.75 73.3878C114.551 72.8291 114.452 72.1544 114.452 71.3636C114.452 70.5777 114.551 69.9065 114.75 69.3501C114.952 68.7914 115.24 68.3653 115.617 68.0717C115.996 67.7758 116.45 67.6278 116.98 67.6278C117.511 67.6278 117.964 67.7758 118.341 68.0717C118.719 68.3653 119.008 68.7914 119.207 69.3501C119.408 69.9065 119.509 70.5777 119.509 71.3636C119.509 72.1544 119.409 72.8291 119.211 73.3878C119.012 73.9441 118.724 74.3691 118.348 74.6626C117.971 74.9538 117.516 75.0994 116.98 75.0994ZM116.98 74.3182C117.511 74.3182 117.923 74.0625 118.216 73.5511C118.51 73.0398 118.657 72.3106 118.657 71.3636C118.657 70.7339 118.589 70.1977 118.454 69.755C118.322 69.3123 118.13 68.9749 117.879 68.7429C117.63 68.5109 117.331 68.3949 116.98 68.3949C116.455 68.3949 116.044 68.6541 115.748 69.1726C115.452 69.6887 115.304 70.419 115.304 71.3636C115.304 71.9934 115.371 72.5284 115.503 72.9688C115.636 73.4091 115.826 73.7441 116.075 73.9737C116.326 74.2034 116.628 74.3182 116.98 74.3182Z" fill="black"/>
<path d="M11.4915 99.7045C11.4915 98.4517 11.6539 97.3 11.9787 96.2493C12.3068 95.1953 12.7741 94.2259 13.3807 93.3409H14.4148C14.1761 93.669 13.9524 94.0734 13.7436 94.554C13.5381 95.0312 13.3575 95.5566 13.2017 96.13C13.0459 96.7 12.9233 97.29 12.8338 97.8999C12.7476 98.5097 12.7045 99.1113 12.7045 99.7045C12.7045 100.493 12.7808 101.294 12.9332 102.106C13.0857 102.918 13.2912 103.672 13.5497 104.368C13.8082 105.064 14.0966 105.631 14.4148 106.068H13.3807C12.7741 105.183 12.3068 104.215 11.9787 103.165C11.6539 102.111 11.4915 100.957 11.4915 99.7045ZM37.2182 99.7045C37.2182 100.957 37.0542 102.111 36.726 103.165C36.4012 104.215 35.9355 105.183 35.329 106.068H34.2949C34.5336 105.74 34.7556 105.336 34.9611 104.855C35.1699 104.378 35.3522 103.854 35.508 103.284C35.6638 102.711 35.7847 102.119 35.8709 101.509C35.9604 100.896 36.0051 100.295 36.0051 99.7045C36.0051 98.9157 35.9289 98.1153 35.7765 97.3033C35.624 96.4912 35.4185 95.7372 35.16 95.0412C34.9015 94.3452 34.6131 93.7784 34.2949 93.3409H35.329C35.9355 94.2259 36.4012 95.1953 36.726 96.2493C37.0542 97.3 37.2182 98.4517 37.2182 99.7045Z" fill="#FF7F56"/>
<path d="M16.7228 104H15.4302L19.1689 93.8182H20.4416L24.1802 104H22.8876L19.845 95.429H19.7654L16.7228 104ZM17.2001 100.023H22.4103V101.116H17.2001V100.023ZM25.7662 104V93.8182H29.3258C30.0351 93.8182 30.6201 93.9408 31.0808 94.1861C31.5415 94.428 31.8845 94.7545 32.1099 95.1655C32.3353 95.5732 32.448 96.0256 32.448 96.5227C32.448 96.9602 32.3701 97.3215 32.2143 97.6065C32.0618 97.8916 31.8597 98.117 31.6078 98.2827C31.3592 98.4484 31.0891 98.571 30.7974 98.6506V98.75C31.109 98.7699 31.4222 98.8793 31.737 99.0781C32.0519 99.277 32.3154 99.562 32.5275 99.9332C32.7396 100.304 32.8457 100.759 32.8457 101.295C32.8457 101.806 32.7297 102.265 32.4977 102.673C32.2657 103.08 31.8994 103.403 31.399 103.642C30.8985 103.881 30.2472 104 29.4451 104H25.7662ZM26.9991 102.906H29.4451C30.2505 102.906 30.8223 102.75 31.1603 102.439C31.5017 102.124 31.6724 101.743 31.6724 101.295C31.6724 100.951 31.5846 100.633 31.4089 100.341C31.2333 100.046 30.983 99.8106 30.6582 99.6349C30.3334 99.456 29.9489 99.3665 29.5048 99.3665H26.9991V102.906ZM26.9991 98.2926H29.286C29.6573 98.2926 29.992 98.2197 30.2903 98.0739C30.5919 97.928 30.8306 97.7225 31.0062 97.4574C31.1852 97.1922 31.2747 96.8807 31.2747 96.5227C31.2747 96.0753 31.1189 95.6958 30.8074 95.3842C30.4958 95.0694 30.002 94.9119 29.3258 94.9119H26.9991V98.2926ZM40.8189 93.8182V94.7131C40.8189 94.9848 40.7692 95.2749 40.6697 95.5831C40.5736 95.888 40.4311 96.1847 40.2422 96.473C40.0566 96.758 39.8312 97.0066 39.5661 97.2188L38.9297 96.7017C39.1385 96.4034 39.3191 96.0935 39.4716 95.772C39.6274 95.4472 39.7053 95.1009 39.7053 94.733V93.8182H40.8189ZM46.7836 97.9744V96.9006H52.9086V97.9744H46.7836ZM46.7836 100.918V99.8438H52.9086V100.918H46.7836ZM59.6314 104V93.8182H63.1911C63.9003 93.8182 64.4853 93.9408 64.946 94.1861C65.4067 94.428 65.7498 94.7545 65.9751 95.1655C66.2005 95.5732 66.3132 96.0256 66.3132 96.5227C66.3132 96.9602 66.2353 97.3215 66.0795 97.6065C65.9271 97.8916 65.7249 98.117 65.473 98.2827C65.2244 98.4484 64.9543 98.571 64.6626 98.6506V98.75C64.9742 98.7699 65.2874 98.8793 65.6023 99.0781C65.9171 99.277 66.1806 99.562 66.3928 99.9332C66.6049 100.304 66.7109 100.759 66.7109 101.295C66.7109 101.806 66.5949 102.265 66.3629 102.673C66.1309 103.08 65.7647 103.403 65.2642 103.642C64.7637 103.881 64.1125 104 63.3104 104H59.6314ZM60.8643 102.906H63.3104C64.1158 102.906 64.6875 102.75 65.0256 102.439C65.367 102.124 65.5376 101.743 65.5376 101.295C65.5376 100.951 65.4498 100.633 65.2741 100.341C65.0985 100.046 64.8482 99.8106 64.5234 99.6349C64.1986 99.456 63.8142 99.3665 63.37 99.3665H60.8643V102.906ZM60.8643 98.2926H63.1513C63.5225 98.2926 63.8572 98.2197 64.1555 98.0739C64.4571 97.928 64.6958 97.7225 64.8714 97.4574C65.0504 97.1922 65.1399 96.8807 65.1399 96.5227C65.1399 96.0753 64.9841 95.6958 64.6726 95.3842C64.361 95.0694 63.8672 94.9119 63.1911 94.9119H60.8643V98.2926ZM69.6119 93.8182V94.7131C69.6119 94.9848 69.5621 95.2749 69.4627 95.5831C69.3666 95.888 69.2241 96.1847 69.0352 96.473C68.8496 96.758 68.6242 97.0066 68.359 97.2188L67.7227 96.7017C67.9315 96.4034 68.1121 96.0935 68.2646 95.772C68.4203 95.4472 68.4982 95.1009 68.4982 94.733V93.8182H69.6119ZM69.8244 104H68.5318L72.2704 93.8182H73.5431L77.2818 104H75.9892L72.9466 95.429H72.867L69.8244 104ZM70.3017 100.023H75.5119V101.116H70.3017V100.023ZM78.3072 93.8182V94.7131C78.3072 94.9848 78.2575 95.2749 78.158 95.5831C78.0619 95.888 77.9194 96.1847 77.7305 96.473C77.5449 96.758 77.3195 97.0066 77.0543 97.2188L76.418 96.7017C76.6268 96.4034 76.8074 96.0935 76.9599 95.772C77.1156 95.4472 77.1935 95.1009 77.1935 94.733V93.8182H78.3072Z" fill="black"/>
<path d="M112.061 98H111.23L113.634 91.4545H114.452L116.855 98H116.024L114.068 92.4901H114.017L112.061 98ZM112.368 95.4432H115.717V96.1463H112.368V95.4432ZM120.61 94.1264V93.4361H124.548V94.1264H120.61ZM120.61 96.0185V95.3281H124.548V96.0185H120.61Z" fill="black"/>
<path d="M48.36 41.754C48.388 41.386 48.53 41.098 48.786 40.89C49.042 40.682 49.374 40.578 49.782 40.578C50.054 40.578 50.288 40.628 50.484 40.728C50.684 40.824 50.834 40.956 50.934 41.124C51.038 41.292 51.09 41.482 51.09 41.694C51.09 41.942 51.018 42.156 50.874 42.336C50.734 42.516 50.55 42.632 50.322 42.684V42.714C50.582 42.778 50.788 42.904 50.94 43.092C51.092 43.28 51.168 43.526 51.168 43.83C51.168 44.058 51.116 44.264 51.012 44.448C50.908 44.628 50.752 44.77 50.544 44.874C50.336 44.978 50.086 45.03 49.794 45.03C49.37 45.03 49.022 44.92 48.75 44.7C48.478 44.476 48.326 44.16 48.294 43.752H48.822C48.85 43.992 48.948 44.188 49.116 44.34C49.284 44.492 49.508 44.568 49.788 44.568C50.068 44.568 50.28 44.496 50.424 44.352C50.572 44.204 50.646 44.014 50.646 43.782C50.646 43.482 50.546 43.266 50.346 43.134C50.146 43.002 49.844 42.936 49.44 42.936H49.302V42.48H49.446C49.814 42.476 50.092 42.416 50.28 42.3C50.468 42.18 50.562 41.996 50.562 41.748C50.562 41.536 50.492 41.366 50.352 41.238C50.216 41.11 50.02 41.046 49.764 41.046C49.516 41.046 49.316 41.11 49.164 41.238C49.012 41.366 48.922 41.538 48.894 41.754H48.36ZM55.3108 45L54.5308 43.776L53.7808 45H53.2108L54.2728 43.368L53.2108 41.712H53.8288L54.6088 42.93L55.3528 41.712H55.9228L54.8668 43.338L55.9288 45H55.3108ZM57.9635 41.754C57.9915 41.386 58.1335 41.098 58.3895 40.89C58.6455 40.682 58.9775 40.578 59.3855 40.578C59.6575 40.578 59.8915 40.628 60.0875 40.728C60.2875 40.824 60.4375 40.956 60.5375 41.124C60.6415 41.292 60.6935 41.482 60.6935 41.694C60.6935 41.942 60.6215 42.156 60.4775 42.336C60.3375 42.516 60.1535 42.632 59.9255 42.684V42.714C60.1855 42.778 60.3915 42.904 60.5435 43.092C60.6955 43.28 60.7715 43.526 60.7715 43.83C60.7715 44.058 60.7195 44.264 60.6155 44.448C60.5115 44.628 60.3555 44.77 60.1475 44.874C59.9395 44.978 59.6895 45.03 59.3975 45.03C58.9735 45.03 58.6255 44.92 58.3535 44.7C58.0815 44.476 57.9295 44.16 57.8975 43.752H58.4255C58.4535 43.992 58.5515 44.188 58.7195 44.34C58.8875 44.492 59.1115 44.568 59.3915 44.568C59.6715 44.568 59.8835 44.496 60.0275 44.352C60.1755 44.204 60.2495 44.014 60.2495 43.782C60.2495 43.482 60.1495 43.266 59.9495 43.134C59.7495 43.002 59.4475 42.936 59.0435 42.936H58.9055V42.48H59.0495C59.4175 42.476 59.6955 42.416 59.8835 42.3C60.0715 42.18 60.1655 41.996 60.1655 41.748C60.1655 41.536 60.0955 41.366 59.9555 41.238C59.8195 41.11 59.6235 41.046 59.3675 41.046C59.1195 41.046 58.9195 41.11 58.7675 41.238C58.6155 41.366 58.5255 41.538 58.4975 41.754H57.9635Z" fill="black"/>
<path d="M108.036 23.818V24.262H106.896V28H106.35V24.262H105.204V23.818H108.036ZM109.254 25.246C109.35 25.058 109.486 24.912 109.662 24.808C109.842 24.704 110.06 24.652 110.316 24.652V25.216H110.172C109.56 25.216 109.254 25.548 109.254 26.212V28H108.708V24.712H109.254V25.246ZM110.742 26.344C110.742 26.008 110.81 25.714 110.946 25.462C111.082 25.206 111.268 25.008 111.504 24.868C111.744 24.728 112.01 24.658 112.302 24.658C112.59 24.658 112.84 24.72 113.052 24.844C113.264 24.968 113.422 25.124 113.526 25.312V24.712H114.078V28H113.526V27.388C113.418 27.58 113.256 27.74 113.04 27.868C112.828 27.992 112.58 28.054 112.296 28.054C112.004 28.054 111.74 27.982 111.504 27.838C111.268 27.694 111.082 27.492 110.946 27.232C110.81 26.972 110.742 26.676 110.742 26.344ZM113.526 26.35C113.526 26.102 113.476 25.886 113.376 25.702C113.276 25.518 113.14 25.378 112.968 25.282C112.8 25.182 112.614 25.132 112.41 25.132C112.206 25.132 112.02 25.18 111.852 25.276C111.684 25.372 111.55 25.512 111.45 25.696C111.35 25.88 111.3 26.096 111.3 26.344C111.3 26.596 111.35 26.816 111.45 27.004C111.55 27.188 111.684 27.33 111.852 27.43C112.02 27.526 112.206 27.574 112.41 27.574C112.614 27.574 112.8 27.526 112.968 27.43C113.14 27.33 113.276 27.188 113.376 27.004C113.476 26.816 113.526 26.598 113.526 26.35ZM116.603 24.652C117.003 24.652 117.327 24.774 117.575 25.018C117.823 25.258 117.947 25.606 117.947 26.062V28H117.407V26.14C117.407 25.812 117.325 25.562 117.161 25.39C116.997 25.214 116.773 25.126 116.489 25.126C116.201 25.126 115.971 25.216 115.799 25.396C115.631 25.576 115.547 25.838 115.547 26.182V28H115.001V24.712H115.547V25.18C115.655 25.012 115.801 24.882 115.985 24.79C116.173 24.698 116.379 24.652 116.603 24.652ZM120.003 28.054C119.751 28.054 119.525 28.012 119.325 27.928C119.125 27.84 118.967 27.72 118.851 27.568C118.735 27.412 118.671 27.234 118.659 27.034H119.223C119.239 27.198 119.315 27.332 119.451 27.436C119.591 27.54 119.773 27.592 119.997 27.592C120.205 27.592 120.369 27.546 120.489 27.454C120.609 27.362 120.669 27.246 120.669 27.106C120.669 26.962 120.605 26.856 120.477 26.788C120.349 26.716 120.151 26.646 119.883 26.578C119.639 26.514 119.439 26.45 119.283 26.386C119.131 26.318 118.999 26.22 118.887 26.092C118.779 25.96 118.725 25.788 118.725 25.576C118.725 25.408 118.775 25.254 118.875 25.114C118.975 24.974 119.117 24.864 119.301 24.784C119.485 24.7 119.695 24.658 119.931 24.658C120.295 24.658 120.589 24.75 120.813 24.934C121.037 25.118 121.157 25.37 121.173 25.69H120.627C120.615 25.518 120.545 25.38 120.417 25.276C120.293 25.172 120.125 25.12 119.913 25.12C119.717 25.12 119.561 25.162 119.445 25.246C119.329 25.33 119.271 25.44 119.271 25.576C119.271 25.684 119.305 25.774 119.373 25.846C119.445 25.914 119.533 25.97 119.637 26.014C119.745 26.054 119.893 26.1 120.081 26.152C120.317 26.216 120.509 26.28 120.657 26.344C120.805 26.404 120.931 26.496 121.035 26.62C121.143 26.744 121.199 26.906 121.203 27.106C121.203 27.286 121.153 27.448 121.053 27.592C120.953 27.736 120.811 27.85 120.627 27.934C120.447 28.014 120.239 28.054 120.003 28.054ZM122.52 25.318C122.628 25.13 122.788 24.974 123 24.85C123.216 24.722 123.466 24.658 123.75 24.658C124.042 24.658 124.306 24.728 124.542 24.868C124.782 25.008 124.97 25.206 125.106 25.462C125.242 25.714 125.31 26.008 125.31 26.344C125.31 26.676 125.242 26.972 125.106 27.232C124.97 27.492 124.782 27.694 124.542 27.838C124.306 27.982 124.042 28.054 123.75 28.054C123.47 28.054 123.222 27.992 123.006 27.868C122.794 27.74 122.632 27.582 122.52 27.394V29.56H121.974V24.712H122.52V25.318ZM124.752 26.344C124.752 26.096 124.702 25.88 124.602 25.696C124.502 25.512 124.366 25.372 124.194 25.276C124.026 25.18 123.84 25.132 123.636 25.132C123.436 25.132 123.25 25.182 123.078 25.282C122.91 25.378 122.774 25.52 122.67 25.708C122.57 25.892 122.52 26.106 122.52 26.35C122.52 26.598 122.57 26.816 122.67 27.004C122.774 27.188 122.91 27.33 123.078 27.43C123.25 27.526 123.436 27.574 123.636 27.574C123.84 27.574 124.026 27.526 124.194 27.43C124.366 27.33 124.502 27.188 124.602 27.004C124.702 26.816 124.752 26.596 124.752 26.344ZM127.462 28.054C127.154 28.054 126.874 27.984 126.622 27.844C126.374 27.704 126.178 27.506 126.034 27.25C125.894 26.99 125.824 26.69 125.824 26.35C125.824 26.014 125.896 25.718 126.04 25.462C126.188 25.202 126.388 25.004 126.64 24.868C126.892 24.728 127.174 24.658 127.486 24.658C127.798 24.658 128.08 24.728 128.332 24.868C128.584 25.004 128.782 25.2 128.926 25.456C129.074 25.712 129.148 26.01 129.148 26.35C129.148 26.69 129.072 26.99 128.92 27.25C128.772 27.506 128.57 27.704 128.314 27.844C128.058 27.984 127.774 28.054 127.462 28.054ZM127.462 27.574C127.658 27.574 127.842 27.528 128.014 27.436C128.186 27.344 128.324 27.206 128.428 27.022C128.536 26.838 128.59 26.614 128.59 26.35C128.59 26.086 128.538 25.862 128.434 25.678C128.33 25.494 128.194 25.358 128.026 25.27C127.858 25.178 127.676 25.132 127.48 25.132C127.28 25.132 127.096 25.178 126.928 25.27C126.764 25.358 126.632 25.494 126.532 25.678C126.432 25.862 126.382 26.086 126.382 26.35C126.382 26.618 126.43 26.844 126.526 27.028C126.626 27.212 126.758 27.35 126.922 27.442C127.086 27.53 127.266 27.574 127.462 27.574ZM131.03 28.054C130.778 28.054 130.552 28.012 130.352 27.928C130.152 27.84 129.994 27.72 129.878 27.568C129.762 27.412 129.698 27.234 129.686 27.034H130.25C130.266 27.198 130.342 27.332 130.478 27.436C130.618 27.54 130.8 27.592 131.024 27.592C131.232 27.592 131.396 27.546 131.516 27.454C131.636 27.362 131.696 27.246 131.696 27.106C131.696 26.962 131.632 26.856 131.504 26.788C131.376 26.716 131.178 26.646 130.91 26.578C130.666 26.514 130.466 26.45 130.31 26.386C130.158 26.318 130.026 26.22 129.914 26.092C129.806 25.96 129.752 25.788 129.752 25.576C129.752 25.408 129.802 25.254 129.902 25.114C130.002 24.974 130.144 24.864 130.328 24.784C130.512 24.7 130.722 24.658 130.958 24.658C131.322 24.658 131.616 24.75 131.84 24.934C132.064 25.118 132.184 25.37 132.2 25.69H131.654C131.642 25.518 131.572 25.38 131.444 25.276C131.32 25.172 131.152 25.12 130.94 25.12C130.744 25.12 130.588 25.162 130.472 25.246C130.356 25.33 130.298 25.44 130.298 25.576C130.298 25.684 130.332 25.774 130.4 25.846C130.472 25.914 130.56 25.97 130.664 26.014C130.772 26.054 130.92 26.1 131.108 26.152C131.344 26.216 131.536 26.28 131.684 26.344C131.832 26.404 131.958 26.496 132.062 26.62C132.17 26.744 132.226 26.906 132.23 27.106C132.23 27.286 132.18 27.448 132.08 27.592C131.98 27.736 131.838 27.85 131.654 27.934C131.474 28.014 131.266 28.054 131.03 28.054ZM136.001 26.23C136.001 26.334 135.995 26.444 135.983 26.56H133.355C133.375 26.884 133.485 27.138 133.685 27.322C133.889 27.502 134.135 27.592 134.423 27.592C134.659 27.592 134.855 27.538 135.011 27.43C135.171 27.318 135.283 27.17 135.347 26.986H135.935C135.847 27.302 135.671 27.56 135.407 27.76C135.143 27.956 134.815 28.054 134.423 28.054C134.111 28.054 133.831 27.984 133.583 27.844C133.339 27.704 133.147 27.506 133.007 27.25C132.867 26.99 132.797 26.69 132.797 26.35C132.797 26.01 132.865 25.712 133.001 25.456C133.137 25.2 133.327 25.004 133.571 24.868C133.819 24.728 134.103 24.658 134.423 24.658C134.735 24.658 135.011 24.726 135.251 24.862C135.491 24.998 135.675 25.186 135.803 25.426C135.935 25.662 136.001 25.93 136.001 26.23ZM135.437 26.116C135.437 25.908 135.391 25.73 135.299 25.582C135.207 25.43 135.081 25.316 134.921 25.24C134.765 25.16 134.591 25.12 134.399 25.12C134.123 25.12 133.887 25.208 133.691 25.384C133.499 25.56 133.389 25.804 133.361 26.116H135.437Z" fill="black"/>
<path d="M98.36 52.754C98.388 52.386 98.53 52.098 98.786 51.89C99.042 51.682 99.374 51.578 99.782 51.578C100.054 51.578 100.288 51.628 100.484 51.728C100.684 51.824 100.834 51.956 100.934 52.124C101.038 52.292 101.09 52.482 101.09 52.694C101.09 52.942 101.018 53.156 100.874 53.336C100.734 53.516 100.55 53.632 100.322 53.684V53.714C100.582 53.778 100.788 53.904 100.94 54.092C101.092 54.28 101.168 54.526 101.168 54.83C101.168 55.058 101.116 55.264 101.012 55.448C100.908 55.628 100.752 55.77 100.544 55.874C100.336 55.978 100.086 56.03 99.794 56.03C99.37 56.03 99.022 55.92 98.75 55.7C98.478 55.476 98.326 55.16 98.294 54.752H98.822C98.85 54.992 98.948 55.188 99.116 55.34C99.284 55.492 99.508 55.568 99.788 55.568C100.068 55.568 100.28 55.496 100.424 55.352C100.572 55.204 100.646 55.014 100.646 54.782C100.646 54.482 100.546 54.266 100.346 54.134C100.146 54.002 99.844 53.936 99.44 53.936H99.302V53.48H99.446C99.814 53.476 100.092 53.416 100.28 53.3C100.468 53.18 100.562 52.996 100.562 52.748C100.562 52.536 100.492 52.366 100.352 52.238C100.216 52.11 100.02 52.046 99.764 52.046C99.516 52.046 99.316 52.11 99.164 52.238C99.012 52.366 98.922 52.538 98.894 52.754H98.36ZM105.311 56L104.531 54.776L103.781 56H103.211L104.273 54.368L103.211 52.712H103.829L104.609 53.93L105.353 52.712H105.923L104.867 54.338L105.929 56H105.311ZM107.832 52.16V51.662H108.96V56H108.408V52.16H107.832Z" fill="black"/>
<path d="M135.457 34.594V35.116H134.665V44.143H135.457V44.674H134.071V34.594H135.457ZM170.643 44.674H169.257V44.143H170.049V35.116H169.257V34.594H170.643V44.674Z" fill="#FF7F56"/>
<path d="M137.132 37.52V36.939H138.448V42H137.804V37.52H137.132ZM139.465 41.489C140.058 41.013 140.522 40.6233 140.858 40.32C141.194 40.012 141.477 39.6923 141.705 39.361C141.939 39.025 142.055 38.696 142.055 38.374C142.055 38.0707 141.981 37.8327 141.831 37.66C141.687 37.4827 141.451 37.394 141.124 37.394C140.807 37.394 140.56 37.4943 140.382 37.695C140.21 37.891 140.116 38.1547 140.102 38.486H139.486C139.505 37.9633 139.664 37.5597 139.962 37.275C140.261 36.9903 140.646 36.848 141.117 36.848C141.598 36.848 141.978 36.981 142.258 37.247C142.543 37.513 142.685 37.8793 142.685 38.346C142.685 38.7333 142.569 39.1113 142.335 39.48C142.107 39.844 141.845 40.166 141.551 40.446C141.257 40.7213 140.882 41.0433 140.424 41.412H142.832V41.944H139.465V41.489ZM147.224 41.489C147.817 41.013 148.281 40.6233 148.617 40.32C148.953 40.012 149.236 39.6923 149.464 39.361C149.698 39.025 149.814 38.696 149.814 38.374C149.814 38.0707 149.74 37.8327 149.59 37.66C149.446 37.4827 149.21 37.394 148.883 37.394C148.566 37.394 148.319 37.4943 148.141 37.695C147.969 37.891 147.875 38.1547 147.861 38.486H147.245C147.264 37.9633 147.423 37.5597 147.721 37.275C148.02 36.9903 148.405 36.848 148.876 36.848C149.357 36.848 149.737 36.981 150.017 37.247C150.302 37.513 150.444 37.8793 150.444 38.346C150.444 38.7333 150.328 39.1113 150.094 39.48C149.866 39.844 149.604 40.166 149.31 40.446C149.016 40.7213 148.641 41.0433 148.183 41.412H150.591V41.944H147.224V41.489ZM151.314 38.213C151.346 37.7837 151.512 37.4477 151.811 37.205C152.109 36.9623 152.497 36.841 152.973 36.841C153.29 36.841 153.563 36.8993 153.792 37.016C154.025 37.128 154.2 37.282 154.317 37.478C154.438 37.674 154.499 37.8957 154.499 38.143C154.499 38.4323 154.415 38.682 154.247 38.892C154.083 39.102 153.869 39.2373 153.603 39.298V39.333C153.906 39.4077 154.146 39.5547 154.324 39.774C154.501 39.9933 154.59 40.2803 154.59 40.635C154.59 40.901 154.529 41.1413 154.408 41.356C154.286 41.566 154.104 41.7317 153.862 41.853C153.619 41.9743 153.327 42.035 152.987 42.035C152.492 42.035 152.086 41.9067 151.769 41.65C151.451 41.3887 151.274 41.02 151.237 40.544H151.853C151.885 40.824 152 41.0527 152.196 41.23C152.392 41.4073 152.653 41.496 152.98 41.496C153.306 41.496 153.554 41.412 153.722 41.244C153.894 41.0713 153.981 40.8497 153.981 40.579C153.981 40.229 153.864 39.977 153.631 39.823C153.397 39.669 153.045 39.592 152.574 39.592H152.413V39.06H152.581C153.01 39.0553 153.334 38.9853 153.554 38.85C153.773 38.71 153.883 38.4953 153.883 38.206C153.883 37.9587 153.801 37.7603 153.638 37.611C153.479 37.4617 153.25 37.387 152.952 37.387C152.662 37.387 152.429 37.4617 152.252 37.611C152.074 37.7603 151.969 37.961 151.937 38.213H151.314ZM162.003 38.143C161.9 37.625 161.581 37.366 161.044 37.366C160.629 37.366 160.318 37.527 160.113 37.849C159.908 38.1663 159.807 38.6913 159.812 39.424C159.919 39.1813 160.097 38.9923 160.344 38.857C160.596 38.717 160.876 38.647 161.184 38.647C161.665 38.647 162.047 38.7963 162.332 39.095C162.621 39.3937 162.766 39.8067 162.766 40.334C162.766 40.6513 162.703 40.936 162.577 41.188C162.456 41.44 162.269 41.6407 162.017 41.79C161.77 41.9393 161.469 42.014 161.114 42.014C160.633 42.014 160.258 41.9067 159.987 41.692C159.716 41.4773 159.527 41.181 159.42 40.803C159.313 40.425 159.259 39.9583 159.259 39.403C159.259 37.6903 159.856 36.834 161.051 36.834C161.508 36.834 161.868 36.9577 162.129 37.205C162.39 37.4523 162.544 37.765 162.591 38.143H162.003ZM161.051 39.186C160.85 39.186 160.661 39.228 160.484 39.312C160.307 39.3913 160.162 39.515 160.05 39.683C159.943 39.8463 159.889 40.047 159.889 40.285C159.889 40.6397 159.992 40.929 160.197 41.153C160.402 41.3723 160.696 41.482 161.079 41.482C161.406 41.482 161.665 41.3817 161.856 41.181C162.052 40.9757 162.15 40.7003 162.15 40.355C162.15 39.991 162.057 39.7063 161.87 39.501C161.683 39.291 161.41 39.186 161.051 39.186ZM166.74 37.436L164.794 42H164.15L166.124 37.499H163.422V36.953H166.74V37.436Z" fill="black"/>
<path d="M172.228 46.16V45.662H173.356V50H172.804V46.16H172.228ZM177.699 50L176.919 48.776L176.169 50H175.599L176.661 48.368L175.599 46.712H176.217L176.997 47.93L177.741 46.712H178.311L177.255 48.338L178.317 50H177.699ZM180.352 46.754C180.38 46.386 180.522 46.098 180.778 45.89C181.034 45.682 181.366 45.578 181.774 45.578C182.046 45.578 182.28 45.628 182.476 45.728C182.676 45.824 182.826 45.956 182.926 46.124C183.03 46.292 183.082 46.482 183.082 46.694C183.082 46.942 183.01 47.156 182.866 47.336C182.726 47.516 182.542 47.632 182.314 47.684V47.714C182.574 47.778 182.78 47.904 182.932 48.092C183.084 48.28 183.16 48.526 183.16 48.83C183.16 49.058 183.108 49.264 183.004 49.448C182.9 49.628 182.744 49.77 182.536 49.874C182.328 49.978 182.078 50.03 181.786 50.03C181.362 50.03 181.014 49.92 180.742 49.7C180.47 49.476 180.318 49.16 180.286 48.752H180.814C180.842 48.992 180.94 49.188 181.108 49.34C181.276 49.492 181.5 49.568 181.78 49.568C182.06 49.568 182.272 49.496 182.416 49.352C182.564 49.204 182.638 49.014 182.638 48.782C182.638 48.482 182.538 48.266 182.338 48.134C182.138 48.002 181.836 47.936 181.432 47.936H181.294V47.48H181.438C181.806 47.476 182.084 47.416 182.272 47.3C182.46 47.18 182.554 46.996 182.554 46.748C182.554 46.536 182.484 46.366 182.344 46.238C182.208 46.11 182.012 46.046 181.756 46.046C181.508 46.046 181.308 46.11 181.156 46.238C181.004 46.366 180.914 46.538 180.886 46.754H180.352Z" fill="black"/>
<path d="M131.055 39.997C131.33 39.9665 131.527 39.7193 131.497 39.4449L131 34.9724C130.97 34.6979 130.723 34.5001 130.448 34.5306C130.174 34.5611 129.976 34.8083 130.006 35.0828L130.448 39.0583L126.472 39.4998C126.198 39.5303 126 39.7775 126.031 40.0519C126.061 40.3264 126.308 40.5242 126.583 40.4937L131.055 39.997ZM98.7118 35.953C105.683 32.6928 110.838 31.4471 115.639 32.101C120.444 32.7554 124.979 35.3232 130.688 39.8905L131.312 39.1097C125.563 34.5099 120.853 31.8019 115.774 31.1102C110.692 30.418 105.326 31.7559 98.2882 35.0472L98.7118 35.953Z" fill="black"/>
</svg>
