<svg width="190" height="120" viewBox="0 0 190 120" fill="none" xmlns="http://www.w3.org/2000/svg">
<path d="M0 0H190V120H0V0Z" fill="white"/>
<path d="M27.78 51.967C27.8407 51.1697 28.1483 50.5457 28.703 50.095C29.2577 49.6443 29.977 49.419 30.861 49.419C31.4503 49.419 31.9573 49.5273 32.382 49.744C32.8153 49.952 33.1403 50.238 33.357 50.602C33.5823 50.966 33.695 51.3777 33.695 51.837C33.695 52.3743 33.539 52.838 33.227 53.228C32.9237 53.618 32.525 53.8693 32.031 53.982V54.047C32.5943 54.1857 33.0407 54.4587 33.37 54.866C33.6993 55.2733 33.864 55.8063 33.864 56.465C33.864 56.959 33.7513 57.4053 33.526 57.804C33.3007 58.194 32.9627 58.5017 32.512 58.727C32.0613 58.9523 31.5197 59.065 30.887 59.065C29.9683 59.065 29.2143 58.8267 28.625 58.35C28.0357 57.8647 27.7063 57.18 27.637 56.296H28.781C28.8417 56.816 29.054 57.2407 29.418 57.57C29.782 57.8993 30.2673 58.064 30.874 58.064C31.4807 58.064 31.94 57.908 32.252 57.596C32.5727 57.2753 32.733 56.8637 32.733 56.361C32.733 55.711 32.5163 55.243 32.083 54.957C31.6497 54.671 30.9953 54.528 30.12 54.528H29.821V53.54H30.133C30.9303 53.5313 31.5327 53.4013 31.94 53.15C32.3473 52.89 32.551 52.4913 32.551 51.954C32.551 51.4947 32.3993 51.1263 32.096 50.849C31.8013 50.5717 31.3767 50.433 30.822 50.433C30.2847 50.433 29.8513 50.5717 29.522 50.849C29.1927 51.1263 28.9977 51.499 28.937 51.967H27.78ZM45.0631 54.112C44.5778 53.9213 44.2051 53.644 43.9451 53.28C43.6851 52.916 43.5551 52.474 43.5551 51.954C43.5551 51.486 43.6721 51.0657 43.9061 50.693C44.1401 50.3117 44.4868 50.0127 44.9461 49.796C45.4141 49.5707 45.9774 49.458 46.6361 49.458C47.2948 49.458 47.8538 49.5707 48.3131 49.796C48.7811 50.0127 49.1321 50.3117 49.3661 50.693C49.6088 51.0657 49.7301 51.486 49.7301 51.954C49.7301 52.4567 49.5958 52.8987 49.3271 53.28C49.0584 53.6527 48.6901 53.93 48.2221 54.112C48.7594 54.2767 49.1841 54.567 49.4961 54.983C49.8168 55.3903 49.9771 55.8843 49.9771 56.465C49.9771 57.0283 49.8384 57.5223 49.5611 57.947C49.2838 58.363 48.8894 58.688 48.3781 58.922C47.8754 59.1473 47.2948 59.26 46.6361 59.26C45.9774 59.26 45.3968 59.1473 44.8941 58.922C44.4001 58.688 44.0144 58.363 43.7371 57.947C43.4598 57.5223 43.3211 57.0283 43.3211 56.465C43.3211 55.8843 43.4771 55.386 43.7891 54.97C44.1011 54.554 44.5258 54.268 45.0631 54.112ZM48.5861 52.097C48.5861 51.5683 48.4128 51.161 48.0661 50.875C47.7194 50.589 47.2428 50.446 46.6361 50.446C46.0381 50.446 45.5658 50.589 45.2191 50.875C44.8724 51.161 44.6991 51.5727 44.6991 52.11C44.6991 52.5953 44.8768 52.9853 45.2321 53.28C45.5961 53.5747 46.0641 53.722 46.6361 53.722C47.2168 53.722 47.6848 53.5747 48.0401 53.28C48.4041 52.9767 48.5861 52.5823 48.5861 52.097ZM46.6361 54.632C45.9948 54.632 45.4704 54.7837 45.0631 55.087C44.6558 55.3817 44.4521 55.828 44.4521 56.426C44.4521 56.9807 44.6471 57.427 45.0371 57.765C45.4358 58.103 45.9688 58.272 46.6361 58.272C47.3034 58.272 47.8321 58.103 48.2221 57.765C48.6121 57.427 48.8071 56.9807 48.8071 56.426C48.8071 55.8453 48.6078 55.4033 48.2091 55.1C47.8104 54.788 47.2861 54.632 46.6361 54.632ZM59.2911 58.051C60.3918 57.167 61.2541 56.4433 61.8781 55.88C62.5021 55.308 63.0264 54.7143 63.4511 54.099C63.8844 53.475 64.1011 52.864 64.1011 52.266C64.1011 51.7027 63.9624 51.2607 63.6851 50.94C63.4164 50.6107 62.9788 50.446 62.3721 50.446C61.7828 50.446 61.3234 50.6323 60.9941 51.005C60.6734 51.369 60.5001 51.8587 60.4741 52.474H59.3301C59.3648 51.5033 59.6594 50.7537 60.2141 50.225C60.7688 49.6963 61.4838 49.432 62.3591 49.432C63.2518 49.432 63.9581 49.679 64.4781 50.173C65.0068 50.667 65.2711 51.3473 65.2711 52.214C65.2711 52.9333 65.0544 53.6353 64.6211 54.32C64.1964 54.996 63.7111 55.594 63.1651 56.114C62.6191 56.6253 61.9214 57.2233 61.0721 57.908H65.5441V58.896H59.2911V58.051Z" fill="black"/>
<path d="M25.344 75.208C25.344 74.664 25.4667 74.176 25.712 73.744C25.9573 73.3067 26.2907 72.9653 26.712 72.72C27.1387 72.4747 27.6107 72.352 28.128 72.352C28.736 72.352 29.2667 72.4987 29.72 72.792C30.1733 73.0853 30.504 73.5013 30.712 74.04H29.84C29.6853 73.704 29.4613 73.4453 29.168 73.264C28.88 73.0827 28.5333 72.992 28.128 72.992C27.7387 72.992 27.3893 73.0827 27.08 73.264C26.7707 73.4453 26.528 73.704 26.352 74.04C26.176 74.3707 26.088 74.76 26.088 75.208C26.088 75.6507 26.176 76.04 26.352 76.376C26.528 76.7067 26.7707 76.9627 27.08 77.144C27.3893 77.3253 27.7387 77.416 28.128 77.416C28.5333 77.416 28.88 77.328 29.168 77.152C29.4613 76.9707 29.6853 76.712 29.84 76.376H30.712C30.504 76.9093 30.1733 77.3227 29.72 77.616C29.2667 77.904 28.736 78.048 28.128 78.048C27.6107 78.048 27.1387 77.928 26.712 77.688C26.2907 77.4427 25.9573 77.104 25.712 76.672C25.4667 76.24 25.344 75.752 25.344 75.208ZM32.5237 74.328C32.6517 74.0773 32.833 73.8827 33.0677 73.744C33.3077 73.6053 33.5984 73.536 33.9397 73.536V74.288H33.7477C32.9317 74.288 32.5237 74.7307 32.5237 75.616V78H31.7957V73.616H32.5237V74.328ZM36.6921 78.072C36.2814 78.072 35.9081 77.9787 35.5721 77.792C35.2414 77.6053 34.9801 77.3413 34.7881 77C34.6014 76.6533 34.5081 76.2533 34.5081 75.8C34.5081 75.352 34.6041 74.9573 34.7961 74.616C34.9934 74.2693 35.2601 74.0053 35.5961 73.824C35.9321 73.6373 36.3081 73.544 36.7241 73.544C37.1401 73.544 37.5161 73.6373 37.8521 73.824C38.1881 74.0053 38.4521 74.2667 38.6441 74.608C38.8414 74.9493 38.9401 75.3467 38.9401 75.8C38.9401 76.2533 38.8387 76.6533 38.6361 77C38.4387 77.3413 38.1694 77.6053 37.8281 77.792C37.4867 77.9787 37.1081 78.072 36.6921 78.072ZM36.6921 77.432C36.9534 77.432 37.1987 77.3707 37.4281 77.248C37.6574 77.1253 37.8414 76.9413 37.9801 76.696C38.1241 76.4507 38.1961 76.152 38.1961 75.8C38.1961 75.448 38.1267 75.1493 37.9881 74.904C37.8494 74.6587 37.6681 74.4773 37.4441 74.36C37.2201 74.2373 36.9774 74.176 36.7161 74.176C36.4494 74.176 36.2041 74.2373 35.9801 74.36C35.7614 74.4773 35.5854 74.6587 35.4521 74.904C35.3187 75.1493 35.2521 75.448 35.2521 75.8C35.2521 76.1573 35.3161 76.4587 35.4441 76.704C35.5774 76.9493 35.7534 77.1333 35.9721 77.256C36.1907 77.3733 36.4307 77.432 36.6921 77.432ZM40.6253 74.328C40.7533 74.0773 40.9346 73.8827 41.1693 73.744C41.4093 73.6053 41.6999 73.536 42.0413 73.536V74.288H41.8493C41.0333 74.288 40.6253 74.7307 40.6253 75.616V78H39.8973V73.616H40.6253V74.328ZM46.8816 75.64C46.8816 75.7787 46.8736 75.9253 46.8576 76.08H43.3536C43.3803 76.512 43.527 76.8507 43.7936 77.096C44.0656 77.336 44.3936 77.456 44.7776 77.456C45.0923 77.456 45.3536 77.384 45.5616 77.24C45.775 77.0907 45.9243 76.8933 46.0096 76.648H46.7936C46.6763 77.0693 46.4416 77.4133 46.0896 77.68C45.7376 77.9413 45.3003 78.072 44.7776 78.072C44.3616 78.072 43.9883 77.9787 43.6576 77.792C43.3323 77.6053 43.0763 77.3413 42.8896 77C42.703 76.6533 42.6096 76.2533 42.6096 75.8C42.6096 75.3467 42.7003 74.9493 42.8816 74.608C43.063 74.2667 43.3163 74.0053 43.6416 73.824C43.9723 73.6373 44.351 73.544 44.7776 73.544C45.1936 73.544 45.5616 73.6347 45.8816 73.816C46.2016 73.9973 46.447 74.248 46.6176 74.568C46.7936 74.8827 46.8816 75.24 46.8816 75.64ZM46.1296 75.488C46.1296 75.2107 46.0683 74.9733 45.9456 74.776C45.823 74.5733 45.655 74.4213 45.4416 74.32C45.2336 74.2133 45.0016 74.16 44.7456 74.16C44.3776 74.16 44.063 74.2773 43.8016 74.512C43.5456 74.7467 43.399 75.072 43.3616 75.488H46.1296ZM49.3946 78.072C49.0586 78.072 48.7572 78.016 48.4906 77.904C48.2239 77.7867 48.0132 77.6267 47.8586 77.424C47.7039 77.216 47.6186 76.9787 47.6026 76.712H48.3546C48.3759 76.9307 48.4772 77.1093 48.6586 77.248C48.8452 77.3867 49.0879 77.456 49.3866 77.456C49.6639 77.456 49.8826 77.3947 50.0426 77.272C50.2026 77.1493 50.2826 76.9947 50.2826 76.808C50.2826 76.616 50.1972 76.4747 50.0266 76.384C49.8559 76.288 49.5919 76.1947 49.2346 76.104C48.9092 76.0187 48.6426 75.9333 48.4346 75.848C48.2319 75.7573 48.0559 75.6267 47.9066 75.456C47.7626 75.28 47.6906 75.0507 47.6906 74.768C47.6906 74.544 47.7572 74.3387 47.8906 74.152C48.0239 73.9653 48.2132 73.8187 48.4586 73.712C48.7039 73.6 48.9839 73.544 49.2986 73.544C49.7839 73.544 50.1759 73.6667 50.4746 73.912C50.7732 74.1573 50.9332 74.4933 50.9546 74.92H50.2266C50.2106 74.6907 50.1172 74.5067 49.9466 74.368C49.7812 74.2293 49.5572 74.16 49.2746 74.16C49.0132 74.16 48.8052 74.216 48.6506 74.328C48.4959 74.44 48.4186 74.5867 48.4186 74.768C48.4186 74.912 48.4639 75.032 48.5546 75.128C48.6506 75.2187 48.7679 75.2933 48.9066 75.352C49.0506 75.4053 49.2479 75.4667 49.4986 75.536C49.8132 75.6213 50.0692 75.7067 50.2666 75.792C50.4639 75.872 50.6319 75.9947 50.7706 76.16C50.9146 76.3253 50.9892 76.5413 50.9946 76.808C50.9946 77.048 50.9279 77.264 50.7946 77.456C50.6612 77.648 50.4719 77.8 50.2266 77.912C49.9866 78.0187 49.7092 78.072 49.3946 78.072Z" fill="black"/>
<path d="M14.5941 21.2396C14.4788 20.8954 14.3609 20.5131 14.2403 20.0927C14.1242 19.6877 14.0084 19.2548 13.8929 18.7941C13.7775 18.3334 13.6682 17.8654 13.5652 17.3901C13.4607 16.9096 13.3702 16.439 13.2936 15.9783C13.2174 16.0223 13.1438 16.0656 13.0728 16.1081C13.0054 16.1441 12.9439 16.1812 12.8883 16.2193L12.1455 15.109C13.3024 14.4611 14.2935 14.0187 15.1189 13.7821C16.7953 13.3013 17.8166 13.6993 18.1826 14.9758C18.3546 15.5756 18.2914 16.1098 17.993 16.5782C17.693 17.0415 17.1692 17.4302 16.4216 17.7445C17.0013 18.0055 17.5637 18.1965 18.1089 18.3176C18.6577 18.4321 19.2006 18.5067 19.7377 18.5413L19.2159 19.9143C18.9162 19.8948 18.5928 19.8406 18.2454 19.7515C17.8981 19.6625 17.5482 19.5547 17.1957 19.4283C16.8432 19.3019 16.5028 19.1693 16.1744 19.0304C15.8512 18.8901 15.5606 18.757 15.3026 18.6313C15.399 18.9865 15.4967 19.3468 15.596 19.7123C15.6989 20.0712 15.8055 20.4428 15.9157 20.8273L15.8828 20.8867C15.688 20.9426 15.4778 21.0029 15.2522 21.0675C15.0332 21.1359 14.8362 21.2035 14.6612 21.2703L14.5941 21.2396ZM15.4003 15.0246C15.2568 15.0658 15.1103 15.1161 14.9609 15.1756C14.81 15.2299 14.6606 15.2894 14.5127 15.354C14.5745 15.647 14.6382 15.9367 14.7037 16.2231C14.7677 16.5043 14.8342 16.7848 14.9034 17.0646C15.1275 16.9948 15.3673 16.9122 15.6229 16.8167C15.8821 16.7146 16.1201 16.5964 16.3368 16.4622C16.5521 16.3228 16.7149 16.1651 16.8254 15.9892C16.941 15.8118 16.9671 15.6129 16.9039 15.3924C16.8304 15.1361 16.6717 14.9791 16.4277 14.9214C16.1837 14.8638 15.8412 14.8982 15.4003 15.0246ZM23.04 18.9093C22.5478 19.0505 22.0867 19.0773 21.6565 18.9898C21.233 18.9059 20.8669 18.7224 20.5582 18.4392C20.2547 18.1545 20.0382 17.7866 19.9088 17.3354C19.8309 17.0637 19.7955 16.7659 19.8025 16.4421C19.808 16.1132 19.8759 15.7886 20.006 15.4683C20.1361 15.1481 20.3442 14.8581 20.6304 14.5985C20.9217 14.3374 21.3083 14.1378 21.7902 13.9996C22.1389 13.8996 22.4421 13.8543 22.7 13.8636C22.963 13.8714 23.1865 13.9155 23.3704 13.9959C23.5595 14.0748 23.7124 14.1725 23.829 14.2889C23.9507 14.4038 24.0427 14.5216 24.1051 14.6424C24.1712 14.7567 24.2159 14.8548 24.2395 14.9368C24.382 15.4341 24.2821 15.8789 23.9396 16.2712C23.6008 16.6568 23.0495 16.9592 22.2856 17.1782C22.1113 17.2282 21.9424 17.2683 21.7791 17.2985C21.6209 17.3272 21.4722 17.3504 21.333 17.3681C21.5039 17.5965 21.7198 17.7399 21.9807 17.7983C22.2401 17.8515 22.4902 17.8436 22.7312 17.7745C23.0798 17.6745 23.3698 17.5248 23.6011 17.3253C23.8309 17.1207 24.0263 16.8538 24.1871 16.5248L25.1538 17.3128C25.028 17.4932 24.8831 17.6845 24.7192 17.8869C24.5604 18.0878 24.3481 18.2762 24.0824 18.4523C23.8181 18.6335 23.4706 18.7859 23.04 18.9093ZM22.1441 15.1465C21.8416 15.2332 21.5971 15.3866 21.4105 15.6065C21.2239 15.8265 21.1127 16.0775 21.0771 16.3596C21.2112 16.3434 21.3419 16.3253 21.4694 16.3054C21.6005 16.2789 21.7276 16.248 21.8506 16.2127C21.9634 16.1804 22.0886 16.1334 22.2263 16.0717C22.3691 16.0086 22.5038 15.9366 22.6305 15.8559C22.7622 15.7737 22.8655 15.6887 22.9401 15.6007C23.0133 15.5076 23.0374 15.4174 23.0124 15.3303C23.0006 15.2893 22.9654 15.2439 22.9068 15.1941C22.8481 15.1444 22.7576 15.1093 22.6352 15.0889C22.5129 15.0685 22.3491 15.0877 22.1441 15.1465ZM27.94 17.4959C27.5555 17.6062 27.1782 17.6062 26.8082 17.4959C26.4396 17.3908 26.1152 17.1981 25.8351 16.9177C25.5586 16.6308 25.3609 16.2797 25.2418 15.8645C25.1301 15.4748 25.1011 15.1031 25.155 14.7492C25.2074 14.3902 25.3243 14.0626 25.5057 13.7665C25.6922 13.4688 25.9275 13.2155 26.2116 13.0065C26.4942 12.7923 26.8098 12.6352 27.1584 12.5352C27.4506 12.4514 27.7495 12.4101 28.0549 12.4113C28.0446 12.2978 28.0316 12.1849 28.0162 12.0729L29.3951 11.9188C29.3872 12.0265 29.3932 12.1829 29.4131 12.388C29.4331 12.5931 29.4648 12.8198 29.5083 13.0681C29.5569 13.315 29.608 13.5611 29.6617 13.8064C29.7155 14.0518 29.7702 14.2719 29.8261 14.4667C29.8717 14.6256 29.9268 14.7791 29.9914 14.927C30.0596 15.0683 30.1462 15.1767 30.251 15.252C30.3544 15.3222 30.4855 15.3346 30.6445 15.289L30.7521 15.2581L30.9436 16.6513C30.6052 16.7484 30.3089 16.7695 30.0546 16.7148C29.8018 16.6652 29.5809 16.5622 29.3917 16.4056C29.2418 16.7149 29.0376 16.951 28.7792 17.1138C28.5222 17.2818 28.2425 17.4092 27.94 17.4959ZM26.5471 15.6566C26.6433 15.8954 26.7998 16.0641 27.0168 16.1628C27.2374 16.2549 27.4835 16.262 27.7552 16.1841C28.0167 16.1091 28.2147 15.9774 28.3494 15.789C28.4825 15.5955 28.5702 15.3595 28.6124 15.0811C28.5838 15.0005 28.557 14.9166 28.532 14.8295C28.4805 14.6501 28.4327 14.464 28.3886 14.2714C28.3444 14.0788 28.3036 13.888 28.2661 13.699C28.0272 13.6787 27.7899 13.7024 27.554 13.77C27.2772 13.8494 27.0447 13.9771 26.8566 14.1531C26.6722 14.3225 26.5464 14.5222 26.4792 14.7523C26.412 14.9824 26.4152 15.2256 26.4887 15.482C26.4975 15.5127 26.5063 15.5435 26.5151 15.5743C26.5239 15.605 26.5346 15.6325 26.5471 15.6566ZM33.1117 16.013C32.8297 16.0938 32.5788 16.0992 32.359 16.0291C32.1457 15.9626 31.9552 15.8397 31.7872 15.6604C31.6244 15.4796 31.4784 15.2607 31.3492 15.0037C31.2252 14.7452 31.1114 14.4644 31.0078 14.1612C30.9079 13.8514 30.8131 13.5401 30.7234 13.2274C30.6455 12.9557 30.5679 12.6561 30.4907 12.3287C30.412 11.9962 30.3351 11.6604 30.26 11.3213C30.1886 10.9755 30.1231 10.6503 30.0635 10.3456C30.009 10.0395 29.963 9.77249 29.9254 9.54469L31.3217 9.16094C31.3557 9.43417 31.4025 9.74254 31.4621 10.0861C31.5203 10.4245 31.5851 10.7665 31.6565 11.1122C31.733 11.4565 31.8048 11.7744 31.8717 12.0659C31.9438 12.3559 32.0041 12.5855 32.0526 12.7547C32.1864 13.2212 32.2992 13.5856 32.391 13.8478C32.4879 14.1085 32.5705 14.2901 32.6388 14.3926C32.7106 14.4885 32.7799 14.5269 32.8465 14.5078C32.9337 14.4828 33.0131 14.4017 33.0848 14.2647C33.155 14.1225 33.2189 13.9682 33.2766 13.8019L34.303 14.9141C34.194 15.1339 34.0499 15.3473 33.8706 15.554C33.6928 15.7659 33.4398 15.9189 33.1117 16.013Z" fill="black"/>
<path d="M61.5941 24.2074C61.4788 23.8632 61.3609 23.4809 61.2403 23.0605C61.1242 22.6554 61.0084 22.2226 60.8929 21.7619C60.7775 21.3012 60.6682 20.8332 60.5652 20.3578C60.4607 19.8774 60.3702 19.4068 60.2936 18.946C60.2174 18.9901 60.1438 19.0334 60.0728 19.0759C60.0054 19.1119 59.9439 19.1489 59.8883 19.1871L59.1455 18.0768C60.3024 17.4288 61.2935 16.9865 62.1189 16.7498C63.7953 16.2691 64.8166 16.667 65.1826 17.9436C65.3546 18.5434 65.2914 19.0775 64.993 19.5459C64.693 20.0092 64.1692 20.398 63.4216 20.7123C64.0013 20.9732 64.5637 21.1643 65.1089 21.2854C65.6577 21.3999 66.2006 21.4744 66.7377 21.5091L66.2159 22.8821C65.9162 22.8626 65.5928 22.8083 65.2454 22.7193C64.8981 22.6302 64.5482 22.5225 64.1957 22.3961C63.8432 22.2697 63.5028 22.1371 63.1744 21.9982C62.8512 21.8578 62.5606 21.7248 62.3026 21.599C62.399 21.9542 62.4967 22.3146 62.596 22.6801C62.6989 23.0389 62.8055 23.4106 62.9157 23.7951L62.8828 23.8545C62.688 23.9104 62.4778 23.9706 62.2522 24.0353C62.0332 24.1036 61.8362 24.1712 61.6612 24.2381L61.5941 24.2074ZM62.4003 17.9924C62.2568 18.0336 62.1103 18.0839 61.9609 18.1434C61.81 18.1977 61.6606 18.2572 61.5127 18.3218C61.5745 18.6148 61.6382 18.9045 61.7037 19.1908C61.7677 19.4721 61.8342 19.7526 61.9034 20.0324C62.1275 19.9626 62.3673 19.8799 62.6229 19.7845C62.8821 19.6824 63.1201 19.5642 63.3368 19.4299C63.5521 19.2905 63.7149 19.1329 63.8254 18.957C63.941 18.7796 63.9671 18.5806 63.9039 18.3602C63.8304 18.1039 63.6717 17.9469 63.4277 17.8892C63.1837 17.8316 62.8412 17.866 62.4003 17.9924ZM69.6456 21.9819C69.2611 22.0921 68.8838 22.0921 68.5137 21.9819C68.1451 21.8767 67.8208 21.684 67.5406 21.4037C67.2642 21.1168 67.0664 20.7657 66.9473 20.3504C66.8356 19.9608 66.8067 19.589 66.8606 19.2351C66.913 18.8761 67.0299 18.5485 67.2113 18.2524C67.3978 17.9548 67.6331 17.7014 67.9171 17.4924C68.1997 17.2782 68.5153 17.1211 68.8639 17.0212C69.1561 16.9374 69.455 16.8961 69.7605 16.8972C69.7501 16.7837 69.7372 16.6709 69.7217 16.5588L71.1007 16.4047C71.0927 16.5124 71.0987 16.6689 71.1187 16.874C71.1387 17.0791 71.1704 17.3058 71.2138 17.5541C71.2624 17.8009 71.3136 18.047 71.3673 18.2924C71.421 18.5377 71.4758 18.7578 71.5317 18.9527C71.5772 19.1116 71.6323 19.265 71.6969 19.4129C71.7652 19.5543 71.8517 19.6626 71.9566 19.738C72.0599 19.8082 72.1911 19.8205 72.35 19.7749L72.4577 19.7441L72.6491 21.1373C72.3107 21.2343 72.0144 21.2555 71.7602 21.2008C71.5074 21.1512 71.2864 21.0481 71.0972 20.8915C70.9474 21.2008 70.7432 21.4369 70.4847 21.5998C70.2278 21.7678 69.948 21.8951 69.6456 21.9819ZM68.2526 20.1426C68.3488 20.3813 68.5054 20.55 68.7223 20.6487C68.9429 20.7408 69.1891 20.7479 69.4608 20.67C69.7223 20.595 69.9203 20.4633 70.0549 20.2749C70.1881 20.0814 70.2757 19.8454 70.318 19.567C70.2893 19.4864 70.2625 19.4026 70.2375 19.3154C70.1861 19.136 70.1383 18.95 70.0941 18.7573C70.05 18.5647 70.0091 18.3739 69.9716 18.1849C69.7328 18.1646 69.4954 18.1883 69.2596 18.2559C68.9828 18.3353 68.7503 18.463 68.5622 18.639C68.3777 18.8084 68.2519 19.0082 68.1847 19.2383C68.1175 19.4684 68.1207 19.7116 68.1942 19.9679C68.203 19.9987 68.2119 20.0294 68.2207 20.0602C68.2295 20.0909 68.2401 20.1184 68.2526 20.1426ZM75.6247 20.2674C75.3171 20.3556 75.0545 20.3588 74.8368 20.2769C74.6206 20.2002 74.4385 20.0583 74.2903 19.8511C74.1421 19.6439 74.0126 19.3953 73.9017 19.1053C73.7959 18.8138 73.696 18.504 73.6019 18.1759C73.5049 17.8376 73.417 17.4827 73.3382 17.1114C73.008 17.256 72.6942 17.4098 72.3969 17.5727L71.8123 16.4337C72.2055 16.1989 72.6357 15.9868 73.1029 15.7973C73.0638 15.5256 73.0236 15.2403 72.9823 14.9414C72.9395 14.6374 72.8975 14.3166 72.8561 13.9789L74.2119 13.715C74.2268 13.9992 74.2494 14.2812 74.2797 14.5611C74.3086 14.8357 74.3403 15.1013 74.375 15.3577C74.6621 15.2753 74.9335 15.2058 75.1891 15.1492C75.4484 15.0859 75.6901 15.0388 75.9142 15.0078L76.1066 16.2593C75.9213 16.2902 75.7305 16.3311 75.5342 16.3818C75.3416 16.4259 75.1479 16.4759 74.953 16.5318C74.8351 16.5656 74.718 16.602 74.6015 16.6409C74.6781 17.024 74.7494 17.3503 74.8156 17.6198C74.8869 17.8879 74.9388 18.0783 74.9711 18.1911C75.052 18.4731 75.1254 18.6712 75.1915 18.7854C75.2626 18.8981 75.3367 18.9435 75.4136 18.9214C75.5007 18.8965 75.59 18.8403 75.6815 18.7531C75.7715 18.6607 75.8531 18.5485 75.9263 18.4166C76.0045 18.2832 76.0626 18.1472 76.1006 18.0087L77.0477 19.077C76.6784 19.7045 76.204 20.1013 75.6247 20.2674ZM76.2094 14.066C76.1961 14.0199 76.1803 13.9745 76.162 13.9298C76.1473 13.8785 76.1311 13.8221 76.1135 13.7606C76.0664 13.5965 76.0216 13.4208 75.9789 13.2333C75.9362 13.0458 75.9016 12.8865 75.8751 12.7554L77.2506 12.3859C77.2852 12.5646 77.3239 12.7672 77.3666 12.9935C77.4144 13.2183 77.4696 13.4494 77.5321 13.6867L76.2094 14.066ZM77.7574 19.5809C77.6509 19.2675 77.5436 18.9321 77.4356 18.5747C77.3261 18.2121 77.2192 17.8489 77.1148 17.4849C76.9781 17.0081 76.8502 16.5426 76.7311 16.0886C76.6119 15.6345 76.5072 15.2206 76.4167 14.8471L77.7372 14.4601C77.7843 14.7019 77.8553 14.9978 77.9501 15.3478C78.0435 15.6928 78.1446 16.055 78.2533 16.4344C78.3607 16.8086 78.4691 17.177 78.5786 17.5395C78.6881 17.902 78.788 18.2313 78.8784 18.5271C78.9725 18.8164 79.0448 19.0398 79.0955 19.1972L77.7574 19.5809ZM82.1494 18.4214C81.7392 18.539 81.3612 18.5753 81.0154 18.5302C80.6747 18.4836 80.3713 18.3737 80.1052 18.2003C79.8377 18.0218 79.6118 17.7953 79.4277 17.5207C79.2435 17.2462 79.1037 16.9423 79.0081 16.6091C78.9111 16.2707 78.8804 15.9411 78.916 15.6202C78.9552 15.2927 79.0491 14.9911 79.1975 14.7155C79.3511 14.4385 79.5545 14.1998 79.8078 13.9996C80.0596 13.7942 80.3547 13.643 80.6931 13.546C81.0468 13.4445 81.3926 13.412 81.7303 13.4483C82.0681 13.4846 82.3814 13.5806 82.6702 13.7364C82.9589 13.8922 83.2075 14.1011 83.4158 14.3631C83.6292 14.6237 83.7859 14.9284 83.8859 15.277C84.1079 16.0511 84.0678 16.7145 83.7658 17.2672C83.4623 17.8147 82.9235 18.1995 82.1494 18.4214ZM81.7844 17.1778C82.1587 17.0705 82.4131 16.8838 82.5476 16.6178C82.6873 16.3503 82.7005 16.0191 82.5873 15.6244C82.4859 15.2706 82.2967 15.017 82.0196 14.8634C81.7425 14.7098 81.4297 14.683 81.0811 14.783C80.8709 14.8432 80.6948 14.9547 80.5528 15.1175C80.4094 15.2752 80.3103 15.4617 80.2556 15.6771C80.2045 15.886 80.2105 16.1006 80.2738 16.3211C80.3296 16.5159 80.4225 16.6945 80.5523 16.8571C80.6872 17.0181 80.8588 17.1326 81.0669 17.2005C81.2735 17.2633 81.5127 17.2558 81.7844 17.1778ZM85.2294 17.455C85.0846 17.0083 84.952 16.5941 84.8315 16.2126C84.7161 15.8295 84.6047 15.4509 84.4974 15.0767C84.3901 14.7024 84.2854 14.3274 84.1832 13.9517C84.0846 13.5694 83.9839 13.16 83.8809 12.7234L85.1805 12.3508C85.2262 12.5873 85.2751 12.8258 85.3274 13.066C85.4385 12.7956 85.5939 12.554 85.7937 12.3414C85.992 12.1236 86.2552 11.9677 86.5834 11.8736C86.9063 11.781 87.1858 11.7591 87.4217 11.808C87.6628 11.8554 87.8695 11.957 88.0418 12.1129C88.2192 12.2673 88.3689 12.4602 88.4907 12.6916C88.6162 12.9163 88.7271 13.1675 88.8233 13.4451C88.9181 13.7175 89.0059 13.9947 89.0867 14.2767C89.1749 14.5843 89.2543 14.8805 89.3249 15.1655C89.3955 15.4504 89.4529 15.6891 89.497 15.8818C89.5412 16.0744 89.5658 16.1894 89.571 16.2267L88.279 16.5972C88.229 16.3841 88.1753 16.1581 88.118 15.9193C88.0591 15.6754 88.0018 15.4367 87.9459 15.203C87.8885 14.9643 87.8326 14.75 87.7782 14.5603C87.4651 13.4684 87.1317 12.9731 86.7779 13.0745C86.4857 13.1583 86.2558 13.3629 86.0884 13.6883C85.9246 14.0072 85.8184 14.3816 85.7697 14.8117C85.7844 14.863 85.7991 14.9142 85.8138 14.9655C85.8844 15.2116 85.9579 15.4679 86.0343 15.7345C86.1144 15.9945 86.1916 16.2443 86.2658 16.4837C86.3437 16.7166 86.4101 16.9195 86.4653 17.0923L85.2294 17.455ZM92.3328 15.4764C91.9483 15.5867 91.571 15.5867 91.201 15.4764C90.8324 15.3712 90.508 15.1785 90.2279 14.8982C89.9515 14.6113 89.7537 14.2602 89.6346 13.8449C89.5229 13.4553 89.494 13.0835 89.5478 12.7297C89.6002 12.3706 89.7171 12.0431 89.8985 11.7469C90.0851 11.4493 90.3204 11.196 90.6044 10.9869C90.887 10.7727 91.2026 10.6156 91.5512 10.5157C91.8434 10.4319 92.1423 10.3906 92.4478 10.3918C92.4374 10.2782 92.4245 10.1654 92.409 10.0533L93.7879 9.89928C93.78 10.007 93.786 10.1634 93.806 10.3685C93.8259 10.5736 93.8577 10.8003 93.9011 11.0486C93.9497 11.2954 94.0009 11.5415 94.0546 11.7869C94.1083 12.0323 94.1631 12.2524 94.2189 12.4472C94.2645 12.6061 94.3196 12.7595 94.3842 12.9075C94.4525 13.0488 94.539 13.1571 94.6439 13.2325C94.7472 13.3027 94.8784 13.315 95.0373 13.2695L95.1449 13.2386L95.3364 14.6318C94.998 14.7288 94.7017 14.75 94.4474 14.6953C94.1947 14.6457 93.9737 14.5426 93.7845 14.386C93.6346 14.6953 93.4305 14.9314 93.172 15.0943C92.915 15.2623 92.6353 15.3897 92.3328 15.4764ZM90.9399 13.6371C91.0361 13.8758 91.1927 14.0445 91.4096 14.1432C91.6302 14.2353 91.8764 14.2424 92.1481 14.1645C92.4095 14.0895 92.6076 13.9579 92.7422 13.7694C92.8753 13.5759 92.963 13.3399 93.0053 13.0615C92.9766 12.981 92.9498 12.8971 92.9248 12.8099C92.8733 12.6305 92.8255 12.4445 92.7814 12.2519C92.7373 12.0592 92.6964 11.8684 92.6589 11.6794C92.42 11.6592 92.1827 11.6828 91.9469 11.7505C91.67 11.8298 91.4376 11.9575 91.2494 12.1335C91.065 12.3029 90.9392 12.5027 90.872 12.7328C90.8048 12.9629 90.808 13.2061 90.8815 13.4624C90.8903 13.4932 90.8991 13.524 90.9079 13.5547C90.9168 13.5855 90.9274 13.6129 90.9399 13.6371ZM97.5045 13.9934C97.2226 14.0743 96.9717 14.0797 96.7518 14.0095C96.5386 13.9431 96.348 13.8202 96.1801 13.6409C96.0172 13.4601 95.8713 13.2412 95.7421 12.9841C95.618 12.7257 95.5042 12.4448 95.4006 12.1416C95.3007 11.8318 95.2059 11.5206 95.1162 11.2078C95.0383 10.9361 94.9607 10.6366 94.8835 10.3092C94.8048 9.97666 94.7279 9.64084 94.6529 9.30172C94.5815 8.95601 94.516 8.6308 94.4563 8.3261C94.4018 8.01993 94.3558 7.75295 94.3182 7.52515L95.7145 7.1414C95.7485 7.41463 95.7953 7.723 95.855 8.06653C95.9132 8.40493 95.978 8.74699 96.0493 9.0927C96.1259 9.43695 96.1976 9.75482 96.2645 10.0463C96.3366 10.3364 96.3969 10.566 96.4454 10.7352C96.5792 11.2017 96.692 11.566 96.7838 11.8282C96.8808 12.0889 96.9634 12.2705 97.0316 12.373C97.1035 12.4689 97.1727 12.5073 97.2394 12.4882C97.3265 12.4632 97.4059 12.3822 97.4776 12.2451C97.5478 12.103 97.6118 11.9487 97.6695 11.7823L98.6958 12.8945C98.5868 13.1144 98.4427 13.3277 98.2634 13.5345C98.0856 13.7464 97.8327 13.8994 97.5045 13.9934Z" fill="black"/>
<path d="M64.8119 109.637C64.7424 109.365 64.6723 109.035 64.6019 108.645C64.5367 108.255 64.4735 107.83 64.4122 107.369C64.3562 106.909 64.3047 106.439 64.2577 105.962C64.1987 105.362 64.152 104.777 64.1174 104.207C64.0828 103.637 64.0656 103.135 64.0658 102.701L65.533 102.581C65.5117 102.963 65.5102 103.411 65.5284 103.924C65.552 104.436 65.5956 105.016 65.6592 105.663C65.7239 106.321 65.7995 106.981 65.886 107.643C65.9777 108.303 66.0667 108.908 66.1528 109.457L64.8119 109.637ZM66.9212 109.502C66.8991 109.06 66.8717 108.617 66.839 108.176C66.8063 107.734 66.7688 107.299 66.7266 106.869C66.6827 106.476 66.6366 106.09 66.5884 105.709C66.545 105.322 66.495 104.949 66.4383 104.59L67.7719 104.419C67.7965 104.614 67.8243 104.815 67.8553 105.021C68.0042 104.792 68.1839 104.603 68.3943 104.454C68.6095 104.299 68.8631 104.207 69.155 104.178C69.2665 104.167 69.4113 104.169 69.5896 104.184C69.7679 104.198 69.9517 104.242 70.1411 104.314L70.1221 105.675C69.9815 105.608 69.8328 105.566 69.6757 105.55C69.5234 105.527 69.3969 105.521 69.296 105.531C68.9563 105.564 68.6822 105.747 68.4736 106.078C68.2698 106.403 68.1521 106.841 68.1203 107.391C68.1569 107.762 68.1865 108.118 68.2093 108.459C68.2369 108.794 68.2533 109.098 68.2587 109.371L66.9212 109.502ZM70.9098 109.11C70.8877 108.667 70.8603 108.225 70.8276 107.784C70.7949 107.342 70.7574 106.906 70.7152 106.476C70.6712 106.084 70.6252 105.698 70.577 105.316C70.5336 104.929 70.4836 104.557 70.4268 104.198L71.7605 104.026C71.7851 104.222 71.8129 104.423 71.8438 104.629C71.9928 104.4 72.1725 104.211 72.3829 104.062C72.5981 103.907 72.8517 103.815 73.1436 103.786C73.255 103.775 73.3999 103.777 73.5782 103.791C73.7565 103.806 73.9403 103.85 74.1296 103.922L74.1106 105.283C73.9701 105.216 73.8213 105.174 73.6643 105.158C73.512 105.135 73.3855 105.129 73.2846 105.139C72.9449 105.172 72.6708 105.354 72.4622 105.686C72.2584 106.011 72.1406 106.449 72.1089 106.999C72.1455 107.37 72.1751 107.726 72.1979 108.067C72.2255 108.402 72.2419 108.706 72.2473 108.979L70.9098 109.11ZM76.9293 108.526C76.5313 108.565 76.1602 108.497 75.816 108.322C75.4724 108.152 75.1881 107.904 74.9631 107.578C74.7429 107.246 74.6117 106.865 74.5694 106.435C74.5298 106.032 74.5683 105.661 74.6851 105.323C74.8014 104.979 74.9754 104.678 75.2072 104.419C75.4444 104.16 75.7215 103.953 76.0385 103.799C76.3551 103.639 76.6938 103.541 77.0548 103.506C77.3573 103.476 77.6587 103.489 77.959 103.546C77.9693 103.432 77.9769 103.319 77.9819 103.206L79.366 103.303C79.3387 103.407 79.3165 103.562 79.2991 103.768C79.2818 103.973 79.2721 104.202 79.2701 104.454C79.2734 104.705 79.2794 104.957 79.288 105.208C79.2966 105.459 79.3108 105.685 79.3306 105.887C79.3468 106.051 79.3733 106.212 79.4102 106.369C79.4519 106.521 79.5175 106.643 79.607 106.736C79.696 106.823 79.8228 106.859 79.9873 106.843L80.0988 106.832L80.0359 108.237C79.6856 108.271 79.3904 108.239 79.1501 108.139C78.9104 108.045 78.7116 107.904 78.5538 107.716C78.3506 107.993 78.1072 108.188 77.8237 108.302C77.5406 108.421 77.2425 108.496 76.9293 108.526ZM75.8908 106.466C75.9424 106.718 76.066 106.912 76.2616 107.049C76.4619 107.179 76.7028 107.23 76.9841 107.203C77.2548 107.176 77.4733 107.082 77.6397 106.921C77.8056 106.755 77.9343 106.538 78.0261 106.272C78.0124 106.188 78.0011 106.1 77.9923 106.01C77.974 105.824 77.9605 105.633 77.9518 105.435C77.9432 105.238 77.9374 105.043 77.9345 104.85C77.7032 104.787 77.4655 104.768 77.2214 104.792C76.9348 104.82 76.6831 104.904 76.4663 105.043C76.2543 105.176 76.0946 105.35 75.987 105.564C75.8795 105.779 75.8387 106.018 75.8648 106.284C75.868 106.316 75.8711 106.347 75.8742 106.379C75.8773 106.411 75.8829 106.44 75.8908 106.466ZM83.1196 107.918C82.8012 107.949 82.5423 107.905 82.3429 107.785C82.1441 107.671 81.9905 107.498 81.8821 107.268C81.7737 107.037 81.6911 106.769 81.6343 106.464C81.5828 106.158 81.5403 105.836 81.5069 105.496C81.4725 105.146 81.45 104.781 81.4395 104.401C81.0886 104.484 80.7523 104.579 80.4305 104.685L80.0608 103.46C80.4898 103.3 80.9512 103.168 81.4449 103.066C81.4555 102.792 81.4674 102.504 81.4806 102.203C81.4933 101.896 81.5098 101.573 81.53 101.233L82.9111 101.218C82.8746 101.5 82.846 101.782 82.8254 102.062C82.8042 102.338 82.7876 102.605 82.7755 102.863C83.0727 102.834 83.3521 102.815 83.6138 102.805C83.8802 102.789 84.1264 102.787 84.3525 102.797L84.3162 104.062C84.1283 104.059 83.9333 104.065 83.731 104.08C83.5336 104.088 83.334 104.102 83.1324 104.122C83.0103 104.134 82.8885 104.149 82.7669 104.166C82.7731 104.557 82.7845 104.891 82.801 105.168C82.8229 105.444 82.8395 105.641 82.851 105.758C82.8797 106.05 82.9162 106.258 82.9606 106.382C83.0103 106.506 83.0749 106.564 83.1545 106.556C83.2448 106.547 83.3428 106.508 83.4485 106.439C83.5537 106.364 83.6541 106.268 83.7499 106.152C83.8509 106.035 83.9325 105.911 83.9949 105.782L84.7339 107.003C84.2575 107.554 83.7194 107.859 83.1196 107.918ZM84.8126 101.923C84.8079 101.876 84.8005 101.828 84.7905 101.781C84.7853 101.728 84.7796 101.669 84.7733 101.606C84.7566 101.436 84.7442 101.255 84.736 101.063C84.7279 100.871 84.7226 100.708 84.7201 100.574L86.1396 100.459C86.1415 100.641 86.143 100.847 86.1442 101.077C86.1507 101.307 86.1633 101.544 86.182 101.789L84.8126 101.923ZM85.3411 107.627C85.2929 107.3 85.2478 106.95 85.206 106.579C85.1636 106.203 85.1239 105.826 85.0869 105.449C85.0384 104.956 84.9964 104.475 84.9611 104.007C84.9258 103.539 84.8974 103.113 84.8757 102.729L86.2443 102.586C86.2471 102.833 86.2636 103.137 86.2938 103.498C86.3234 103.854 86.3575 104.229 86.3961 104.621C86.4342 105.009 86.4745 105.391 86.5168 105.767C86.5592 106.143 86.5981 106.485 86.6337 106.793C86.6741 107.094 86.705 107.327 86.7265 107.491L85.3411 107.627ZM89.8701 107.278C89.4455 107.32 89.0672 107.288 88.7352 107.181C88.4084 107.074 88.1298 106.911 87.8993 106.692C87.6683 106.468 87.487 106.205 87.3554 105.902C87.2238 105.598 87.141 105.274 87.1071 104.929C87.0726 104.579 87.1018 104.249 87.1947 103.94C87.2923 103.625 87.439 103.345 87.6347 103.101C87.8357 102.856 88.0788 102.658 88.3641 102.507C88.6488 102.35 88.9663 102.255 89.3166 102.22C89.6828 102.184 90.0288 102.214 90.3545 102.311C90.6802 102.408 90.971 102.559 91.227 102.764C91.4829 102.969 91.6898 103.219 91.8474 103.515C92.0104 103.81 92.1096 104.137 92.1451 104.498C92.2239 105.3 92.0649 105.945 91.6682 106.434C91.271 106.918 90.6716 107.199 89.8701 107.278ZM89.7354 105.989C90.1228 105.951 90.4067 105.813 90.587 105.576C90.7726 105.338 90.8453 105.015 90.8052 104.606C90.7692 104.24 90.6287 103.956 90.3839 103.755C90.1391 103.554 89.8362 103.471 89.4752 103.507C89.2576 103.528 89.0643 103.606 88.8953 103.741C88.7258 103.87 88.5947 104.035 88.5021 104.238C88.4142 104.434 88.3815 104.646 88.4039 104.874C88.4237 105.076 88.4828 105.268 88.5812 105.452C88.6849 105.634 88.833 105.778 89.0255 105.882C89.2174 105.981 89.4541 106.017 89.7354 105.989ZM93.0739 106.883C93.012 106.417 92.9562 105.986 92.9065 105.589C92.8621 105.192 92.8208 104.799 92.7827 104.412C92.7446 104.024 92.7092 103.636 92.6764 103.248C92.6484 102.855 92.6231 102.434 92.6005 101.986L93.946 101.853C93.9483 102.094 93.9534 102.338 93.9615 102.583C94.1195 102.337 94.316 102.128 94.5508 101.955C94.7852 101.776 95.0722 101.67 95.4119 101.637C95.7462 101.604 96.0251 101.633 96.2483 101.724C96.4769 101.814 96.6619 101.951 96.8033 102.135C96.95 102.319 97.0624 102.536 97.1405 102.785C97.2234 103.029 97.2872 103.296 97.3318 103.587C97.3759 103.872 97.4123 104.16 97.441 104.452C97.4723 104.77 97.497 105.076 97.5151 105.369C97.5332 105.662 97.5466 105.907 97.5552 106.105C97.5639 106.302 97.5675 106.42 97.5658 106.457L96.2282 106.589C96.2175 106.37 96.2054 106.138 96.192 105.893C96.1781 105.643 96.1647 105.397 96.1518 105.158C96.1385 104.912 96.1221 104.692 96.1028 104.495C95.9917 103.365 95.753 102.817 95.3867 102.853C95.0842 102.883 94.8212 103.043 94.5979 103.333C94.3793 103.617 94.2073 103.966 94.0819 104.38C94.0871 104.433 94.0923 104.486 94.0975 104.54C94.1226 104.794 94.1487 105.06 94.1758 105.336C94.2077 105.606 94.2386 105.865 94.2684 106.114C94.303 106.357 94.3319 106.569 94.3549 106.749L93.0739 106.883ZM100.418 106.217C100.02 106.256 99.6485 106.188 99.3044 106.013C98.9608 105.843 98.6765 105.595 98.4515 105.269C98.2313 104.937 98.1 104.556 98.0578 104.126C98.0181 103.723 98.0567 103.352 98.1735 103.013C98.2897 102.67 98.4638 102.369 98.6956 102.11C98.9327 101.851 99.2098 101.644 99.5269 101.49C99.8434 101.33 100.182 101.232 100.543 101.197C100.846 101.167 101.147 101.18 101.447 101.237C101.458 101.123 101.465 101.01 101.47 100.897L102.854 100.994C102.827 101.098 102.805 101.253 102.787 101.459C102.77 101.664 102.76 101.893 102.758 102.145C102.762 102.396 102.768 102.648 102.776 102.899C102.785 103.15 102.799 103.376 102.819 103.578C102.835 103.742 102.862 103.903 102.899 104.06C102.94 104.211 103.006 104.334 103.095 104.427C103.184 104.514 103.311 104.55 103.476 104.534L103.587 104.523L103.524 105.928C103.174 105.962 102.879 105.93 102.638 105.83C102.399 105.736 102.2 105.595 102.042 105.406C101.839 105.684 101.596 105.879 101.312 105.993C101.029 106.112 100.731 106.186 100.418 106.217ZM99.3791 104.157C99.4307 104.409 99.5543 104.603 99.7499 104.739C99.9503 104.87 100.191 104.921 100.472 104.894C100.743 104.867 100.962 104.773 101.128 104.612C101.294 104.446 101.423 104.229 101.514 103.963C101.501 103.879 101.489 103.791 101.481 103.701C101.462 103.515 101.449 103.324 101.44 103.126C101.431 102.929 101.426 102.734 101.423 102.541C101.192 102.478 100.954 102.459 100.71 102.483C100.423 102.511 100.171 102.595 99.9546 102.734C99.7427 102.867 99.5829 103.041 99.4754 103.255C99.3678 103.469 99.3271 103.709 99.3532 103.975C99.3563 104.006 99.3594 104.038 99.3626 104.07C99.3657 104.102 99.3712 104.131 99.3791 104.157ZM105.772 105.691C105.48 105.72 105.232 105.68 105.029 105.571C104.831 105.467 104.666 105.312 104.533 105.105C104.405 104.898 104.301 104.656 104.22 104.38C104.145 104.104 104.084 103.807 104.036 103.49C103.994 103.167 103.957 102.844 103.925 102.52C103.897 102.239 103.875 101.93 103.858 101.594C103.841 101.253 103.825 100.909 103.813 100.562C103.805 100.209 103.799 99.8773 103.795 99.5669C103.797 99.2559 103.8 98.985 103.804 98.7542L105.247 98.6284C105.231 98.9033 105.221 99.215 105.218 99.5637C105.214 99.907 105.216 100.255 105.224 100.608C105.237 100.96 105.251 101.286 105.264 101.585C105.282 101.883 105.3 102.12 105.318 102.295C105.365 102.778 105.41 103.157 105.453 103.431C105.502 103.705 105.55 103.899 105.599 104.012C105.652 104.119 105.714 104.169 105.783 104.163C105.873 104.154 105.965 104.088 106.061 103.966C106.155 103.839 106.246 103.699 106.333 103.546L107.142 104.825C106.995 105.021 106.815 105.205 106.601 105.376C106.388 105.553 106.112 105.657 105.772 105.691Z" fill="black"/>
<path d="M12.56 109.552C12.5173 109.275 12.48 108.939 12.448 108.544C12.4213 108.149 12.4 107.72 12.384 107.256C12.3733 106.792 12.368 106.32 12.368 105.84C12.368 105.237 12.3787 104.651 12.4 104.08C12.4213 103.509 12.4533 103.008 12.496 102.576L13.968 102.6C13.9093 102.979 13.864 103.424 13.832 103.936C13.8053 104.448 13.792 105.029 13.792 105.68C13.792 106.341 13.8027 107.005 13.824 107.672C13.8507 108.339 13.88 108.949 13.912 109.504L12.56 109.552ZM14.7683 109.576C14.7523 109.107 14.739 108.672 14.7283 108.272C14.723 107.872 14.7203 107.477 14.7203 107.088C14.7203 106.699 14.723 106.309 14.7283 105.92C14.739 105.525 14.755 105.104 14.7763 104.656H16.1283C16.107 104.896 16.0883 105.139 16.0723 105.384C16.2536 105.155 16.4696 104.965 16.7203 104.816C16.971 104.661 17.267 104.584 17.6083 104.584C17.9443 104.584 18.219 104.64 18.4323 104.752C18.651 104.864 18.8216 105.019 18.9443 105.216C19.0723 105.413 19.163 105.64 19.2163 105.896C19.275 106.147 19.3123 106.419 19.3283 106.712C19.3443 107 19.3523 107.291 19.3523 107.584C19.3523 107.904 19.347 108.211 19.3363 108.504C19.3256 108.797 19.315 109.043 19.3043 109.24C19.2936 109.437 19.2856 109.555 19.2803 109.592H17.9363C17.947 109.373 17.9576 109.141 17.9683 108.896C17.979 108.645 17.9896 108.4 18.0003 108.16C18.011 107.915 18.0163 107.693 18.0163 107.496C18.0163 106.36 17.8323 105.792 17.4643 105.792C17.1603 105.792 16.883 105.925 16.6323 106.192C16.387 106.453 16.1816 106.784 16.0163 107.184C16.0163 107.237 16.0163 107.291 16.0163 107.344C16.0163 107.6 16.0163 107.867 16.0163 108.144C16.0216 108.416 16.027 108.677 16.0323 108.928C16.043 109.173 16.051 109.387 16.0563 109.568L14.7683 109.576ZM22.534 109.632C22.214 109.632 21.9607 109.563 21.774 109.424C21.5873 109.291 21.4513 109.104 21.366 108.864C21.2807 108.624 21.2247 108.349 21.198 108.04C21.1767 107.731 21.166 107.405 21.166 107.064C21.166 106.712 21.1793 106.347 21.206 105.968C20.8487 106.016 20.5047 106.077 20.174 106.152L19.926 104.896C20.3687 104.779 20.8407 104.693 21.342 104.64C21.3793 104.368 21.4193 104.083 21.462 103.784C21.5047 103.48 21.5527 103.16 21.606 102.824L22.982 102.944C22.918 103.221 22.862 103.499 22.814 103.776C22.766 104.048 22.7233 104.312 22.686 104.568C22.9847 104.568 23.2647 104.576 23.526 104.592C23.7927 104.603 24.038 104.624 24.262 104.656L24.102 105.912C23.9153 105.891 23.7207 105.877 23.518 105.872C23.3207 105.861 23.1207 105.856 22.918 105.856C22.7953 105.856 22.6727 105.859 22.55 105.864C22.518 106.253 22.4967 106.587 22.486 106.864C22.4807 107.141 22.478 107.339 22.478 107.456C22.478 107.749 22.494 107.96 22.526 108.088C22.5633 108.216 22.622 108.28 22.702 108.28C22.7927 108.28 22.894 108.251 23.006 108.192C23.118 108.128 23.2273 108.043 23.334 107.936C23.446 107.829 23.5393 107.715 23.614 107.592L24.23 108.88C23.702 109.381 23.1367 109.632 22.534 109.632ZM27.2453 109.64C26.7333 109.64 26.2826 109.539 25.8933 109.336C25.5093 109.139 25.208 108.861 24.9893 108.504C24.776 108.147 24.6693 107.733 24.6693 107.264C24.6693 106.981 24.7173 106.685 24.8133 106.376C24.9093 106.061 25.064 105.768 25.2773 105.496C25.4906 105.224 25.7706 105.003 26.1173 104.832C26.4693 104.661 26.896 104.576 27.3973 104.576C27.76 104.576 28.064 104.616 28.3093 104.696C28.56 104.776 28.7626 104.88 28.9173 105.008C29.0773 105.136 29.1973 105.272 29.2773 105.416C29.3626 105.56 29.4186 105.699 29.4453 105.832C29.4773 105.96 29.4933 106.067 29.4933 106.152C29.4933 106.669 29.2746 107.069 28.8373 107.352C28.4053 107.629 27.792 107.768 26.9973 107.768C26.816 107.768 26.6426 107.76 26.4773 107.744C26.3173 107.728 26.168 107.709 26.0293 107.688C26.1306 107.955 26.2986 108.152 26.5333 108.28C26.768 108.403 27.0106 108.464 27.2613 108.464C27.624 108.464 27.944 108.4 28.2213 108.272C28.4986 108.139 28.76 107.936 29.0053 107.664L29.7173 108.688C29.5466 108.827 29.3546 108.971 29.1413 109.12C28.9333 109.269 28.6773 109.392 28.3733 109.488C28.0693 109.589 27.6933 109.64 27.2453 109.64ZM27.4213 105.776C27.1066 105.776 26.8293 105.856 26.5893 106.016C26.3493 106.176 26.1733 106.387 26.0613 106.648C26.1946 106.669 26.3253 106.688 26.4533 106.704C26.5866 106.715 26.7173 106.72 26.8453 106.72C26.9626 106.72 27.096 106.709 27.2453 106.688C27.4 106.667 27.5493 106.635 27.6933 106.592C27.8426 106.549 27.9653 106.496 28.0613 106.432C28.1573 106.363 28.2053 106.283 28.2053 106.192C28.2053 106.149 28.184 106.096 28.1413 106.032C28.0986 105.968 28.0213 105.909 27.9093 105.856C27.7973 105.803 27.6346 105.776 27.4213 105.776ZM32.1931 109.04C31.8571 109.04 31.5718 108.989 31.3371 108.888C31.1025 108.787 30.9078 108.656 30.7531 108.496C30.6038 108.331 30.4865 108.155 30.4011 107.968C30.3158 107.776 30.2571 107.592 30.2251 107.416C30.1931 107.235 30.1771 107.077 30.1771 106.944C30.1771 106.688 30.2118 106.424 30.2811 106.152C30.3558 105.88 30.4785 105.627 30.6491 105.392C30.8251 105.157 31.0625 104.968 31.3611 104.824C31.6651 104.68 32.0465 104.608 32.5051 104.608C32.6438 104.608 32.7718 104.619 32.8891 104.64C33.0065 104.661 33.1158 104.691 33.2171 104.728V104.464H34.6011C34.5958 104.784 34.5905 105.147 34.5851 105.552C34.5798 105.952 34.5771 106.405 34.5771 106.912C34.5771 107.173 34.5771 107.448 34.5771 107.736C34.5825 108.019 34.5851 108.328 34.5851 108.664C34.5851 109.123 34.5238 109.499 34.4011 109.792C34.2785 110.085 34.1211 110.312 33.9291 110.472C33.7371 110.632 33.5371 110.747 33.3291 110.816C33.1265 110.891 32.9371 110.933 32.7611 110.944C32.5905 110.96 32.4625 110.968 32.3771 110.968C32.1691 110.968 31.9398 110.944 31.6891 110.896C31.4385 110.853 31.1878 110.781 30.9371 110.68C30.6865 110.584 30.4571 110.459 30.2491 110.304L30.8331 109.088C30.9665 109.2 31.0998 109.301 31.2331 109.392C31.3665 109.488 31.5211 109.563 31.6971 109.616C31.8731 109.675 32.0918 109.704 32.3531 109.704C32.6198 109.704 32.8171 109.656 32.9451 109.56C33.0731 109.469 33.1558 109.347 33.1931 109.192C33.2358 109.043 33.2598 108.877 33.2651 108.696C33.0838 108.829 32.8998 108.92 32.7131 108.968C32.5265 109.016 32.3531 109.04 32.1931 109.04ZM31.3771 106.832C31.3771 107.136 31.4598 107.376 31.6251 107.552C31.7958 107.728 32.0278 107.816 32.3211 107.816C32.7318 107.816 33.0385 107.579 33.2411 107.104C33.2411 106.933 33.2385 106.76 33.2331 106.584C33.2331 106.403 33.2305 106.227 33.2251 106.056C33.0118 105.917 32.7665 105.848 32.4891 105.848C32.1478 105.848 31.8758 105.939 31.6731 106.12C31.4758 106.296 31.3771 106.533 31.3771 106.832ZM37.7063 109.64C37.1943 109.64 36.7436 109.539 36.3543 109.336C35.9703 109.139 35.6689 108.861 35.4503 108.504C35.2369 108.147 35.1303 107.733 35.1303 107.264C35.1303 106.981 35.1783 106.685 35.2743 106.376C35.3703 106.061 35.5249 105.768 35.7383 105.496C35.9516 105.224 36.2316 105.003 36.5783 104.832C36.9303 104.661 37.3569 104.576 37.8583 104.576C38.2209 104.576 38.5249 104.616 38.7703 104.696C39.0209 104.776 39.2236 104.88 39.3783 105.008C39.5383 105.136 39.6583 105.272 39.7383 105.416C39.8236 105.56 39.8796 105.699 39.9062 105.832C39.9383 105.96 39.9543 106.067 39.9543 106.152C39.9543 106.669 39.7356 107.069 39.2983 107.352C38.8663 107.629 38.2529 107.768 37.4583 107.768C37.2769 107.768 37.1036 107.76 36.9383 107.744C36.7783 107.728 36.6289 107.709 36.4903 107.688C36.5916 107.955 36.7596 108.152 36.9943 108.28C37.2289 108.403 37.4716 108.464 37.7223 108.464C38.0849 108.464 38.4049 108.4 38.6823 108.272C38.9596 108.139 39.2209 107.936 39.4663 107.664L40.1783 108.688C40.0076 108.827 39.8156 108.971 39.6023 109.12C39.3943 109.269 39.1383 109.392 38.8343 109.488C38.5303 109.589 38.1543 109.64 37.7063 109.64ZM37.8823 105.776C37.5676 105.776 37.2903 105.856 37.0503 106.016C36.8103 106.176 36.6343 106.387 36.5223 106.648C36.6556 106.669 36.7863 106.688 36.9143 106.704C37.0476 106.715 37.1783 106.72 37.3063 106.72C37.4236 106.72 37.5569 106.709 37.7063 106.688C37.8609 106.667 38.0103 106.635 38.1543 106.592C38.3036 106.549 38.4263 106.496 38.5223 106.432C38.6183 106.363 38.6663 106.283 38.6663 106.192C38.6663 106.149 38.6449 106.096 38.6023 106.032C38.5596 105.968 38.4823 105.909 38.3703 105.856C38.2583 105.803 38.0956 105.776 37.8823 105.776ZM40.7661 109.624C40.7874 109.181 40.8034 108.739 40.8141 108.296C40.8247 107.853 40.8301 107.416 40.8301 106.984C40.8247 106.589 40.8167 106.2 40.8061 105.816C40.8007 105.427 40.7874 105.051 40.7661 104.688L42.1101 104.648C42.1154 104.845 42.1234 105.048 42.1341 105.256C42.3047 105.043 42.5021 104.872 42.7261 104.744C42.9554 104.611 43.2167 104.544 43.5101 104.544C43.6221 104.544 43.7661 104.56 43.9421 104.592C44.1181 104.624 44.2967 104.685 44.4781 104.776L44.3261 106.128C44.1927 106.048 44.0487 105.992 43.8941 105.96C43.7447 105.923 43.6194 105.904 43.5181 105.904C43.1767 105.904 42.8861 106.059 42.6461 106.368C42.4114 106.672 42.2514 107.096 42.1661 107.64C42.1661 108.013 42.1607 108.371 42.1501 108.712C42.1447 109.048 42.1314 109.352 42.1101 109.624H40.7661Z" fill="#FF7F56"/>
<path d="M130.771 19.5645C130.753 19.2845 130.745 18.9465 130.748 18.5505C130.755 18.155 130.772 17.7255 130.796 17.2619C130.826 16.7987 130.862 16.328 130.903 15.8499C130.956 15.2495 131.018 14.666 131.089 14.0993C131.16 13.5327 131.235 13.0361 131.315 12.6094L132.78 12.7616C132.688 13.1337 132.604 13.5734 132.528 14.0807C132.457 14.5884 132.393 15.1664 132.336 15.8146C132.278 16.4734 132.231 17.1358 132.194 17.8018C132.163 18.4682 132.139 19.0791 132.122 19.6345L130.771 19.5645ZM132.901 19.8231C132.903 19.7429 132.909 19.6096 132.92 19.4232C132.931 19.2421 132.944 19.0238 132.961 18.7683C132.978 18.5128 133 18.239 133.025 17.9467C133.051 17.6492 133.077 17.3517 133.103 17.0542C133.132 16.7247 133.159 16.4113 133.185 16.1137C133.217 15.8167 133.242 15.5592 133.261 15.3414C133.285 15.124 133.302 14.9675 133.31 14.8719L134.659 14.9658C134.635 15.1136 134.612 15.2936 134.588 15.5057C134.742 15.3318 134.914 15.1996 135.104 15.1092C135.294 15.0187 135.506 14.9837 135.74 15.0042C136.021 15.0288 136.245 15.1314 136.412 15.3119C136.583 15.4928 136.716 15.7213 136.809 15.9971C137.244 15.4356 137.74 15.1792 138.298 15.228C138.612 15.2554 138.863 15.347 139.053 15.5028C139.249 15.6538 139.395 15.8486 139.492 16.0873C139.589 16.326 139.651 16.5911 139.679 16.8826C139.713 17.1746 139.724 17.4728 139.713 17.777C139.703 18.0813 139.685 18.3742 139.661 18.6558C139.631 18.9905 139.599 19.2955 139.564 19.5709C139.53 19.8462 139.504 20.109 139.487 20.3592L138.109 20.2385C138.12 20.111 138.134 19.949 138.151 19.7524C138.168 19.5611 138.185 19.3672 138.202 19.1706C138.225 18.9692 138.243 18.7967 138.255 18.6533C138.268 18.5045 138.276 18.4169 138.278 18.3903C138.306 18.0715 138.325 17.7706 138.333 17.4876C138.342 17.2047 138.322 16.9727 138.274 16.7918C138.225 16.6109 138.129 16.5142 137.986 16.5016C137.848 16.4895 137.72 16.5452 137.602 16.6688C137.484 16.7923 137.373 16.9566 137.27 17.1617C137.171 17.3672 137.083 17.587 137.003 17.821C136.996 18.0291 136.986 18.237 136.973 18.4447C136.96 18.6471 136.946 18.8439 136.929 19.0351C136.91 19.253 136.891 19.4414 136.872 19.6003C136.857 19.765 136.842 19.9403 136.826 20.1263L135.487 20.0091C135.524 19.5788 135.555 19.1987 135.578 18.8688C135.602 18.5389 135.619 18.2192 135.63 17.9097C135.652 17.3548 135.629 16.9459 135.561 16.6829C135.499 16.4152 135.391 16.2745 135.236 16.2611C135.066 16.2462 134.914 16.3372 134.779 16.5342C134.644 16.7259 134.527 16.9646 134.427 17.2503C134.395 17.6758 134.367 18.1204 134.343 18.584C134.318 19.0476 134.3 19.4958 134.289 19.9285L132.901 19.8231ZM142.201 20.6447C141.803 20.6099 141.45 20.4747 141.144 20.2391C140.838 20.0089 140.604 19.7127 140.443 19.3506C140.288 18.9837 140.229 18.585 140.267 18.1547C140.302 17.7509 140.408 17.3935 140.585 17.0824C140.763 16.766 140.989 16.502 141.265 16.2906C141.546 16.0796 141.856 15.9274 142.196 15.834C142.537 15.7353 142.888 15.7018 143.249 15.7334C143.552 15.7599 143.846 15.8284 144.13 15.939C144.161 15.8293 144.19 15.7193 144.216 15.6092L145.558 15.9595C145.512 16.0572 145.462 16.2054 145.407 16.404C145.352 16.6026 145.3 16.8257 145.252 17.0731C145.209 17.3209 145.168 17.569 145.131 17.8173C145.093 18.0656 145.065 18.2907 145.047 18.4926C145.033 18.6573 145.029 18.8203 145.037 18.9816C145.05 19.138 145.092 19.2701 145.163 19.378C145.234 19.4807 145.352 19.5392 145.517 19.5536L145.628 19.5633L145.308 20.9326C144.957 20.9019 144.673 20.8155 144.455 20.6733C144.237 20.5364 144.068 20.361 143.947 20.147C143.696 20.3821 143.421 20.5293 143.121 20.5887C142.821 20.6535 142.514 20.6722 142.201 20.6447ZM141.56 18.4284C141.564 18.6858 141.65 18.8994 141.817 19.0693C141.99 19.2343 142.217 19.3291 142.499 19.3538C142.77 19.3775 143.002 19.3255 143.195 19.1979C143.389 19.0649 143.555 18.876 143.694 18.6312C143.696 18.5457 143.701 18.4578 143.709 18.3675C143.725 18.1816 143.748 17.9908 143.775 17.7951C143.803 17.5995 143.833 17.4067 143.866 17.2168C143.65 17.1123 143.42 17.0493 143.176 17.0279C142.889 17.0028 142.626 17.0387 142.388 17.1356C142.155 17.2277 141.966 17.3691 141.82 17.5598C141.675 17.7506 141.591 17.9788 141.568 18.2444C141.565 18.2763 141.562 18.3082 141.559 18.3401C141.557 18.3719 141.557 18.4014 141.56 18.4284ZM147.907 20.5497C147.572 20.5204 147.293 20.4451 147.068 20.3237C146.843 20.2023 146.66 20.0551 146.52 19.8823C146.386 19.7045 146.284 19.519 146.215 19.3256C146.147 19.1269 146.105 18.9385 146.088 18.7604C146.072 18.5769 146.07 18.4188 146.081 18.286C146.104 18.0309 146.161 17.771 146.254 17.506C146.352 17.2416 146.496 16.9999 146.687 16.781C146.883 16.5626 147.136 16.3947 147.446 16.2772C147.761 16.1603 148.147 16.1218 148.604 16.1618C148.742 16.1738 148.869 16.1956 148.984 16.2271C149.099 16.2586 149.205 16.2973 149.303 16.3434L149.326 16.0804L150.705 16.201C150.672 16.5193 150.635 16.8801 150.594 17.2834C150.554 17.6815 150.512 18.1328 150.468 18.6376C150.445 18.8979 150.421 19.1715 150.396 19.4584C150.376 19.7405 150.352 20.0489 150.323 20.3836C150.283 20.8405 150.189 21.2098 150.041 21.4913C149.893 21.7728 149.717 21.9849 149.512 22.1276C149.306 22.2702 149.097 22.367 148.884 22.418C148.676 22.4747 148.483 22.5007 148.307 22.496C148.136 22.497 148.007 22.4938 147.922 22.4864C147.715 22.4683 147.489 22.4244 147.243 22.3547C146.997 22.2904 146.754 22.1968 146.513 22.074C146.272 21.9565 146.054 21.8117 145.86 21.6395L146.548 20.479C146.671 20.6022 146.795 20.7147 146.92 20.8167C147.045 20.9239 147.192 21.0118 147.363 21.0803C147.533 21.1541 147.748 21.2023 148.009 21.2251C148.274 21.2484 148.475 21.2177 148.611 21.1333C148.746 21.0541 148.839 20.9391 148.89 20.7883C148.946 20.6432 148.984 20.4806 149.005 20.3004C148.813 20.4175 148.622 20.4917 148.431 20.5233C148.241 20.5548 148.067 20.5636 147.907 20.5497ZM147.287 18.279C147.26 18.5818 147.322 18.8281 147.471 19.0179C147.626 19.2081 147.849 19.3159 148.141 19.3415C148.55 19.3773 148.877 19.1676 149.12 18.7124C149.135 18.5424 149.147 18.3695 149.157 18.1937C149.173 18.013 149.186 17.8375 149.195 17.667C148.995 17.5103 148.756 17.4198 148.48 17.3956C148.14 17.3659 147.861 17.4325 147.644 17.5955C147.432 17.7536 147.313 17.9815 147.287 18.279ZM151.422 15.6294C151.427 15.5815 151.428 15.5335 151.427 15.4852C151.432 15.4321 151.437 15.3736 151.442 15.3099C151.457 15.1399 151.478 14.9597 151.506 14.7693C151.533 14.579 151.558 14.4179 151.58 14.286L152.997 14.434C152.965 14.6133 152.928 14.8162 152.887 15.0428C152.851 15.2698 152.82 15.5053 152.793 15.7493L151.422 15.6294ZM150.891 21.3328C150.904 21.002 150.924 20.6504 150.952 20.278C150.979 19.9003 151.01 19.5229 151.043 19.1456C151.086 18.6515 151.133 18.1712 151.185 17.7045C151.236 17.2379 151.287 16.814 151.336 16.4329L152.708 16.5448C152.665 16.7874 152.625 17.0891 152.588 17.4499C152.552 17.8054 152.516 18.1797 152.482 18.5729C152.448 18.9608 152.417 19.3435 152.39 19.7212C152.362 20.0989 152.337 20.4421 152.316 20.7507C152.3 21.0545 152.287 21.2889 152.278 21.4541L150.891 21.3328ZM153.111 21.543C153.136 21.0741 153.16 20.6399 153.185 20.2405C153.214 19.8415 153.246 19.4482 153.28 19.0603C153.314 18.6724 153.35 18.2848 153.39 17.8974C153.435 17.5052 153.487 17.0869 153.548 16.6424L154.894 16.7603C154.852 16.9975 154.813 17.2376 154.775 17.4806C154.976 17.268 155.208 17.0982 155.47 16.9713C155.733 16.839 156.035 16.7878 156.375 16.8175C156.71 16.8468 156.979 16.9265 157.181 17.0567C157.389 17.1873 157.546 17.3563 157.651 17.5636C157.761 17.7713 157.832 18.005 157.863 18.2647C157.899 18.5195 157.913 18.7937 157.903 19.0873C157.894 19.3756 157.877 19.6659 157.851 19.9581C157.823 20.2769 157.791 20.5819 157.755 20.8732C157.719 21.1645 157.687 21.408 157.659 21.6036C157.631 21.7993 157.613 21.9155 157.604 21.9522L156.265 21.8351C156.295 21.6182 156.326 21.388 156.358 21.1445C156.39 20.8957 156.422 20.6522 156.454 20.4141C156.486 20.1706 156.511 19.9506 156.528 19.754C156.627 18.6223 156.493 18.0405 156.126 18.0084C155.824 17.9819 155.536 18.0905 155.263 18.3344C154.996 18.5733 154.762 18.8848 154.563 19.2689C154.558 19.322 154.553 19.3751 154.549 19.4283C154.526 19.6833 154.503 19.949 154.479 20.2252C154.461 20.4967 154.443 20.7575 154.427 21.0076C154.416 21.253 154.405 21.4662 154.395 21.6473L153.111 21.543ZM160.452 22.2415C160.053 22.2066 159.701 22.0714 159.395 21.8358C159.089 21.6056 158.855 21.3094 158.694 20.9473C158.538 20.5804 158.48 20.1818 158.517 19.7514C158.553 19.3476 158.659 18.9902 158.836 18.6791C159.014 18.3627 159.24 18.0988 159.516 17.8873C159.796 17.6763 160.107 17.5241 160.447 17.4307C160.787 17.332 161.138 17.2985 161.5 17.3301C161.802 17.3566 162.096 17.4251 162.381 17.5357C162.412 17.426 162.44 17.3161 162.466 17.2059L163.809 17.5562C163.763 17.6539 163.712 17.8021 163.657 18.0007C163.603 18.1994 163.551 18.4224 163.503 18.6698C163.459 18.9176 163.419 19.1657 163.381 19.414C163.343 19.6623 163.316 19.8875 163.298 20.0894C163.284 20.2541 163.28 20.417 163.287 20.5783C163.3 20.7347 163.342 20.8668 163.413 20.9748C163.485 21.0774 163.603 21.1359 163.767 21.1503L163.879 21.1601L163.558 22.5293C163.208 22.4986 162.923 22.4122 162.706 22.27C162.487 22.1332 162.318 21.9577 162.198 21.7437C161.947 21.9788 161.672 22.126 161.372 22.1855C161.072 22.2502 160.765 22.2689 160.452 22.2415ZM159.81 20.0251C159.815 20.2825 159.9 20.4961 160.067 20.666C160.24 20.831 160.468 20.9259 160.749 20.9505C161.02 20.9742 161.252 20.9222 161.445 20.7946C161.639 20.6616 161.806 20.4727 161.945 20.2279C161.947 20.1425 161.952 20.0546 161.96 19.9642C161.976 19.7783 161.998 19.5875 162.026 19.3918C162.054 19.1962 162.084 19.0034 162.117 18.8135C161.901 18.709 161.671 18.6461 161.427 18.6247C161.14 18.5996 160.877 18.6355 160.638 18.7324C160.405 18.8244 160.216 18.9658 160.071 19.1566C159.926 19.3473 159.842 19.5755 159.818 19.8411C159.816 19.873 159.813 19.9049 159.81 19.9368C159.807 19.9687 159.807 19.9981 159.81 20.0251ZM164.226 22.5636C164.286 22.1245 164.34 21.6849 164.39 21.2449C164.439 20.8048 164.482 20.3696 164.52 19.9393C164.549 19.5456 164.575 19.1571 164.598 18.7736C164.626 18.3853 164.646 18.0096 164.656 17.6464L165.999 17.7237C165.987 17.9208 165.977 18.1234 165.97 18.3315C166.158 18.1339 166.37 17.981 166.604 17.873C166.844 17.7602 167.11 17.7166 167.402 17.7421C167.514 17.7519 167.656 17.7804 167.828 17.8276C168.001 17.8748 168.174 17.9515 168.346 18.0576L168.077 19.3912C167.951 19.2999 167.813 19.2316 167.661 19.1862C167.516 19.136 167.393 19.1065 167.292 19.0977C166.952 19.0679 166.649 19.1967 166.383 19.4839C166.122 19.7663 165.926 20.1747 165.794 20.7092C165.761 21.0811 165.725 21.4366 165.684 21.7757C165.65 22.11 165.61 22.4117 165.565 22.6808L164.226 22.5636ZM169.391 24.5654L168.251 23.8233C168.578 23.5199 168.897 23.2052 169.209 22.8792C169.521 22.5585 169.821 22.226 170.108 21.8817C169.887 21.5251 169.669 21.1446 169.453 20.7402C169.237 20.3305 169.039 19.9304 168.859 19.5399C168.679 19.1494 168.535 18.8023 168.428 18.4984L169.752 18.0521C169.825 18.3155 169.923 18.6025 170.046 18.913C170.174 19.224 170.315 19.5415 170.469 19.8655C170.628 20.1899 170.793 20.5015 170.965 20.8003C171.62 19.9207 172.173 19.0456 172.624 18.1749L173.901 18.8166C173.622 19.2526 173.308 19.7204 172.959 20.2199C172.616 20.7145 172.248 21.2177 171.856 21.7294C171.469 22.2363 171.067 22.7311 170.65 23.214C170.232 23.7021 169.813 24.1526 169.391 24.5654Z" fill="#FF7F56"/>
<path d="M58.344 77.408H60.296V78H57.616V72.424H58.344V77.408ZM60.7971 75.792C60.7971 75.344 60.8878 74.952 61.0691 74.616C61.2505 74.2747 61.4985 74.0107 61.8131 73.824C62.1331 73.6373 62.4878 73.544 62.8771 73.544C63.2611 73.544 63.5945 73.6267 63.8771 73.792C64.1598 73.9573 64.3705 74.1653 64.5091 74.416V73.616H65.2451V78H64.5091V77.184C64.3651 77.44 64.1491 77.6533 63.8611 77.824C63.5785 77.9893 63.2478 78.072 62.8691 78.072C62.4798 78.072 62.1278 77.976 61.8131 77.784C61.4985 77.592 61.2505 77.3227 61.0691 76.976C60.8878 76.6293 60.7971 76.2347 60.7971 75.792ZM64.5091 75.8C64.5091 75.4693 64.4425 75.1813 64.3091 74.936C64.1758 74.6907 63.9945 74.504 63.7651 74.376C63.5411 74.2427 63.2931 74.176 63.0211 74.176C62.7491 74.176 62.5011 74.24 62.2771 74.368C62.0531 74.496 61.8745 74.6827 61.7411 74.928C61.6078 75.1733 61.5411 75.4613 61.5411 75.792C61.5411 76.128 61.6078 76.4213 61.7411 76.672C61.8745 76.9173 62.0531 77.1067 62.2771 77.24C62.5011 77.368 62.7491 77.432 63.0211 77.432C63.2931 77.432 63.5411 77.368 63.7651 77.24C63.9945 77.1067 64.1758 76.9173 64.3091 76.672C64.4425 76.4213 64.5091 76.1307 64.5091 75.8ZM68.9234 78L67.2034 76.064V78H66.4754V72.08H67.2034V75.56L68.8914 73.616H69.9074L67.8434 75.8L69.9154 78H68.9234ZM72.7686 73.536C73.0992 73.536 73.3979 73.608 73.6646 73.752C73.9312 73.8907 74.1392 74.1013 74.2886 74.384C74.4432 74.6667 74.5206 75.0107 74.5206 75.416V78H73.8006V75.52C73.8006 75.0827 73.6912 74.7493 73.4726 74.52C73.2539 74.2853 72.9552 74.168 72.5766 74.168C72.1926 74.168 71.8859 74.288 71.6566 74.528C71.4326 74.768 71.3206 75.1173 71.3206 75.576V78H70.5926V72.08H71.3206V74.24C71.4646 74.016 71.6619 73.8427 71.9126 73.72C72.1686 73.5973 72.4539 73.536 72.7686 73.536ZM77.2618 78.072C76.9258 78.072 76.6244 78.016 76.3578 77.904C76.0911 77.7867 75.8804 77.6267 75.7258 77.424C75.5711 77.216 75.4858 76.9787 75.4698 76.712H76.2218C76.2431 76.9307 76.3444 77.1093 76.5258 77.248C76.7124 77.3867 76.9551 77.456 77.2538 77.456C77.5311 77.456 77.7498 77.3947 77.9098 77.272C78.0698 77.1493 78.1498 76.9947 78.1498 76.808C78.1498 76.616 78.0644 76.4747 77.8938 76.384C77.7231 76.288 77.4591 76.1947 77.1018 76.104C76.7764 76.0187 76.5098 75.9333 76.3018 75.848C76.0991 75.7573 75.9231 75.6267 75.7738 75.456C75.6298 75.28 75.5578 75.0507 75.5578 74.768C75.5578 74.544 75.6244 74.3387 75.7578 74.152C75.8911 73.9653 76.0804 73.8187 76.3258 73.712C76.5711 73.6 76.8511 73.544 77.1658 73.544C77.6511 73.544 78.0431 73.6667 78.3418 73.912C78.6404 74.1573 78.8004 74.4933 78.8218 74.92H78.0938C78.0778 74.6907 77.9844 74.5067 77.8138 74.368C77.6484 74.2293 77.4244 74.16 77.1418 74.16C76.8804 74.16 76.6724 74.216 76.5178 74.328C76.3631 74.44 76.2858 74.5867 76.2858 74.768C76.2858 74.912 76.3311 75.032 76.4218 75.128C76.5178 75.2187 76.6351 75.2933 76.7738 75.352C76.9178 75.4053 77.1151 75.4667 77.3658 75.536C77.6804 75.6213 77.9364 75.7067 78.1338 75.792C78.3311 75.872 78.4991 75.9947 78.6378 76.16C78.7818 76.3253 78.8564 76.5413 78.8618 76.808C78.8618 77.048 78.7951 77.264 78.6618 77.456C78.5284 77.648 78.3391 77.8 78.0938 77.912C77.8538 78.0187 77.5764 78.072 77.2618 78.072Z" fill="black"/>
<path d="M89.048 72.424V73.016H87.528V78H86.8V73.016H85.272V72.424H89.048ZM92.1201 73.536C92.4508 73.536 92.7495 73.608 93.0161 73.752C93.2828 73.8907 93.4908 74.1013 93.6401 74.384C93.7948 74.6667 93.8721 75.0107 93.8721 75.416V78H93.1521V75.52C93.1521 75.0827 93.0428 74.7493 92.8241 74.52C92.6055 74.2853 92.3068 74.168 91.9281 74.168C91.5441 74.168 91.2375 74.288 91.0081 74.528C90.7841 74.768 90.6721 75.1173 90.6721 75.576V78H89.9441V72.08H90.6721V74.24C90.8161 74.016 91.0135 73.8427 91.2641 73.72C91.5201 73.5973 91.8055 73.536 92.1201 73.536ZM96.9733 78.072C96.5626 78.072 96.1893 77.9787 95.8533 77.792C95.5226 77.6053 95.2613 77.3413 95.0693 77C94.8826 76.6533 94.7893 76.2533 94.7893 75.8C94.7893 75.352 94.8853 74.9573 95.0773 74.616C95.2746 74.2693 95.5413 74.0053 95.8773 73.824C96.2133 73.6373 96.5893 73.544 97.0053 73.544C97.4213 73.544 97.7973 73.6373 98.1333 73.824C98.4693 74.0053 98.7333 74.2667 98.9253 74.608C99.1226 74.9493 99.2213 75.3467 99.2213 75.8C99.2213 76.2533 99.12 76.6533 98.9173 77C98.72 77.3413 98.4506 77.6053 98.1093 77.792C97.768 77.9787 97.3893 78.072 96.9733 78.072ZM96.9733 77.432C97.2346 77.432 97.48 77.3707 97.7093 77.248C97.9386 77.1253 98.1226 76.9413 98.2613 76.696C98.4053 76.4507 98.4773 76.152 98.4773 75.8C98.4773 75.448 98.408 75.1493 98.2693 74.904C98.1306 74.6587 97.9493 74.4773 97.7253 74.36C97.5013 74.2373 97.2586 74.176 96.9973 74.176C96.7306 74.176 96.4853 74.2373 96.2613 74.36C96.0426 74.4773 95.8666 74.6587 95.7333 74.904C95.6 75.1493 95.5333 75.448 95.5333 75.8C95.5333 76.1573 95.5973 76.4587 95.7253 76.704C95.8586 76.9493 96.0346 77.1333 96.2533 77.256C96.472 77.3733 96.712 77.432 96.9733 77.432ZM104.067 73.616V78H103.339V77.352C103.2 77.576 103.005 77.752 102.755 77.88C102.509 78.0027 102.237 78.064 101.939 78.064C101.597 78.064 101.291 77.9947 101.019 77.856C100.747 77.712 100.531 77.4987 100.371 77.216C100.216 76.9333 100.139 76.5893 100.139 76.184V73.616H100.859V76.088C100.859 76.52 100.968 76.8533 101.187 77.088C101.405 77.3173 101.704 77.432 102.083 77.432C102.472 77.432 102.779 77.312 103.003 77.072C103.227 76.832 103.339 76.4827 103.339 76.024V73.616H104.067ZM106.848 78.072C106.512 78.072 106.21 78.016 105.944 77.904C105.677 77.7867 105.466 77.6267 105.312 77.424C105.157 77.216 105.072 76.9787 105.056 76.712H105.808C105.829 76.9307 105.93 77.1093 106.112 77.248C106.298 77.3867 106.541 77.456 106.84 77.456C107.117 77.456 107.336 77.3947 107.496 77.272C107.656 77.1493 107.736 76.9947 107.736 76.808C107.736 76.616 107.65 76.4747 107.48 76.384C107.309 76.288 107.045 76.1947 106.688 76.104C106.362 76.0187 106.096 75.9333 105.888 75.848C105.685 75.7573 105.509 75.6267 105.36 75.456C105.216 75.28 105.144 75.0507 105.144 74.768C105.144 74.544 105.21 74.3387 105.344 74.152C105.477 73.9653 105.666 73.8187 105.912 73.712C106.157 73.6 106.437 73.544 106.752 73.544C107.237 73.544 107.629 73.6667 107.928 73.912C108.226 74.1573 108.386 74.4933 108.408 74.92H107.68C107.664 74.6907 107.57 74.5067 107.4 74.368C107.234 74.2293 107.01 74.16 106.728 74.16C106.466 74.16 106.258 74.216 106.104 74.328C105.949 74.44 105.872 74.5867 105.872 74.768C105.872 74.912 105.917 75.032 106.008 75.128C106.104 75.2187 106.221 75.2933 106.36 75.352C106.504 75.4053 106.701 75.4667 106.952 75.536C107.266 75.6213 107.522 75.7067 107.72 75.792C107.917 75.872 108.085 75.9947 108.224 76.16C108.368 76.3253 108.442 76.5413 108.448 76.808C108.448 77.048 108.381 77.264 108.248 77.456C108.114 77.648 107.925 77.8 107.68 77.912C107.44 78.0187 107.162 78.072 106.848 78.072ZM109.203 75.792C109.203 75.344 109.294 74.952 109.475 74.616C109.657 74.2747 109.905 74.0107 110.219 73.824C110.539 73.6373 110.894 73.544 111.283 73.544C111.667 73.544 112.001 73.6267 112.283 73.792C112.566 73.9573 112.777 74.1653 112.915 74.416V73.616H113.651V78H112.915V77.184C112.771 77.44 112.555 77.6533 112.267 77.824C111.985 77.9893 111.654 78.072 111.275 78.072C110.886 78.072 110.534 77.976 110.219 77.784C109.905 77.592 109.657 77.3227 109.475 76.976C109.294 76.6293 109.203 76.2347 109.203 75.792ZM112.915 75.8C112.915 75.4693 112.849 75.1813 112.715 74.936C112.582 74.6907 112.401 74.504 112.171 74.376C111.947 74.2427 111.699 74.176 111.427 74.176C111.155 74.176 110.907 74.24 110.683 74.368C110.459 74.496 110.281 74.6827 110.147 74.928C110.014 75.1733 109.947 75.4613 109.947 75.792C109.947 76.128 110.014 76.4213 110.147 76.672C110.281 76.9173 110.459 77.1067 110.683 77.24C110.907 77.368 111.155 77.432 111.427 77.432C111.699 77.432 111.947 77.368 112.171 77.24C112.401 77.1067 112.582 76.9173 112.715 76.672C112.849 76.4213 112.915 76.1307 112.915 75.8ZM117.018 73.536C117.551 73.536 117.983 73.6987 118.314 74.024C118.644 74.344 118.81 74.808 118.81 75.416V78H118.09V75.52C118.09 75.0827 117.98 74.7493 117.762 74.52C117.543 74.2853 117.244 74.168 116.866 74.168C116.482 74.168 116.175 74.288 115.946 74.528C115.722 74.768 115.61 75.1173 115.61 75.576V78H114.882V73.616H115.61V74.24C115.754 74.016 115.948 73.8427 116.194 73.72C116.444 73.5973 116.719 73.536 117.018 73.536ZM119.727 75.792C119.727 75.344 119.817 74.952 119.999 74.616C120.18 74.2747 120.428 74.0107 120.743 73.824C121.063 73.6373 121.42 73.544 121.815 73.544C122.156 73.544 122.473 73.624 122.767 73.784C123.06 73.9387 123.284 74.144 123.439 74.4V72.08H124.175V78H123.439V77.176C123.295 77.4373 123.081 77.6533 122.799 77.824C122.516 77.9893 122.185 78.072 121.807 78.072C121.417 78.072 121.063 77.976 120.743 77.784C120.428 77.592 120.18 77.3227 119.999 76.976C119.817 76.6293 119.727 76.2347 119.727 75.792ZM123.439 75.8C123.439 75.4693 123.372 75.1813 123.239 74.936C123.105 74.6907 122.924 74.504 122.695 74.376C122.471 74.2427 122.223 74.176 121.951 74.176C121.679 74.176 121.431 74.24 121.207 74.368C120.983 74.496 120.804 74.6827 120.671 74.928C120.537 75.1733 120.471 75.4613 120.471 75.792C120.471 76.128 120.537 76.4213 120.671 76.672C120.804 76.9173 120.983 77.1067 121.207 77.24C121.431 77.368 121.679 77.432 121.951 77.432C122.223 77.432 122.471 77.368 122.695 77.24C122.924 77.1067 123.105 76.9173 123.239 76.672C123.372 76.4213 123.439 76.1307 123.439 75.8ZM126.957 78.072C126.621 78.072 126.32 78.016 126.053 77.904C125.786 77.7867 125.576 77.6267 125.421 77.424C125.266 77.216 125.181 76.9787 125.165 76.712H125.917C125.938 76.9307 126.04 77.1093 126.221 77.248C126.408 77.3867 126.65 77.456 126.949 77.456C127.226 77.456 127.445 77.3947 127.605 77.272C127.765 77.1493 127.845 76.9947 127.845 76.808C127.845 76.616 127.76 76.4747 127.589 76.384C127.418 76.288 127.154 76.1947 126.797 76.104C126.472 76.0187 126.205 75.9333 125.997 75.848C125.794 75.7573 125.618 75.6267 125.469 75.456C125.325 75.28 125.253 75.0507 125.253 74.768C125.253 74.544 125.32 74.3387 125.453 74.152C125.586 73.9653 125.776 73.8187 126.021 73.712C126.266 73.6 126.546 73.544 126.861 73.544C127.346 73.544 127.738 73.6667 128.037 73.912C128.336 74.1573 128.496 74.4933 128.517 74.92H127.789C127.773 74.6907 127.68 74.5067 127.509 74.368C127.344 74.2293 127.12 74.16 126.837 74.16C126.576 74.16 126.368 74.216 126.213 74.328C126.058 74.44 125.981 74.5867 125.981 74.768C125.981 74.912 126.026 75.032 126.117 75.128C126.213 75.2187 126.33 75.2933 126.469 75.352C126.613 75.4053 126.81 75.4667 127.061 75.536C127.376 75.6213 127.632 75.7067 127.829 75.792C128.026 75.872 128.194 75.9947 128.333 76.16C128.477 76.3253 128.552 76.5413 128.557 76.808C128.557 77.048 128.49 77.264 128.357 77.456C128.224 77.648 128.034 77.8 127.789 77.912C127.549 78.0187 127.272 78.072 126.957 78.072Z" fill="black"/>
<path d="M37.411 68.795C37.145 67.367 36.41 66.653 35.206 66.653C34.674 66.653 33.764 66.723 32.476 66.863C31.104 67.003 30.11 67.073 29.494 67.073C28.486 67.073 27.716 66.793 27.184 66.233C26.652 65.659 26.386 64.896 26.386 63.944V62.726H28.045V63.587C28.045 64.133 28.171 64.539 28.423 64.805C28.661 65.071 29.06 65.204 29.62 65.204C30.026 65.204 30.53 65.176 31.132 65.12C31.72 65.064 32.119 65.029 32.329 65.015C33.673 64.875 34.653 64.805 35.269 64.805C36.011 64.805 36.634 64.994 37.138 65.372C37.628 65.736 37.957 66.303 38.125 67.073H38.167C38.335 66.303 38.671 65.736 39.175 65.372C39.679 64.994 40.302 64.805 41.044 64.805C41.66 64.805 42.64 64.875 43.984 65.015C44.194 65.029 44.6 65.064 45.202 65.12C45.79 65.176 46.287 65.204 46.693 65.204C47.253 65.204 47.652 65.071 47.89 64.805C48.142 64.539 48.268 64.133 48.268 63.587V62.726H49.927V63.944C49.927 64.896 49.661 65.659 49.129 66.233C48.597 66.793 47.827 67.073 46.819 67.073C46.203 67.073 45.209 67.003 43.837 66.863C42.549 66.723 41.639 66.653 41.107 66.653C39.903 66.653 39.168 67.367 38.902 68.795H37.411Z" fill="#FF7F56"/>
<path d="M68.411 68.795C68.145 67.367 67.41 66.653 66.206 66.653C65.674 66.653 64.764 66.723 63.476 66.863C62.104 67.003 61.11 67.073 60.494 67.073C59.486 67.073 58.716 66.793 58.184 66.233C57.652 65.659 57.386 64.896 57.386 63.944V62.726H59.045V63.587C59.045 64.133 59.171 64.539 59.423 64.805C59.661 65.071 60.06 65.204 60.62 65.204C61.026 65.204 61.53 65.176 62.132 65.12C62.72 65.064 63.119 65.029 63.329 65.015C64.673 64.875 65.653 64.805 66.269 64.805C67.011 64.805 67.634 64.994 68.138 65.372C68.628 65.736 68.957 66.303 69.125 67.073H69.167C69.335 66.303 69.671 65.736 70.175 65.372C70.679 64.994 71.302 64.805 72.044 64.805C72.66 64.805 73.64 64.875 74.984 65.015C75.194 65.029 75.6 65.064 76.202 65.12C76.79 65.176 77.287 65.204 77.693 65.204C78.253 65.204 78.652 65.071 78.89 64.805C79.142 64.539 79.268 64.133 79.268 63.587V62.726H80.927V63.944C80.927 64.896 80.661 65.659 80.129 66.233C79.597 66.793 78.827 67.073 77.819 67.073C77.203 67.073 76.209 67.003 74.837 66.863C73.549 66.723 72.639 66.653 72.107 66.653C70.903 66.653 70.168 67.367 69.902 68.795H68.411Z" fill="#FF7F56"/>
<path d="M105.411 68.795C105.145 67.367 104.41 66.653 103.206 66.653C102.674 66.653 101.764 66.723 100.476 66.863C99.104 67.003 98.11 67.073 97.494 67.073C96.486 67.073 95.716 66.793 95.184 66.233C94.652 65.659 94.386 64.896 94.386 63.944V62.726H96.045V63.587C96.045 64.133 96.171 64.539 96.423 64.805C96.661 65.071 97.06 65.204 97.62 65.204C98.026 65.204 98.53 65.176 99.132 65.12C99.72 65.064 100.119 65.029 100.329 65.015C101.673 64.875 102.653 64.805 103.269 64.805C104.011 64.805 104.634 64.994 105.138 65.372C105.628 65.736 105.957 66.303 106.125 67.073H106.167C106.335 66.303 106.671 65.736 107.175 65.372C107.679 64.994 108.302 64.805 109.044 64.805C109.66 64.805 110.64 64.875 111.984 65.015C112.194 65.029 112.6 65.064 113.202 65.12C113.79 65.176 114.287 65.204 114.693 65.204C115.253 65.204 115.652 65.071 115.89 64.805C116.142 64.539 116.268 64.133 116.268 63.587V62.726H117.927V63.944C117.927 64.896 117.661 65.659 117.129 66.233C116.597 66.793 115.827 67.073 114.819 67.073C114.203 67.073 113.209 67.003 111.837 66.863C110.549 66.723 109.639 66.653 109.107 66.653C107.903 66.653 107.168 67.367 106.902 68.795H105.411Z" fill="#FF7F56"/>
<path d="M115.327 56.478C115.414 56.972 115.613 57.3533 115.925 57.622C116.246 57.8907 116.675 58.025 117.212 58.025C117.931 58.025 118.46 57.7433 118.798 57.18C119.145 56.6167 119.309 55.6677 119.292 54.333C119.11 54.723 118.807 55.0307 118.382 55.256C117.957 55.4727 117.485 55.581 116.965 55.581C116.384 55.581 115.864 55.464 115.405 55.23C114.954 54.9873 114.599 54.6363 114.339 54.177C114.079 53.7177 113.949 53.163 113.949 52.513C113.949 51.5857 114.218 50.8403 114.755 50.277C115.292 49.705 116.055 49.419 117.043 49.419C118.256 49.419 119.106 49.8133 119.591 50.602C120.085 51.3907 120.332 52.565 120.332 54.125C120.332 55.217 120.232 56.1183 120.033 56.829C119.842 57.5397 119.513 58.0813 119.045 58.454C118.586 58.8267 117.953 59.013 117.147 59.013C116.263 59.013 115.574 58.7747 115.08 58.298C114.586 57.8213 114.304 57.2147 114.235 56.478H115.327ZM117.16 54.58C117.741 54.58 118.217 54.4023 118.59 54.047C118.963 53.683 119.149 53.1933 119.149 52.578C119.149 51.928 118.967 51.4037 118.603 51.005C118.239 50.6063 117.728 50.407 117.069 50.407C116.462 50.407 115.977 50.5977 115.613 50.979C115.258 51.3603 115.08 51.863 115.08 52.487C115.08 53.1197 115.258 53.6267 115.613 54.008C115.968 54.3893 116.484 54.58 117.16 54.58ZM135.665 50.524L132.051 59H130.855L134.521 50.641H129.503V49.627H135.665V50.524ZM150.102 51.837C149.911 50.875 149.317 50.394 148.321 50.394C147.549 50.394 146.973 50.693 146.592 51.291C146.21 51.8803 146.024 52.8553 146.033 54.216C146.232 53.7653 146.561 53.4143 147.021 53.163C147.489 52.903 148.009 52.773 148.581 52.773C149.473 52.773 150.184 53.0503 150.713 53.605C151.25 54.1597 151.519 54.9267 151.519 55.906C151.519 56.4953 151.402 57.024 151.168 57.492C150.942 57.96 150.596 58.3327 150.128 58.61C149.668 58.8873 149.109 59.026 148.451 59.026C147.558 59.026 146.86 58.8267 146.358 58.428C145.855 58.0293 145.504 57.479 145.305 56.777C145.105 56.075 145.006 55.2083 145.006 54.177C145.006 50.9963 146.115 49.406 148.334 49.406C149.183 49.406 149.85 49.6357 150.336 50.095C150.821 50.5543 151.107 51.135 151.194 51.837H150.102ZM148.334 53.774C147.961 53.774 147.61 53.852 147.281 54.008C146.951 54.1553 146.683 54.385 146.475 54.697C146.275 55.0003 146.176 55.373 146.176 55.815C146.176 56.4737 146.366 57.011 146.748 57.427C147.129 57.8343 147.675 58.038 148.386 58.038C148.992 58.038 149.473 57.8517 149.829 57.479C150.193 57.0977 150.375 56.5863 150.375 55.945C150.375 55.269 150.201 54.7403 149.855 54.359C149.508 53.969 149.001 53.774 148.334 53.774ZM160.715 56.907V56.01L165.278 49.692H166.695V55.88H167.995V56.907H166.695V59H165.525V56.907H160.715ZM165.577 50.927L162.08 55.88H165.577V50.927Z" fill="black"/>
<path d="M156.027 80.545V81.392H151.638V80.545H156.027ZM160.898 82.866C160.971 83.284 161.14 83.6067 161.404 83.834C161.675 84.0613 162.038 84.175 162.493 84.175C163.101 84.175 163.549 83.9367 163.835 83.46C164.128 82.9833 164.267 82.1803 164.253 81.051C164.099 81.381 163.842 81.6413 163.483 81.832C163.123 82.0153 162.724 82.107 162.284 82.107C161.792 82.107 161.352 82.008 160.964 81.81C160.582 81.6047 160.282 81.3077 160.062 80.919C159.842 80.5303 159.732 80.061 159.732 79.511C159.732 78.7263 159.959 78.0957 160.414 77.619C160.868 77.135 161.514 76.893 162.35 76.893C163.376 76.893 164.095 77.2267 164.506 77.894C164.924 78.5613 165.133 79.555 165.133 80.875C165.133 81.799 165.048 82.5617 164.88 83.163C164.718 83.7643 164.44 84.2227 164.044 84.538C163.655 84.8533 163.12 85.011 162.438 85.011C161.69 85.011 161.107 84.8093 160.689 84.406C160.271 84.0027 160.032 83.4893 159.974 82.866H160.898ZM162.449 81.26C162.94 81.26 163.343 81.1097 163.659 80.809C163.974 80.501 164.132 80.0867 164.132 79.566C164.132 79.016 163.978 78.5723 163.67 78.235C163.362 77.8977 162.929 77.729 162.372 77.729C161.858 77.729 161.448 77.8903 161.14 78.213C160.839 78.5357 160.689 78.961 160.689 79.489C160.689 80.0243 160.839 80.4533 161.14 80.776C161.44 81.0987 161.877 81.26 162.449 81.26Z" fill="black"/>
<path d="M17.347 86.755C17.347 86.9457 17.336 87.1473 17.314 87.36H12.496C12.5327 87.954 12.7343 88.4197 13.101 88.757C13.475 89.087 13.926 89.252 14.454 89.252C14.8867 89.252 15.246 89.153 15.532 88.955C15.8253 88.7497 16.0307 88.4783 16.148 88.141H17.226C17.0647 88.7203 16.742 89.1933 16.258 89.56C15.774 89.9193 15.1727 90.099 14.454 90.099C13.882 90.099 13.3687 89.9707 12.914 89.714C12.4667 89.4573 12.1147 89.0943 11.858 88.625C11.6013 88.1483 11.473 87.5983 11.473 86.975C11.473 86.3517 11.5977 85.8053 11.847 85.336C12.0963 84.8667 12.4447 84.5073 12.892 84.258C13.3467 84.0013 13.8673 83.873 14.454 83.873C15.026 83.873 15.532 83.9977 15.972 84.247C16.412 84.4963 16.7493 84.841 16.984 85.281C17.226 85.7137 17.347 86.205 17.347 86.755ZM16.313 86.546C16.313 86.1647 16.2287 85.8383 16.06 85.567C15.8913 85.2883 15.6603 85.0793 15.367 84.94C15.081 84.7933 14.762 84.72 14.41 84.72C13.904 84.72 13.4713 84.8813 13.112 85.204C12.76 85.5267 12.5583 85.974 12.507 86.546H16.313Z" fill="black"/>
<path d="M168.561 107.197C169.492 106.449 170.222 105.837 170.75 105.36C171.278 104.876 171.722 104.374 172.081 103.853C172.448 103.325 172.631 102.808 172.631 102.302C172.631 101.825 172.514 101.451 172.279 101.18C172.052 100.901 171.681 100.762 171.168 100.762C170.669 100.762 170.281 100.92 170.002 101.235C169.731 101.543 169.584 101.957 169.562 102.478H168.594C168.623 101.657 168.873 101.022 169.342 100.575C169.811 100.128 170.416 99.904 171.157 99.904C171.912 99.904 172.51 100.113 172.95 100.531C173.397 100.949 173.621 101.525 173.621 102.258C173.621 102.867 173.438 103.461 173.071 104.04C172.712 104.612 172.301 105.118 171.839 105.558C171.377 105.991 170.787 106.497 170.068 107.076H173.852V107.912H168.561V107.197Z" fill="black"/>
<path d="M130.344 86.424C130.488 86.1733 130.701 85.9653 130.984 85.8C131.272 85.6293 131.605 85.544 131.984 85.544C132.373 85.544 132.725 85.6373 133.04 85.824C133.36 86.0107 133.611 86.2747 133.792 86.616C133.973 86.952 134.064 87.344 134.064 87.792C134.064 88.2347 133.973 88.6293 133.792 88.976C133.611 89.3227 133.36 89.592 133.04 89.784C132.725 89.976 132.373 90.072 131.984 90.072C131.611 90.072 131.28 89.9893 130.992 89.824C130.709 89.6533 130.493 89.4427 130.344 89.192V92.08H129.616V85.616H130.344V86.424ZM133.32 87.792C133.32 87.4613 133.253 87.1733 133.12 86.928C132.987 86.6827 132.805 86.496 132.576 86.368C132.352 86.24 132.104 86.176 131.832 86.176C131.565 86.176 131.317 86.2427 131.088 86.376C130.864 86.504 130.683 86.6933 130.544 86.944C130.411 87.1893 130.344 87.4747 130.344 87.8C130.344 88.1307 130.411 88.4213 130.544 88.672C130.683 88.9173 130.864 89.1067 131.088 89.24C131.317 89.368 131.565 89.432 131.832 89.432C132.104 89.432 132.352 89.368 132.576 89.24C132.805 89.1067 132.987 88.9173 133.12 88.672C133.253 88.4213 133.32 88.128 133.32 87.792ZM129.344 99.792C129.344 99.344 129.435 98.952 129.616 98.616C129.797 98.2747 130.045 98.0107 130.36 97.824C130.68 97.6373 131.037 97.544 131.432 97.544C131.811 97.544 132.141 97.6293 132.424 97.8C132.712 97.9653 132.923 98.1707 133.056 98.416V97.616H133.792V104.08H133.056V101.192C132.917 101.437 132.704 101.645 132.416 101.816C132.128 101.987 131.792 102.072 131.408 102.072C131.024 102.072 130.675 101.976 130.36 101.784C130.045 101.592 129.797 101.323 129.616 100.976C129.435 100.629 129.344 100.235 129.344 99.792ZM133.056 99.8C133.056 99.4693 132.989 99.1813 132.856 98.936C132.723 98.6907 132.541 98.504 132.312 98.376C132.088 98.2427 131.84 98.176 131.568 98.176C131.296 98.176 131.048 98.24 130.824 98.368C130.6 98.496 130.421 98.6827 130.288 98.928C130.155 99.1733 130.088 99.4613 130.088 99.792C130.088 100.128 130.155 100.421 130.288 100.672C130.421 100.917 130.6 101.107 130.824 101.24C131.048 101.368 131.296 101.432 131.568 101.432C131.84 101.432 132.088 101.368 132.312 101.24C132.541 101.107 132.723 100.917 132.856 100.672C132.989 100.421 133.056 100.131 133.056 99.8Z" fill="black"/>
<path d="M79.799 50.628H75.236V53.592C75.4353 53.3147 75.73 53.0893 76.12 52.916C76.51 52.734 76.9303 52.643 77.381 52.643C78.1003 52.643 78.6853 52.7947 79.136 53.098C79.5867 53.3927 79.9073 53.7783 80.098 54.255C80.2973 54.723 80.397 55.2213 80.397 55.75C80.397 56.374 80.28 56.933 80.046 57.427C79.812 57.921 79.4523 58.311 78.967 58.597C78.4903 58.883 77.8967 59.026 77.186 59.026C76.276 59.026 75.5393 58.792 74.976 58.324C74.4127 57.856 74.0703 57.232 73.949 56.452H75.106C75.2187 56.946 75.457 57.3317 75.821 57.609C76.185 57.8863 76.6443 58.025 77.199 58.025C77.8837 58.025 78.3993 57.8213 78.746 57.414C79.0927 56.998 79.266 56.452 79.266 55.776C79.266 55.1 79.0927 54.58 78.746 54.216C78.3993 53.8433 77.888 53.657 77.212 53.657C76.7527 53.657 76.3497 53.7697 76.003 53.995C75.665 54.2117 75.418 54.5107 75.262 54.892H74.144V49.588H79.799V50.628ZM91.5709 54.112C91.0856 53.9213 90.7129 53.644 90.4529 53.28C90.1929 52.916 90.0629 52.474 90.0629 51.954C90.0629 51.486 90.1799 51.0657 90.4139 50.693C90.6479 50.3117 90.9946 50.0127 91.4539 49.796C91.9219 49.5707 92.4852 49.458 93.1439 49.458C93.8026 49.458 94.3616 49.5707 94.8209 49.796C95.2889 50.0127 95.6399 50.3117 95.8739 50.693C96.1166 51.0657 96.2379 51.486 96.2379 51.954C96.2379 52.4567 96.1036 52.8987 95.8349 53.28C95.5662 53.6527 95.1979 53.93 94.7299 54.112C95.2672 54.2767 95.6919 54.567 96.0039 54.983C96.3246 55.3903 96.4849 55.8843 96.4849 56.465C96.4849 57.0283 96.3462 57.5223 96.0689 57.947C95.7916 58.363 95.3972 58.688 94.8859 58.922C94.3832 59.1473 93.8026 59.26 93.1439 59.26C92.4852 59.26 91.9046 59.1473 91.4019 58.922C90.9079 58.688 90.5222 58.363 90.2449 57.947C89.9676 57.5223 89.8289 57.0283 89.8289 56.465C89.8289 55.8843 89.9849 55.386 90.2969 54.97C90.6089 54.554 91.0336 54.268 91.5709 54.112ZM95.0939 52.097C95.0939 51.5683 94.9206 51.161 94.5739 50.875C94.2272 50.589 93.7506 50.446 93.1439 50.446C92.5459 50.446 92.0736 50.589 91.7269 50.875C91.3802 51.161 91.2069 51.5727 91.2069 52.11C91.2069 52.5953 91.3846 52.9853 91.7399 53.28C92.1039 53.5747 92.5719 53.722 93.1439 53.722C93.7246 53.722 94.1926 53.5747 94.5479 53.28C94.9119 52.9767 95.0939 52.5823 95.0939 52.097ZM93.1439 54.632C92.5026 54.632 91.9782 54.7837 91.5709 55.087C91.1636 55.3817 90.9599 55.828 90.9599 56.426C90.9599 56.9807 91.1549 57.427 91.5449 57.765C91.9436 58.103 92.4766 58.272 93.1439 58.272C93.8112 58.272 94.3399 58.103 94.7299 57.765C95.1199 57.427 95.3149 56.9807 95.3149 56.426C95.3149 55.8453 95.1156 55.4033 94.7169 55.1C94.3182 54.788 93.7939 54.632 93.1439 54.632Z" fill="black"/>
<rect x="21" y="32" width="150" height="15" rx="3" fill="#FFBB9A" fill-opacity="0.15"/>
<path d="M28.566 36.333V37.147H26.476V44H25.475V37.147H23.374V36.333H28.566ZM29.4242 40.161C29.4242 39.413 29.5928 38.742 29.9302 38.148C30.2675 37.5467 30.7258 37.0773 31.3052 36.74C31.8918 36.4027 32.5408 36.234 33.2522 36.234C34.0882 36.234 34.8178 36.4357 35.4412 36.839C36.0645 37.2423 36.5192 37.8143 36.8052 38.555H35.6062C35.3935 38.093 35.0855 37.7373 34.6822 37.488C34.2862 37.2387 33.8095 37.114 33.2522 37.114C32.7168 37.114 32.2365 37.2387 31.8112 37.488C31.3858 37.7373 31.0522 38.093 30.8102 38.555C30.5682 39.0097 30.4472 39.545 30.4472 40.161C30.4472 40.7697 30.5682 41.305 30.8102 41.767C31.0522 42.2217 31.3858 42.5737 31.8112 42.823C32.2365 43.0723 32.7168 43.197 33.2522 43.197C33.8095 43.197 34.2862 43.076 34.6822 42.834C35.0855 42.5847 35.3935 42.229 35.6062 41.767H36.8052C36.5192 42.5003 36.0645 43.0687 35.4412 43.472C34.8178 43.868 34.0882 44.066 33.2522 44.066C32.5408 44.066 31.8918 43.901 31.3052 43.571C30.7258 43.2337 30.2675 42.768 29.9302 42.174C29.5928 41.58 29.4242 40.909 29.4242 40.161ZM43.7865 40.161C43.7865 39.413 43.9551 38.742 44.2925 38.148C44.6298 37.5467 45.0881 37.0773 45.6675 36.74C46.2541 36.4027 46.9031 36.234 47.6145 36.234C48.4505 36.234 49.1801 36.4357 49.8035 36.839C50.4268 37.2423 50.8815 37.8143 51.1675 38.555H49.9685C49.7558 38.093 49.4478 37.7373 49.0445 37.488C48.6485 37.2387 48.1718 37.114 47.6145 37.114C47.0791 37.114 46.5988 37.2387 46.1735 37.488C45.7481 37.7373 45.4145 38.093 45.1725 38.555C44.9305 39.0097 44.8095 39.545 44.8095 40.161C44.8095 40.7697 44.9305 41.305 45.1725 41.767C45.4145 42.2217 45.7481 42.5737 46.1735 42.823C46.5988 43.0723 47.0791 43.197 47.6145 43.197C48.1718 43.197 48.6485 43.076 49.0445 42.834C49.4478 42.5847 49.7558 42.229 49.9685 41.767H51.1675C50.8815 42.5003 50.4268 43.0687 49.8035 43.472C49.1801 43.868 48.4505 44.066 47.6145 44.066C46.9031 44.066 46.2541 43.901 45.6675 43.571C45.0881 43.2337 44.6298 42.768 44.2925 42.174C43.9551 41.58 43.7865 40.909 43.7865 40.161ZM63.2418 36.333V37.147H61.1518V44H60.1508V37.147H58.0498V36.333H63.2418ZM65.475 43.186H68.159V44H64.474V36.333H65.475V43.186ZM76.0882 43.186H78.7722V44H75.0872V36.333H76.0882V43.186ZM90.4195 36.333V37.147H88.3295V44H87.3285V37.147H85.2275V36.333H90.4195ZM96.3707 36.333V37.147H94.2807V44H93.2797V37.147H91.1787V36.333H96.3707ZM100.595 37.862C101.05 37.862 101.46 37.961 101.827 38.159C102.194 38.3497 102.48 38.6393 102.685 39.028C102.898 39.4167 103.004 39.8897 103.004 40.447V44H102.014V40.59C102.014 39.9887 101.864 39.5303 101.563 39.215C101.262 38.8923 100.852 38.731 100.331 38.731C99.8029 38.731 99.3812 38.896 99.0659 39.226C98.7579 39.556 98.6039 40.0363 98.6039 40.667V44H97.6029V35.86H98.6039V38.83C98.8019 38.522 99.0732 38.2837 99.4179 38.115C99.7699 37.9463 100.162 37.862 100.595 37.862ZM115.223 36.333V37.147H113.133V44H112.132V37.147H110.031V36.333H115.223ZM119.447 37.862C119.902 37.862 120.313 37.961 120.679 38.159C121.046 38.3497 121.332 38.6393 121.537 39.028C121.75 39.4167 121.856 39.8897 121.856 40.447V44H120.866V40.59C120.866 39.9887 120.716 39.5303 120.415 39.215C120.115 38.8923 119.704 38.731 119.183 38.731C118.655 38.731 118.234 38.896 117.918 39.226C117.61 39.556 117.456 40.0363 117.456 40.667V44H116.455V35.86H117.456V38.83C117.654 38.522 117.926 38.2837 118.27 38.115C118.622 37.9463 119.015 37.862 119.447 37.862ZM135.264 36.333V44H134.263V40.524H130.358V44H129.357V36.333H130.358V39.699H134.263V36.333H135.264ZM150.49 36.333V37.147H148.4V44H147.399V37.147H145.298V36.333H150.49ZM163.996 44.077C163.285 44.077 162.636 43.912 162.049 43.582C161.462 43.2447 160.997 42.779 160.652 42.185C160.315 41.5837 160.146 40.909 160.146 40.161C160.146 39.413 160.315 38.742 160.652 38.148C160.997 37.5467 161.462 37.081 162.049 36.751C162.636 36.4137 163.285 36.245 163.996 36.245C164.715 36.245 165.367 36.4137 165.954 36.751C166.541 37.081 167.003 37.543 167.34 38.137C167.677 38.731 167.846 39.4057 167.846 40.161C167.846 40.9163 167.677 41.591 167.34 42.185C167.003 42.779 166.541 43.2447 165.954 43.582C165.367 43.912 164.715 44.077 163.996 44.077ZM163.996 43.208C164.531 43.208 165.012 43.0833 165.437 42.834C165.87 42.5847 166.207 42.229 166.449 41.767C166.698 41.305 166.823 40.7697 166.823 40.161C166.823 39.545 166.698 39.0097 166.449 38.555C166.207 38.093 165.873 37.7373 165.448 37.488C165.023 37.2387 164.539 37.114 163.996 37.114C163.453 37.114 162.969 37.2387 162.544 37.488C162.119 37.7373 161.781 38.093 161.532 38.555C161.29 39.0097 161.169 39.545 161.169 40.161C161.169 40.7697 161.29 41.305 161.532 41.767C161.781 42.229 162.119 42.5847 162.544 42.834C162.977 43.0833 163.461 43.208 163.996 43.208Z" fill="#FF7F56"/>
<line x1="128" y1="94.5" x2="136" y2="94.5" stroke="black"/>
<line x1="154" y1="103.5" x2="159" y2="103.5" stroke="black"/>
<line x1="158.447" y1="103.776" x2="162.447" y2="111.776" stroke="black"/>
<line x1="162.508" y1="111.913" x2="165.508" y2="94.9131" stroke="black"/>
<line x1="165" y1="95.5" x2="177" y2="95.5" stroke="black"/>
</svg>
