<svg width="14" height="18" viewBox="0 0 14 18" fill="none" xmlns="http://www.w3.org/2000/svg">
<g clip-path="url(#clip0_0_1)">
<path d="M8.33325 3.23529C8.33325 2.683 7.88554 2.23529 7.33325 2.23529H6.66659C6.1143 2.23529 5.66659 2.68301 5.66659 3.23529V6.88235C5.66659 7.43464 5.21887 7.88235 4.66659 7.88235H1.33325C0.780968 7.88235 0.333252 8.33006 0.333252 8.88235V9.70588C0.333252 10.2582 0.780967 10.7059 1.33325 10.7059H4.66658C5.21887 10.7059 5.66659 11.1536 5.66659 11.7059V15.3529C5.66659 15.9052 6.1143 16.3529 6.66659 16.3529H7.33325C7.88554 16.3529 8.33325 15.9052 8.33325 15.3529V11.7059C8.33325 11.1536 8.78097 10.7059 9.33325 10.7059H12.6666C13.2189 10.7059 13.6666 10.2582 13.6666 9.70588V8.88235C13.6666 8.33006 13.2189 7.88235 12.6666 7.88235H9.33325C8.78097 7.88235 8.33325 7.43463 8.33325 6.88235V3.23529Z" fill="black"/>
</g>
<defs>
<clipPath id="clip0_0_1">
<rect width="14" height="18" fill="white"/>
</clipPath>
</defs>
</svg>
