<svg width="190" height="120" viewBox="0 0 190 120" fill="none" xmlns="http://www.w3.org/2000/svg">
<path d="M0 0H190V120H0V0Z" fill="white"/>
<path d="M163.5 29C155 38.5 163.848 48.4528 146 49.5" stroke="black" stroke-dasharray="2 2"/>
<path d="M116.5 58.5C113.5 65.5 101 61.5 98 70.5" stroke="#FF7F56" stroke-dasharray="2 2"/>
<path d="M81.0257 57.3419C80.9101 57.6886 80.8336 58.021 80.7958 58.3403L81.7889 58.4578C81.8176 58.2145 81.8774 57.9489 81.9743 57.6581L81.0257 57.3419ZM81.1882 60.4172C81.5192 61.0023 82.0197 61.4802 82.6062 61.8895L83.1786 61.0696C82.667 60.7125 82.2919 60.3373 82.0586 59.9249L81.1882 60.4172ZM84.2807 62.8276C84.8216 63.0815 85.4013 63.3231 85.9954 63.5631L86.37 62.6359C85.7802 62.3977 85.221 62.1643 84.7057 61.9224L84.2807 62.8276ZM87.6992 64.2483C88.2578 64.4771 88.8159 64.7149 89.3618 64.9714L89.787 64.0663C89.2198 63.7998 88.6447 63.5549 88.0783 63.3229L87.6992 64.2483ZM90.945 65.8031C91.4592 66.1093 91.9439 66.4419 92.3868 66.8098L93.0257 66.0404C92.5353 65.6332 92.0064 65.2713 91.4567 64.9439L90.945 65.8031ZM93.5903 68.0435C93.7636 68.2681 93.9234 68.5038 94.0681 68.7519L94.9319 68.2481C94.7646 67.9612 94.5805 67.6898 94.3819 67.4325L93.5903 68.0435Z" fill="#FF7F56"/>
<path d="M72.5 42L76.0384 37.4379L70.3183 36.6546L72.5 42ZM73.5593 39.3661C73.7514 38.7737 73.9826 38.2105 74.2468 37.6713L73.3487 37.2314C73.0649 37.8108 72.8156 38.4179 72.6081 39.0576L73.5593 39.3661ZM75.1596 36.0775C75.4977 35.5627 75.8649 35.0673 76.2547 34.5855L75.4772 33.9565C75.0699 34.46 74.6826 34.9822 74.3237 35.5287L75.1596 36.0775ZM77.4815 33.179C77.906 32.7225 78.3452 32.2747 78.7929 31.829L78.0875 31.1203C77.6345 31.5712 77.1855 32.0288 76.7492 32.498L77.4815 33.179ZM80.1468 30.5006C80.6006 30.0574 81.0562 29.6103 81.5042 29.1555L80.7919 28.4537C80.3511 28.9011 79.9014 29.3425 79.448 29.7852L80.1468 30.5006ZM82.8255 27.7552C83.2553 27.2746 83.6713 26.7791 84.0651 26.2633L83.2702 25.6565C82.895 26.148 82.4961 26.6234 82.0801 27.0884L82.8255 27.7552ZM85.1695 24.6525C85.5052 24.0998 85.8118 23.5218 86.0816 22.9131L85.1673 22.508C84.9163 23.0743 84.6301 23.6143 84.3148 24.1334L85.1695 24.6525ZM86.7527 21.0604C86.8414 20.7488 86.9205 20.4299 86.9893 20.103L86.0107 19.897C85.9467 20.201 85.8732 20.4974 85.7909 20.7867L86.7527 21.0604Z" fill="black"/>
<path d="M74.344 14.208C74.344 13.664 74.4667 13.176 74.712 12.744C74.9573 12.3067 75.2907 11.9653 75.712 11.72C76.1387 11.4747 76.6107 11.352 77.128 11.352C77.736 11.352 78.2667 11.4987 78.72 11.792C79.1733 12.0853 79.504 12.5013 79.712 13.04H78.84C78.6853 12.704 78.4613 12.4453 78.168 12.264C77.88 12.0827 77.5333 11.992 77.128 11.992C76.7387 11.992 76.3893 12.0827 76.08 12.264C75.7707 12.4453 75.528 12.704 75.352 13.04C75.176 13.3707 75.088 13.76 75.088 14.208C75.088 14.6507 75.176 15.04 75.352 15.376C75.528 15.7067 75.7707 15.9627 76.08 16.144C76.3893 16.3253 76.7387 16.416 77.128 16.416C77.5333 16.416 77.88 16.328 78.168 16.152C78.4613 15.9707 78.6853 15.712 78.84 15.376H79.712C79.504 15.9093 79.1733 16.3227 78.72 16.616C78.2667 16.904 77.736 17.048 77.128 17.048C76.6107 17.048 76.1387 16.928 75.712 16.688C75.2907 16.4427 74.9573 16.104 74.712 15.672C74.4667 15.24 74.344 14.752 74.344 14.208ZM82.7077 17.072C82.297 17.072 81.9237 16.9787 81.5877 16.792C81.257 16.6053 80.9957 16.3413 80.8037 16C80.617 15.6533 80.5237 15.2533 80.5237 14.8C80.5237 14.352 80.6197 13.9573 80.8117 13.616C81.009 13.2693 81.2757 13.0053 81.6117 12.824C81.9477 12.6373 82.3237 12.544 82.7397 12.544C83.1557 12.544 83.5317 12.6373 83.8677 12.824C84.2037 13.0053 84.4677 13.2667 84.6597 13.608C84.857 13.9493 84.9557 14.3467 84.9557 14.8C84.9557 15.2533 84.8544 15.6533 84.6517 16C84.4544 16.3413 84.185 16.6053 83.8437 16.792C83.5024 16.9787 83.1237 17.072 82.7077 17.072ZM82.7077 16.432C82.969 16.432 83.2144 16.3707 83.4437 16.248C83.673 16.1253 83.857 15.9413 83.9957 15.696C84.1397 15.4507 84.2117 15.152 84.2117 14.8C84.2117 14.448 84.1424 14.1493 84.0037 13.904C83.865 13.6587 83.6837 13.4773 83.4597 13.36C83.2357 13.2373 82.993 13.176 82.7317 13.176C82.465 13.176 82.2197 13.2373 81.9957 13.36C81.777 13.4773 81.601 13.6587 81.4677 13.904C81.3344 14.1493 81.2677 14.448 81.2677 14.8C81.2677 15.1573 81.3317 15.4587 81.4597 15.704C81.593 15.9493 81.769 16.1333 81.9877 16.256C82.2064 16.3733 82.4464 16.432 82.7077 16.432ZM89.9129 14.64C89.9129 14.7787 89.9049 14.9253 89.8889 15.08H86.3849C86.4115 15.512 86.5582 15.8507 86.8249 16.096C87.0969 16.336 87.4249 16.456 87.8089 16.456C88.1235 16.456 88.3849 16.384 88.5929 16.24C88.8062 16.0907 88.9555 15.8933 89.0409 15.648H89.8249C89.7075 16.0693 89.4729 16.4133 89.1209 16.68C88.7689 16.9413 88.3315 17.072 87.8089 17.072C87.3929 17.072 87.0195 16.9787 86.6889 16.792C86.3635 16.6053 86.1075 16.3413 85.9209 16C85.7342 15.6533 85.6409 15.2533 85.6409 14.8C85.6409 14.3467 85.7315 13.9493 85.9129 13.608C86.0942 13.2667 86.3475 13.0053 86.6729 12.824C87.0035 12.6373 87.3822 12.544 87.8089 12.544C88.2249 12.544 88.5929 12.6347 88.9129 12.816C89.2329 12.9973 89.4782 13.248 89.6489 13.568C89.8249 13.8827 89.9129 14.24 89.9129 14.64ZM89.1609 14.488C89.1609 14.2107 89.0995 13.9733 88.9769 13.776C88.8542 13.5733 88.6862 13.4213 88.4729 13.32C88.2649 13.2133 88.0329 13.16 87.7769 13.16C87.4089 13.16 87.0942 13.2773 86.8329 13.512C86.5769 13.7467 86.4302 14.072 86.3929 14.488H89.1609ZM92.6578 13.216H91.7378V17H91.0098V13.216H90.4418V12.616H91.0098V12.304C91.0098 11.8133 91.1351 11.456 91.3858 11.232C91.6418 11.0027 92.0498 10.888 92.6098 10.888V11.496C92.2898 11.496 92.0631 11.56 91.9298 11.688C91.8018 11.8107 91.7378 12.016 91.7378 12.304V12.616H92.6578V13.216ZM95.2906 13.216H94.3706V17H93.6426V13.216H93.0746V12.616H93.6426V12.304C93.6426 11.8133 93.768 11.456 94.0186 11.232C94.2746 11.0027 94.6826 10.888 95.2426 10.888V11.496C94.9226 11.496 94.696 11.56 94.5626 11.688C94.4346 11.8107 94.3706 12.016 94.3706 12.304V12.616H95.2906V13.216ZM96.5154 11.904C96.3768 11.904 96.2594 11.856 96.1634 11.76C96.0674 11.664 96.0194 11.5467 96.0194 11.408C96.0194 11.2693 96.0674 11.152 96.1634 11.056C96.2594 10.96 96.3768 10.912 96.5154 10.912C96.6488 10.912 96.7608 10.96 96.8514 11.056C96.9474 11.152 96.9954 11.2693 96.9954 11.408C96.9954 11.5467 96.9474 11.664 96.8514 11.76C96.7608 11.856 96.6488 11.904 96.5154 11.904ZM96.8674 12.616V17H96.1394V12.616H96.8674ZM97.8362 14.8C97.8362 14.3467 97.9269 13.952 98.1082 13.616C98.2895 13.2747 98.5402 13.0107 98.8602 12.824C99.1855 12.6373 99.5562 12.544 99.9722 12.544C100.511 12.544 100.954 12.6747 101.3 12.936C101.652 13.1973 101.884 13.56 101.996 14.024H101.212C101.138 13.7573 100.991 13.5467 100.772 13.392C100.559 13.2373 100.292 13.16 99.9722 13.16C99.5562 13.16 99.2202 13.304 98.9642 13.592C98.7082 13.8747 98.5802 14.2773 98.5802 14.8C98.5802 15.328 98.7082 15.736 98.9642 16.024C99.2202 16.312 99.5562 16.456 99.9722 16.456C100.292 16.456 100.559 16.3813 100.772 16.232C100.986 16.0827 101.132 15.8693 101.212 15.592H101.996C101.879 16.04 101.644 16.4 101.292 16.672C100.94 16.9387 100.5 17.072 99.9722 17.072C99.5562 17.072 99.1855 16.9787 98.8602 16.792C98.5402 16.6053 98.2895 16.3413 98.1082 16C97.9269 15.6587 97.8362 15.2587 97.8362 14.8ZM103.344 11.904C103.205 11.904 103.088 11.856 102.992 11.76C102.896 11.664 102.848 11.5467 102.848 11.408C102.848 11.2693 102.896 11.152 102.992 11.056C103.088 10.96 103.205 10.912 103.344 10.912C103.477 10.912 103.589 10.96 103.68 11.056C103.776 11.152 103.824 11.2693 103.824 11.408C103.824 11.5467 103.776 11.664 103.68 11.76C103.589 11.856 103.477 11.904 103.344 11.904ZM103.696 12.616V17H102.968V12.616H103.696ZM108.936 14.64C108.936 14.7787 108.928 14.9253 108.912 15.08H105.408C105.435 15.512 105.582 15.8507 105.848 16.096C106.12 16.336 106.448 16.456 106.832 16.456C107.147 16.456 107.408 16.384 107.616 16.24C107.83 16.0907 107.979 15.8933 108.064 15.648H108.848C108.731 16.0693 108.496 16.4133 108.144 16.68C107.792 16.9413 107.355 17.072 106.832 17.072C106.416 17.072 106.043 16.9787 105.712 16.792C105.387 16.6053 105.131 16.3413 104.944 16C104.758 15.6533 104.664 15.2533 104.664 14.8C104.664 14.3467 104.755 13.9493 104.936 13.608C105.118 13.2667 105.371 13.0053 105.696 12.824C106.027 12.6373 106.406 12.544 106.832 12.544C107.248 12.544 107.616 12.6347 107.936 12.816C108.256 12.9973 108.502 13.248 108.672 13.568C108.848 13.8827 108.936 14.24 108.936 14.64ZM108.184 14.488C108.184 14.2107 108.123 13.9733 108 13.776C107.878 13.5733 107.71 13.4213 107.496 13.32C107.288 13.2133 107.056 13.16 106.8 13.16C106.432 13.16 106.118 13.2773 105.856 13.512C105.6 13.7467 105.454 14.072 105.416 14.488H108.184ZM112.033 12.536C112.567 12.536 112.999 12.6987 113.329 13.024C113.66 13.344 113.825 13.808 113.825 14.416V17H113.105V14.52C113.105 14.0827 112.996 13.7493 112.777 13.52C112.559 13.2853 112.26 13.168 111.881 13.168C111.497 13.168 111.191 13.288 110.961 13.528C110.737 13.768 110.625 14.1173 110.625 14.576V17H109.897V12.616H110.625V13.24C110.769 13.016 110.964 12.8427 111.209 12.72C111.46 12.5973 111.735 12.536 112.033 12.536ZM115.902 13.216V15.8C115.902 16.0133 115.948 16.1653 116.038 16.256C116.129 16.3413 116.286 16.384 116.51 16.384H117.046V17H116.39C115.985 17 115.681 16.9067 115.478 16.72C115.276 16.5333 115.174 16.2267 115.174 15.8V13.216H114.606V12.616H115.174V11.512H115.902V12.616H117.046V13.216H115.902Z" fill="black"/>
<path d="M107.344 101.408H109.296V102H106.616V96.424H107.344V101.408ZM110.445 96.904C110.306 96.904 110.189 96.856 110.093 96.76C109.997 96.664 109.949 96.5467 109.949 96.408C109.949 96.2693 109.997 96.152 110.093 96.056C110.189 95.96 110.306 95.912 110.445 95.912C110.578 95.912 110.69 95.96 110.781 96.056C110.877 96.152 110.925 96.2693 110.925 96.408C110.925 96.5467 110.877 96.664 110.781 96.76C110.69 96.856 110.578 96.904 110.445 96.904ZM110.797 97.616V102H110.069V97.616H110.797ZM114.174 97.536C114.707 97.536 115.139 97.6987 115.47 98.024C115.801 98.344 115.966 98.808 115.966 99.416V102H115.246V99.52C115.246 99.0827 115.137 98.7493 114.918 98.52C114.699 98.2853 114.401 98.168 114.022 98.168C113.638 98.168 113.331 98.288 113.102 98.528C112.878 98.768 112.766 99.1173 112.766 99.576V102H112.038V97.616H112.766V98.24C112.91 98.016 113.105 97.8427 113.35 97.72C113.601 97.5973 113.875 97.536 114.174 97.536ZM121.155 99.64C121.155 99.7787 121.147 99.9253 121.131 100.08H117.627C117.654 100.512 117.8 100.851 118.067 101.096C118.339 101.336 118.667 101.456 119.051 101.456C119.366 101.456 119.627 101.384 119.835 101.24C120.048 101.091 120.198 100.893 120.283 100.648H121.067C120.95 101.069 120.715 101.413 120.363 101.68C120.011 101.941 119.574 102.072 119.051 102.072C118.635 102.072 118.262 101.979 117.931 101.792C117.606 101.605 117.35 101.341 117.163 101C116.976 100.653 116.883 100.253 116.883 99.8C116.883 99.3467 116.974 98.9493 117.155 98.608C117.336 98.2667 117.59 98.0053 117.915 97.824C118.246 97.6373 118.624 97.544 119.051 97.544C119.467 97.544 119.835 97.6347 120.155 97.816C120.475 97.9973 120.72 98.248 120.891 98.568C121.067 98.8827 121.155 99.24 121.155 99.64ZM120.403 99.488C120.403 99.2107 120.342 98.9733 120.219 98.776C120.096 98.5733 119.928 98.4213 119.715 98.32C119.507 98.2133 119.275 98.16 119.019 98.16C118.651 98.16 118.336 98.2773 118.075 98.512C117.819 98.7467 117.672 99.072 117.635 99.488H120.403ZM121.844 99.792C121.844 99.344 121.935 98.952 122.116 98.616C122.297 98.2747 122.545 98.0107 122.86 97.824C123.18 97.6373 123.535 97.544 123.924 97.544C124.308 97.544 124.641 97.6267 124.924 97.792C125.207 97.9573 125.417 98.1653 125.556 98.416V97.616H126.292V102H125.556V101.184C125.412 101.44 125.196 101.653 124.908 101.824C124.625 101.989 124.295 102.072 123.916 102.072C123.527 102.072 123.175 101.976 122.86 101.784C122.545 101.592 122.297 101.323 122.116 100.976C121.935 100.629 121.844 100.235 121.844 99.792ZM125.556 99.8C125.556 99.4693 125.489 99.1813 125.356 98.936C125.223 98.6907 125.041 98.504 124.812 98.376C124.588 98.2427 124.34 98.176 124.068 98.176C123.796 98.176 123.548 98.24 123.324 98.368C123.1 98.496 122.921 98.6827 122.788 98.928C122.655 99.1733 122.588 99.4613 122.588 99.792C122.588 100.128 122.655 100.421 122.788 100.672C122.921 100.917 123.1 101.107 123.324 101.24C123.548 101.368 123.796 101.432 124.068 101.432C124.34 101.432 124.588 101.368 124.812 101.24C125.041 101.107 125.223 100.917 125.356 100.672C125.489 100.421 125.556 100.131 125.556 99.8ZM128.25 98.328C128.378 98.0773 128.56 97.8827 128.794 97.744C129.034 97.6053 129.325 97.536 129.666 97.536V98.288H129.474C128.658 98.288 128.25 98.7307 128.25 99.616V102H127.522V97.616H128.25V98.328Z" fill="black"/>
<path d="M62.344 108.208C62.344 107.664 62.4667 107.176 62.712 106.744C62.9573 106.307 63.2907 105.965 63.712 105.72C64.1387 105.475 64.6107 105.352 65.128 105.352C65.736 105.352 66.2667 105.499 66.72 105.792C67.1733 106.085 67.504 106.501 67.712 107.04H66.84C66.6853 106.704 66.4613 106.445 66.168 106.264C65.88 106.083 65.5333 105.992 65.128 105.992C64.7387 105.992 64.3893 106.083 64.08 106.264C63.7707 106.445 63.528 106.704 63.352 107.04C63.176 107.371 63.088 107.76 63.088 108.208C63.088 108.651 63.176 109.04 63.352 109.376C63.528 109.707 63.7707 109.963 64.08 110.144C64.3893 110.325 64.7387 110.416 65.128 110.416C65.5333 110.416 65.88 110.328 66.168 110.152C66.4613 109.971 66.6853 109.712 66.84 109.376H67.712C67.504 109.909 67.1733 110.323 66.72 110.616C66.2667 110.904 65.736 111.048 65.128 111.048C64.6107 111.048 64.1387 110.928 63.712 110.688C63.2907 110.443 62.9573 110.104 62.712 109.672C62.4667 109.24 62.344 108.752 62.344 108.208ZM72.6837 106.616V111H71.9557V110.352C71.817 110.576 71.6224 110.752 71.3717 110.88C71.1264 111.003 70.8544 111.064 70.5557 111.064C70.2144 111.064 69.9077 110.995 69.6357 110.856C69.3637 110.712 69.1477 110.499 68.9877 110.216C68.833 109.933 68.7557 109.589 68.7557 109.184V106.616H69.4757V109.088C69.4757 109.52 69.585 109.853 69.8037 110.088C70.0224 110.317 70.321 110.432 70.6997 110.432C71.089 110.432 71.3957 110.312 71.6197 110.072C71.8437 109.832 71.9557 109.483 71.9557 109.024V106.616H72.6837ZM74.6409 107.432C74.7902 107.171 75.0089 106.957 75.2969 106.792C75.5849 106.627 75.9129 106.544 76.2809 106.544C76.6755 106.544 77.0302 106.637 77.3449 106.824C77.6595 107.011 77.9075 107.275 78.0889 107.616C78.2702 107.952 78.3609 108.344 78.3609 108.792C78.3609 109.235 78.2702 109.629 78.0889 109.976C77.9075 110.323 77.6569 110.592 77.3369 110.784C77.0222 110.976 76.6702 111.072 76.2809 111.072C75.9022 111.072 75.5689 110.989 75.2809 110.824C74.9982 110.659 74.7849 110.448 74.6409 110.192V111H73.9129V105.08H74.6409V107.432ZM77.6169 108.792C77.6169 108.461 77.5502 108.173 77.4169 107.928C77.2835 107.683 77.1022 107.496 76.8729 107.368C76.6489 107.24 76.4009 107.176 76.1289 107.176C75.8622 107.176 75.6142 107.243 75.3849 107.376C75.1609 107.504 74.9795 107.693 74.8409 107.944C74.7075 108.189 74.6409 108.475 74.6409 108.8C74.6409 109.131 74.7075 109.421 74.8409 109.672C74.9795 109.917 75.1609 110.107 75.3849 110.24C75.6142 110.368 75.8622 110.432 76.1289 110.432C76.4009 110.432 76.6489 110.368 76.8729 110.24C77.1022 110.107 77.2835 109.917 77.4169 109.672C77.5502 109.421 77.6169 109.128 77.6169 108.792ZM79.6951 105.904C79.5565 105.904 79.4391 105.856 79.3431 105.76C79.2471 105.664 79.1991 105.547 79.1991 105.408C79.1991 105.269 79.2471 105.152 79.3431 105.056C79.4391 104.96 79.5565 104.912 79.6951 104.912C79.8285 104.912 79.9405 104.96 80.0311 105.056C80.1271 105.152 80.1751 105.269 80.1751 105.408C80.1751 105.547 80.1271 105.664 80.0311 105.76C79.9405 105.856 79.8285 105.904 79.6951 105.904ZM80.0471 106.616V111H79.3191V106.616H80.0471ZM81.0159 108.8C81.0159 108.347 81.1065 107.952 81.2879 107.616C81.4692 107.275 81.7199 107.011 82.0399 106.824C82.3652 106.637 82.7359 106.544 83.1519 106.544C83.6905 106.544 84.1332 106.675 84.4799 106.936C84.8319 107.197 85.0639 107.56 85.1759 108.024H84.3919C84.3172 107.757 84.1705 107.547 83.9519 107.392C83.7385 107.237 83.4719 107.16 83.1519 107.16C82.7359 107.16 82.3999 107.304 82.1439 107.592C81.8879 107.875 81.7599 108.277 81.7599 108.8C81.7599 109.328 81.8879 109.736 82.1439 110.024C82.3999 110.312 82.7359 110.456 83.1519 110.456C83.4719 110.456 83.7385 110.381 83.9519 110.232C84.1652 110.083 84.3119 109.869 84.3919 109.592H85.1759C85.0585 110.04 84.8239 110.4 84.4719 110.672C84.1199 110.939 83.6799 111.072 83.1519 111.072C82.7359 111.072 82.3652 110.979 82.0399 110.792C81.7199 110.605 81.4692 110.341 81.2879 110C81.1065 109.659 81.0159 109.259 81.0159 108.8Z" fill="#FF7F56"/>
<path d="M143.088 95.056L141.976 93.944C141.704 94.0187 141.427 94.056 141.144 94.056C140.627 94.056 140.155 93.936 139.728 93.696C139.301 93.4507 138.963 93.112 138.712 92.68C138.467 92.2427 138.344 91.752 138.344 91.208C138.344 90.664 138.467 90.176 138.712 89.744C138.963 89.3067 139.301 88.968 139.728 88.728C140.155 88.4827 140.627 88.36 141.144 88.36C141.667 88.36 142.141 88.4827 142.568 88.728C142.995 88.968 143.331 89.304 143.576 89.736C143.821 90.168 143.944 90.6587 143.944 91.208C143.944 91.7413 143.827 92.2213 143.592 92.648C143.357 93.0747 143.035 93.4107 142.624 93.656L144.032 95.056H143.088ZM139.088 91.208C139.088 91.6507 139.176 92.04 139.352 92.376C139.533 92.712 139.779 92.9707 140.088 93.152C140.403 93.3333 140.755 93.424 141.144 93.424C141.533 93.424 141.883 93.3333 142.192 93.152C142.507 92.9707 142.752 92.712 142.928 92.376C143.109 92.04 143.2 91.6507 143.2 91.208C143.2 90.76 143.109 90.3707 142.928 90.04C142.752 89.704 142.509 89.4453 142.2 89.264C141.891 89.0827 141.539 88.992 141.144 88.992C140.749 88.992 140.397 89.0827 140.088 89.264C139.779 89.4453 139.533 89.704 139.352 90.04C139.176 90.3707 139.088 90.76 139.088 91.208ZM148.809 89.616V94H148.081V93.352C147.942 93.576 147.747 93.752 147.497 93.88C147.251 94.0027 146.979 94.064 146.681 94.064C146.339 94.064 146.033 93.9947 145.761 93.856C145.489 93.712 145.273 93.4987 145.113 93.216C144.958 92.9333 144.881 92.5893 144.881 92.184V89.616H145.601V92.088C145.601 92.52 145.71 92.8533 145.929 93.088C146.147 93.3173 146.446 93.432 146.825 93.432C147.214 93.432 147.521 93.312 147.745 93.072C147.969 92.832 148.081 92.4827 148.081 92.024V89.616H148.809ZM149.766 91.792C149.766 91.344 149.857 90.952 150.038 90.616C150.219 90.2747 150.467 90.0107 150.782 89.824C151.102 89.6373 151.457 89.544 151.846 89.544C152.23 89.544 152.563 89.6267 152.846 89.792C153.129 89.9573 153.339 90.1653 153.478 90.416V89.616H154.214V94H153.478V93.184C153.334 93.44 153.118 93.6533 152.83 93.824C152.547 93.9893 152.217 94.072 151.838 94.072C151.449 94.072 151.097 93.976 150.782 93.784C150.467 93.592 150.219 93.3227 150.038 92.976C149.857 92.6293 149.766 92.2347 149.766 91.792ZM153.478 91.8C153.478 91.4693 153.411 91.1813 153.278 90.936C153.145 90.6907 152.963 90.504 152.734 90.376C152.51 90.2427 152.262 90.176 151.99 90.176C151.718 90.176 151.47 90.24 151.246 90.368C151.022 90.496 150.843 90.6827 150.71 90.928C150.577 91.1733 150.51 91.4613 150.51 91.792C150.51 92.128 150.577 92.4213 150.71 92.672C150.843 92.9173 151.022 93.1067 151.246 93.24C151.47 93.368 151.718 93.432 151.99 93.432C152.262 93.432 152.51 93.368 152.734 93.24C152.963 93.1067 153.145 92.9173 153.278 92.672C153.411 92.4213 153.478 92.1307 153.478 91.8ZM155.172 91.792C155.172 91.344 155.263 90.952 155.444 90.616C155.625 90.2747 155.873 90.0107 156.188 89.824C156.508 89.6373 156.865 89.544 157.26 89.544C157.601 89.544 157.919 89.624 158.212 89.784C158.505 89.9387 158.729 90.144 158.884 90.4V88.08H159.62V94H158.884V93.176C158.74 93.4373 158.527 93.6533 158.244 93.824C157.961 93.9893 157.631 94.072 157.252 94.072C156.863 94.072 156.508 93.976 156.188 93.784C155.873 93.592 155.625 93.3227 155.444 92.976C155.263 92.6293 155.172 92.2347 155.172 91.792ZM158.884 91.8C158.884 91.4693 158.817 91.1813 158.684 90.936C158.551 90.6907 158.369 90.504 158.14 90.376C157.916 90.2427 157.668 90.176 157.396 90.176C157.124 90.176 156.876 90.24 156.652 90.368C156.428 90.496 156.249 90.6827 156.116 90.928C155.983 91.1733 155.916 91.4613 155.916 91.792C155.916 92.128 155.983 92.4213 156.116 92.672C156.249 92.9173 156.428 93.1067 156.652 93.24C156.876 93.368 157.124 93.432 157.396 93.432C157.668 93.432 157.916 93.368 158.14 93.24C158.369 93.1067 158.551 92.9173 158.684 92.672C158.817 92.4213 158.884 92.1307 158.884 91.8ZM161.578 90.328C161.706 90.0773 161.888 89.8827 162.122 89.744C162.362 89.6053 162.653 89.536 162.994 89.536V90.288H162.802C161.986 90.288 161.578 90.7307 161.578 91.616V94H160.85V89.616H161.578V90.328ZM163.563 91.792C163.563 91.344 163.653 90.952 163.835 90.616C164.016 90.2747 164.264 90.0107 164.579 89.824C164.899 89.6373 165.253 89.544 165.643 89.544C166.027 89.544 166.36 89.6267 166.643 89.792C166.925 89.9573 167.136 90.1653 167.275 90.416V89.616H168.011V94H167.275V93.184C167.131 93.44 166.915 93.6533 166.627 93.824C166.344 93.9893 166.013 94.072 165.635 94.072C165.245 94.072 164.893 93.976 164.579 93.784C164.264 93.592 164.016 93.3227 163.835 92.976C163.653 92.6293 163.563 92.2347 163.563 91.792ZM167.275 91.8C167.275 91.4693 167.208 91.1813 167.075 90.936C166.941 90.6907 166.76 90.504 166.531 90.376C166.307 90.2427 166.059 90.176 165.787 90.176C165.515 90.176 165.267 90.24 165.043 90.368C164.819 90.496 164.64 90.6827 164.507 90.928C164.373 91.1733 164.307 91.4613 164.307 91.792C164.307 92.128 164.373 92.4213 164.507 92.672C164.64 92.9173 164.819 93.1067 165.043 93.24C165.267 93.368 165.515 93.432 165.787 93.432C166.059 93.432 166.307 93.368 166.531 93.24C166.76 93.1067 166.941 92.9173 167.075 92.672C167.208 92.4213 167.275 92.1307 167.275 91.8ZM170.129 90.216V92.8C170.129 93.0133 170.174 93.1653 170.265 93.256C170.356 93.3413 170.513 93.384 170.737 93.384H171.273V94H170.617C170.212 94 169.908 93.9067 169.705 93.72C169.502 93.5333 169.401 93.2267 169.401 92.8V90.216H168.833V89.616H169.401V88.512H170.129V89.616H171.273V90.216H170.129ZM172.531 88.904C172.392 88.904 172.275 88.856 172.179 88.76C172.083 88.664 172.035 88.5467 172.035 88.408C172.035 88.2693 172.083 88.152 172.179 88.056C172.275 87.96 172.392 87.912 172.531 87.912C172.664 87.912 172.776 87.96 172.867 88.056C172.963 88.152 173.011 88.2693 173.011 88.408C173.011 88.5467 172.963 88.664 172.867 88.76C172.776 88.856 172.664 88.904 172.531 88.904ZM172.883 89.616V94H172.155V89.616H172.883ZM173.852 91.8C173.852 91.3467 173.942 90.952 174.124 90.616C174.305 90.2747 174.556 90.0107 174.876 89.824C175.201 89.6373 175.572 89.544 175.988 89.544C176.526 89.544 176.969 89.6747 177.316 89.936C177.668 90.1973 177.9 90.56 178.012 91.024H177.228C177.153 90.7573 177.006 90.5467 176.788 90.392C176.574 90.2373 176.308 90.16 175.988 90.16C175.572 90.16 175.236 90.304 174.98 90.592C174.724 90.8747 174.596 91.2773 174.596 91.8C174.596 92.328 174.724 92.736 174.98 93.024C175.236 93.312 175.572 93.456 175.988 93.456C176.308 93.456 176.574 93.3813 176.788 93.232C177.001 93.0827 177.148 92.8693 177.228 92.592H178.012C177.894 93.04 177.66 93.4 177.308 93.672C176.956 93.9387 176.516 94.072 175.988 94.072C175.572 94.072 175.201 93.9787 174.876 93.792C174.556 93.6053 174.305 93.3413 174.124 93C173.942 92.6587 173.852 92.2587 173.852 91.8Z" fill="#FF7F56"/>
<path d="M145.344 23.208C145.344 22.664 145.467 22.176 145.712 21.744C145.957 21.3067 146.291 20.9653 146.712 20.72C147.139 20.4747 147.611 20.352 148.128 20.352C148.736 20.352 149.267 20.4987 149.72 20.792C150.173 21.0853 150.504 21.5013 150.712 22.04H149.84C149.685 21.704 149.461 21.4453 149.168 21.264C148.88 21.0827 148.533 20.992 148.128 20.992C147.739 20.992 147.389 21.0827 147.08 21.264C146.771 21.4453 146.528 21.704 146.352 22.04C146.176 22.3707 146.088 22.76 146.088 23.208C146.088 23.6507 146.176 24.04 146.352 24.376C146.528 24.7067 146.771 24.9627 147.08 25.144C147.389 25.3253 147.739 25.416 148.128 25.416C148.533 25.416 148.88 25.328 149.168 25.152C149.461 24.9707 149.685 24.712 149.84 24.376H150.712C150.504 24.9093 150.173 25.3227 149.72 25.616C149.267 25.904 148.736 26.048 148.128 26.048C147.611 26.048 147.139 25.928 146.712 25.688C146.291 25.4427 145.957 25.104 145.712 24.672C145.467 24.24 145.344 23.752 145.344 23.208ZM153.708 26.072C153.297 26.072 152.924 25.9787 152.588 25.792C152.257 25.6053 151.996 25.3413 151.804 25C151.617 24.6533 151.524 24.2533 151.524 23.8C151.524 23.352 151.62 22.9573 151.812 22.616C152.009 22.2693 152.276 22.0053 152.612 21.824C152.948 21.6373 153.324 21.544 153.74 21.544C154.156 21.544 154.532 21.6373 154.868 21.824C155.204 22.0053 155.468 22.2667 155.66 22.608C155.857 22.9493 155.956 23.3467 155.956 23.8C155.956 24.2533 155.854 24.6533 155.652 25C155.454 25.3413 155.185 25.6053 154.844 25.792C154.502 25.9787 154.124 26.072 153.708 26.072ZM153.708 25.432C153.969 25.432 154.214 25.3707 154.444 25.248C154.673 25.1253 154.857 24.9413 154.996 24.696C155.14 24.4507 155.212 24.152 155.212 23.8C155.212 23.448 155.142 23.1493 155.004 22.904C154.865 22.6587 154.684 22.4773 154.46 22.36C154.236 22.2373 153.993 22.176 153.732 22.176C153.465 22.176 153.22 22.2373 152.996 22.36C152.777 22.4773 152.601 22.6587 152.468 22.904C152.334 23.1493 152.268 23.448 152.268 23.8C152.268 24.1573 152.332 24.4587 152.46 24.704C152.593 24.9493 152.769 25.1333 152.988 25.256C153.206 25.3733 153.446 25.432 153.708 25.432ZM159.049 21.536C159.582 21.536 160.014 21.6987 160.345 22.024C160.676 22.344 160.841 22.808 160.841 23.416V26H160.121V23.52C160.121 23.0827 160.012 22.7493 159.793 22.52C159.574 22.2853 159.276 22.168 158.897 22.168C158.513 22.168 158.206 22.288 157.977 22.528C157.753 22.768 157.641 23.1173 157.641 23.576V26H156.913V21.616H157.641V22.24C157.785 22.016 157.98 21.8427 158.225 21.72C158.476 21.5973 158.75 21.536 159.049 21.536ZM163.582 26.072C163.246 26.072 162.945 26.016 162.678 25.904C162.411 25.7867 162.201 25.6267 162.046 25.424C161.891 25.216 161.806 24.9787 161.79 24.712H162.542C162.563 24.9307 162.665 25.1093 162.846 25.248C163.033 25.3867 163.275 25.456 163.574 25.456C163.851 25.456 164.07 25.3947 164.23 25.272C164.39 25.1493 164.47 24.9947 164.47 24.808C164.47 24.616 164.385 24.4747 164.214 24.384C164.043 24.288 163.779 24.1947 163.422 24.104C163.097 24.0187 162.83 23.9333 162.622 23.848C162.419 23.7573 162.243 23.6267 162.094 23.456C161.95 23.28 161.878 23.0507 161.878 22.768C161.878 22.544 161.945 22.3387 162.078 22.152C162.211 21.9653 162.401 21.8187 162.646 21.712C162.891 21.6 163.171 21.544 163.486 21.544C163.971 21.544 164.363 21.6667 164.662 21.912C164.961 22.1573 165.121 22.4933 165.142 22.92H164.414C164.398 22.6907 164.305 22.5067 164.134 22.368C163.969 22.2293 163.745 22.16 163.462 22.16C163.201 22.16 162.993 22.216 162.838 22.328C162.683 22.44 162.606 22.5867 162.606 22.768C162.606 22.912 162.651 23.032 162.742 23.128C162.838 23.2187 162.955 23.2933 163.094 23.352C163.238 23.4053 163.435 23.4667 163.686 23.536C164.001 23.6213 164.257 23.7067 164.454 23.792C164.651 23.872 164.819 23.9947 164.958 24.16C165.102 24.3253 165.177 24.5413 165.182 24.808C165.182 25.048 165.115 25.264 164.982 25.456C164.849 25.648 164.659 25.8 164.414 25.912C164.174 26.0187 163.897 26.072 163.582 26.072ZM167.098 22.216V24.8C167.098 25.0133 167.143 25.1653 167.234 25.256C167.324 25.3413 167.482 25.384 167.706 25.384H168.242V26H167.586C167.18 26 166.876 25.9067 166.674 25.72C166.471 25.5333 166.37 25.2267 166.37 24.8V22.216H165.802V21.616H166.37V20.512H167.098V21.616H168.242V22.216H167.098ZM168.852 23.792C168.852 23.344 168.942 22.952 169.124 22.616C169.305 22.2747 169.553 22.0107 169.868 21.824C170.188 21.6373 170.542 21.544 170.932 21.544C171.316 21.544 171.649 21.6267 171.932 21.792C172.214 21.9573 172.425 22.1653 172.564 22.416V21.616H173.3V26H172.564V25.184C172.42 25.44 172.204 25.6533 171.916 25.824C171.633 25.9893 171.302 26.072 170.924 26.072C170.534 26.072 170.182 25.976 169.868 25.784C169.553 25.592 169.305 25.3227 169.124 24.976C168.942 24.6293 168.852 24.2347 168.852 23.792ZM172.564 23.8C172.564 23.4693 172.497 23.1813 172.364 22.936C172.23 22.6907 172.049 22.504 171.82 22.376C171.596 22.2427 171.348 22.176 171.076 22.176C170.804 22.176 170.556 22.24 170.332 22.368C170.108 22.496 169.929 22.6827 169.796 22.928C169.662 23.1733 169.596 23.4613 169.596 23.792C169.596 24.128 169.662 24.4213 169.796 24.672C169.929 24.9173 170.108 25.1067 170.332 25.24C170.556 25.368 170.804 25.432 171.076 25.432C171.348 25.432 171.596 25.368 171.82 25.24C172.049 25.1067 172.23 24.9173 172.364 24.672C172.497 24.4213 172.564 24.1307 172.564 23.8ZM176.666 21.536C177.199 21.536 177.631 21.6987 177.962 22.024C178.293 22.344 178.458 22.808 178.458 23.416V26H177.738V23.52C177.738 23.0827 177.629 22.7493 177.41 22.52C177.191 22.2853 176.893 22.168 176.514 22.168C176.13 22.168 175.823 22.288 175.594 22.528C175.37 22.768 175.258 23.1173 175.258 23.576V26H174.53V21.616H175.258V22.24C175.402 22.016 175.597 21.8427 175.842 21.72C176.093 21.5973 176.367 21.536 176.666 21.536ZM180.535 22.216V24.8C180.535 25.0133 180.581 25.1653 180.671 25.256C180.762 25.3413 180.919 25.384 181.143 25.384H181.679V26H181.023C180.618 26 180.314 25.9067 180.111 25.72C179.909 25.5333 179.807 25.2267 179.807 24.8V22.216H179.239V21.616H179.807V20.512H180.535V21.616H181.679V22.216H180.535Z" fill="black"/>
<path d="M84.224 72.424L82.12 78H81.28L79.176 72.424H79.952L81.704 77.232L83.456 72.424H84.224ZM84.7503 75.792C84.7503 75.344 84.8409 74.952 85.0223 74.616C85.2036 74.2747 85.4516 74.0107 85.7663 73.824C86.0863 73.6373 86.4409 73.544 86.8303 73.544C87.2143 73.544 87.5476 73.6267 87.8303 73.792C88.1129 73.9573 88.3236 74.1653 88.4623 74.416V73.616H89.1983V78H88.4623V77.184C88.3183 77.44 88.1023 77.6533 87.8143 77.824C87.5316 77.9893 87.2009 78.072 86.8223 78.072C86.4329 78.072 86.0809 77.976 85.7663 77.784C85.4516 77.592 85.2036 77.3227 85.0223 76.976C84.8409 76.6293 84.7503 76.2347 84.7503 75.792ZM88.4623 75.8C88.4623 75.4693 88.3956 75.1813 88.2623 74.936C88.1289 74.6907 87.9476 74.504 87.7183 74.376C87.4943 74.2427 87.2463 74.176 86.9743 74.176C86.7023 74.176 86.4543 74.24 86.2303 74.368C86.0063 74.496 85.8276 74.6827 85.6943 74.928C85.5609 75.1733 85.4943 75.4613 85.4943 75.792C85.4943 76.128 85.5609 76.4213 85.6943 76.672C85.8276 76.9173 86.0063 77.1067 86.2303 77.24C86.4543 77.368 86.7023 77.432 86.9743 77.432C87.2463 77.432 87.4943 77.368 87.7183 77.24C87.9476 77.1067 88.1289 76.9173 88.2623 76.672C88.3956 76.4213 88.4623 76.1307 88.4623 75.8ZM91.1565 74.328C91.2845 74.0773 91.4658 73.8827 91.7005 73.744C91.9405 73.6053 92.2312 73.536 92.5725 73.536V74.288H92.3805C91.5645 74.288 91.1565 74.7307 91.1565 75.616V78H90.4285V73.616H91.1565V74.328ZM93.7889 72.904C93.6502 72.904 93.5329 72.856 93.4369 72.76C93.3409 72.664 93.2929 72.5467 93.2929 72.408C93.2929 72.2693 93.3409 72.152 93.4369 72.056C93.5329 71.96 93.6502 71.912 93.7889 71.912C93.9222 71.912 94.0342 71.96 94.1249 72.056C94.2209 72.152 94.2689 72.2693 94.2689 72.408C94.2689 72.5467 94.2209 72.664 94.1249 72.76C94.0342 72.856 93.9222 72.904 93.7889 72.904ZM94.1409 73.616V78H93.4129V73.616H94.1409ZM95.1096 75.792C95.1096 75.344 95.2003 74.952 95.3816 74.616C95.563 74.2747 95.811 74.0107 96.1256 73.824C96.4456 73.6373 96.8003 73.544 97.1896 73.544C97.5736 73.544 97.907 73.6267 98.1896 73.792C98.4723 73.9573 98.683 74.1653 98.8216 74.416V73.616H99.5576V78H98.8216V77.184C98.6776 77.44 98.4616 77.6533 98.1736 77.824C97.891 77.9893 97.5603 78.072 97.1816 78.072C96.7923 78.072 96.4403 77.976 96.1256 77.784C95.811 77.592 95.563 77.3227 95.3816 76.976C95.2003 76.6293 95.1096 76.2347 95.1096 75.792ZM98.8216 75.8C98.8216 75.4693 98.755 75.1813 98.6216 74.936C98.4883 74.6907 98.307 74.504 98.0776 74.376C97.8536 74.2427 97.6056 74.176 97.3336 74.176C97.0616 74.176 96.8136 74.24 96.5896 74.368C96.3656 74.496 96.187 74.6827 96.0536 74.928C95.9203 75.1733 95.8536 75.4613 95.8536 75.792C95.8536 76.128 95.9203 76.4213 96.0536 76.672C96.187 76.9173 96.3656 77.1067 96.5896 77.24C96.8136 77.368 97.0616 77.432 97.3336 77.432C97.6056 77.432 97.8536 77.368 98.0776 77.24C98.307 77.1067 98.4883 76.9173 98.6216 76.672C98.755 76.4213 98.8216 76.1307 98.8216 75.8ZM101.516 74.432C101.665 74.1707 101.884 73.9573 102.172 73.792C102.46 73.6267 102.788 73.544 103.156 73.544C103.551 73.544 103.905 73.6373 104.22 73.824C104.535 74.0107 104.783 74.2747 104.964 74.616C105.145 74.952 105.236 75.344 105.236 75.792C105.236 76.2347 105.145 76.6293 104.964 76.976C104.783 77.3227 104.532 77.592 104.212 77.784C103.897 77.976 103.545 78.072 103.156 78.072C102.777 78.072 102.444 77.9893 102.156 77.824C101.873 77.6587 101.66 77.448 101.516 77.192V78H100.788V72.08H101.516V74.432ZM104.492 75.792C104.492 75.4613 104.425 75.1733 104.292 74.928C104.159 74.6827 103.977 74.496 103.748 74.368C103.524 74.24 103.276 74.176 103.004 74.176C102.737 74.176 102.489 74.2427 102.26 74.376C102.036 74.504 101.855 74.6933 101.716 74.944C101.583 75.1893 101.516 75.4747 101.516 75.8C101.516 76.1307 101.583 76.4213 101.716 76.672C101.855 76.9173 102.036 77.1067 102.26 77.24C102.489 77.368 102.737 77.432 103.004 77.432C103.276 77.432 103.524 77.368 103.748 77.24C103.977 77.1067 104.159 76.9173 104.292 76.672C104.425 76.4213 104.492 76.128 104.492 75.792ZM106.922 72.08V78H106.194V72.08H106.922ZM112.163 75.64C112.163 75.7787 112.155 75.9253 112.139 76.08H108.635C108.662 76.512 108.808 76.8507 109.075 77.096C109.347 77.336 109.675 77.456 110.059 77.456C110.374 77.456 110.635 77.384 110.843 77.24C111.056 77.0907 111.206 76.8933 111.291 76.648H112.075C111.958 77.0693 111.723 77.4133 111.371 77.68C111.019 77.9413 110.582 78.072 110.059 78.072C109.643 78.072 109.27 77.9787 108.939 77.792C108.614 77.6053 108.358 77.3413 108.171 77C107.984 76.6533 107.891 76.2533 107.891 75.8C107.891 75.3467 107.982 74.9493 108.163 74.608C108.344 74.2667 108.598 74.0053 108.923 73.824C109.254 73.6373 109.632 73.544 110.059 73.544C110.475 73.544 110.843 73.6347 111.163 73.816C111.483 73.9973 111.728 74.248 111.899 74.568C112.075 74.8827 112.163 75.24 112.163 75.64ZM111.411 75.488C111.411 75.2107 111.35 74.9733 111.227 74.776C111.104 74.5733 110.936 74.4213 110.723 74.32C110.515 74.2133 110.283 74.16 110.027 74.16C109.659 74.16 109.344 74.2773 109.083 74.512C108.827 74.7467 108.68 75.072 108.643 75.488H111.411Z" fill="black"/>
<path d="M72.9332 54.1293C72.3916 54.1293 71.9038 54.0215 71.4698 53.8061C71.0359 53.5907 70.6881 53.2952 70.4265 52.9197C70.1649 52.5443 70.0218 52.1165 69.9972 51.6364H71.1051C71.1482 52.0642 71.3421 52.4181 71.6868 52.6982C72.0346 52.9751 72.45 53.1136 72.9332 53.1136C73.321 53.1136 73.6657 53.0228 73.9673 52.8413C74.272 52.6597 74.5105 52.4104 74.6829 52.0934C74.8583 51.7733 74.946 51.4117 74.946 51.0085C74.946 50.5961 74.8552 50.2283 74.6737 49.9052C74.4951 49.579 74.2489 49.322 73.935 49.1342C73.6211 48.9465 73.2625 48.8511 72.8594 48.848C72.5701 48.8449 72.2731 48.8896 71.9684 48.9819C71.6637 49.0711 71.4129 49.1866 71.2159 49.3281L70.1449 49.1989L70.7173 44.5455H75.6293V45.5611H71.6776L71.3452 48.3494H71.4006C71.5945 48.1955 71.8376 48.0678 72.13 47.9663C72.4223 47.8647 72.727 47.8139 73.044 47.8139C73.6226 47.8139 74.1381 47.9524 74.5906 48.2294C75.046 48.5033 75.4031 48.8788 75.6616 49.3558C75.9232 49.8329 76.054 50.3776 76.054 50.9901C76.054 51.5933 75.9186 52.1319 75.6477 52.6058C75.38 53.0767 75.0107 53.4491 74.5398 53.723C74.0689 53.9938 73.5334 54.1293 72.9332 54.1293ZM84.576 49.2727V48.5526L86.7365 46.6321C86.9519 46.4413 87.132 46.2705 87.2766 46.1197C87.4213 45.9689 87.5305 45.8227 87.6044 45.6811C87.6783 45.5395 87.7152 45.3887 87.7152 45.2287C87.7152 44.9517 87.609 44.7317 87.3967 44.5685C87.1843 44.4054 86.9212 44.3239 86.6072 44.3239C86.2749 44.3239 86.0071 44.4131 85.804 44.5916C85.6009 44.767 85.4993 44.9979 85.4993 45.2841H84.5391C84.5391 44.7578 84.7345 44.3346 85.1254 44.0146C85.5162 43.6914 86.0163 43.5298 86.6257 43.5298C87.032 43.5298 87.389 43.6037 87.6967 43.7514C88.0045 43.8961 88.2446 44.0961 88.4169 44.3516C88.5893 44.6039 88.6754 44.8902 88.6754 45.2102C88.6754 45.4626 88.6246 45.6965 88.5231 45.9119C88.4215 46.1274 88.263 46.3505 88.0476 46.5813C87.8321 46.8121 87.5552 47.0753 87.2166 47.3707L86.0163 48.4233V48.4602H88.8416V49.2727H84.576ZM96.8247 52.3381V46.2443H97.8588V52.3381H96.8247ZM94.2948 49.8082V48.7741H100.389V49.8082H94.2948ZM106.262 54V53.169L109.383 49.7528C109.749 49.3527 110.05 49.005 110.287 48.7095C110.524 48.411 110.7 48.1309 110.814 47.8693C110.931 47.6046 110.989 47.3277 110.989 47.0384C110.989 46.706 110.909 46.4182 110.749 46.1751C110.592 45.9319 110.377 45.7442 110.103 45.6119C109.829 45.4795 109.521 45.4134 109.18 45.4134C108.816 45.4134 108.499 45.4888 108.229 45.6396C107.961 45.7873 107.753 45.995 107.605 46.2628C107.461 46.5305 107.388 46.8445 107.388 47.2045H106.299C106.299 46.6506 106.427 46.1643 106.682 45.7457C106.937 45.3272 107.285 45.0009 107.725 44.767C108.169 44.5331 108.666 44.4162 109.216 44.4162C109.77 44.4162 110.261 44.5331 110.689 44.767C111.117 45.0009 111.452 45.3164 111.695 45.7134C111.939 46.1104 112.06 46.5521 112.06 47.0384C112.06 47.3861 111.997 47.7262 111.871 48.0586C111.748 48.3879 111.532 48.7557 111.225 49.1619C110.92 49.5651 110.497 50.0575 109.955 50.6392L107.831 52.9105V52.9844H112.226V54H106.262ZM129.107 48.7649V49.7805H124.97V48.7649H129.107ZM134.957 54L139.185 45.6349V45.5611H134.31V44.5455H140.367V45.6165L136.157 54H134.957Z" fill="black"/>
<path d="M78.7188 46.9091L80.4177 49.8082L82.1166 46.9091H83.3722L81.0825 50.4545L83.3722 54H82.1166L80.4177 51.2486L78.7188 54H77.4632L79.716 50.4545L77.4632 46.9091H78.7188ZM114.853 56.6591C114.669 56.6591 114.504 56.6437 114.359 56.6129C114.215 56.5852 114.115 56.5575 114.059 56.5298L114.336 55.5696C114.601 55.6373 114.835 55.6619 115.038 55.6435C115.241 55.625 115.421 55.5342 115.578 55.3711C115.738 55.2111 115.884 54.951 116.017 54.5909L116.22 54.0369L113.597 46.9091H114.779L116.737 52.5597H116.811L118.768 46.9091H119.95L116.94 55.0341C116.804 55.4003 116.637 55.7035 116.437 55.9435C116.237 56.1867 116.004 56.3667 115.74 56.4837C115.478 56.6006 115.182 56.6591 114.853 56.6591Z" fill="#FF7F56"/>
<path d="M108 42.5L110.731 37.4135L104.961 37.5913L108 42.5ZM93.002 20.4556C92.9693 20.8219 92.964 21.1763 92.9845 21.5198L93.9827 21.4604C93.9653 21.1681 93.9696 20.8633 93.998 20.5444L93.002 20.4556ZM93.4564 23.5933C93.7235 24.2453 94.0895 24.8443 94.5254 25.4049L95.3149 24.791C94.9243 24.2887 94.6085 23.7677 94.3817 23.2142L93.4564 23.5933ZM95.9258 26.9052C96.4075 27.3501 96.9277 27.78 97.4686 28.2037L98.0852 27.4164C97.5568 27.0025 97.0593 26.5908 96.6044 26.1706L95.9258 26.9052ZM99.0518 29.4019C99.5733 29.7893 100.1 30.1793 100.625 30.5823L101.234 29.7891C100.701 29.3802 100.167 28.9849 99.6482 28.5992L99.0518 29.4019ZM102.144 31.8039C102.633 32.2214 103.109 32.6558 103.563 33.1138L104.274 32.4105C103.797 31.9285 103.299 31.4748 102.792 31.0428L102.144 31.8039ZM104.831 34.5475C105.217 35.0427 105.574 35.5658 105.892 36.123L106.76 35.6273C106.416 35.0247 106.032 34.4617 105.619 33.9322L104.831 34.5475ZM106.697 37.8344C106.912 38.4046 107.089 39.0092 107.221 39.6528L108.201 39.4508C108.057 38.7559 107.866 38.1011 107.633 37.4822L106.697 37.8344Z" fill="black"/>
<circle cx="137.5" cy="48.5" r="7" stroke="#FF7F56"/>
<line x1="28.5" y1="29" x2="28.5" y2="93" stroke="black"/>
<line x1="7" y1="83.5" x2="55" y2="83.5" stroke="black"/>
<path d="M10.5 35.5C25.8273 102.85 32.6555 94.561 50 35.5" stroke="#FF7F56"/>
<path d="M24.144 92.056C23.6267 92.056 23.1547 91.936 22.728 91.696C22.3013 91.4507 21.9627 91.112 21.712 90.68C21.4667 90.2427 21.344 89.752 21.344 89.208C21.344 88.664 21.4667 88.176 21.712 87.744C21.9627 87.3067 22.3013 86.968 22.728 86.728C23.1547 86.4827 23.6267 86.36 24.144 86.36C24.6667 86.36 25.1413 86.4827 25.568 86.728C25.9947 86.968 26.3307 87.304 26.576 87.736C26.8213 88.168 26.944 88.6587 26.944 89.208C26.944 89.7573 26.8213 90.248 26.576 90.68C26.3307 91.112 25.9947 91.4507 25.568 91.696C25.1413 91.936 24.6667 92.056 24.144 92.056ZM24.144 91.424C24.5333 91.424 24.8827 91.3333 25.192 91.152C25.5067 90.9707 25.752 90.712 25.928 90.376C26.1093 90.04 26.2 89.6507 26.2 89.208C26.2 88.76 26.1093 88.3707 25.928 88.04C25.752 87.704 25.5093 87.4453 25.2 87.264C24.8907 87.0827 24.5387 86.992 24.144 86.992C23.7493 86.992 23.3973 87.0827 23.088 87.264C22.7787 87.4453 22.5333 87.704 22.352 88.04C22.176 88.3707 22.088 88.76 22.088 89.208C22.088 89.6507 22.176 90.04 22.352 90.376C22.5333 90.712 22.7787 90.9707 23.088 91.152C23.4027 91.3333 23.7547 91.424 24.144 91.424Z" fill="black"/>
<path d="M51.904 91L50.864 89.368L49.864 91H49.104L50.52 88.824L49.104 86.616H49.928L50.968 88.24L51.96 86.616H52.72L51.312 88.784L52.728 91H51.904Z" fill="black"/>
<path d="M26.392 29.616L23.752 36.064H23L23.864 33.952L22.096 29.616H22.904L24.28 33.168L25.64 29.616H26.392Z" fill="black"/>
</svg>
