<svg width="190" height="121" viewBox="0 0 190 121" fill="none" xmlns="http://www.w3.org/2000/svg">
<rect y="1" width="190" height="120" fill="white"/>
<path d="M26.176 23.878C26.3067 23.6493 26.498 23.4627 26.75 23.318C27.002 23.1733 27.289 23.101 27.611 23.101C27.9563 23.101 28.2667 23.1827 28.542 23.346C28.8173 23.5093 29.0343 23.7403 29.193 24.039C29.3517 24.333 29.431 24.676 29.431 25.068C29.431 25.4553 29.3517 25.8007 29.193 26.104C29.0343 26.4073 28.815 26.643 28.535 26.811C28.2597 26.979 27.9517 27.063 27.611 27.063C27.2797 27.063 26.988 26.9907 26.736 26.846C26.4887 26.7013 26.302 26.517 26.176 26.293V27H25.539V21.82H26.176V23.878ZM28.78 25.068C28.78 24.7787 28.7217 24.5267 28.605 24.312C28.4883 24.0973 28.3297 23.934 28.129 23.822C27.933 23.71 27.716 23.654 27.478 23.654C27.2447 23.654 27.0277 23.7123 26.827 23.829C26.631 23.941 26.4723 24.1067 26.351 24.326C26.2343 24.5407 26.176 24.7903 26.176 25.075C26.176 25.3643 26.2343 25.6187 26.351 25.838C26.4723 26.0527 26.631 26.2183 26.827 26.335C27.0277 26.447 27.2447 26.503 27.478 26.503C27.716 26.503 27.933 26.447 28.129 26.335C28.3297 26.2183 28.4883 26.0527 28.605 25.838C28.7217 25.6187 28.78 25.362 28.78 25.068Z" fill="black"/>
<path d="M140.176 85.787C140.288 85.5677 140.447 85.3973 140.652 85.276C140.862 85.1547 141.116 85.094 141.415 85.094V85.752H141.247C140.533 85.752 140.176 86.1393 140.176 86.914V89H139.539V85.164H140.176V85.787Z" fill="black"/>
<path d="M125.294 70.712L123.314 75.548H122.75L123.398 73.964L122.072 70.712H122.678L123.71 73.376L124.73 70.712H125.294Z" fill="black"/>
<path d="M161.541 114L160.631 112.572L159.756 114H159.091L160.33 112.096L159.091 110.164H159.812L160.722 111.585L161.59 110.164H162.255L161.023 112.061L162.262 114H161.541Z" fill="black"/>
<path d="M123.358 113.042C122.97 113.042 122.616 112.952 122.296 112.772C121.976 112.588 121.722 112.334 121.534 112.01C121.35 111.682 121.258 111.314 121.258 110.906C121.258 110.498 121.35 110.132 121.534 109.808C121.722 109.48 121.976 109.226 122.296 109.046C122.616 108.862 122.97 108.77 123.358 108.77C123.75 108.77 124.106 108.862 124.426 109.046C124.746 109.226 124.998 109.478 125.182 109.802C125.366 110.126 125.458 110.494 125.458 110.906C125.458 111.318 125.366 111.686 125.182 112.01C124.998 112.334 124.746 112.588 124.426 112.772C124.106 112.952 123.75 113.042 123.358 113.042ZM123.358 112.568C123.65 112.568 123.912 112.5 124.144 112.364C124.38 112.228 124.564 112.034 124.696 111.782C124.832 111.53 124.9 111.238 124.9 110.906C124.9 110.57 124.832 110.278 124.696 110.03C124.564 109.778 124.382 109.584 124.15 109.448C123.918 109.312 123.654 109.244 123.358 109.244C123.062 109.244 122.798 109.312 122.566 109.448C122.334 109.584 122.15 109.778 122.014 110.03C121.882 110.278 121.816 110.57 121.816 110.906C121.816 111.238 121.882 111.53 122.014 111.782C122.15 112.034 122.334 112.228 122.566 112.364C122.802 112.5 123.066 112.568 123.358 112.568Z" fill="black"/>
<path d="M140.828 83.38V83.688H139.232V83.38H140.828ZM141.431 83.38V83.688H139.835V83.38H141.431ZM140.582 82.62H141.042L142.01 83.536L141.042 84.456H140.582L141.55 83.536L140.582 82.62Z" fill="black"/>
<path d="M37.199 44.165V44.704H34.406V44.165H37.199ZM39.0315 43.878C39.1621 43.6493 39.3535 43.4627 39.6055 43.318C39.8575 43.1733 40.1445 43.101 40.4665 43.101C40.8118 43.101 41.1221 43.1827 41.3975 43.346C41.6728 43.5093 41.8898 43.7403 42.0485 44.039C42.2071 44.333 42.2865 44.676 42.2865 45.068C42.2865 45.4553 42.2071 45.8007 42.0485 46.104C41.8898 46.4073 41.6705 46.643 41.3905 46.811C41.1151 46.979 40.8071 47.063 40.4665 47.063C40.1351 47.063 39.8435 46.9907 39.5915 46.846C39.3441 46.7013 39.1575 46.517 39.0315 46.293V47H38.3945V41.82H39.0315V43.878ZM41.6355 45.068C41.6355 44.7787 41.5771 44.5267 41.4605 44.312C41.3438 44.0973 41.1851 43.934 40.9845 43.822C40.7885 43.71 40.5715 43.654 40.3335 43.654C40.1001 43.654 39.8831 43.7123 39.6825 43.829C39.4865 43.941 39.3278 44.1067 39.2065 44.326C39.0898 44.5407 39.0315 44.7903 39.0315 45.075C39.0315 45.3643 39.0898 45.6187 39.2065 45.838C39.3278 46.0527 39.4865 46.2183 39.6825 46.335C39.8831 46.447 40.1001 46.503 40.3335 46.503C40.5715 46.503 40.7885 46.447 40.9845 46.335C41.1851 46.2183 41.3438 46.0527 41.4605 45.838C41.5771 45.6187 41.6355 45.362 41.6355 45.068Z" fill="black"/>
<path d="M66.7475 36.7319C67.0099 36.5891 67.2736 36.5173 67.5388 36.5164C67.8018 36.5114 68.0518 36.5852 68.2889 36.7377C68.526 36.8903 68.7293 37.1223 68.8989 37.4338L69.9798 39.4197L69.4265 39.7208L68.3891 37.8149C68.2061 37.4788 67.9826 37.2684 67.7187 37.1836C67.4565 37.0925 67.1841 37.1239 66.9013 37.2778C66.6102 37.4362 66.43 37.6566 66.3605 37.9388C66.2887 38.217 66.3488 38.5323 66.5406 38.8848L67.5513 40.7415L66.9979 41.0427L65.9605 39.1368C65.7776 38.8007 65.5541 38.5902 65.2901 38.5055C65.028 38.4144 64.7555 38.4458 64.4727 38.5997C64.1817 38.7581 64.0014 38.9785 63.9319 39.2607C63.8602 39.5389 63.9202 39.8542 64.1121 40.2067L65.1227 42.0634L64.5632 42.368L62.7293 38.9987L63.2888 38.6942L63.5532 39.1799C63.5679 38.9434 63.6419 38.7279 63.775 38.5332C63.9122 38.3363 64.0936 38.1765 64.319 38.0538C64.6018 37.8998 64.8864 37.8273 65.1728 37.8361C65.4592 37.8449 65.7226 37.9433 65.9631 38.1312C65.9279 37.8422 65.9833 37.5729 66.1291 37.3235C66.275 37.0741 66.4811 36.8769 66.7475 36.7319ZM69.7649 37.337C69.5775 36.9927 69.4832 36.6535 69.482 36.3194C69.4786 35.9812 69.5587 35.6746 69.7225 35.3995C69.8903 35.1222 70.1238 34.9021 70.4231 34.7392C70.7182 34.5786 71.0089 34.5027 71.2953 34.5115C71.5817 34.5203 71.8306 34.5921 72.0421 34.7267L71.7074 34.1119L72.2731 33.804L74.107 37.1732L73.5413 37.4811L73.2 36.854C73.1964 37.111 73.1196 37.3653 72.9697 37.6169C72.8216 37.8622 72.6021 38.0641 72.3111 38.2225C72.0118 38.3853 71.7012 38.4588 71.379 38.4429C71.0569 38.427 70.7536 38.3237 70.4692 38.1331C70.1849 37.9426 69.9501 37.6772 69.7649 37.337ZM72.621 35.7903C72.4827 35.5362 72.311 35.3428 72.1059 35.21C71.9008 35.0772 71.6834 35.0096 71.4536 35.0072C71.2256 34.9984 71.0071 35.0509 70.7981 35.1647C70.5891 35.2785 70.4252 35.4314 70.3066 35.6235C70.188 35.8156 70.1288 36.0338 70.129 36.2781C70.1291 36.5224 70.1984 36.7716 70.3367 37.0258C70.4772 37.284 70.6512 37.4815 70.8585 37.6184C71.0636 37.7512 71.2801 37.8219 71.5081 37.8307C71.7337 37.8354 71.9511 37.7808 72.1602 37.667C72.3692 37.5532 72.533 37.4003 72.6516 37.2082C72.7721 37.0098 72.8323 36.7885 72.8321 36.5442C72.8297 36.2957 72.7594 36.0445 72.621 35.7903ZM74.5779 32.4777C74.8689 32.3193 75.1576 32.2445 75.444 32.2533C75.7345 32.2599 75.9855 32.3305 76.1969 32.4652L75.8623 31.8503L76.4279 31.5424L78.302 34.9855C78.4693 35.2929 78.5521 35.6011 78.5503 35.9103C78.5508 36.2235 78.4649 36.5146 78.2926 36.7838C78.1244 37.0507 77.8784 37.2722 77.5546 37.4485C77.1119 37.6894 76.6861 37.7857 76.2772 37.7373C75.8683 37.6889 75.539 37.4989 75.2894 37.1672L75.8428 36.866C76.0158 37.0374 76.2321 37.1322 76.4917 37.1503C76.7535 37.1725 77.0197 37.11 77.2902 36.9628C77.5976 36.7955 77.7952 36.563 77.883 36.2655C77.9749 35.9658 77.926 35.6417 77.7363 35.2933L77.3515 34.5863C77.3479 34.8433 77.2732 35.0965 77.1274 35.3459C76.9815 35.5953 76.7631 35.7992 76.4721 35.9576C76.1728 36.1205 75.8601 36.195 75.5339 36.1813C75.2117 36.1654 74.9085 36.0622 74.6241 35.8716C74.3397 35.681 74.1049 35.4156 73.9198 35.0754C73.7324 34.7311 73.638 34.392 73.6369 34.0579C73.6334 33.7197 73.7136 33.4131 73.8773 33.138C74.0452 32.8607 74.2787 32.6406 74.5779 32.4777ZM76.7759 33.5288C76.6376 33.2747 76.4658 33.0812 76.2607 32.9485C76.0556 32.8157 75.8382 32.7481 75.6084 32.7456C75.3805 32.7369 75.162 32.7894 74.953 32.9032C74.7439 33.0169 74.5801 33.1699 74.4615 33.362C74.3429 33.554 74.2837 33.7722 74.2838 34.0165C74.284 34.2609 74.3532 34.5101 74.4915 34.7642C74.6321 35.0224 74.806 35.22 75.0134 35.3569C75.2185 35.4896 75.435 35.5604 75.6629 35.5692C75.8886 35.5738 76.106 35.5193 76.315 35.4055C76.524 35.2917 76.6879 35.1388 76.8065 34.9467C76.9269 34.7483 76.9871 34.5269 76.9869 34.2826C76.9846 34.0342 76.9142 33.7829 76.7759 33.5288ZM78.9815 30.0728C79.3914 29.8497 79.7914 29.794 80.1816 29.9057C80.5696 30.0133 80.8908 30.3007 81.1451 30.768L82.2261 32.7539L81.6727 33.0551L80.6353 31.1491C80.4524 30.813 80.2289 30.6026 79.9649 30.5178C79.6987 30.4289 79.4201 30.4637 79.1291 30.6221C78.8339 30.7827 78.6485 31.0032 78.5726 31.2836C78.5009 31.5618 78.5609 31.8771 78.7528 32.2296L79.7668 34.0925L79.2073 34.397L77.3734 31.0278L77.9329 30.7233L78.1939 31.2028C78.2109 30.9704 78.288 30.7558 78.4252 30.5589C78.5665 30.3598 78.752 30.1977 78.9815 30.0728ZM81.2972 28.1827C81.1906 28.2407 81.0804 28.2529 80.9664 28.2193C80.8525 28.1857 80.7665 28.1156 80.7085 28.009C80.6505 27.9024 80.6383 27.7922 80.672 27.6783C80.7056 27.5643 80.7757 27.4783 80.8822 27.4203C80.9847 27.3646 81.0909 27.3546 81.2007 27.3904C81.3146 27.4241 81.4006 27.4942 81.4586 27.6007C81.5166 27.7073 81.5288 27.8176 81.4952 27.9315C81.4657 28.0432 81.3997 28.1269 81.2972 28.1827ZM81.8656 28.5827L83.6995 31.9519L83.14 32.2564L81.3061 28.8872L81.8656 28.5827ZM83.7526 28.1533L84.8335 30.1392C84.9227 30.3031 85.0212 30.401 85.1288 30.4327C85.2342 30.4604 85.3729 30.4273 85.5451 30.3336L85.957 30.1094L86.2147 30.5828L85.7105 30.8572C85.399 31.0268 85.1263 31.0822 84.8925 31.0236C84.6587 30.9649 84.4525 30.7716 84.274 30.4437L83.1931 28.4578L82.7566 28.6954L82.5056 28.2343L82.9421 27.9967L82.4803 27.1482L83.0398 26.8437L83.5016 27.6922L84.3808 27.2136L84.6318 27.6747L83.7526 28.1533ZM88.0467 25.2182L89.8806 28.5874L89.3211 28.892L89.05 28.394C89.0372 28.6241 88.9612 28.8408 88.8221 29.044C88.6849 29.2409 88.5015 29.4019 88.272 29.5268C88.0096 29.6696 87.7449 29.7446 87.4779 29.7518C87.2086 29.7549 86.9534 29.6813 86.7122 29.531C86.4751 29.3785 86.2717 29.1464 86.1022 28.8349L85.0279 26.8614L85.5813 26.5602L86.6153 28.46C86.7961 28.792 87.0195 29.0024 87.2857 29.0913C87.5497 29.1761 87.8272 29.1392 88.1182 28.9808C88.4175 28.818 88.6029 28.5975 88.6747 28.3193C88.7464 28.0412 88.6864 27.7258 88.4945 27.3733L87.4872 25.5227L88.0467 25.2182ZM89.6926 26.4901C89.5052 26.1458 89.4109 25.8066 89.4097 25.4725C89.4063 25.1344 89.4864 24.8277 89.6502 24.5526C89.818 24.2753 90.0536 24.0541 90.3569 23.889C90.6192 23.7462 90.8966 23.675 91.1889 23.6752C91.4791 23.6714 91.7371 23.7355 91.9631 23.8675L90.9926 22.0845L91.5582 21.7766L94.0346 26.3263L93.469 26.6342L93.1243 26.0009C93.123 26.262 93.0494 26.5173 92.9035 26.7667C92.7554 27.012 92.5359 27.2138 92.2449 27.3722C91.9457 27.5351 91.6329 27.6097 91.3067 27.596C90.9845 27.5801 90.6813 27.4768 90.3969 27.2863C90.1125 27.0957 89.8778 26.8303 89.6926 26.4901ZM92.5487 24.9435C92.4104 24.6893 92.2387 24.4959 92.0336 24.3631C91.8285 24.2303 91.611 24.1627 91.3812 24.1603C91.1533 24.1515 90.9348 24.204 90.7258 24.3178C90.5167 24.4316 90.3529 24.5845 90.2343 24.7766C90.1157 24.9687 90.0565 25.1869 90.0566 25.4312C90.0568 25.6755 90.126 25.9247 90.2644 26.1789C90.4049 26.4371 90.5789 26.6346 90.7862 26.7715C90.9913 26.9043 91.2078 26.9751 91.4357 26.9838C91.6614 26.9885 91.8788 26.9339 92.0878 26.8201C92.2969 26.7064 92.4607 26.5534 92.5793 26.3614C92.6998 26.163 92.7599 25.9416 92.7598 25.6973C92.7574 25.4489 92.687 25.1976 92.5487 24.9435ZM97.067 22.3247C97.125 22.4313 97.1802 22.5473 97.2326 22.6729L94.5397 24.1387C94.7409 24.4595 94.9953 24.6584 95.3029 24.7354C95.6123 24.8061 95.9146 24.7611 96.2097 24.6005C96.4515 24.4688 96.6222 24.3042 96.7219 24.1065C96.8233 23.9025 96.8556 23.6884 96.8185 23.4641L97.421 23.1362C97.5071 23.5091 97.4707 23.8716 97.3117 24.2238C97.1505 24.5719 96.869 24.8553 96.4674 25.0739C96.1477 25.2479 95.8217 25.3324 95.4895 25.3272C95.1614 25.3199 94.8542 25.2241 94.5679 25.0398C94.2795 24.8515 94.0404 24.5831 93.8508 24.2347C93.6611 23.8863 93.5646 23.543 93.5612 23.2048C93.5578 22.8667 93.6431 22.5599 93.8173 22.2844C93.9933 22.0026 94.2453 21.7725 94.5732 21.594C94.8929 21.42 95.2137 21.3357 95.5355 21.3412C95.8572 21.3467 96.1506 21.4367 96.4157 21.6113C96.6826 21.7795 96.8997 22.0173 97.067 22.3247ZM96.4255 22.5225C96.3095 22.3093 96.163 22.1526 95.9862 22.0522C95.8072 21.9478 95.6145 21.9013 95.4081 21.9126C95.2037 21.9176 95.0031 21.9737 94.8063 22.0808C94.5235 22.2347 94.3307 22.4565 94.2281 22.7462C94.1295 23.0337 94.1529 23.345 94.2982 23.6804L96.4255 22.5225Z" fill="black"/>
<path d="M82.2859 33.4632C86.6905 37.6043 90.6583 39.6556 94.1893 39.6171C97.7203 39.5787 101.184 38.5968 104.58 36.6714C106.49 35.5884 108.513 34.2081 110.647 32.5307C112.822 30.9239 114.905 29.322 116.898 27.7247C118.992 25.9765 121.213 24.2035 123.559 22.4057C126.017 20.6385 128.342 19.1332 130.535 17.8897C135.63 15.0016 140.066 14.1693 143.845 15.3927C147.624 16.6162 150.857 19.5981 153.545 24.3387L155.41 27.6287L153.5 28.7117L151.634 25.4217C149.308 21.318 146.532 18.731 143.308 17.6608C140.123 16.6613 136.267 17.4451 131.739 20.0123C127.847 22.2185 122.968 25.7328 117.1 30.5551C112.244 34.5235 108.472 37.2698 105.783 38.794C101.609 41.1607 97.4342 42.125 93.2592 41.6871C89.195 41.2798 85.3888 39.1837 81.8405 35.3986L81.6283 35.519C83.0539 40.5074 82.8625 44.8699 81.0541 48.6065C79.3566 52.3737 76.4205 55.4406 72.2461 57.8072C69.5574 59.3315 65.2637 61.158 59.3649 63.2867C52.2138 65.845 46.6925 68.2272 42.801 70.4334C38.2728 73.0005 35.6198 75.907 34.842 79.1528C34.1044 82.4693 34.8988 86.1794 37.2253 90.2831L39.0905 93.5732L37.1802 94.6562L35.315 91.3662C32.6274 86.6257 31.7291 82.32 32.6199 78.4491C33.5108 74.5783 36.5034 71.1988 41.5976 68.3107C43.791 67.0673 46.2415 65.865 48.9491 64.704C51.7675 63.5736 54.4645 62.5588 57.0401 61.6596C59.434 60.7699 61.8787 59.8047 64.374 58.7641C66.9094 57.7941 69.1323 56.7676 71.0427 55.6846C74.4389 53.7592 77.0601 51.2915 78.9064 48.2814C80.7527 45.2713 81.0302 40.8132 79.7388 34.9072L82.2859 33.4632Z" fill="#FF7F56"/>
<path d="M162.443 22.094C162.732 22.094 162.994 22.157 163.227 22.283C163.46 22.4043 163.642 22.5887 163.773 22.836C163.908 23.0833 163.976 23.3843 163.976 23.739V26H163.346V23.83C163.346 23.4473 163.25 23.1557 163.059 22.955C162.868 22.7497 162.606 22.647 162.275 22.647C161.939 22.647 161.671 22.752 161.47 22.962C161.274 23.172 161.176 23.4777 161.176 23.879V26H160.539V20.82H161.176V22.71C161.302 22.514 161.475 22.3623 161.694 22.255C161.918 22.1477 162.168 22.094 162.443 22.094ZM168.517 23.935C168.517 24.0563 168.51 24.1847 168.496 24.32H165.43C165.453 24.698 165.581 24.9943 165.815 25.209C166.053 25.419 166.34 25.524 166.676 25.524C166.951 25.524 167.18 25.461 167.362 25.335C167.548 25.2043 167.679 25.0317 167.754 24.817H168.44C168.337 25.1857 168.132 25.4867 167.824 25.72C167.516 25.9487 167.133 26.063 166.676 26.063C166.312 26.063 165.985 25.9813 165.696 25.818C165.411 25.6547 165.187 25.4237 165.024 25.125C164.86 24.8217 164.779 24.4717 164.779 24.075C164.779 23.6783 164.858 23.3307 165.017 23.032C165.175 22.7333 165.397 22.5047 165.682 22.346C165.971 22.1827 166.302 22.101 166.676 22.101C167.04 22.101 167.362 22.1803 167.642 22.339C167.922 22.4977 168.136 22.717 168.286 22.997C168.44 23.2723 168.517 23.585 168.517 23.935ZM167.859 23.802C167.859 23.5593 167.805 23.3517 167.698 23.179C167.59 23.0017 167.443 22.8687 167.257 22.78C167.075 22.6867 166.872 22.64 166.648 22.64C166.326 22.64 166.05 22.7427 165.822 22.948C165.598 23.1533 165.469 23.438 165.437 23.802H167.859ZM169.119 24.068C169.119 23.676 169.199 23.333 169.357 23.039C169.516 22.7403 169.733 22.5093 170.008 22.346C170.288 22.1827 170.599 22.101 170.939 22.101C171.275 22.101 171.567 22.1733 171.814 22.318C172.062 22.4627 172.246 22.6447 172.367 22.864V22.164H173.011V26H172.367V25.286C172.241 25.51 172.052 25.6967 171.8 25.846C171.553 25.9907 171.264 26.063 170.932 26.063C170.592 26.063 170.284 25.979 170.008 25.811C169.733 25.643 169.516 25.4073 169.357 25.104C169.199 24.8007 169.119 24.4553 169.119 24.068ZM172.367 24.075C172.367 23.7857 172.309 23.5337 172.192 23.319C172.076 23.1043 171.917 22.941 171.716 22.829C171.52 22.7123 171.303 22.654 171.065 22.654C170.827 22.654 170.61 22.71 170.414 22.822C170.218 22.934 170.062 23.0973 169.945 23.312C169.829 23.5267 169.77 23.7787 169.77 24.068C169.77 24.362 169.829 24.6187 169.945 24.838C170.062 25.0527 170.218 25.2183 170.414 25.335C170.61 25.447 170.827 25.503 171.065 25.503C171.303 25.503 171.52 25.447 171.716 25.335C171.917 25.2183 172.076 25.0527 172.192 24.838C172.309 24.6187 172.367 24.3643 172.367 24.075ZM173.85 24.068C173.85 23.676 173.929 23.333 174.088 23.039C174.246 22.7403 174.463 22.5093 174.739 22.346C175.019 22.1827 175.331 22.101 175.677 22.101C175.975 22.101 176.253 22.171 176.51 22.311C176.766 22.4463 176.962 22.626 177.098 22.85V20.82H177.742V26H177.098V25.279C176.972 25.5077 176.785 25.6967 176.538 25.846C176.29 25.9907 176.001 26.063 175.67 26.063C175.329 26.063 175.019 25.979 174.739 25.811C174.463 25.643 174.246 25.4073 174.088 25.104C173.929 24.8007 173.85 24.4553 173.85 24.068ZM177.098 24.075C177.098 23.7857 177.039 23.5337 176.923 23.319C176.806 23.1043 176.647 22.941 176.447 22.829C176.251 22.7123 176.034 22.654 175.796 22.654C175.558 22.654 175.341 22.71 175.145 22.822C174.949 22.934 174.792 23.0973 174.676 23.312C174.559 23.5267 174.501 23.7787 174.501 24.068C174.501 24.362 174.559 24.6187 174.676 24.838C174.792 25.0527 174.949 25.2183 175.145 25.335C175.341 25.447 175.558 25.503 175.796 25.503C176.034 25.503 176.251 25.447 176.447 25.335C176.647 25.2183 176.806 25.0527 176.923 24.838C177.039 24.6187 177.098 24.3643 177.098 24.075Z" fill="black"/>
<path d="M54 14L48.2265 14.0019L51.1148 19.0009L54 14ZM9.25014 40.4329L50.3537 16.6842L49.8535 15.8183L8.74986 39.5671L9.25014 40.4329Z" fill="black"/>
<path d="M13.1315 51.2416L18.9049 51.2092L15.9901 46.2255L13.1315 51.2416ZM57.7476 24.5684L16.7635 48.5382L17.2683 49.4014L58.2524 25.4316L57.7476 24.5684Z" fill="black"/>
<line x1="160.5" y1="73" x2="160.5" y2="107" stroke="black" stroke-dasharray="2 2"/>
<line x1="160" y1="72.5" x2="127" y2="72.5" stroke="black" stroke-dasharray="2 2"/>
<path d="M161 72L155.468 73.653L159.666 77.6172L161 72ZM127.364 108.343L158.274 75.6149L157.547 74.9282L126.636 107.657L127.364 108.343Z" fill="#FF7F56"/>
<line x1="171" y1="107.5" x2="121" y2="107.5" stroke="black"/>
<line x1="127.5" y1="65" x2="127.5" y2="114" stroke="black"/>
<path d="M87.1948 75.7726C87.0135 75.4251 86.9251 75.0843 86.9297 74.7503C86.9322 74.4121 87.0177 74.1069 87.1862 73.8347C87.3589 73.5604 87.5983 73.3433 87.9044 73.1835C88.1692 73.0454 88.4477 72.9789 88.7401 72.9843C89.0302 72.9855 89.2871 73.0541 89.5107 73.1901L88.5715 71.3904L89.1424 71.0925L91.5391 75.6847L90.9682 75.9826L90.6346 75.3435C90.6287 75.6045 90.5506 75.8584 90.4004 76.1052C90.2481 76.3479 90.0251 76.5459 89.7313 76.6992C89.4293 76.8568 89.1153 76.9259 88.7894 76.9065C88.4676 76.885 88.1662 76.7765 87.8851 76.581C87.6041 76.3855 87.374 76.116 87.1948 75.7726ZM90.0775 74.2761C89.9436 74.0196 89.7753 73.8232 89.5726 73.6868C89.3698 73.5505 89.1536 73.4791 88.9239 73.4727C88.6961 73.4599 88.4768 73.5086 88.2658 73.6187C88.0548 73.7288 87.8883 73.8789 87.7664 74.0689C87.6444 74.2588 87.5814 74.476 87.5773 74.7203C87.5732 74.9646 87.6381 75.2149 87.772 75.4714C87.908 75.7321 88.0784 75.9326 88.2834 76.0731C88.4861 76.2094 88.7013 76.284 88.9291 76.2967C89.1547 76.3053 89.373 76.2546 89.5839 76.1444C89.7949 76.0343 89.9614 75.8843 90.0833 75.6943C90.2073 75.498 90.2713 75.2778 90.2754 75.0335C90.2773 74.785 90.2114 74.5326 90.0775 74.2761ZM90.722 71.0814C90.6144 71.1375 90.504 71.1478 90.3906 71.1122C90.2773 71.0766 90.1926 71.005 90.1364 70.8974C90.0803 70.7899 90.07 70.6794 90.1056 70.5661C90.1412 70.4527 90.2128 70.368 90.3204 70.3119C90.4238 70.2579 90.5301 70.2498 90.6393 70.2875C90.7527 70.3232 90.8374 70.3947 90.8935 70.5023C90.9497 70.6099 90.9599 70.7203 90.9243 70.8336C90.8929 70.9448 90.8254 71.0274 90.722 71.0814ZM91.2833 71.4912L93.0581 74.8919L92.4934 75.1866L90.7186 71.7859L91.2833 71.4912ZM93.0987 71.2465C93.0965 71.0002 93.1584 70.7758 93.2843 70.5732C93.4143 70.3685 93.6117 70.197 93.8765 70.0588L94.1809 70.6422L94.032 70.7199C93.399 71.0502 93.2617 71.5588 93.6202 72.2456L94.5853 74.0949L94.0206 74.3896L92.2457 70.9889L92.8105 70.6941L93.0987 71.2465ZM98.483 69.7313C98.5391 69.8389 98.5923 69.9559 98.6425 70.0824L95.9244 71.5009C96.12 71.8252 96.3709 72.0286 96.6771 72.1109C96.9852 72.187 97.2882 72.1473 97.5861 71.9918C97.8302 71.8644 98.0038 71.7028 98.1068 71.5069C98.2118 71.3047 98.2478 71.0911 98.2147 70.8663L98.8228 70.5489C98.9024 70.9232 98.8596 71.2851 98.6945 71.6344C98.5273 71.9796 98.2409 72.2581 97.8355 72.4697C97.5128 72.6381 97.1854 72.7168 96.8533 72.7059C96.5254 72.6928 96.2199 72.5916 95.937 72.4024C95.6518 72.2091 95.4175 71.9366 95.2339 71.5849C95.0504 71.2333 94.9599 70.8884 94.9624 70.5502C94.9648 70.212 95.0556 69.9067 95.2345 69.6343C95.4154 69.3557 95.6714 69.13 96.0024 68.9572C96.3251 68.7888 96.6472 68.7102 96.9689 68.7213C97.2905 68.7324 97.5823 68.8275 97.8442 69.0067C98.1081 69.1795 98.3211 69.4211 98.483 69.7313ZM97.8381 69.9179C97.7259 69.7027 97.5822 69.5435 97.4072 69.4401C97.23 69.3325 97.0381 69.2826 96.8316 69.2904C96.6271 69.2918 96.4255 69.3444 96.2269 69.448C95.9415 69.597 95.7449 69.8154 95.6372 70.1033C95.5336 70.3889 95.5515 70.7007 95.691 71.0385L97.8381 69.9179ZM99.0822 69.5765C98.8987 69.2249 98.8092 68.882 98.8139 68.548C98.8163 68.2098 98.9039 67.9035 99.0766 67.6292C99.2533 67.3527 99.5031 67.1302 99.8258 66.9618C100.244 66.7437 100.64 66.6659 101.015 66.7282C101.393 66.7885 101.72 66.9759 101.995 67.2904L101.387 67.6078C101.221 67.4312 101.022 67.3272 100.79 67.2957C100.562 67.2621 100.323 67.3101 100.075 67.4396C99.7525 67.608 99.5501 67.8558 99.4681 68.1828C99.384 68.5057 99.4477 68.8699 99.6593 69.2753C99.8731 69.6849 100.138 69.9496 100.453 70.0693C100.768 70.1891 101.087 70.1648 101.41 69.9964C101.658 69.8668 101.834 69.7009 101.939 69.4987C102.044 69.2965 102.072 69.0717 102.022 68.8242L102.63 68.5068C102.72 68.9018 102.684 69.276 102.521 69.6295C102.356 69.9789 102.068 70.2605 101.659 70.4742C101.336 70.6426 101.011 70.7203 100.683 70.7072C100.359 70.6919 100.058 70.5886 99.779 70.3973C99.5002 70.2059 99.2679 69.9323 99.0822 69.5765ZM103.11 65.9109L104.156 67.9154C104.243 68.0808 104.339 68.1804 104.446 68.214C104.551 68.2435 104.691 68.2129 104.864 68.1222L105.28 67.9052L105.53 68.3831L105.021 68.6486C104.706 68.8127 104.433 68.8634 104.2 68.8007C103.967 68.7379 103.764 68.541 103.592 68.2101L102.546 66.2056L102.105 66.4356L101.862 65.9702L102.303 65.7402L101.856 64.8838L102.42 64.5891L102.867 65.4455L103.755 64.9823L103.998 65.4478L103.11 65.9109ZM104.442 63.9207C104.335 63.9769 104.224 63.9871 104.111 63.9515C103.998 63.9159 103.913 63.8443 103.857 63.7368C103.801 63.6292 103.79 63.5188 103.826 63.4054C103.862 63.2921 103.933 63.2074 104.041 63.1512C104.144 63.0972 104.251 63.0891 104.36 63.1269C104.473 63.1625 104.558 63.2341 104.614 63.3416C104.67 63.4492 104.68 63.5597 104.645 63.673C104.613 63.7842 104.546 63.8667 104.442 63.9207ZM105.004 64.3305L106.779 67.7312L106.214 68.026L104.439 64.6253L105.004 64.3305ZM109.253 66.5107C108.935 66.677 108.607 66.7557 108.271 66.747C107.939 66.736 107.629 66.637 107.342 66.45C107.057 66.2566 106.823 65.9841 106.639 65.6325C106.458 65.285 106.373 64.94 106.383 64.5975C106.396 64.2486 106.496 63.9359 106.683 63.6592C106.868 63.3784 107.122 63.1538 107.445 62.9854C107.768 62.8169 108.097 62.7371 108.433 62.7459C108.767 62.7505 109.078 62.8464 109.365 63.0334C109.656 63.2183 109.894 63.4866 110.077 63.8382C110.261 64.1899 110.344 64.5412 110.327 64.8922C110.312 65.2368 110.21 65.5506 110.021 65.8336C109.832 66.1166 109.576 66.3423 109.253 66.5107ZM108.994 66.0143C109.197 65.9085 109.362 65.7616 109.491 65.5736C109.619 65.3856 109.687 65.1684 109.695 64.9219C109.708 64.6733 109.643 64.4125 109.5 64.1394C109.358 63.8664 109.183 63.6628 108.976 63.5286C108.769 63.3944 108.555 63.3272 108.334 63.3268C108.11 63.3224 107.897 63.373 107.695 63.4788C107.488 63.5868 107.322 63.7337 107.198 63.9195C107.076 64.0991 107.013 64.311 107.009 64.5553C107.005 64.7996 107.074 65.0582 107.216 65.3313C107.361 65.6085 107.533 65.8163 107.731 65.9548C107.934 66.0911 108.145 66.1626 108.364 66.1692C108.582 66.1717 108.791 66.1201 108.994 66.0143ZM111.56 60.8298C111.974 60.6138 112.375 60.5651 112.763 60.6836C113.149 60.798 113.465 61.091 113.711 61.5626L114.757 63.5671L114.199 63.8585L113.195 61.9348C113.018 61.5955 112.798 61.3812 112.536 61.2919C112.271 61.1984 111.992 61.2282 111.698 61.3815C111.4 61.537 111.211 61.7542 111.13 62.0333C111.054 62.3101 111.108 62.6264 111.294 62.9822L112.275 64.8626L111.71 65.1573L109.936 61.7566L110.5 61.4618L110.753 61.9459C110.774 61.7138 110.855 61.5006 110.995 61.3061C111.14 61.1094 111.328 60.9507 111.56 60.8298Z" fill="black"/>
<path d="M161 28L155.227 27.9642L158.082 32.982L161 28ZM38.2473 98.4346L157.336 30.6603L156.842 29.7912L37.7527 97.5654L38.2473 98.4346Z" fill="black"/>
<path d="M25.316 97.689V99.95C25.316 100.137 25.3557 100.27 25.435 100.349C25.5143 100.424 25.652 100.461 25.848 100.461H26.317V101H25.743C25.3883 101 25.1223 100.918 24.945 100.755C24.7677 100.592 24.679 100.323 24.679 99.95V97.689H24.182V97.164H24.679V96.198H25.316V97.164H26.317V97.689H25.316ZM26.8508 99.068C26.8508 98.676 26.9301 98.333 27.0888 98.039C27.2475 97.7403 27.4645 97.5093 27.7398 97.346C28.0198 97.1827 28.3301 97.101 28.6708 97.101C29.0068 97.101 29.2985 97.1733 29.5458 97.318C29.7931 97.4627 29.9775 97.6447 30.0988 97.864V97.164H30.7428V101H30.0988V100.286C29.9728 100.51 29.7838 100.697 29.5318 100.846C29.2845 100.991 28.9951 101.063 28.6638 101.063C28.3231 101.063 28.0151 100.979 27.7398 100.811C27.4645 100.643 27.2475 100.407 27.0888 100.104C26.9301 99.8007 26.8508 99.4553 26.8508 99.068ZM30.0988 99.075C30.0988 98.7857 30.0405 98.5337 29.9238 98.319C29.8071 98.1043 29.6485 97.941 29.4478 97.829C29.2518 97.7123 29.0348 97.654 28.7968 97.654C28.5588 97.654 28.3418 97.71 28.1458 97.822C27.9498 97.934 27.7935 98.0973 27.6768 98.312C27.5601 98.5267 27.5018 98.7787 27.5018 99.068C27.5018 99.362 27.5601 99.6187 27.6768 99.838C27.7935 100.053 27.9498 100.218 28.1458 100.335C28.3418 100.447 28.5588 100.503 28.7968 100.503C29.0348 100.503 29.2518 100.447 29.4478 100.335C29.6485 100.218 29.8071 100.053 29.9238 99.838C30.0405 99.6187 30.0988 99.3643 30.0988 99.075ZM32.1483 96.541C32.0269 96.541 31.9243 96.499 31.8403 96.415C31.7563 96.331 31.7143 96.2283 31.7143 96.107C31.7143 95.9857 31.7563 95.883 31.8403 95.799C31.9243 95.715 32.0269 95.673 32.1483 95.673C32.2649 95.673 32.3629 95.715 32.4423 95.799C32.5263 95.883 32.5683 95.9857 32.5683 96.107C32.5683 96.2283 32.5263 96.331 32.4423 96.415C32.3629 96.499 32.2649 96.541 32.1483 96.541ZM32.4563 97.164V101H31.8193V97.164H32.4563ZM34.1789 95.82V101H33.5419V95.82H34.1789Z" fill="black"/>
</svg>
